# Exported from the Unity project (studs, +Y up, character faces +Z). bounds x[-0.81,0.81] y[-0.99,0.99] z[-0.59,0.59]
v -0.81 -0.90237 0.4041
v -0.77508 -0.95536 0.4306
v -0.7858 -0.96727 0.4041
v -0.7858 -0.90237 0.43656
v -0.7858 -0.96727 -0.4041
v -0.78929 -0.21915 0.39003
v -0.76572 -0.21915 0.42938
v -0.81 -0.90237 -0.4041
v -0.77508 -0.95536 -0.4306
v -0.7858 -0.90237 -0.43656
v -0.76572 -0.21915 -0.42938
v -0.78929 -0.21915 -0.39003
v -0.7858 -0.01153 -0.47626
v -0.81 -0.01153 -0.43342
v -0.7858 0.90237 -0.57626
v -0.81 -0.01153 0.43342
v -0.7858 -0.01153 0.47626
v -0.81 0.90237 -0.53342
v -0.77508 0.95536 -0.5684
v -0.7858 0.96727 -0.53342
v -0.7858 0.96727 0.53342
v -0.81 0.90237 0.53342
v -0.7858 0.90237 0.57626
v -0.77508 0.95536 0.5684
v -0.72739 -0.90237 0.45
v -0.72739 -0.96727 0.43656
v -0.77508 -0.95536 0.4306
v -0.7858 -0.90237 0.43656
v -0.76572 -0.21915 0.42938
v 0.72739 -0.90237 0.45
v 0.72739 -0.96727 0.43656
v 0.77508 -0.95536 0.4306
v 0.7858 -0.90237 0.43656
v -0.70879 -0.21915 0.44568
v -0.7858 -0.01153 0.47626
v 0.70879 -0.21915 0.44568
v 0.76572 -0.21915 0.42938
v -0.72739 -0.01153 0.494
v -0.7858 0.90237 0.57626
v 0.72739 -0.01153 0.494
v 0.7858 -0.01153 0.47626
v -0.72739 0.90237 0.594
v -0.77508 0.95536 0.5684
v -0.72739 0.96727 0.57626
v 0.72739 0.96727 0.57626
v 0.72739 0.90237 0.594
v 0.7858 0.90237 0.57626
v 0.77508 0.95536 0.5684
v -0.72739 0.99416 0.53342
v -0.77508 0.95536 0.5684
v -0.7858 0.96727 0.53342
v -0.72739 0.96727 0.57626
v -0.7858 0.96727 -0.53342
v 0.72739 0.99416 0.53342
v 0.72739 0.96727 0.57626
v 0.77508 0.95536 0.5684
v 0.7858 0.96727 0.53342
v 0.72739 0.99416 -0.53342
v 0.7858 0.96727 -0.53342
v 0.77508 0.95536 -0.5684
v 0.72739 0.96727 -0.57626
v -0.72739 0.99416 -0.53342
v -0.77508 0.95536 -0.5684
v -0.72739 0.96727 -0.57626
v -0.72739 -0.99416 -0.4041
v -0.77508 -0.95536 -0.4306
v -0.7858 -0.96727 -0.4041
v -0.72739 -0.96727 -0.43656
v -0.7858 -0.96727 0.4041
v 0.72739 -0.99416 -0.4041
v 0.72739 -0.96727 -0.43656
v 0.77508 -0.95536 -0.4306
v 0.7858 -0.96727 -0.4041
v 0.72739 -0.99416 0.4041
v 0.7858 -0.96727 0.4041
v 0.77508 -0.95536 0.4306
v 0.72739 -0.96727 0.43656
v -0.72739 -0.99416 0.4041
v -0.77508 -0.95536 0.4306
v -0.72739 -0.96727 0.43656
v -0.72739 -0.90237 -0.45
v -0.7858 -0.90237 -0.43656
v -0.77508 -0.95536 -0.4306
v -0.72739 -0.96727 -0.43656
v 0.72739 -0.96727 -0.43656
v -0.70879 -0.21915 -0.44568
v -0.76572 -0.21915 -0.42938
v 0.72739 -0.90237 -0.45
v 0.77508 -0.95536 -0.4306
v 0.7858 -0.90237 -0.43656
v 0.76572 -0.21915 -0.42938
v 0.70879 -0.21915 -0.44568
v 0.7858 -0.01153 -0.47626
v 0.72739 -0.01153 -0.494
v 0.7858 0.90237 -0.57626
v -0.72739 -0.01153 -0.494
v -0.7858 -0.01153 -0.47626
v 0.72739 0.90237 -0.594
v 0.77508 0.95536 -0.5684
v 0.72739 0.96727 -0.57626
v -0.72739 0.96727 -0.57626
v -0.72739 0.90237 -0.594
v -0.7858 0.90237 -0.57626
v -0.77508 0.95536 -0.5684
v 0.81 -0.90237 -0.4041
v 0.77508 -0.95536 -0.4306
v 0.7858 -0.96727 -0.4041
v 0.7858 -0.90237 -0.43656
v 0.7858 -0.96727 0.4041
v 0.78929 -0.21915 -0.39003
v 0.76572 -0.21915 -0.42938
v 0.81 -0.90237 0.4041
v 0.77508 -0.95536 0.4306
v 0.7858 -0.90237 0.43656
v 0.76572 -0.21915 0.42938
v 0.78929 -0.21915 0.39003
v 0.7858 -0.01153 0.47626
v 0.81 -0.01153 0.43342
v 0.7858 0.90237 0.57626
v 0.81 -0.01153 -0.43342
v 0.7858 -0.01153 -0.47626
v 0.81 0.90237 0.53342
v 0.77508 0.95536 0.5684
v 0.7858 0.96727 0.53342
v 0.7858 0.96727 -0.53342
v 0.81 0.90237 -0.53342
v 0.7858 0.90237 -0.57626
v 0.77508 0.95536 -0.5684
vt 0.57975 0.10327
vt 0.58161 0.09955
vt 0.57975 0.09872
vt 0.58203 0.10327
vt 0.52306 0.09872
vt 0.57876 0.15119
vt 0.58152 0.15119
vt 0.52306 0.10327
vt 0.5212 0.09955
vt 0.52079 0.10327
vt 0.52129 0.15119
vt 0.52405 0.15119
vt 0.518 0.16575
vt 0.52101 0.16575
vt 0.51099 0.22985
vt 0.58181 0.16575
vt 0.58481 0.16575
vt 0.51399 0.22985
vt 0.51154 0.23357
vt 0.51399 0.23441
vt 0.58882 0.23441
vt 0.58882 0.22985
vt 0.59182 0.22985
vt 0.59127 0.23357
vt 0.60237 0.10327
vt 0.60237 0.09872
vt 0.59902 0.09955
vt 0.59827 0.10327
vt 0.59968 0.15119
vt 0.70441 0.10327
vt 0.70441 0.09872
vt 0.70775 0.09955
vt 0.7085 0.10327
vt 0.60367 0.15119
vt 0.59827 0.16575
vt 0.7031 0.15119
vt 0.7071 0.15119
vt 0.60237 0.16575
vt 0.59827 0.22985
vt 0.70441 0.16575
vt 0.7085 0.16575
vt 0.60237 0.22985
vt 0.59902 0.23357
vt 0.60237 0.23441
vt 0.70441 0.23441
vt 0.70441 0.22985
vt 0.7085 0.22985
vt 0.70775 0.23357
vt 0.60237 0.24405
vt 0.59902 0.24159
vt 0.59827 0.24405
vt 0.60237 0.24104
vt 0.59827 0.31888
vt 0.70441 0.24405
vt 0.70441 0.24104
vt 0.70775 0.24159
vt 0.7085 0.24405
vt 0.70441 0.31888
vt 0.7085 0.31888
vt 0.70775 0.32133
vt 0.70441 0.32188
vt 0.60237 0.31888
vt 0.59902 0.32133
vt 0.60237 0.32188
vt 0.60237 0.02332
vt 0.59902 0.02146
vt 0.59827 0.02332
vt 0.60237 0.02104
vt 0.59827 0.08001
vt 0.70441 0.02332
vt 0.70441 0.02104
vt 0.70775 0.02146
vt 0.7085 0.02332
vt 0.70441 0.08001
vt 0.7085 0.08001
vt 0.70775 0.08186
vt 0.70441 0.08228
vt 0.60237 0.08001
vt 0.59902 0.08186
vt 0.60237 0.08228
vt 0.90837 0.10327
vt 0.91247 0.10327
vt 0.91172 0.09955
vt 0.90837 0.09872
vt 0.80633 0.09872
vt 0.90707 0.15119
vt 0.91106 0.15119
vt 0.80633 0.10327
vt 0.80299 0.09955
vt 0.80224 0.10327
vt 0.80365 0.15119
vt 0.80764 0.15119
vt 0.80224 0.16575
vt 0.80633 0.16575
vt 0.80224 0.22985
vt 0.90837 0.16575
vt 0.91247 0.16575
vt 0.80633 0.22985
vt 0.80299 0.23357
vt 0.80633 0.23441
vt 0.90837 0.23441
vt 0.90837 0.22985
vt 0.91247 0.22985
vt 0.91172 0.23357
vt 0.78371 0.10327
vt 0.78557 0.09955
vt 0.78371 0.09872
vt 0.78599 0.10327
vt 0.72703 0.09872
vt 0.78273 0.15119
vt 0.78549 0.15119
vt 0.72703 0.10327
vt 0.72517 0.09955
vt 0.72475 0.10327
vt 0.72525 0.15119
vt 0.72801 0.15119
vt 0.72197 0.16575
vt 0.72497 0.16575
vt 0.71495 0.22985
vt 0.78577 0.16575
vt 0.78878 0.16575
vt 0.71796 0.22985
vt 0.7155 0.23357
vt 0.71796 0.23441
vt 0.79278 0.23441
vt 0.79278 0.22985
vt 0.79579 0.22985
vt 0.79524 0.23357
vn -0.9499 -0.1419 0.2786
vn -0.4832 -0.4393 0.7573
vn -0.6985 -0.6551 0.2878
vn -0.5778 -0.1055 0.8093
vn -0.6985 -0.6551 -0.2878
vn -0.9642 -0.0575 0.2589
vn -0.6002 -0.1056 0.7929
vn -0.9499 -0.1419 -0.2786
vn -0.4832 -0.4393 -0.7573
vn -0.5778 -0.1055 -0.8093
vn -0.6002 -0.1056 -0.7929
vn -0.9642 -0.0575 -0.2589
vn -0.6158 -0.1555 -0.7724
vn -0.9612 -0.0899 -0.2607
vn -0.6252 0.0936 -0.7748
vn -0.9612 -0.0899 0.2607
vn -0.6158 -0.1555 0.7724
vn -0.9588 0.1468 -0.2434
vn -0.5389 0.493 -0.683
vn -0.7094 0.6649 -0.2338
vn -0.7094 0.6649 0.2338
vn -0.9588 0.1468 0.2434
vn -0.6252 0.0936 0.7748
vn -0.5389 0.493 0.683
vn -0.1132 -0.0899 0.9895
vn -0.1361 -0.5301 0.8369
vn -0.4832 -0.4393 0.7573
vn -0.5778 -0.1055 0.8093
vn -0.6002 -0.1056 0.7929
vn 0.1132 -0.0899 0.9895
vn 0.1361 -0.5301 0.8369
vn 0.4832 -0.4393 0.7573
vn 0.5778 -0.1055 0.8093
vn -0.13 -0.1141 0.9849
vn -0.6158 -0.1555 0.7724
vn 0.13 -0.1141 0.9849
vn 0.6002 -0.1056 0.7929
vn -0.1459 -0.1708 0.9744
vn -0.6252 0.0936 0.7748
vn 0.1459 -0.1708 0.9744
vn 0.6158 -0.1555 0.7724
vn -0.1366 0.0702 0.9881
vn -0.5389 0.493 0.683
vn -0.1567 0.6011 0.7836
vn 0.1567 0.6011 0.7836
vn 0.1366 0.0702 0.9881
vn 0.6252 0.0936 0.7748
vn 0.5389 0.493 0.683
vn -0.1932 0.948 0.2529
vn -0.5389 0.493 0.683
vn -0.7094 0.6649 0.2338
vn -0.1567 0.6011 0.7836
vn -0.7094 0.6649 -0.2338
vn 0.1932 0.948 0.2529
vn 0.1567 0.6011 0.7836
vn 0.5389 0.493 0.683
vn 0.7094 0.6649 0.2338
vn 0.1932 0.948 -0.2529
vn 0.7094 0.6649 -0.2338
vn 0.5389 0.493 -0.683
vn 0.1567 0.6011 -0.7836
vn -0.1932 0.948 -0.2529
vn -0.5389 0.493 -0.683
vn -0.1567 0.6011 -0.7836
vn -0.1901 -0.9315 -0.31
vn -0.4832 -0.4393 -0.7573
vn -0.6985 -0.6551 -0.2878
vn -0.1361 -0.5301 -0.8369
vn -0.6985 -0.6551 0.2878
vn 0.1901 -0.9315 -0.31
vn 0.1361 -0.5301 -0.8369
vn 0.4832 -0.4393 -0.7573
vn 0.6985 -0.6551 -0.2878
vn 0.1901 -0.9315 0.31
vn 0.6985 -0.6551 0.2878
vn 0.4832 -0.4393 0.7573
vn 0.1361 -0.5301 0.8369
vn -0.1901 -0.9315 0.31
vn -0.4832 -0.4393 0.7573
vn -0.1361 -0.5301 0.8369
vn -0.1132 -0.0899 -0.9895
vn -0.5778 -0.1055 -0.8093
vn -0.4832 -0.4393 -0.7573
vn -0.1361 -0.5301 -0.8369
vn 0.1361 -0.5301 -0.8369
vn -0.13 -0.1141 -0.9849
vn -0.6002 -0.1056 -0.7929
vn 0.1132 -0.0899 -0.9895
vn 0.4832 -0.4393 -0.7573
vn 0.5778 -0.1055 -0.8093
vn 0.6002 -0.1056 -0.7929
vn 0.13 -0.1141 -0.9849
vn 0.6158 -0.1555 -0.7724
vn 0.1459 -0.1708 -0.9744
vn 0.6252 0.0936 -0.7748
vn -0.1459 -0.1708 -0.9744
vn -0.6158 -0.1555 -0.7724
vn 0.1366 0.0702 -0.9881
vn 0.5389 0.493 -0.683
vn 0.1567 0.6011 -0.7836
vn -0.1567 0.6011 -0.7836
vn -0.1366 0.0702 -0.9881
vn -0.6252 0.0936 -0.7748
vn -0.5389 0.493 -0.683
vn 0.9499 -0.1419 -0.2786
vn 0.4832 -0.4393 -0.7573
vn 0.6985 -0.6551 -0.2878
vn 0.5778 -0.1055 -0.8093
vn 0.6985 -0.6551 0.2878
vn 0.9642 -0.0575 -0.2589
vn 0.6002 -0.1056 -0.7929
vn 0.9499 -0.1419 0.2786
vn 0.4832 -0.4393 0.7573
vn 0.5778 -0.1055 0.8093
vn 0.6002 -0.1056 0.7929
vn 0.9642 -0.0575 0.2589
vn 0.6158 -0.1555 0.7724
vn 0.9612 -0.0899 0.2607
vn 0.6252 0.0936 0.7748
vn 0.9612 -0.0899 -0.2607
vn 0.6158 -0.1555 -0.7724
vn 0.9588 0.1468 0.2434
vn 0.5389 0.493 0.683
vn 0.7094 0.6649 0.2338
vn 0.7094 0.6649 -0.2338
vn 0.9588 0.1468 -0.2434
vn 0.6252 0.0936 -0.7748
vn 0.5389 0.493 -0.683
usemtl m0
f 1/1/1 3/3/3 2/2/2
f 1/1/1 2/2/2 4/4/4
f 5/5/5 3/3/3 1/1/1
f 4/4/4 6/6/6 1/1/1
f 4/4/4 7/7/7 6/6/6
f 5/5/5 1/1/1 8/8/8
f 8/8/8 9/9/9 5/5/5
f 8/8/8 10/10/10 9/9/9
f 11/11/11 10/10/10 8/8/8
f 1/1/1 12/12/12 8/8/8
f 11/11/11 8/8/8 12/12/12
f 1/1/1 6/6/6 12/12/12
f 13/13/13 11/11/11 12/12/12
f 13/13/13 12/12/12 14/14/14
f 6/6/6 14/14/14 12/12/12
f 15/15/15 13/13/13 14/14/14
f 7/7/7 16/16/16 6/6/6
f 6/6/6 16/16/16 14/14/14
f 7/7/7 17/17/17 16/16/16
f 15/15/15 14/14/14 18/18/18
f 16/16/16 18/18/18 14/14/14
f 18/18/18 19/19/19 15/15/15
f 18/18/18 20/20/20 19/19/19
f 21/21/21 20/20/20 18/18/18
f 17/17/17 22/22/22 16/16/16
f 16/16/16 22/22/22 18/18/18
f 21/21/21 18/18/18 22/22/22
f 17/17/17 23/23/23 22/22/22
f 22/22/22 24/24/24 21/21/21
f 22/22/22 23/23/23 24/24/24
f 25/25/25 27/27/27 26/26/26
f 25/25/25 28/28/28 27/27/27
f 25/25/25 29/29/29 28/28/28
f 26/26/26 30/30/30 25/25/25
f 26/26/26 31/31/31 30/30/30
f 30/30/30 31/31/31 32/32/32
f 30/30/30 32/32/32 33/33/33
f 25/25/25 34/34/34 29/29/29
f 30/30/30 34/34/34 25/25/25
f 34/34/34 35/35/35 29/29/29
f 36/36/36 30/30/30 33/33/33
f 30/30/30 36/36/36 34/34/34
f 36/36/36 33/33/33 37/37/37
f 34/34/34 38/38/38 35/35/35
f 36/36/36 38/38/38 34/34/34
f 38/38/38 39/39/39 35/35/35
f 40/40/40 36/36/36 37/37/37
f 36/36/36 40/40/40 38/38/38
f 40/40/40 37/37/37 41/41/41
f 38/38/38 42/42/42 39/39/39
f 40/40/40 42/42/42 38/38/38
f 42/42/42 43/43/43 39/39/39
f 42/42/42 44/44/44 43/43/43
f 45/45/45 44/44/44 42/42/42
f 46/46/46 40/40/40 41/41/41
f 40/40/40 46/46/46 42/42/42
f 45/45/45 42/42/42 46/46/46
f 46/46/46 41/41/41 47/47/47
f 46/46/46 48/48/48 45/45/45
f 46/46/46 47/47/47 48/48/48
f 49/49/49 51/51/51 50/50/50
f 49/49/49 50/50/50 52/52/52
f 49/49/49 53/53/53 51/51/51
f 54/54/54 49/49/49 52/52/52
f 54/54/54 52/52/52 55/55/55
f 54/54/54 55/55/55 56/56/56
f 54/54/54 56/56/56 57/57/57
f 58/58/58 54/54/54 57/57/57
f 58/58/58 49/49/49 54/54/54
f 58/58/58 57/57/57 59/59/59
f 58/58/58 59/59/59 60/60/60
f 58/58/58 60/60/60 61/61/61
f 49/49/49 62/62/62 53/53/53
f 58/58/58 62/62/62 49/49/49
f 62/62/62 58/58/58 61/61/61
f 62/62/62 63/63/63 53/53/53
f 62/62/62 61/61/61 64/64/64
f 62/62/62 64/64/64 63/63/63
f 65/65/65 67/67/67 66/66/66
f 65/65/65 66/66/66 68/68/68
f 65/65/65 69/69/69 67/67/67
f 70/70/70 65/65/65 68/68/68
f 70/70/70 68/68/68 71/71/71
f 70/70/70 71/71/71 72/72/72
f 70/70/70 72/72/72 73/73/73
f 74/74/74 70/70/70 73/73/73
f 65/65/65 70/70/70 74/74/74
f 74/74/74 73/73/73 75/75/75
f 74/74/74 75/75/75 76/76/76
f 74/74/74 76/76/76 77/77/77
f 65/65/65 78/78/78 69/69/69
f 65/65/65 74/74/74 78/78/78
f 78/78/78 74/74/74 77/77/77
f 78/78/78 79/79/79 69/69/69
f 78/78/78 77/77/77 80/80/80
f 78/78/78 80/80/80 79/79/79
f 81/81/81 83/83/83 82/82/82
f 81/81/81 84/84/84 83/83/83
f 85/85/85 84/84/84 81/81/81
f 86/86/86 81/81/81 82/82/82
f 86/86/86 82/82/82 87/87/87
f 85/85/85 81/81/81 88/88/88
f 88/88/88 89/89/89 85/85/85
f 88/88/88 90/90/90 89/89/89
f 91/91/91 90/90/90 88/88/88
f 81/81/81 92/92/92 88/88/88
f 91/91/91 88/88/88 92/92/92
f 81/81/81 86/86/86 92/92/92
f 93/93/93 91/91/91 92/92/92
f 93/93/93 92/92/92 94/94/94
f 86/86/86 94/94/94 92/92/92
f 95/95/95 93/93/93 94/94/94
f 96/96/96 86/86/86 87/87/87
f 86/86/86 96/96/96 94/94/94
f 96/96/96 87/87/87 97/97/97
f 95/95/95 94/94/94 98/98/98
f 96/96/96 98/98/98 94/94/94
f 98/98/98 99/99/99 95/95/95
f 98/98/98 100/100/100 99/99/99
f 101/101/101 100/100/100 98/98/98
f 102/102/102 96/96/96 97/97/97
f 96/96/96 102/102/102 98/98/98
f 101/101/101 98/98/98 102/102/102
f 102/102/102 97/97/97 103/103/103
f 102/102/102 104/104/104 101/101/101
f 102/102/102 103/103/103 104/104/104
f 105/105/105 107/107/107 106/106/106
f 105/105/105 106/106/106 108/108/108
f 109/109/109 107/107/107 105/105/105
f 110/110/110 105/105/105 108/108/108
f 110/110/110 108/108/108 111/111/111
f 109/109/109 105/105/105 112/112/112
f 112/112/112 113/113/113 109/109/109
f 112/112/112 114/114/114 113/113/113
f 115/115/115 114/114/114 112/112/112
f 105/105/105 116/116/116 112/112/112
f 115/115/115 112/112/112 116/116/116
f 105/105/105 110/110/110 116/116/116
f 117/117/117 115/115/115 116/116/116
f 117/117/117 116/116/116 118/118/118
f 110/110/110 118/118/118 116/116/116
f 119/119/119 117/117/117 118/118/118
f 120/120/120 110/110/110 111/111/111
f 110/110/110 120/120/120 118/118/118
f 120/120/120 111/111/111 121/121/121
f 119/119/119 118/118/118 122/122/122
f 120/120/120 122/122/122 118/118/118
f 122/122/122 123/123/123 119/119/119
f 122/122/122 124/124/124 123/123/123
f 125/125/125 124/124/124 122/122/122
f 126/126/126 120/120/120 121/121/121
f 120/120/120 126/126/126 122/122/122
f 125/125/125 122/122/122 126/126/126
f 126/126/126 121/121/121 127/127/127
f 126/126/126 128/128/128 125/125/125
f 126/126/126 127/127/127 128/128/128
