# Exported from the Unity project (studs, +Y up, character faces +Z). bounds x[-0.55,0.55] y[0.92,2.08] z[-0.55,0.55]
v -0.4908 1.94132 0.20932
v -0.47199 1.99899 0
v -0.44011 1.99634 0.19087
v -0.52685 1.94213 0
v -0.44011 1.99634 -0.19087
v -0.4908 1.94132 -0.20932
v -0.50979 1.87391 0.21757
v -0.54711 1.87402 0
v -0.39786 1.87381 0.39786
v -0.38287 1.94051 0.38287
v -0.4 1.8 0.4
v -0.5125 1.8 0.21875
v -0.4 1.725 0.4
v -0.50979 1.87391 -0.21757
v -0.38287 1.94051 -0.38287
v -0.39786 1.87381 -0.39786
v -0.5125 1.725 0.21875
v -0.4 1.65 0.4
v -0.55 1.8 0
v -0.5125 1.8 -0.21875
v -0.4 1.8 -0.4
v -0.5125 1.65 0.21875
v -0.4 1.575 0.4
v -0.55 1.725 0
v -0.5125 1.725 -0.21875
v -0.4 1.725 -0.4
v -0.5125 1.575 0.21875
v -0.4 1.5 0.4
v -0.55 1.65 0
v -0.5125 1.65 -0.21875
v -0.4 1.65 -0.4
v -0.5125 1.5 0.21875
v -0.4 1.425 0.4
v -0.55 1.575 0
v -0.5125 1.575 -0.21875
v -0.4 1.575 -0.4
v -0.5125 1.425 0.21875
v -0.4 1.35 0.4
v -0.55 1.5 0
v -0.5125 1.5 -0.21875
v -0.4 1.5 -0.4
v -0.5125 1.35 0.21875
v -0.4 1.275 0.4
v -0.55 1.425 0
v -0.5125 1.425 -0.21875
v -0.4 1.425 -0.4
v -0.5125 1.275 0.21875
v -0.4 1.2 0.4
v -0.55 1.35 0
v -0.5125 1.35 -0.21875
v -0.4 1.35 -0.4
v -0.5125 1.2 0.21875
v -0.39786 1.12619 0.39786
v -0.55 1.275 0
v -0.5125 1.275 -0.21875
v -0.4 1.275 -0.4
v -0.50979 1.12608 0.21757
v -0.38287 1.05949 0.38287
v -0.4908 1.05868 0.20932
v -0.55 1.2 0
v -0.5125 1.2 -0.21875
v -0.4 1.2 -0.4
v -0.54711 1.12598 0
v -0.50979 1.12609 -0.21757
v -0.39786 1.12619 -0.39786
v -0.52685 1.05787 0
v -0.44011 1.00366 0.19087
v -0.47199 1.00101 0
v -0.4908 1.05868 -0.20932
v -0.38287 1.05949 -0.38287
v -0.44011 1.00366 -0.19087
v -0.38287 1.94051 0.38287
v -0.4908 1.94132 0.20932
v -0.44011 1.99634 0.19087
v -0.3459 1.99331 0.3459
v -0.20932 1.94132 0.4908
v -0.19087 1.99634 0.44011
v -0.34376 2.03594 0.17799
v -0.3 2.025 0.3
v -0.17799 2.03594 0.34376
v 0 1.99899 0.47199
v -0.36574 2.04143 0
v -0.47199 1.99899 0
v -0.18969 2.05935 0.18969
v 0 2.04144 0.36574
v 0.19087 1.99634 0.44011
v -0.34376 2.03594 -0.17799
v -0.44011 1.99634 -0.19087
v -0.19988 2.06727 0
v 0 2.06727 0.19988
v -0.18969 2.05935 -0.18969
v 0 2.07593 0
v 0 2.06727 -0.19988
v -0.3 2.025 -0.3
v -0.17799 2.03594 -0.34376
v -0.3459 1.99331 -0.3459
v -0.4908 1.94132 -0.20932
v -0.38287 1.94051 -0.38287
v -0.19087 1.99634 -0.44011
v -0.20932 1.94132 -0.4908
v 0 2.04143 -0.36574
v 0 1.99899 -0.47199
v 0.17799 2.03594 -0.34376
v 0.19087 1.99634 -0.44011
v 0.18969 2.05935 -0.18969
v 0.3 2.025 -0.3
v 0.19988 2.06727 0
v 0.3459 1.99331 -0.3459
v 0.20932 1.94132 -0.4908
v 0.38287 1.94051 -0.38287
v 0.34376 2.03594 -0.17799
v 0.44011 1.99634 -0.19087
v 0.4908 1.94132 -0.20932
v 0.36574 2.04143 0
v 0.47199 1.99899 0
v 0.18969 2.05935 0.18969
v 0.34376 2.03594 0.17799
v 0.44011 1.99634 0.19087
v 0.17799 2.03594 0.34376
v 0.3 2.025 0.3
v 0.3459 1.99331 0.3459
v 0.4908 1.94132 0.20932
v 0.38287 1.94051 0.38287
v 0.20932 1.94132 0.4908
v -0.20932 1.94132 -0.4908
v 0 1.99899 -0.47199
v -0.19087 1.99634 -0.44011
v 0 1.94213 -0.52685
v 0.19087 1.99634 -0.44011
v 0.20932 1.94132 -0.4908
v -0.21757 1.87391 -0.50979
v 0 1.87402 -0.54711
v -0.39786 1.87381 -0.39786
v -0.38287 1.94051 -0.38287
v -0.4 1.8 -0.4
v -0.21875 1.8 -0.5125
v -0.4 1.725 -0.4
v 0.21757 1.87391 -0.50979
v 0.38287 1.94051 -0.38287
v 0.39786 1.87381 -0.39786
v -0.21875 1.725 -0.5125
v -0.4 1.65 -0.4
v 0 1.8 -0.55
v 0.21875 1.8 -0.5125
v 0.4 1.8 -0.4
v -0.21875 1.65 -0.5125
v -0.4 1.575 -0.4
v 0 1.725 -0.55
v 0.21875 1.725 -0.5125
v 0.4 1.725 -0.4
v -0.21875 1.575 -0.5125
v -0.4 1.5 -0.4
v 0 1.65 -0.55
v 0.21875 1.65 -0.5125
v 0.4 1.65 -0.4
v -0.21875 1.5 -0.5125
v -0.4 1.425 -0.4
v 0 1.575 -0.55
v 0.21875 1.575 -0.5125
v 0.4 1.575 -0.4
v -0.21875 1.425 -0.5125
v -0.4 1.35 -0.4
v 0 1.5 -0.55
v 0.21875 1.5 -0.5125
v 0.4 1.5 -0.4
v -0.21875 1.35 -0.5125
v -0.4 1.275 -0.4
v 0 1.425 -0.55
v 0.21875 1.425 -0.5125
v 0.4 1.425 -0.4
v -0.21875 1.275 -0.5125
v -0.4 1.2 -0.4
v 0 1.35 -0.55
v 0.21875 1.35 -0.5125
v 0.4 1.35 -0.4
v -0.21875 1.2 -0.5125
v -0.39786 1.12619 -0.39786
v 0 1.275 -0.55
v 0.21875 1.275 -0.5125
v 0.4 1.275 -0.4
v -0.21757 1.12609 -0.50979
v -0.38287 1.05949 -0.38287
v -0.20932 1.05868 -0.4908
v 0 1.2 -0.55
v 0.21875 1.2 -0.5125
v 0.4 1.2 -0.4
v 0 1.12598 -0.54711
v 0.21757 1.12609 -0.50979
v 0.39786 1.12619 -0.39786
v 0 1.05787 -0.52685
v -0.19087 1.00366 -0.44011
v 0 1.00101 -0.47199
v 0.20932 1.05868 -0.4908
v 0.38287 1.05949 -0.38287
v 0.19087 1.00366 -0.44011
v 0.4908 1.94132 -0.20932
v 0.47199 1.99899 0
v 0.44011 1.99634 -0.19087
v 0.52685 1.94213 0
v 0.44011 1.99634 0.19087
v 0.4908 1.94132 0.20932
v 0.50979 1.87391 -0.21757
v 0.54711 1.87402 0
v 0.39786 1.87381 -0.39786
v 0.38287 1.94051 -0.38287
v 0.4 1.8 -0.4
v 0.5125 1.8 -0.21875
v 0.4 1.725 -0.4
v 0.50979 1.87391 0.21757
v 0.38287 1.94051 0.38287
v 0.39786 1.87381 0.39786
v 0.5125 1.725 -0.21875
v 0.4 1.65 -0.4
v 0.55 1.8 0
v 0.5125 1.8 0.21875
v 0.4 1.8 0.4
v 0.5125 1.65 -0.21875
v 0.4 1.575 -0.4
v 0.55 1.725 0
v 0.5125 1.725 0.21875
v 0.4 1.725 0.4
v 0.5125 1.575 -0.21875
v 0.4 1.5 -0.4
v 0.55 1.65 0
v 0.5125 1.65 0.21875
v 0.4 1.65 0.4
v 0.5125 1.5 -0.21875
v 0.4 1.425 -0.4
v 0.55 1.575 0
v 0.5125 1.575 0.21875
v 0.4 1.575 0.4
v 0.5125 1.425 -0.21875
v 0.4 1.35 -0.4
v 0.55 1.5 0
v 0.5125 1.5 0.21875
v 0.4 1.5 0.4
v 0.5125 1.35 -0.21875
v 0.4 1.275 -0.4
v 0.55 1.425 0
v 0.5125 1.425 0.21875
v 0.4 1.425 0.4
v 0.5125 1.275 -0.21875
v 0.4 1.2 -0.4
v 0.55 1.35 0
v 0.5125 1.35 0.21875
v 0.4 1.35 0.4
v 0.5125 1.2 -0.21875
v 0.39786 1.12619 -0.39786
v 0.55 1.275 0
v 0.5125 1.275 0.21875
v 0.4 1.275 0.4
v 0.50979 1.12609 -0.21757
v 0.38287 1.05949 -0.38287
v 0.4908 1.05868 -0.20932
v 0.55 1.2 0
v 0.5125 1.2 0.21875
v 0.4 1.2 0.4
v 0.54711 1.12598 0
v 0.50979 1.12609 0.21757
v 0.39786 1.12619 0.39786
v 0.52685 1.05787 0
v 0.44011 1.00366 -0.19087
v 0.47199 1.00101 0
v 0.4908 1.05868 0.20932
v 0.38287 1.05949 0.38287
v 0.44011 1.00366 0.19087
v 0.20932 1.94132 0.4908
v 0 1.99899 0.47199
v 0.19087 1.99634 0.44011
v 0 1.94213 0.52685
v -0.19087 1.99634 0.44011
v -0.20932 1.94132 0.4908
v 0.21757 1.87391 0.50979
v 0 1.87402 0.54711
v 0.39786 1.87381 0.39786
v 0.38287 1.94051 0.38287
v 0.4 1.8 0.4
v 0.21875 1.8 0.5125
v 0.4 1.725 0.4
v -0.21757 1.87391 0.50979
v -0.38287 1.94051 0.38287
v -0.39786 1.87381 0.39786
v 0.21875 1.725 0.5125
v 0.4 1.65 0.4
v 0 1.8 0.55
v -0.21875 1.8 0.5125
v -0.4 1.8 0.4
v 0.21875 1.65 0.5125
v 0.4 1.575 0.4
v 0 1.725 0.55
v -0.21875 1.725 0.5125
v -0.4 1.725 0.4
v 0.21875 1.575 0.5125
v 0.4 1.5 0.4
v 0 1.65 0.55
v -0.21875 1.65 0.5125
v -0.4 1.65 0.4
v 0.21875 1.5 0.5125
v 0.4 1.425 0.4
v 0 1.575 0.55
v -0.21875 1.575 0.5125
v -0.4 1.575 0.4
v 0.21875 1.425 0.5125
v 0.4 1.35 0.4
v 0 1.5 0.55
v -0.21875 1.5 0.5125
v -0.4 1.5 0.4
v 0.21875 1.35 0.5125
v 0.4 1.275 0.4
v 0 1.425 0.55
v -0.21875 1.425 0.5125
v -0.4 1.425 0.4
v 0.21875 1.275 0.5125
v 0.4 1.2 0.4
v 0 1.35 0.55
v -0.21875 1.35 0.5125
v -0.4 1.35 0.4
v 0.21875 1.2 0.5125
v 0.39786 1.12619 0.39786
v 0 1.275 0.55
v -0.21875 1.275 0.5125
v -0.4 1.275 0.4
v 0.21757 1.12609 0.50979
v 0.38287 1.05949 0.38287
v 0.20932 1.05868 0.4908
v 0 1.2 0.55
v -0.21875 1.2 0.5125
v -0.4 1.2 0.4
v 0 1.12598 0.54711
v -0.21757 1.12608 0.50979
v -0.39786 1.12619 0.39786
v 0 1.05787 0.52685
v 0.19087 1.00366 0.44011
v 0 1.00101 0.47199
v -0.20932 1.05868 0.4908
v -0.38287 1.05949 0.38287
v -0.19087 1.00366 0.44011
v -0.44011 1.00366 -0.19087
v -0.38287 1.05949 -0.38287
v -0.4908 1.05868 -0.20932
v -0.3459 1.00669 -0.3459
v -0.20932 1.05868 -0.4908
v -0.19087 1.00366 -0.44011
v -0.34376 0.96406 -0.17799
v -0.3 0.975 -0.3
v -0.17799 0.96406 -0.34376
v 0 1.00101 -0.47199
v -0.36574 0.95856 0
v -0.47199 1.00101 0
v -0.18969 0.94065 -0.18969
v 0 0.95856 -0.36574
v 0.19087 1.00366 -0.44011
v -0.19988 0.93273 0
v -0.34376 0.96406 0.17799
v -0.44011 1.00366 0.19087
v 0 0.93273 -0.19988
v 0 0.92407 0
v -0.18969 0.94065 0.18969
v 0 0.93273 0.19988
v -0.3 0.975 0.3
v -0.17799 0.96406 0.34376
v -0.3459 1.00669 0.3459
v -0.4908 1.05868 0.20932
v -0.38287 1.05949 0.38287
v -0.19087 1.00366 0.44011
v -0.20932 1.05868 0.4908
v 0 0.95856 0.36574
v 0 1.00101 0.47199
v 0.17799 0.96406 0.34376
v 0.19087 1.00366 0.44011
v 0.18969 0.94065 0.18969
v 0.3 0.975 0.3
v 0.19988 0.93273 0
v 0.3459 1.00669 0.3459
v 0.20932 1.05868 0.4908
v 0.38287 1.05949 0.38287
v 0.34376 0.96406 0.17799
v 0.44011 1.00366 0.19087
v 0.4908 1.05868 0.20932
v 0.36574 0.95856 0
v 0.47199 1.00101 0
v 0.18969 0.94065 -0.18969
v 0.34376 0.96406 -0.17799
v 0.44011 1.00366 -0.19087
v 0.17799 0.96406 -0.34376
v 0.3 0.975 -0.3
v 0.3459 1.00669 -0.3459
v 0.4908 1.05868 -0.20932
v 0.38287 1.05949 -0.38287
v 0.20932 1.05868 -0.4908
vt 0.05382 0.9012
vt 0.07092 0.95362
vt 0.0999 0.95122
vt 0.02104 0.90194
vt 0.0999 0.95122
vt 0.05382 0.9012
vt 0.03656 0.83992
vt 0.00263 0.84001
vt 0.13831 0.83983
vt 0.15194 0.90046
vt 0.13636 0.77273
vt 0.03409 0.77273
vt 0.13636 0.70455
vt 0.03656 0.83992
vt 0.15194 0.90046
vt 0.13831 0.83983
vt 0.03409 0.70455
vt 0.13636 0.63636
vt 0 0.77273
vt 0.03409 0.77273
vt 0.13636 0.77273
vt 0.03409 0.63636
vt 0.13636 0.56818
vt 0 0.70455
vt 0.03409 0.70455
vt 0.13636 0.70455
vt 0.03409 0.56818
vt 0.13636 0.5
vt 0 0.63636
vt 0.03409 0.63636
vt 0.13636 0.63636
vt 0.03409 0.5
vt 0.13636 0.43182
vt 0 0.56818
vt 0.03409 0.56818
vt 0.13636 0.56818
vt 0.03409 0.43182
vt 0.13636 0.36364
vt 0 0.5
vt 0.03409 0.5
vt 0.13636 0.5
vt 0.03409 0.36364
vt 0.13636 0.29545
vt 0 0.43182
vt 0.03409 0.43182
vt 0.13636 0.43182
vt 0.03409 0.29545
vt 0.13636 0.22727
vt 0 0.36364
vt 0.03409 0.36364
vt 0.13636 0.36364
vt 0.03409 0.22727
vt 0.13831 0.16017
vt 0 0.29545
vt 0.03409 0.29545
vt 0.13636 0.29545
vt 0.03656 0.16008
vt 0.15194 0.09954
vt 0.05382 0.0988
vt 0 0.22727
vt 0.03409 0.22727
vt 0.13636 0.22727
vt 0.00263 0.15999
vt 0.03656 0.16008
vt 0.13831 0.16017
vt 0.02104 0.09806
vt 0.0999 0.04878
vt 0.07092 0.04638
vt 0.05382 0.0988
vt 0.15194 0.09954
vt 0.0999 0.04878
vt 0.15194 0.90046
vt 0.05382 0.9012
vt 0.0999 0.95122
vt 0.18554 0.94846
vt 0.30971 0.9012
vt 0.32648 0.95122
vt 0.18749 0.98722
vt 0.22727 0.97727
vt 0.33819 0.98722
vt 0.5 0.95362
vt 0.16751 0.99221
vt 0.07092 0.95362
vt 0.32755 1.0085
vt 0.5 0.99221
vt 0.67352 0.95122
vt 0.18749 0.98722
vt 0.0999 0.95122
vt 0.31829 1.0157
vt 0.5 1.0157
vt 0.32755 1.0085
vt 0.5 1.02357
vt 0.5 1.0157
vt 0.22727 0.97727
vt 0.33819 0.98722
vt 0.18554 0.94846
vt 0.05382 0.9012
vt 0.15194 0.90046
vt 0.32648 0.95122
vt 0.30971 0.9012
vt 0.5 0.99221
vt 0.5 0.95362
vt 0.66181 0.98722
vt 0.67352 0.95122
vt 0.67245 1.0085
vt 0.77273 0.97727
vt 0.68171 1.0157
vt 0.81446 0.94846
vt 0.69029 0.9012
vt 0.84806 0.90046
vt 0.81251 0.98722
vt 0.9001 0.95122
vt 0.94618 0.9012
vt 0.83249 0.99221
vt 0.92908 0.95362
vt 0.67245 1.0085
vt 0.81251 0.98722
vt 0.9001 0.95122
vt 0.66181 0.98722
vt 0.77273 0.97727
vt 0.81446 0.94846
vt 0.94618 0.9012
vt 0.84806 0.90046
vt 0.69029 0.9012
vt 0.30971 0.9012
vt 0.5 0.95362
vt 0.32648 0.95122
vt 0.5 0.90194
vt 0.67352 0.95122
vt 0.69029 0.9012
vt 0.30221 0.83992
vt 0.5 0.84001
vt 0.13831 0.83983
vt 0.15194 0.90046
vt 0.13636 0.77273
vt 0.30114 0.77273
vt 0.13636 0.70455
vt 0.69779 0.83992
vt 0.84806 0.90046
vt 0.86169 0.83983
vt 0.30114 0.70455
vt 0.13636 0.63636
vt 0.5 0.77273
vt 0.69886 0.77273
vt 0.86364 0.77273
vt 0.30114 0.63636
vt 0.13636 0.56818
vt 0.5 0.70455
vt 0.69886 0.70455
vt 0.86364 0.70455
vt 0.30114 0.56818
vt 0.13636 0.5
vt 0.5 0.63636
vt 0.69886 0.63636
vt 0.86364 0.63636
vt 0.30114 0.5
vt 0.13636 0.43182
vt 0.5 0.56818
vt 0.69886 0.56818
vt 0.86364 0.56818
vt 0.30114 0.43182
vt 0.13636 0.36364
vt 0.5 0.5
vt 0.69886 0.5
vt 0.86364 0.5
vt 0.30114 0.36364
vt 0.13636 0.29545
vt 0.5 0.43182
vt 0.69886 0.43182
vt 0.86364 0.43182
vt 0.30114 0.29545
vt 0.13636 0.22727
vt 0.5 0.36364
vt 0.69886 0.36364
vt 0.86364 0.36364
vt 0.30114 0.22727
vt 0.13831 0.16017
vt 0.5 0.29545
vt 0.69886 0.29545
vt 0.86364 0.29545
vt 0.30221 0.16008
vt 0.15194 0.09954
vt 0.30971 0.0988
vt 0.5 0.22727
vt 0.69886 0.22727
vt 0.86364 0.22727
vt 0.5 0.15999
vt 0.69779 0.16008
vt 0.86169 0.16017
vt 0.5 0.09806
vt 0.32648 0.04878
vt 0.5 0.04638
vt 0.69029 0.0988
vt 0.84806 0.09954
vt 0.67352 0.04878
vt 0.94618 0.9012
vt 0.92908 0.95362
vt 0.9001 0.95122
vt 0.97896 0.90194
vt 0.9001 0.95122
vt 0.94618 0.9012
vt 0.96344 0.83992
vt 0.99737 0.84001
vt 0.86169 0.83983
vt 0.84806 0.90046
vt 0.86364 0.77273
vt 0.96591 0.77273
vt 0.86364 0.70455
vt 0.96344 0.83992
vt 0.84806 0.90046
vt 0.86169 0.83983
vt 0.96591 0.70455
vt 0.86364 0.63636
vt 1 0.77273
vt 0.96591 0.77273
vt 0.86364 0.77273
vt 0.96591 0.63636
vt 0.86364 0.56818
vt 1 0.70455
vt 0.96591 0.70455
vt 0.86364 0.70455
vt 0.96591 0.56818
vt 0.86364 0.5
vt 1 0.63636
vt 0.96591 0.63636
vt 0.86364 0.63636
vt 0.96591 0.5
vt 0.86364 0.43182
vt 1 0.56818
vt 0.96591 0.56818
vt 0.86364 0.56818
vt 0.96591 0.43182
vt 0.86364 0.36364
vt 1 0.5
vt 0.96591 0.5
vt 0.86364 0.5
vt 0.96591 0.36364
vt 0.86364 0.29545
vt 1 0.43182
vt 0.96591 0.43182
vt 0.86364 0.43182
vt 0.96591 0.29545
vt 0.86364 0.22727
vt 1 0.36364
vt 0.96591 0.36364
vt 0.86364 0.36364
vt 0.96591 0.22727
vt 0.86169 0.16017
vt 1 0.29545
vt 0.96591 0.29545
vt 0.86364 0.29545
vt 0.96344 0.16008
vt 0.84806 0.09954
vt 0.94618 0.0988
vt 1 0.22727
vt 0.96591 0.22727
vt 0.86364 0.22727
vt 0.99737 0.15999
vt 0.96344 0.16008
vt 0.86169 0.16017
vt 0.97896 0.09806
vt 0.9001 0.04878
vt 0.92908 0.04638
vt 0.94618 0.0988
vt 0.84806 0.09954
vt 0.9001 0.04878
vt 0.69029 0.9012
vt 0.5 0.95362
vt 0.67352 0.95122
vt 0.5 0.90194
vt 0.32648 0.95122
vt 0.30971 0.9012
vt 0.69779 0.83992
vt 0.5 0.84001
vt 0.86169 0.83983
vt 0.84806 0.90046
vt 0.86364 0.77273
vt 0.69886 0.77273
vt 0.86364 0.70455
vt 0.30221 0.83992
vt 0.15194 0.90046
vt 0.13831 0.83983
vt 0.69886 0.70455
vt 0.86364 0.63636
vt 0.5 0.77273
vt 0.30114 0.77273
vt 0.13636 0.77273
vt 0.69886 0.63636
vt 0.86364 0.56818
vt 0.5 0.70455
vt 0.30114 0.70455
vt 0.13636 0.70455
vt 0.69886 0.56818
vt 0.86364 0.5
vt 0.5 0.63636
vt 0.30114 0.63636
vt 0.13636 0.63636
vt 0.69886 0.5
vt 0.86364 0.43182
vt 0.5 0.56818
vt 0.30114 0.56818
vt 0.13636 0.56818
vt 0.69886 0.43182
vt 0.86364 0.36364
vt 0.5 0.5
vt 0.30114 0.5
vt 0.13636 0.5
vt 0.69886 0.36364
vt 0.86364 0.29545
vt 0.5 0.43182
vt 0.30114 0.43182
vt 0.13636 0.43182
vt 0.69886 0.29545
vt 0.86364 0.22727
vt 0.5 0.36364
vt 0.30114 0.36364
vt 0.13636 0.36364
vt 0.69886 0.22727
vt 0.86169 0.16017
vt 0.5 0.29545
vt 0.30114 0.29545
vt 0.13636 0.29545
vt 0.69779 0.16008
vt 0.84806 0.09954
vt 0.69029 0.0988
vt 0.5 0.22727
vt 0.30114 0.22727
vt 0.13636 0.22727
vt 0.5 0.15999
vt 0.30221 0.16008
vt 0.13831 0.16017
vt 0.5 0.09806
vt 0.67352 0.04878
vt 0.5 0.04638
vt 0.30971 0.0988
vt 0.15194 0.09954
vt 0.32648 0.04878
vt 0.0999 0.04878
vt 0.15194 0.09954
vt 0.05382 0.0988
vt 0.18554 0.05154
vt 0.30971 0.0988
vt 0.32648 0.04878
vt 0.18749 0.01278
vt 0.22727 0.02273
vt 0.33819 0.01278
vt 0.5 0.04638
vt 0.16751 0.00779
vt 0.07092 0.04638
vt 0.32755 -0.0085
vt 0.5 0.00779
vt 0.67352 0.04878
vt 0.31829 -0.0157
vt 0.18749 0.01278
vt 0.0999 0.04878
vt 0.5 -0.0157
vt 0.5 -0.02357
vt 0.32755 -0.0085
vt 0.5 -0.0157
vt 0.22727 0.02273
vt 0.33819 0.01278
vt 0.18554 0.05154
vt 0.05382 0.0988
vt 0.15194 0.09954
vt 0.32648 0.04878
vt 0.30971 0.0988
vt 0.5 0.00779
vt 0.5 0.04638
vt 0.66181 0.01278
vt 0.67352 0.04878
vt 0.67245 -0.0085
vt 0.77273 0.02273
vt 0.68171 -0.0157
vt 0.81446 0.05154
vt 0.69029 0.0988
vt 0.84806 0.09954
vt 0.81251 0.01278
vt 0.9001 0.04878
vt 0.94618 0.0988
vt 0.83249 0.00779
vt 0.92908 0.04638
vt 0.67245 -0.0085
vt 0.81251 0.01278
vt 0.9001 0.04878
vt 0.66181 0.01278
vt 0.77273 0.02273
vt 0.81446 0.05154
vt 0.94618 0.0988
vt 0.84806 0.09954
vt 0.69029 0.0988
vn -0.8102 0.4984 0.3085
vn -0.5701 0.8216 0
vn -0.5418 0.8144 0.2079
vn -0.8681 0.4964 0
vn -0.5418 0.8144 -0.2079
vn -0.8102 0.4984 -0.3085
vn -0.9217 0.1655 0.3509
vn -0.9867 0.1625 0
vn -0.697 0.1689 0.697
vn -0.612 0.5008 0.612
vn -0.707 0.0203 0.707
vn -0.9347 0.0199 0.3548
vn -0.7071 0 0.7071
vn -0.9217 0.1655 -0.3509
vn -0.612 0.5008 -0.612
vn -0.697 0.1689 -0.697
vn -0.935 0 0.3547
vn -0.7071 0 0.7071
vn -0.9998 0.0196 0
vn -0.9347 0.0199 -0.3548
vn -0.707 0.0203 -0.707
vn -0.935 0 0.3547
vn -0.7071 0 0.7071
vn -1 0 0
vn -0.935 0 -0.3547
vn -0.7071 0 -0.7071
vn -0.935 0 0.3547
vn -0.7071 0 0.7071
vn -1 0 0
vn -0.935 0 -0.3547
vn -0.7071 0 -0.7071
vn -0.935 0 0.3547
vn -0.7071 0 0.7071
vn -1 0 0
vn -0.935 0 -0.3547
vn -0.7071 0 -0.7071
vn -0.935 0 0.3547
vn -0.7071 0 0.7071
vn -1 0 0
vn -0.935 0 -0.3547
vn -0.7071 0 -0.7071
vn -0.935 0 0.3547
vn -0.7071 0 0.7071
vn -1 0 0
vn -0.935 0 -0.3547
vn -0.7071 0 -0.7071
vn -0.935 0 0.3547
vn -0.707 -0.0203 0.707
vn -1 0 0
vn -0.935 0 -0.3547
vn -0.7071 0 -0.7071
vn -0.9347 -0.0199 0.3548
vn -0.697 -0.1689 0.697
vn -1 0 0
vn -0.935 0 -0.3547
vn -0.7071 0 -0.7071
vn -0.9217 -0.1655 0.3509
vn -0.612 -0.5008 0.612
vn -0.8102 -0.4984 0.3085
vn -0.9998 -0.0196 0
vn -0.9347 -0.0199 -0.3548
vn -0.707 -0.0203 -0.707
vn -0.9867 -0.1625 0
vn -0.9217 -0.1655 -0.3509
vn -0.697 -0.1689 -0.697
vn -0.8681 -0.4964 0
vn -0.5418 -0.8144 0.2079
vn -0.5701 -0.8216 0
vn -0.8102 -0.4984 -0.3085
vn -0.612 -0.5008 -0.612
vn -0.5418 -0.8144 -0.2079
vn -0.612 0.5008 0.612
vn -0.8102 0.4984 0.3085
vn -0.5418 0.8144 0.2079
vn -0.4187 0.8058 0.4187
vn -0.3085 0.4984 0.8102
vn -0.2079 0.8144 0.5418
vn -0.2681 0.9553 0.1248
vn -0.2443 0.9384 0.2443
vn -0.1248 0.9553 0.2681
vn 0 0.8216 0.5701
vn -0.2719 0.9623 0
vn -0.5701 0.8216 0
vn -0.1 0.9899 0.1
vn 0 0.9623 0.2719
vn 0.2079 0.8144 0.5418
vn -0.2681 0.9553 -0.1248
vn -0.5418 0.8144 -0.2079
vn -0.1007 0.9949 0
vn 0 0.9949 0.1007
vn -0.1 0.9899 -0.1
vn 0 1 0
vn 0 0.9949 -0.1007
vn -0.2443 0.9384 -0.2443
vn -0.1248 0.9553 -0.2681
vn -0.4187 0.8058 -0.4187
vn -0.8102 0.4984 -0.3085
vn -0.612 0.5008 -0.612
vn -0.2079 0.8144 -0.5418
vn -0.3085 0.4984 -0.8102
vn 0 0.9623 -0.2719
vn 0 0.8216 -0.5701
vn 0.1248 0.9553 -0.2681
vn 0.2079 0.8144 -0.5418
vn 0.1 0.9899 -0.1
vn 0.2443 0.9384 -0.2443
vn 0.1007 0.9949 0
vn 0.4187 0.8058 -0.4187
vn 0.3085 0.4984 -0.8102
vn 0.612 0.5008 -0.612
vn 0.2681 0.9553 -0.1248
vn 0.5418 0.8144 -0.2079
vn 0.8102 0.4984 -0.3085
vn 0.2719 0.9623 0
vn 0.5701 0.8216 0
vn 0.1 0.9899 0.1
vn 0.2681 0.9553 0.1248
vn 0.5418 0.8144 0.2079
vn 0.1248 0.9553 0.2681
vn 0.2443 0.9384 0.2443
vn 0.4187 0.8058 0.4187
vn 0.8102 0.4984 0.3085
vn 0.612 0.5008 0.612
vn 0.3085 0.4984 0.8102
vn -0.3085 0.4984 -0.8102
vn 0 0.8216 -0.5701
vn -0.2079 0.8144 -0.5418
vn 0 0.4964 -0.8681
vn 0.2079 0.8144 -0.5418
vn 0.3085 0.4984 -0.8102
vn -0.3509 0.1655 -0.9217
vn 0 0.1625 -0.9867
vn -0.697 0.1689 -0.697
vn -0.612 0.5008 -0.612
vn -0.707 0.0203 -0.707
vn -0.3548 0.0199 -0.9347
vn -0.7071 0 -0.7071
vn 0.3509 0.1655 -0.9217
vn 0.612 0.5008 -0.612
vn 0.697 0.1689 -0.697
vn -0.3547 0 -0.935
vn -0.7071 0 -0.7071
vn 0 0.0196 -0.9998
vn 0.3548 0.0199 -0.9347
vn 0.707 0.0203 -0.707
vn -0.3547 0 -0.935
vn -0.7071 0 -0.7071
vn 0 0 -1
vn 0.3547 0 -0.935
vn 0.7071 0 -0.7071
vn -0.3547 0 -0.935
vn -0.7071 0 -0.7071
vn 0 0 -1
vn 0.3547 0 -0.935
vn 0.7071 0 -0.7071
vn -0.3547 0 -0.935
vn -0.7071 0 -0.7071
vn 0 0 -1
vn 0.3547 0 -0.935
vn 0.7071 0 -0.7071
vn -0.3547 0 -0.935
vn -0.7071 0 -0.7071
vn 0 0 -1
vn 0.3547 0 -0.935
vn 0.7071 0 -0.7071
vn -0.3547 0 -0.935
vn -0.7071 0 -0.7071
vn 0 0 -1
vn 0.3547 0 -0.935
vn 0.7071 0 -0.7071
vn -0.3547 0 -0.935
vn -0.707 -0.0203 -0.707
vn 0 0 -1
vn 0.3547 0 -0.935
vn 0.7071 0 -0.7071
vn -0.3548 -0.0199 -0.9347
vn -0.697 -0.1689 -0.697
vn 0 0 -1
vn 0.3547 0 -0.935
vn 0.7071 0 -0.7071
vn -0.3509 -0.1655 -0.9217
vn -0.612 -0.5008 -0.612
vn -0.3085 -0.4984 -0.8102
vn 0 -0.0196 -0.9998
vn 0.3548 -0.0199 -0.9347
vn 0.707 -0.0203 -0.707
vn 0 -0.1625 -0.9867
vn 0.3509 -0.1655 -0.9217
vn 0.697 -0.1689 -0.697
vn 0 -0.4964 -0.8681
vn -0.2079 -0.8144 -0.5418
vn 0 -0.8216 -0.5701
vn 0.3085 -0.4984 -0.8102
vn 0.612 -0.5008 -0.612
vn 0.2079 -0.8144 -0.5418
vn 0.8102 0.4984 -0.3085
vn 0.5701 0.8216 0
vn 0.5418 0.8144 -0.2079
vn 0.8681 0.4964 0
vn 0.5418 0.8144 0.2079
vn 0.8102 0.4984 0.3085
vn 0.9217 0.1655 -0.3509
vn 0.9867 0.1625 0
vn 0.697 0.1689 -0.697
vn 0.612 0.5008 -0.612
vn 0.707 0.0203 -0.707
vn 0.9347 0.0199 -0.3548
vn 0.7071 0 -0.7071
vn 0.9217 0.1655 0.3509
vn 0.612 0.5008 0.612
vn 0.697 0.1689 0.697
vn 0.935 0 -0.3547
vn 0.7071 0 -0.7071
vn 0.9998 0.0196 0
vn 0.9347 0.0199 0.3548
vn 0.707 0.0203 0.707
vn 0.935 0 -0.3547
vn 0.7071 0 -0.7071
vn 1 0 0
vn 0.935 0 0.3547
vn 0.7071 0 0.7071
vn 0.935 0 -0.3547
vn 0.7071 0 -0.7071
vn 1 0 0
vn 0.935 0 0.3547
vn 0.7071 0 0.7071
vn 0.935 0 -0.3547
vn 0.7071 0 -0.7071
vn 1 0 0
vn 0.935 0 0.3547
vn 0.7071 0 0.7071
vn 0.935 0 -0.3547
vn 0.7071 0 -0.7071
vn 1 0 0
vn 0.935 0 0.3547
vn 0.7071 0 0.7071
vn 0.935 0 -0.3547
vn 0.7071 0 -0.7071
vn 1 0 0
vn 0.935 0 0.3547
vn 0.7071 0 0.7071
vn 0.935 0 -0.3547
vn 0.707 -0.0203 -0.707
vn 1 0 0
vn 0.935 0 0.3547
vn 0.7071 0 0.7071
vn 0.9347 -0.0199 -0.3548
vn 0.697 -0.1689 -0.697
vn 1 0 0
vn 0.935 0 0.3547
vn 0.7071 0 0.7071
vn 0.9217 -0.1655 -0.3509
vn 0.612 -0.5008 -0.612
vn 0.8102 -0.4984 -0.3085
vn 0.9998 -0.0196 0
vn 0.9347 -0.0199 0.3548
vn 0.707 -0.0203 0.707
vn 0.9867 -0.1625 0
vn 0.9217 -0.1655 0.3509
vn 0.697 -0.1689 0.697
vn 0.8681 -0.4964 0
vn 0.5418 -0.8144 -0.2079
vn 0.5701 -0.8216 0
vn 0.8102 -0.4984 0.3085
vn 0.612 -0.5008 0.612
vn 0.5418 -0.8144 0.2079
vn 0.3085 0.4984 0.8102
vn 0 0.8216 0.5701
vn 0.2079 0.8144 0.5418
vn 0 0.4964 0.8681
vn -0.2079 0.8144 0.5418
vn -0.3085 0.4984 0.8102
vn 0.3509 0.1655 0.9217
vn 0 0.1625 0.9867
vn 0.697 0.1689 0.697
vn 0.612 0.5008 0.612
vn 0.707 0.0203 0.707
vn 0.3548 0.0199 0.9347
vn 0.7071 0 0.7071
vn -0.3509 0.1655 0.9217
vn -0.612 0.5008 0.612
vn -0.697 0.1689 0.697
vn 0.3547 0 0.935
vn 0.7071 0 0.7071
vn 0 0.0196 0.9998
vn -0.3548 0.0199 0.9347
vn -0.707 0.0203 0.707
vn 0.3547 0 0.935
vn 0.7071 0 0.7071
vn 0 0 1
vn -0.3547 0 0.935
vn -0.7071 0 0.7071
vn 0.3547 0 0.935
vn 0.7071 0 0.7071
vn 0 0 1
vn -0.3547 0 0.935
vn -0.7071 0 0.7071
vn 0.3547 0 0.935
vn 0.7071 0 0.7071
vn 0 0 1
vn -0.3547 0 0.935
vn -0.7071 0 0.7071
vn 0.3547 0 0.935
vn 0.7071 0 0.7071
vn 0 0 1
vn -0.3547 0 0.935
vn -0.7071 0 0.7071
vn 0.3547 0 0.935
vn 0.7071 0 0.7071
vn 0 0 1
vn -0.3547 0 0.935
vn -0.7071 0 0.7071
vn 0.3547 0 0.935
vn 0.707 -0.0203 0.707
vn 0 0 1
vn -0.3547 0 0.935
vn -0.7071 0 0.7071
vn 0.3548 -0.0199 0.9347
vn 0.697 -0.1689 0.697
vn 0 0 1
vn -0.3547 0 0.935
vn -0.7071 0 0.7071
vn 0.3509 -0.1655 0.9217
vn 0.612 -0.5008 0.612
vn 0.3085 -0.4984 0.8102
vn 0 -0.0196 0.9998
vn -0.3548 -0.0199 0.9347
vn -0.707 -0.0203 0.707
vn 0 -0.1625 0.9867
vn -0.3509 -0.1655 0.9217
vn -0.697 -0.1689 0.697
vn 0 -0.4964 0.8681
vn 0.2079 -0.8144 0.5418
vn 0 -0.8216 0.5701
vn -0.3085 -0.4984 0.8102
vn -0.612 -0.5008 0.612
vn -0.2079 -0.8144 0.5418
vn -0.5418 -0.8144 -0.2079
vn -0.612 -0.5008 -0.612
vn -0.8102 -0.4984 -0.3085
vn -0.4187 -0.8058 -0.4187
vn -0.3085 -0.4984 -0.8102
vn -0.2079 -0.8144 -0.5418
vn -0.2681 -0.9553 -0.1248
vn -0.2443 -0.9384 -0.2443
vn -0.1248 -0.9553 -0.2681
vn 0 -0.8216 -0.5701
vn -0.2719 -0.9623 0
vn -0.5701 -0.8216 0
vn -0.1 -0.9899 -0.1
vn 0 -0.9623 -0.2719
vn 0.2079 -0.8144 -0.5418
vn -0.1007 -0.9949 0
vn -0.2681 -0.9553 0.1248
vn -0.5418 -0.8144 0.2079
vn 0 -0.9949 -0.1007
vn 0 -1 0
vn -0.1 -0.9899 0.1
vn 0 -0.9949 0.1007
vn -0.2443 -0.9384 0.2443
vn -0.1248 -0.9553 0.2681
vn -0.4187 -0.8058 0.4187
vn -0.8102 -0.4984 0.3085
vn -0.612 -0.5008 0.612
vn -0.2079 -0.8144 0.5418
vn -0.3085 -0.4984 0.8102
vn 0 -0.9623 0.2719
vn 0 -0.8216 0.5701
vn 0.1248 -0.9553 0.2681
vn 0.2079 -0.8144 0.5418
vn 0.1 -0.9899 0.1
vn 0.2443 -0.9384 0.2443
vn 0.1007 -0.9949 0
vn 0.4187 -0.8058 0.4187
vn 0.3085 -0.4984 0.8102
vn 0.612 -0.5008 0.612
vn 0.2681 -0.9553 0.1248
vn 0.5418 -0.8144 0.2079
vn 0.8102 -0.4984 0.3085
vn 0.2719 -0.9623 0
vn 0.5701 -0.8216 0
vn 0.1 -0.9899 -0.1
vn 0.2681 -0.9553 -0.1248
vn 0.5418 -0.8144 -0.2079
vn 0.1248 -0.9553 -0.2681
vn 0.2443 -0.9384 -0.2443
vn 0.4187 -0.8058 -0.4187
vn 0.8102 -0.4984 -0.3085
vn 0.612 -0.5008 -0.612
vn 0.3085 -0.4984 -0.8102
usemtl m0
f 9/9/9 1/1/1 7/7/7
f 9/9/9 10/10/10 1/1/1
f 11/11/11 9/9/9 7/7/7
f 11/11/11 7/7/7 12/12/12
f 13/13/13 11/11/11 12/12/12
f 13/13/13 12/12/12 17/17/17
f 18/18/18 13/13/13 17/17/17
f 18/18/18 17/17/17 22/22/22
f 23/23/23 18/18/18 22/22/22
f 23/23/23 22/22/22 27/27/27
f 28/28/28 23/23/23 27/27/27
f 28/28/28 27/27/27 32/32/32
f 33/33/33 28/28/28 32/32/32
f 33/33/33 32/32/32 37/37/37
f 38/38/38 33/33/33 37/37/37
f 38/38/38 37/37/37 42/42/42
f 43/43/43 38/38/38 42/42/42
f 43/43/43 42/42/42 47/47/47
f 48/48/48 43/43/43 47/47/47
f 48/48/48 47/47/47 52/52/52
f 53/53/53 48/48/48 52/52/52
f 53/53/53 52/52/52 57/57/57
f 58/58/58 53/53/53 57/57/57
f 58/58/58 57/57/57 59/59/59
f 72/72/72 74/74/74 73/73/73
f 72/72/72 75/75/75 74/74/74
f 76/76/76 75/75/75 72/72/72
f 76/76/76 77/77/77 75/75/75
f 75/75/75 78/78/78 74/74/74
f 77/77/77 79/79/79 75/75/75
f 75/75/75 79/79/79 78/78/78
f 77/77/77 80/80/80 79/79/79
f 81/81/81 80/80/80 77/77/77
f 84/84/84 78/78/78 79/79/79
f 84/84/84 79/79/79 80/80/80
f 81/81/81 85/85/85 80/80/80
f 86/86/86 85/85/85 81/81/81
f 90/90/90 84/84/84 80/80/80
f 90/90/90 80/80/80 85/85/85
f 116/116/116 90/90/90 85/85/85
f 116/116/116 85/85/85 119/119/119
f 117/117/117 116/116/116 119/119/119
f 86/86/86 119/119/119 85/85/85
f 118/118/118 117/117/117 120/120/120
f 117/117/117 119/119/119 120/120/120
f 118/118/118 120/120/120 121/121/121
f 121/121/121 120/120/120 119/119/119
f 121/121/121 119/119/119 86/86/86
f 122/122/122 118/118/118 121/121/121
f 122/122/122 121/121/121 123/123/123
f 123/123/123 121/121/121 86/86/86
f 123/123/123 86/86/86 124/124/124
f 209/209/209 201/201/201 210/210/210
f 209/209/209 210/210/210 211/211/211
f 215/215/215 209/209/209 211/211/211
f 215/215/215 211/211/211 216/216/216
f 220/220/220 215/215/215 216/216/216
f 220/220/220 216/216/216 221/221/221
f 225/225/225 220/220/220 221/221/221
f 225/225/225 221/221/221 226/226/226
f 230/230/230 225/225/225 226/226/226
f 230/230/230 226/226/226 231/231/231
f 235/235/235 230/230/230 231/231/231
f 235/235/235 231/231/231 236/236/236
f 240/240/240 235/235/235 236/236/236
f 240/240/240 236/236/236 241/241/241
f 245/245/245 240/240/240 241/241/241
f 245/245/245 241/241/241 246/246/246
f 250/250/250 245/245/245 246/246/246
f 250/250/250 246/246/246 251/251/251
f 256/256/256 250/250/250 251/251/251
f 256/256/256 251/251/251 257/257/257
f 259/259/259 256/256/256 257/257/257
f 259/259/259 257/257/257 260/260/260
f 264/264/264 259/259/259 260/260/260
f 264/264/264 260/260/260 265/265/265
f 267/267/267 269/269/269 268/268/268
f 267/267/267 268/268/268 270/270/270
f 270/270/270 268/268/268 271/271/271
f 270/270/270 271/271/271 272/272/272
f 273/273/273 267/267/267 270/270/270
f 274/274/274 270/270/270 272/272/272
f 273/273/273 270/270/270 274/274/274
f 275/275/275 267/267/267 273/273/273
f 275/275/275 276/276/276 267/267/267
f 277/277/277 275/275/275 273/273/273
f 277/277/277 273/273/273 278/278/278
f 278/278/278 273/273/273 274/274/274
f 279/279/279 277/277/277 278/278/278
f 274/274/274 272/272/272 280/280/280
f 280/280/280 272/272/272 281/281/281
f 280/280/280 281/281/281 282/282/282
f 279/279/279 278/278/278 283/283/283
f 284/284/284 279/279/279 283/283/283
f 278/278/278 274/274/274 285/285/285
f 285/285/285 274/274/274 280/280/280
f 283/283/283 278/278/278 285/285/285
f 286/286/286 280/280/280 282/282/282
f 285/285/285 280/280/280 286/286/286
f 286/286/286 282/282/282 287/287/287
f 284/284/284 283/283/283 288/288/288
f 289/289/289 284/284/284 288/288/288
f 283/283/283 285/285/285 290/290/290
f 290/290/290 285/285/285 286/286/286
f 288/288/288 283/283/283 290/290/290
f 291/291/291 286/286/286 287/287/287
f 290/290/290 286/286/286 291/291/291
f 291/291/291 287/287/287 292/292/292
f 289/289/289 288/288/288 293/293/293
f 294/294/294 289/289/289 293/293/293
f 288/288/288 290/290/290 295/295/295
f 295/295/295 290/290/290 291/291/291
f 293/293/293 288/288/288 295/295/295
f 296/296/296 291/291/291 292/292/292
f 295/295/295 291/291/291 296/296/296
f 296/296/296 292/292/292 297/297/297
f 294/294/294 293/293/293 298/298/298
f 299/299/299 294/294/294 298/298/298
f 293/293/293 295/295/295 300/300/300
f 300/300/300 295/295/295 296/296/296
f 298/298/298 293/293/293 300/300/300
f 301/301/301 296/296/296 297/297/297
f 300/300/300 296/296/296 301/301/301
f 301/301/301 297/297/297 302/302/302
f 299/299/299 298/298/298 303/303/303
f 304/304/304 299/299/299 303/303/303
f 298/298/298 300/300/300 305/305/305
f 305/305/305 300/300/300 301/301/301
f 303/303/303 298/298/298 305/305/305
f 306/306/306 301/301/301 302/302/302
f 305/305/305 301/301/301 306/306/306
f 306/306/306 302/302/302 307/307/307
f 304/304/304 303/303/303 308/308/308
f 309/309/309 304/304/304 308/308/308
f 303/303/303 305/305/305 310/310/310
f 310/310/310 305/305/305 306/306/306
f 308/308/308 303/303/303 310/310/310
f 311/311/311 306/306/306 307/307/307
f 310/310/310 306/306/306 311/311/311
f 311/311/311 307/307/307 312/312/312
f 309/309/309 308/308/308 313/313/313
f 314/314/314 309/309/309 313/313/313
f 308/308/308 310/310/310 315/315/315
f 315/315/315 310/310/310 311/311/311
f 313/313/313 308/308/308 315/315/315
f 316/316/316 311/311/311 312/312/312
f 315/315/315 311/311/311 316/316/316
f 316/316/316 312/312/312 317/317/317
f 314/314/314 313/313/313 318/318/318
f 319/319/319 314/314/314 318/318/318
f 313/313/313 315/315/315 320/320/320
f 320/320/320 315/315/315 316/316/316
f 318/318/318 313/313/313 320/320/320
f 321/321/321 316/316/316 317/317/317
f 320/320/320 316/316/316 321/321/321
f 321/321/321 317/317/317 322/322/322
f 319/319/319 318/318/318 323/323/323
f 324/324/324 319/319/319 323/323/323
f 324/324/324 323/323/323 325/325/325
f 318/318/318 320/320/320 326/326/326
f 326/326/326 320/320/320 321/321/321
f 323/323/323 318/318/318 326/326/326
f 327/327/327 321/321/321 322/322/322
f 326/326/326 321/321/321 327/327/327
f 327/327/327 322/322/322 328/328/328
f 323/323/323 326/326/326 329/329/329
f 325/325/325 323/323/323 329/329/329
f 329/329/329 326/326/326 327/327/327
f 330/330/330 327/327/327 328/328/328
f 329/329/329 327/327/327 330/330/330
f 330/330/330 328/328/328 331/331/331
f 325/325/325 329/329/329 332/332/332
f 332/332/332 329/329/329 330/330/330
f 333/333/333 325/325/325 332/332/332
f 333/333/333 332/332/332 334/334/334
f 335/335/335 330/330/330 331/331/331
f 332/332/332 330/330/330 335/335/335
f 334/334/334 332/332/332 335/335/335
f 335/335/335 331/331/331 336/336/336
f 334/334/334 335/335/335 337/337/337
f 360/360/360 355/355/355 354/354/354
f 354/354/354 358/358/358 361/361/361
f 354/354/354 361/361/361 360/360/360
f 360/360/360 362/362/362 355/355/355
f 361/361/361 362/362/362 360/360/360
f 362/362/362 363/363/363 355/355/355
f 362/362/362 364/364/364 363/363/363
f 365/365/365 364/364/364 362/362/362
f 361/361/361 365/365/365 362/362/362
f 365/365/365 366/366/366 364/364/364
f 358/358/358 367/367/367 361/361/361
f 367/367/367 365/365/365 361/361/361
f 358/358/358 359/359/359 367/367/367
f 367/367/367 368/368/368 365/365/365
f 369/369/369 368/368/368 367/367/367
f 359/359/359 369/369/369 367/367/367
f 369/369/369 370/370/370 368/368/368
f 359/359/359 371/371/371 369/369/369
f 372/372/372 370/370/370 369/369/369
f 371/371/371 372/372/372 369/369/369
f 372/372/372 374/374/374 370/370/370
f 374/374/374 375/375/375 370/370/370
f 374/374/374 376/376/376 375/375/375
f 371/371/371 377/377/377 372/372/372
f 377/377/377 374/374/374 372/372/372
f 378/378/378 376/376/376 374/374/374
f 377/377/377 378/378/378 374/374/374
f 378/378/378 379/379/379 376/376/376
