# Exported from the Unity project (studs, +Y up, character faces +Z). bounds x[-0.55,0.55] y[0.92,2.08] z[-0.55,0.55]
v -0.4908 1.94132 0.20932
v -0.47199 1.99899 0
v -0.44011 1.99634 0.19087
v -0.52685 1.94213 0
v -0.44011 1.99634 -0.19087
v -0.4908 1.94132 -0.20932
v -0.50979 1.87391 0.21757
v -0.54711 1.87402 0
v -0.39786 1.87381 0.39786
v -0.38287 1.94051 0.38287
v -0.4 1.8 0.4
v -0.5125 1.8 0.21875
v -0.4 1.725 0.4
v -0.50979 1.87391 -0.21757
v -0.38287 1.94051 -0.38287
v -0.39786 1.87381 -0.39786
v -0.5125 1.725 0.21875
v -0.4 1.65 0.4
v -0.55 1.8 0
v -0.5125 1.8 -0.21875
v -0.4 1.8 -0.4
v -0.5125 1.65 0.21875
v -0.4 1.575 0.4
v -0.55 1.725 0
v -0.5125 1.725 -0.21875
v -0.4 1.725 -0.4
v -0.5125 1.575 0.21875
v -0.4 1.5 0.4
v -0.55 1.65 0
v -0.5125 1.65 -0.21875
v -0.4 1.65 -0.4
v -0.5125 1.5 0.21875
v -0.4 1.425 0.4
v -0.55 1.575 0
v -0.5125 1.575 -0.21875
v -0.4 1.575 -0.4
v -0.5125 1.425 0.21875
v -0.4 1.35 0.4
v -0.55 1.5 0
v -0.5125 1.5 -0.21875
v -0.4 1.5 -0.4
v -0.5125 1.35 0.21875
v -0.4 1.275 0.4
v -0.55 1.425 0
v -0.5125 1.425 -0.21875
v -0.4 1.425 -0.4
v -0.5125 1.275 0.21875
v -0.4 1.2 0.4
v -0.55 1.35 0
v -0.5125 1.35 -0.21875
v -0.4 1.35 -0.4
v -0.5125 1.2 0.21875
v -0.39786 1.12619 0.39786
v -0.55 1.275 0
v -0.5125 1.275 -0.21875
v -0.4 1.275 -0.4
v -0.50979 1.12608 0.21757
v -0.38287 1.05949 0.38287
v -0.4908 1.05868 0.20932
v -0.55 1.2 0
v -0.5125 1.2 -0.21875
v -0.4 1.2 -0.4
v -0.54711 1.12598 0
v -0.50979 1.12609 -0.21757
v -0.39786 1.12619 -0.39786
v -0.52685 1.05787 0
v -0.44011 1.00366 0.19087
v -0.47199 1.00101 0
v -0.4908 1.05868 -0.20932
v -0.38287 1.05949 -0.38287
v -0.44011 1.00366 -0.19087
v -0.38287 1.94051 0.38287
v -0.4908 1.94132 0.20932
v -0.44011 1.99634 0.19087
v -0.3459 1.99331 0.3459
v -0.20932 1.94132 0.4908
v -0.19087 1.99634 0.44011
v -0.34376 2.03594 0.17799
v -0.3 2.025 0.3
v -0.17799 2.03594 0.34376
v 0 1.99899 0.47199
v -0.36574 2.04143 0
v -0.47199 1.99899 0
v -0.18969 2.05935 0.18969
v 0 2.04144 0.36574
v 0.19087 1.99634 0.44011
v -0.34376 2.03594 -0.17799
v -0.44011 1.99634 -0.19087
v -0.19988 2.06727 0
v 0 2.06727 0.19988
v -0.18969 2.05935 -0.18969
v 0 2.07593 0
v 0 2.06727 -0.19988
v -0.3 2.025 -0.3
v -0.17799 2.03594 -0.34376
v -0.3459 1.99331 -0.3459
v -0.4908 1.94132 -0.20932
v -0.38287 1.94051 -0.38287
v -0.19087 1.99634 -0.44011
v -0.20932 1.94132 -0.4908
v 0 2.04143 -0.36574
v 0 1.99899 -0.47199
v 0.17799 2.03594 -0.34376
v 0.19087 1.99634 -0.44011
v 0.18969 2.05935 -0.18969
v 0.3 2.025 -0.3
v 0.19988 2.06727 0
v 0.3459 1.99331 -0.3459
v 0.20932 1.94132 -0.4908
v 0.38287 1.94051 -0.38287
v 0.34376 2.03594 -0.17799
v 0.44011 1.99634 -0.19087
v 0.4908 1.94132 -0.20932
v 0.36574 2.04143 0
v 0.47199 1.99899 0
v 0.18969 2.05935 0.18969
v 0.34376 2.03594 0.17799
v 0.44011 1.99634 0.19087
v 0.17799 2.03594 0.34376
v 0.3 2.025 0.3
v 0.3459 1.99331 0.3459
v 0.4908 1.94132 0.20932
v 0.38287 1.94051 0.38287
v 0.20932 1.94132 0.4908
v -0.20932 1.94132 -0.4908
v 0 1.99899 -0.47199
v -0.19087 1.99634 -0.44011
v 0 1.94213 -0.52685
v 0.19087 1.99634 -0.44011
v 0.20932 1.94132 -0.4908
v -0.21757 1.87391 -0.50979
v 0 1.87402 -0.54711
v -0.39786 1.87381 -0.39786
v -0.38287 1.94051 -0.38287
v -0.4 1.8 -0.4
v -0.21875 1.8 -0.5125
v -0.4 1.725 -0.4
v 0.21757 1.87391 -0.50979
v 0.38287 1.94051 -0.38287
v 0.39786 1.87381 -0.39786
v -0.21875 1.725 -0.5125
v -0.4 1.65 -0.4
v 0 1.8 -0.55
v 0.21875 1.8 -0.5125
v 0.4 1.8 -0.4
v -0.21875 1.65 -0.5125
v -0.4 1.575 -0.4
v 0 1.725 -0.55
v 0.21875 1.725 -0.5125
v 0.4 1.725 -0.4
v -0.21875 1.575 -0.5125
v -0.4 1.5 -0.4
v 0 1.65 -0.55
v 0.21875 1.65 -0.5125
v 0.4 1.65 -0.4
v -0.21875 1.5 -0.5125
v -0.4 1.425 -0.4
v 0 1.575 -0.55
v 0.21875 1.575 -0.5125
v 0.4 1.575 -0.4
v -0.21875 1.425 -0.5125
v -0.4 1.35 -0.4
v 0 1.5 -0.55
v 0.21875 1.5 -0.5125
v 0.4 1.5 -0.4
v -0.21875 1.35 -0.5125
v -0.4 1.275 -0.4
v 0 1.425 -0.55
v 0.21875 1.425 -0.5125
v 0.4 1.425 -0.4
v -0.21875 1.275 -0.5125
v -0.4 1.2 -0.4
v 0 1.35 -0.55
v 0.21875 1.35 -0.5125
v 0.4 1.35 -0.4
v -0.21875 1.2 -0.5125
v -0.39786 1.12619 -0.39786
v 0 1.275 -0.55
v 0.21875 1.275 -0.5125
v 0.4 1.275 -0.4
v -0.21757 1.12609 -0.50979
v -0.38287 1.05949 -0.38287
v -0.20932 1.05868 -0.4908
v 0 1.2 -0.55
v 0.21875 1.2 -0.5125
v 0.4 1.2 -0.4
v 0 1.12598 -0.54711
v 0.21757 1.12609 -0.50979
v 0.39786 1.12619 -0.39786
v 0 1.05787 -0.52685
v -0.19087 1.00366 -0.44011
v 0 1.00101 -0.47199
v 0.20932 1.05868 -0.4908
v 0.38287 1.05949 -0.38287
v 0.19087 1.00366 -0.44011
v 0.4908 1.94132 -0.20932
v 0.47199 1.99899 0
v 0.44011 1.99634 -0.19087
v 0.52685 1.94213 0
v 0.44011 1.99634 0.19087
v 0.4908 1.94132 0.20932
v 0.50979 1.87391 -0.21757
v 0.54711 1.87402 0
v 0.39786 1.87381 -0.39786
v 0.38287 1.94051 -0.38287
v 0.4 1.8 -0.4
v 0.5125 1.8 -0.21875
v 0.4 1.725 -0.4
v 0.50979 1.87391 0.21757
v 0.38287 1.94051 0.38287
v 0.39786 1.87381 0.39786
v 0.5125 1.725 -0.21875
v 0.4 1.65 -0.4
v 0.55 1.8 0
v 0.5125 1.8 0.21875
v 0.4 1.8 0.4
v 0.5125 1.65 -0.21875
v 0.4 1.575 -0.4
v 0.55 1.725 0
v 0.5125 1.725 0.21875
v 0.4 1.725 0.4
v 0.5125 1.575 -0.21875
v 0.4 1.5 -0.4
v 0.55 1.65 0
v 0.5125 1.65 0.21875
v 0.4 1.65 0.4
v 0.5125 1.5 -0.21875
v 0.4 1.425 -0.4
v 0.55 1.575 0
v 0.5125 1.575 0.21875
v 0.4 1.575 0.4
v 0.5125 1.425 -0.21875
v 0.4 1.35 -0.4
v 0.55 1.5 0
v 0.5125 1.5 0.21875
v 0.4 1.5 0.4
v 0.5125 1.35 -0.21875
v 0.4 1.275 -0.4
v 0.55 1.425 0
v 0.5125 1.425 0.21875
v 0.4 1.425 0.4
v 0.5125 1.275 -0.21875
v 0.4 1.2 -0.4
v 0.55 1.35 0
v 0.5125 1.35 0.21875
v 0.4 1.35 0.4
v 0.5125 1.2 -0.21875
v 0.39786 1.12619 -0.39786
v 0.55 1.275 0
v 0.5125 1.275 0.21875
v 0.4 1.275 0.4
v 0.50979 1.12609 -0.21757
v 0.38287 1.05949 -0.38287
v 0.4908 1.05868 -0.20932
v 0.55 1.2 0
v 0.5125 1.2 0.21875
v 0.4 1.2 0.4
v 0.54711 1.12598 0
v 0.50979 1.12609 0.21757
v 0.39786 1.12619 0.39786
v 0.52685 1.05787 0
v 0.44011 1.00366 -0.19087
v 0.47199 1.00101 0
v 0.4908 1.05868 0.20932
v 0.38287 1.05949 0.38287
v 0.44011 1.00366 0.19087
v 0.20932 1.94132 0.4908
v 0 1.99899 0.47199
v 0.19087 1.99634 0.44011
v 0 1.94213 0.52685
v -0.19087 1.99634 0.44011
v -0.20932 1.94132 0.4908
v 0.21757 1.87391 0.50979
v 0 1.87402 0.54711
v 0.39786 1.87381 0.39786
v 0.38287 1.94051 0.38287
v 0.4 1.8 0.4
v 0.21875 1.8 0.5125
v 0.4 1.725 0.4
v -0.21757 1.87391 0.50979
v -0.38287 1.94051 0.38287
v -0.39786 1.87381 0.39786
v 0.21875 1.725 0.5125
v 0.4 1.65 0.4
v 0 1.8 0.55
v -0.21875 1.8 0.5125
v -0.4 1.8 0.4
v 0.21875 1.65 0.5125
v 0.4 1.575 0.4
v 0 1.725 0.55
v -0.21875 1.725 0.5125
v -0.4 1.725 0.4
v 0.21875 1.575 0.5125
v 0.4 1.5 0.4
v 0 1.65 0.55
v -0.21875 1.65 0.5125
v -0.4 1.65 0.4
v 0.21875 1.5 0.5125
v 0.4 1.425 0.4
v 0 1.575 0.55
v -0.21875 1.575 0.5125
v -0.4 1.575 0.4
v 0.21875 1.425 0.5125
v 0.4 1.35 0.4
v 0 1.5 0.55
v -0.21875 1.5 0.5125
v -0.4 1.5 0.4
v 0.21875 1.35 0.5125
v 0.4 1.275 0.4
v 0 1.425 0.55
v -0.21875 1.425 0.5125
v -0.4 1.425 0.4
v 0.21875 1.275 0.5125
v 0.4 1.2 0.4
v 0 1.35 0.55
v -0.21875 1.35 0.5125
v -0.4 1.35 0.4
v 0.21875 1.2 0.5125
v 0.39786 1.12619 0.39786
v 0 1.275 0.55
v -0.21875 1.275 0.5125
v -0.4 1.275 0.4
v 0.21757 1.12609 0.50979
v 0.38287 1.05949 0.38287
v 0.20932 1.05868 0.4908
v 0 1.2 0.55
v -0.21875 1.2 0.5125
v -0.4 1.2 0.4
v 0 1.12598 0.54711
v -0.21757 1.12608 0.50979
v -0.39786 1.12619 0.39786
v 0 1.05787 0.52685
v 0.19087 1.00366 0.44011
v 0 1.00101 0.47199
v -0.20932 1.05868 0.4908
v -0.38287 1.05949 0.38287
v -0.19087 1.00366 0.44011
v -0.44011 1.00366 -0.19087
v -0.38287 1.05949 -0.38287
v -0.4908 1.05868 -0.20932
v -0.3459 1.00669 -0.3459
v -0.20932 1.05868 -0.4908
v -0.19087 1.00366 -0.44011
v -0.34376 0.96406 -0.17799
v -0.3 0.975 -0.3
v -0.17799 0.96406 -0.34376
v 0 1.00101 -0.47199
v -0.36574 0.95856 0
v -0.47199 1.00101 0
v -0.18969 0.94065 -0.18969
v 0 0.95856 -0.36574
v 0.19087 1.00366 -0.44011
v -0.19988 0.93273 0
v -0.34376 0.96406 0.17799
v -0.44011 1.00366 0.19087
v 0 0.93273 -0.19988
v 0 0.92407 0
v -0.18969 0.94065 0.18969
v 0 0.93273 0.19988
v -0.3 0.975 0.3
v -0.17799 0.96406 0.34376
v -0.3459 1.00669 0.3459
v -0.4908 1.05868 0.20932
v -0.38287 1.05949 0.38287
v -0.19087 1.00366 0.44011
v -0.20932 1.05868 0.4908
v 0 0.95856 0.36574
v 0 1.00101 0.47199
v 0.17799 0.96406 0.34376
v 0.19087 1.00366 0.44011
v 0.18969 0.94065 0.18969
v 0.3 0.975 0.3
v 0.19988 0.93273 0
v 0.3459 1.00669 0.3459
v 0.20932 1.05868 0.4908
v 0.38287 1.05949 0.38287
v 0.34376 0.96406 0.17799
v 0.44011 1.00366 0.19087
v 0.4908 1.05868 0.20932
v 0.36574 0.95856 0
v 0.47199 1.00101 0
v 0.18969 0.94065 -0.18969
v 0.34376 0.96406 -0.17799
v 0.44011 1.00366 -0.19087
v 0.17799 0.96406 -0.34376
v 0.3 0.975 -0.3
v 0.3459 1.00669 -0.3459
v 0.4908 1.05868 -0.20932
v 0.38287 1.05949 -0.38287
v 0.20932 1.05868 -0.4908
vt 0.08989 0.23801
vt 0.06786 0.24408
vt 0.08795 0.2438
vt 0.06786 0.2381
vt 0.04778 0.2438
vt 0.04584 0.23801
vt 0.09076 0.23092
vt 0.06786 0.23093
vt 0.10972 0.23091
vt 0.10815 0.23793
vt 0.10995 0.22315
vt 0.09088 0.22315
vt 0.10995 0.21526
vt 0.04497 0.23092
vt 0.02758 0.23793
vt 0.02601 0.23091
vt 0.09088 0.21526
vt 0.10995 0.20736
vt 0.06786 0.22315
vt 0.04485 0.22315
vt 0.02578 0.22315
vt 0.09088 0.20736
vt 0.10995 0.19947
vt 0.06786 0.21526
vt 0.04485 0.21526
vt 0.02578 0.21526
vt 0.09088 0.19947
vt 0.10995 0.19158
vt 0.06786 0.20736
vt 0.04485 0.20736
vt 0.02578 0.20736
vt 0.09088 0.19158
vt 0.10995 0.18369
vt 0.06786 0.19947
vt 0.04485 0.19947
vt 0.02578 0.19947
vt 0.09088 0.18369
vt 0.10995 0.1758
vt 0.06786 0.19158
vt 0.04485 0.19158
vt 0.02578 0.19158
vt 0.09088 0.1758
vt 0.10995 0.16791
vt 0.06786 0.18369
vt 0.04485 0.18369
vt 0.02578 0.18369
vt 0.09088 0.16791
vt 0.10995 0.16002
vt 0.06786 0.1758
vt 0.04485 0.1758
vt 0.02578 0.1758
vt 0.09088 0.16002
vt 0.10972 0.15225
vt 0.06786 0.16791
vt 0.04485 0.16791
vt 0.02578 0.16791
vt 0.09076 0.15224
vt 0.10815 0.14524
vt 0.08989 0.14515
vt 0.06786 0.16002
vt 0.04485 0.16002
vt 0.02578 0.16002
vt 0.06786 0.15223
vt 0.04497 0.15224
vt 0.02601 0.15225
vt 0.06786 0.14507
vt 0.08795 0.13936
vt 0.06786 0.13909
vt 0.04584 0.14515
vt 0.02758 0.14524
vt 0.04778 0.13936
vt 0.14857 0.27502
vt 0.13722 0.29328
vt 0.14255 0.29522
vt 0.15246 0.27891
vt 0.16683 0.26366
vt 0.16877 0.269
vt 0.15269 0.29657
vt 0.15729 0.28374
vt 0.17013 0.27913
vt 0.18886 0.26564
vt 0.15038 0.3153
vt 0.1392 0.3153
vt 0.1689 0.29534
vt 0.18886 0.27682
vt 0.20894 0.269
vt 0.15269 0.33403
vt 0.14255 0.33538
vt 0.16783 0.3153
vt 0.18886 0.29427
vt 0.1689 0.33526
vt 0.18886 0.3153
vt 0.18886 0.33633
vt 0.15729 0.34686
vt 0.17013 0.35147
vt 0.15246 0.35169
vt 0.13722 0.33732
vt 0.14857 0.35558
vt 0.16877 0.3616
vt 0.16683 0.36694
vt 0.18886 0.35378
vt 0.18886 0.36496
vt 0.20758 0.35147
vt 0.20894 0.3616
vt 0.20881 0.33526
vt 0.22042 0.34686
vt 0.20989 0.3153
vt 0.22525 0.35169
vt 0.21088 0.36694
vt 0.22914 0.35558
vt 0.22502 0.33403
vt 0.23516 0.33538
vt 0.24049 0.33732
vt 0.22733 0.3153
vt 0.23851 0.3153
vt 0.20881 0.29534
vt 0.22502 0.29657
vt 0.23516 0.29522
vt 0.20758 0.27913
vt 0.22042 0.28374
vt 0.22525 0.27891
vt 0.24049 0.29328
vt 0.22914 0.27502
vt 0.21088 0.26366
vt 0.45286 0.23801
vt 0.43084 0.24408
vt 0.45092 0.2438
vt 0.43084 0.2381
vt 0.41075 0.2438
vt 0.40881 0.23801
vt 0.45373 0.23092
vt 0.43084 0.23093
vt 0.47269 0.23091
vt 0.47112 0.23793
vt 0.47292 0.22315
vt 0.45385 0.22315
vt 0.47292 0.21526
vt 0.40795 0.23092
vt 0.39055 0.23793
vt 0.38898 0.23091
vt 0.45385 0.21526
vt 0.47292 0.20736
vt 0.43084 0.22315
vt 0.40782 0.22315
vt 0.38875 0.22315
vt 0.45385 0.20736
vt 0.47292 0.19947
vt 0.43084 0.21526
vt 0.40782 0.21526
vt 0.38875 0.21526
vt 0.45385 0.19947
vt 0.47292 0.19158
vt 0.43084 0.20736
vt 0.40782 0.20736
vt 0.38875 0.20736
vt 0.45385 0.19158
vt 0.47292 0.18369
vt 0.43084 0.19947
vt 0.40782 0.19947
vt 0.38875 0.19947
vt 0.45385 0.18369
vt 0.47292 0.1758
vt 0.43084 0.19158
vt 0.40782 0.19158
vt 0.38875 0.19158
vt 0.45385 0.1758
vt 0.47292 0.16791
vt 0.43084 0.18369
vt 0.40782 0.18369
vt 0.38875 0.18369
vt 0.45385 0.16791
vt 0.47292 0.16002
vt 0.43084 0.1758
vt 0.40782 0.1758
vt 0.38875 0.1758
vt 0.45385 0.16002
vt 0.47269 0.15225
vt 0.43084 0.16791
vt 0.40782 0.16791
vt 0.38875 0.16791
vt 0.45373 0.15224
vt 0.47112 0.14524
vt 0.45286 0.14515
vt 0.43084 0.16002
vt 0.40782 0.16002
vt 0.38875 0.16002
vt 0.43084 0.15223
vt 0.40795 0.15224
vt 0.38898 0.15225
vt 0.43084 0.14507
vt 0.45092 0.13936
vt 0.43084 0.13909
vt 0.40881 0.14515
vt 0.39055 0.14524
vt 0.41075 0.13936
vt 0.33187 0.23801
vt 0.30985 0.24408
vt 0.32993 0.2438
vt 0.30985 0.2381
vt 0.28976 0.2438
vt 0.28782 0.23801
vt 0.33274 0.23092
vt 0.30985 0.23093
vt 0.3517 0.23091
vt 0.35013 0.23793
vt 0.35193 0.22315
vt 0.33286 0.22315
vt 0.35193 0.21526
vt 0.28696 0.23092
vt 0.26956 0.23793
vt 0.26799 0.23091
vt 0.33286 0.21526
vt 0.35193 0.20736
vt 0.30985 0.22315
vt 0.28683 0.22315
vt 0.26776 0.22315
vt 0.33286 0.20736
vt 0.35193 0.19947
vt 0.30985 0.21526
vt 0.28683 0.21526
vt 0.26776 0.21526
vt 0.33286 0.19947
vt 0.35193 0.19158
vt 0.30985 0.20736
vt 0.28683 0.20736
vt 0.26776 0.20736
vt 0.33286 0.19158
vt 0.35193 0.18369
vt 0.30985 0.19947
vt 0.28683 0.19947
vt 0.26776 0.19947
vt 0.33286 0.18369
vt 0.35193 0.1758
vt 0.30985 0.19158
vt 0.28683 0.19158
vt 0.26776 0.19158
vt 0.33286 0.1758
vt 0.35193 0.16791
vt 0.30985 0.18369
vt 0.28683 0.18369
vt 0.26776 0.18369
vt 0.33286 0.16791
vt 0.35193 0.16002
vt 0.30985 0.1758
vt 0.28683 0.1758
vt 0.26776 0.1758
vt 0.33286 0.16002
vt 0.3517 0.15225
vt 0.30985 0.16791
vt 0.28683 0.16791
vt 0.26776 0.16791
vt 0.33274 0.15224
vt 0.35013 0.14524
vt 0.33187 0.14515
vt 0.30985 0.16002
vt 0.28683 0.16002
vt 0.26776 0.16002
vt 0.30985 0.15223
vt 0.28696 0.15224
vt 0.26799 0.15225
vt 0.30985 0.14507
vt 0.32993 0.13936
vt 0.30985 0.13909
vt 0.28782 0.14515
vt 0.26956 0.14524
vt 0.28976 0.13936
vt 0.21748 0.25194
vt 0.18886 0.25983
vt 0.21496 0.25947
vt 0.18886 0.25205
vt 0.16275 0.25947
vt 0.16023 0.25194
vt 0.21861 0.24272
vt 0.18886 0.24274
vt 0.24327 0.24271
vt 0.24122 0.25183
vt 0.24356 0.23261
vt 0.21877 0.23261
vt 0.24356 0.22236
vt 0.1591 0.24272
vt 0.13649 0.25183
vt 0.13444 0.24271
vt 0.21877 0.22236
vt 0.24356 0.2121
vt 0.18886 0.23261
vt 0.15894 0.23261
vt 0.13415 0.23261
vt 0.21877 0.2121
vt 0.24356 0.20184
vt 0.18886 0.22236
vt 0.15894 0.22236
vt 0.13415 0.22236
vt 0.21877 0.20184
vt 0.24356 0.19158
vt 0.18886 0.2121
vt 0.15894 0.2121
vt 0.13415 0.2121
vt 0.21877 0.19158
vt 0.24356 0.18133
vt 0.18886 0.20184
vt 0.15894 0.20184
vt 0.13415 0.20184
vt 0.21877 0.18133
vt 0.24356 0.17107
vt 0.18886 0.19158
vt 0.15894 0.19158
vt 0.13415 0.19158
vt 0.21877 0.17107
vt 0.24356 0.16081
vt 0.18886 0.18133
vt 0.15894 0.18133
vt 0.13415 0.18133
vt 0.21877 0.16081
vt 0.24356 0.15055
vt 0.18886 0.17107
vt 0.15894 0.17107
vt 0.13415 0.17107
vt 0.21877 0.15055
vt 0.24327 0.14046
vt 0.18886 0.16081
vt 0.15894 0.16081
vt 0.13415 0.16081
vt 0.21861 0.14044
vt 0.24122 0.13133
vt 0.21748 0.13122
vt 0.18886 0.15055
vt 0.15894 0.15055
vt 0.13415 0.15055
vt 0.18886 0.14043
vt 0.1591 0.14044
vt 0.13444 0.14046
vt 0.18886 0.13111
vt 0.21496 0.1237
vt 0.18886 0.12334
vt 0.16023 0.13122
vt 0.13649 0.13133
vt 0.16275 0.1237
vt 0.14255 0.04778
vt 0.14857 0.02758
vt 0.13722 0.04584
vt 0.15246 0.03147
vt 0.16683 0.01623
vt 0.16877 0.02156
vt 0.15269 0.04914
vt 0.15729 0.0363
vt 0.17013 0.0317
vt 0.18886 0.01821
vt 0.15038 0.06786
vt 0.1392 0.06786
vt 0.1689 0.04791
vt 0.18886 0.02939
vt 0.20894 0.02156
vt 0.16783 0.06786
vt 0.15269 0.08659
vt 0.14255 0.08795
vt 0.18886 0.04684
vt 0.18886 0.06786
vt 0.1689 0.08782
vt 0.18886 0.08889
vt 0.15729 0.09943
vt 0.17013 0.10403
vt 0.15246 0.10426
vt 0.13722 0.08989
vt 0.14857 0.10815
vt 0.16877 0.11417
vt 0.16683 0.1195
vt 0.18886 0.10634
vt 0.18886 0.11752
vt 0.20758 0.10403
vt 0.20894 0.11417
vt 0.20881 0.08782
vt 0.22042 0.09943
vt 0.20989 0.06786
vt 0.22525 0.10426
vt 0.21088 0.1195
vt 0.22914 0.10815
vt 0.22502 0.08659
vt 0.23516 0.08795
vt 0.24049 0.08989
vt 0.22733 0.06786
vt 0.23851 0.06786
vt 0.20881 0.04791
vt 0.22502 0.04914
vt 0.23516 0.04778
vt 0.20758 0.0317
vt 0.22042 0.0363
vt 0.22525 0.03147
vt 0.24049 0.04584
vt 0.22914 0.02758
vt 0.21088 0.01623
vn -0.8102 0.4984 0.3085
vn -0.5701 0.8216 0
vn -0.5418 0.8144 0.2079
vn -0.8681 0.4964 0
vn -0.5418 0.8144 -0.2079
vn -0.8102 0.4984 -0.3085
vn -0.9217 0.1655 0.3509
vn -0.9867 0.1625 0
vn -0.697 0.1689 0.697
vn -0.612 0.5008 0.612
vn -0.707 0.0203 0.707
vn -0.9347 0.0199 0.3548
vn -0.7071 0 0.7071
vn -0.9217 0.1655 -0.3509
vn -0.612 0.5008 -0.612
vn -0.697 0.1689 -0.697
vn -0.935 0 0.3547
vn -0.7071 0 0.7071
vn -0.9998 0.0196 0
vn -0.9347 0.0199 -0.3548
vn -0.707 0.0203 -0.707
vn -0.935 0 0.3547
vn -0.7071 0 0.7071
vn -1 0 0
vn -0.935 0 -0.3547
vn -0.7071 0 -0.7071
vn -0.935 0 0.3547
vn -0.7071 0 0.7071
vn -1 0 0
vn -0.935 0 -0.3547
vn -0.7071 0 -0.7071
vn -0.935 0 0.3547
vn -0.7071 0 0.7071
vn -1 0 0
vn -0.935 0 -0.3547
vn -0.7071 0 -0.7071
vn -0.935 0 0.3547
vn -0.7071 0 0.7071
vn -1 0 0
vn -0.935 0 -0.3547
vn -0.7071 0 -0.7071
vn -0.935 0 0.3547
vn -0.7071 0 0.7071
vn -1 0 0
vn -0.935 0 -0.3547
vn -0.7071 0 -0.7071
vn -0.935 0 0.3547
vn -0.707 -0.0203 0.707
vn -1 0 0
vn -0.935 0 -0.3547
vn -0.7071 0 -0.7071
vn -0.9347 -0.0199 0.3548
vn -0.697 -0.1689 0.697
vn -1 0 0
vn -0.935 0 -0.3547
vn -0.7071 0 -0.7071
vn -0.9217 -0.1655 0.3509
vn -0.612 -0.5008 0.612
vn -0.8102 -0.4984 0.3085
vn -0.9998 -0.0196 0
vn -0.9347 -0.0199 -0.3548
vn -0.707 -0.0203 -0.707
vn -0.9867 -0.1625 0
vn -0.9217 -0.1655 -0.3509
vn -0.697 -0.1689 -0.697
vn -0.8681 -0.4964 0
vn -0.5418 -0.8144 0.2079
vn -0.5701 -0.8216 0
vn -0.8102 -0.4984 -0.3085
vn -0.612 -0.5008 -0.612
vn -0.5418 -0.8144 -0.2079
vn -0.612 0.5008 0.612
vn -0.8102 0.4984 0.3085
vn -0.5418 0.8144 0.2079
vn -0.4187 0.8058 0.4187
vn -0.3085 0.4984 0.8102
vn -0.2079 0.8144 0.5418
vn -0.2681 0.9553 0.1248
vn -0.2443 0.9384 0.2443
vn -0.1248 0.9553 0.2681
vn 0 0.8216 0.5701
vn -0.2719 0.9623 0
vn -0.5701 0.8216 0
vn -0.1 0.9899 0.1
vn 0 0.9623 0.2719
vn 0.2079 0.8144 0.5418
vn -0.2681 0.9553 -0.1248
vn -0.5418 0.8144 -0.2079
vn -0.1007 0.9949 0
vn 0 0.9949 0.1007
vn -0.1 0.9899 -0.1
vn 0 1 0
vn 0 0.9949 -0.1007
vn -0.2443 0.9384 -0.2443
vn -0.1248 0.9553 -0.2681
vn -0.4187 0.8058 -0.4187
vn -0.8102 0.4984 -0.3085
vn -0.612 0.5008 -0.612
vn -0.2079 0.8144 -0.5418
vn -0.3085 0.4984 -0.8102
vn 0 0.9623 -0.2719
vn 0 0.8216 -0.5701
vn 0.1248 0.9553 -0.2681
vn 0.2079 0.8144 -0.5418
vn 0.1 0.9899 -0.1
vn 0.2443 0.9384 -0.2443
vn 0.1007 0.9949 0
vn 0.4187 0.8058 -0.4187
vn 0.3085 0.4984 -0.8102
vn 0.612 0.5008 -0.612
vn 0.2681 0.9553 -0.1248
vn 0.5418 0.8144 -0.2079
vn 0.8102 0.4984 -0.3085
vn 0.2719 0.9623 0
vn 0.5701 0.8216 0
vn 0.1 0.9899 0.1
vn 0.2681 0.9553 0.1248
vn 0.5418 0.8144 0.2079
vn 0.1248 0.9553 0.2681
vn 0.2443 0.9384 0.2443
vn 0.4187 0.8058 0.4187
vn 0.8102 0.4984 0.3085
vn 0.612 0.5008 0.612
vn 0.3085 0.4984 0.8102
vn -0.3085 0.4984 -0.8102
vn 0 0.8216 -0.5701
vn -0.2079 0.8144 -0.5418
vn 0 0.4964 -0.8681
vn 0.2079 0.8144 -0.5418
vn 0.3085 0.4984 -0.8102
vn -0.3509 0.1655 -0.9217
vn 0 0.1625 -0.9867
vn -0.697 0.1689 -0.697
vn -0.612 0.5008 -0.612
vn -0.707 0.0203 -0.707
vn -0.3548 0.0199 -0.9347
vn -0.7071 0 -0.7071
vn 0.3509 0.1655 -0.9217
vn 0.612 0.5008 -0.612
vn 0.697 0.1689 -0.697
vn -0.3547 0 -0.935
vn -0.7071 0 -0.7071
vn 0 0.0196 -0.9998
vn 0.3548 0.0199 -0.9347
vn 0.707 0.0203 -0.707
vn -0.3547 0 -0.935
vn -0.7071 0 -0.7071
vn 0 0 -1
vn 0.3547 0 -0.935
vn 0.7071 0 -0.7071
vn -0.3547 0 -0.935
vn -0.7071 0 -0.7071
vn 0 0 -1
vn 0.3547 0 -0.935
vn 0.7071 0 -0.7071
vn -0.3547 0 -0.935
vn -0.7071 0 -0.7071
vn 0 0 -1
vn 0.3547 0 -0.935
vn 0.7071 0 -0.7071
vn -0.3547 0 -0.935
vn -0.7071 0 -0.7071
vn 0 0 -1
vn 0.3547 0 -0.935
vn 0.7071 0 -0.7071
vn -0.3547 0 -0.935
vn -0.7071 0 -0.7071
vn 0 0 -1
vn 0.3547 0 -0.935
vn 0.7071 0 -0.7071
vn -0.3547 0 -0.935
vn -0.707 -0.0203 -0.707
vn 0 0 -1
vn 0.3547 0 -0.935
vn 0.7071 0 -0.7071
vn -0.3548 -0.0199 -0.9347
vn -0.697 -0.1689 -0.697
vn 0 0 -1
vn 0.3547 0 -0.935
vn 0.7071 0 -0.7071
vn -0.3509 -0.1655 -0.9217
vn -0.612 -0.5008 -0.612
vn -0.3085 -0.4984 -0.8102
vn 0 -0.0196 -0.9998
vn 0.3548 -0.0199 -0.9347
vn 0.707 -0.0203 -0.707
vn 0 -0.1625 -0.9867
vn 0.3509 -0.1655 -0.9217
vn 0.697 -0.1689 -0.697
vn 0 -0.4964 -0.8681
vn -0.2079 -0.8144 -0.5418
vn 0 -0.8216 -0.5701
vn 0.3085 -0.4984 -0.8102
vn 0.612 -0.5008 -0.612
vn 0.2079 -0.8144 -0.5418
vn 0.8102 0.4984 -0.3085
vn 0.5701 0.8216 0
vn 0.5418 0.8144 -0.2079
vn 0.8681 0.4964 0
vn 0.5418 0.8144 0.2079
vn 0.8102 0.4984 0.3085
vn 0.9217 0.1655 -0.3509
vn 0.9867 0.1625 0
vn 0.697 0.1689 -0.697
vn 0.612 0.5008 -0.612
vn 0.707 0.0203 -0.707
vn 0.9347 0.0199 -0.3548
vn 0.7071 0 -0.7071
vn 0.9217 0.1655 0.3509
vn 0.612 0.5008 0.612
vn 0.697 0.1689 0.697
vn 0.935 0 -0.3547
vn 0.7071 0 -0.7071
vn 0.9998 0.0196 0
vn 0.9347 0.0199 0.3548
vn 0.707 0.0203 0.707
vn 0.935 0 -0.3547
vn 0.7071 0 -0.7071
vn 1 0 0
vn 0.935 0 0.3547
vn 0.7071 0 0.7071
vn 0.935 0 -0.3547
vn 0.7071 0 -0.7071
vn 1 0 0
vn 0.935 0 0.3547
vn 0.7071 0 0.7071
vn 0.935 0 -0.3547
vn 0.7071 0 -0.7071
vn 1 0 0
vn 0.935 0 0.3547
vn 0.7071 0 0.7071
vn 0.935 0 -0.3547
vn 0.7071 0 -0.7071
vn 1 0 0
vn 0.935 0 0.3547
vn 0.7071 0 0.7071
vn 0.935 0 -0.3547
vn 0.7071 0 -0.7071
vn 1 0 0
vn 0.935 0 0.3547
vn 0.7071 0 0.7071
vn 0.935 0 -0.3547
vn 0.707 -0.0203 -0.707
vn 1 0 0
vn 0.935 0 0.3547
vn 0.7071 0 0.7071
vn 0.9347 -0.0199 -0.3548
vn 0.697 -0.1689 -0.697
vn 1 0 0
vn 0.935 0 0.3547
vn 0.7071 0 0.7071
vn 0.9217 -0.1655 -0.3509
vn 0.612 -0.5008 -0.612
vn 0.8102 -0.4984 -0.3085
vn 0.9998 -0.0196 0
vn 0.9347 -0.0199 0.3548
vn 0.707 -0.0203 0.707
vn 0.9867 -0.1625 0
vn 0.9217 -0.1655 0.3509
vn 0.697 -0.1689 0.697
vn 0.8681 -0.4964 0
vn 0.5418 -0.8144 -0.2079
vn 0.5701 -0.8216 0
vn 0.8102 -0.4984 0.3085
vn 0.612 -0.5008 0.612
vn 0.5418 -0.8144 0.2079
vn 0.3085 0.4984 0.8102
vn 0 0.8216 0.5701
vn 0.2079 0.8144 0.5418
vn 0 0.4964 0.8681
vn -0.2079 0.8144 0.5418
vn -0.3085 0.4984 0.8102
vn 0.3509 0.1655 0.9217
vn 0 0.1625 0.9867
vn 0.697 0.1689 0.697
vn 0.612 0.5008 0.612
vn 0.707 0.0203 0.707
vn 0.3548 0.0199 0.9347
vn 0.7071 0 0.7071
vn -0.3509 0.1655 0.9217
vn -0.612 0.5008 0.612
vn -0.697 0.1689 0.697
vn 0.3547 0 0.935
vn 0.7071 0 0.7071
vn 0 0.0196 0.9998
vn -0.3548 0.0199 0.9347
vn -0.707 0.0203 0.707
vn 0.3547 0 0.935
vn 0.7071 0 0.7071
vn 0 0 1
vn -0.3547 0 0.935
vn -0.7071 0 0.7071
vn 0.3547 0 0.935
vn 0.7071 0 0.7071
vn 0 0 1
vn -0.3547 0 0.935
vn -0.7071 0 0.7071
vn 0.3547 0 0.935
vn 0.7071 0 0.7071
vn 0 0 1
vn -0.3547 0 0.935
vn -0.7071 0 0.7071
vn 0.3547 0 0.935
vn 0.7071 0 0.7071
vn 0 0 1
vn -0.3547 0 0.935
vn -0.7071 0 0.7071
vn 0.3547 0 0.935
vn 0.7071 0 0.7071
vn 0 0 1
vn -0.3547 0 0.935
vn -0.7071 0 0.7071
vn 0.3547 0 0.935
vn 0.707 -0.0203 0.707
vn 0 0 1
vn -0.3547 0 0.935
vn -0.7071 0 0.7071
vn 0.3548 -0.0199 0.9347
vn 0.697 -0.1689 0.697
vn 0 0 1
vn -0.3547 0 0.935
vn -0.7071 0 0.7071
vn 0.3509 -0.1655 0.9217
vn 0.612 -0.5008 0.612
vn 0.3085 -0.4984 0.8102
vn 0 -0.0196 0.9998
vn -0.3548 -0.0199 0.9347
vn -0.707 -0.0203 0.707
vn 0 -0.1625 0.9867
vn -0.3509 -0.1655 0.9217
vn -0.697 -0.1689 0.697
vn 0 -0.4964 0.8681
vn 0.2079 -0.8144 0.5418
vn 0 -0.8216 0.5701
vn -0.3085 -0.4984 0.8102
vn -0.612 -0.5008 0.612
vn -0.2079 -0.8144 0.5418
vn -0.5418 -0.8144 -0.2079
vn -0.612 -0.5008 -0.612
vn -0.8102 -0.4984 -0.3085
vn -0.4187 -0.8058 -0.4187
vn -0.3085 -0.4984 -0.8102
vn -0.2079 -0.8144 -0.5418
vn -0.2681 -0.9553 -0.1248
vn -0.2443 -0.9384 -0.2443
vn -0.1248 -0.9553 -0.2681
vn 0 -0.8216 -0.5701
vn -0.2719 -0.9623 0
vn -0.5701 -0.8216 0
vn -0.1 -0.9899 -0.1
vn 0 -0.9623 -0.2719
vn 0.2079 -0.8144 -0.5418
vn -0.1007 -0.9949 0
vn -0.2681 -0.9553 0.1248
vn -0.5418 -0.8144 0.2079
vn 0 -0.9949 -0.1007
vn 0 -1 0
vn -0.1 -0.9899 0.1
vn 0 -0.9949 0.1007
vn -0.2443 -0.9384 0.2443
vn -0.1248 -0.9553 0.2681
vn -0.4187 -0.8058 0.4187
vn -0.8102 -0.4984 0.3085
vn -0.612 -0.5008 0.612
vn -0.2079 -0.8144 0.5418
vn -0.3085 -0.4984 0.8102
vn 0 -0.9623 0.2719
vn 0 -0.8216 0.5701
vn 0.1248 -0.9553 0.2681
vn 0.2079 -0.8144 0.5418
vn 0.1 -0.9899 0.1
vn 0.2443 -0.9384 0.2443
vn 0.1007 -0.9949 0
vn 0.4187 -0.8058 0.4187
vn 0.3085 -0.4984 0.8102
vn 0.612 -0.5008 0.612
vn 0.2681 -0.9553 0.1248
vn 0.5418 -0.8144 0.2079
vn 0.8102 -0.4984 0.3085
vn 0.2719 -0.9623 0
vn 0.5701 -0.8216 0
vn 0.1 -0.9899 -0.1
vn 0.2681 -0.9553 -0.1248
vn 0.5418 -0.8144 -0.2079
vn 0.1248 -0.9553 -0.2681
vn 0.2443 -0.9384 -0.2443
vn 0.4187 -0.8058 -0.4187
vn 0.8102 -0.4984 -0.3085
vn 0.612 -0.5008 -0.612
vn 0.3085 -0.4984 -0.8102
usemtl m0
f 1/1/1 3/3/3 2/2/2
f 1/1/1 2/2/2 4/4/4
f 4/4/4 2/2/2 5/5/5
f 4/4/4 5/5/5 6/6/6
f 7/7/7 1/1/1 4/4/4
f 8/8/8 4/4/4 6/6/6
f 7/7/7 4/4/4 8/8/8
f 9/9/9 1/1/1 7/7/7
f 9/9/9 10/10/10 1/1/1
f 11/11/11 9/9/9 7/7/7
f 11/11/11 7/7/7 12/12/12
f 12/12/12 7/7/7 8/8/8
f 13/13/13 11/11/11 12/12/12
f 8/8/8 6/6/6 14/14/14
f 14/14/14 6/6/6 15/15/15
f 14/14/14 15/15/15 16/16/16
f 13/13/13 12/12/12 17/17/17
f 18/18/18 13/13/13 17/17/17
f 12/12/12 8/8/8 19/19/19
f 19/19/19 8/8/8 14/14/14
f 17/17/17 12/12/12 19/19/19
f 20/20/20 14/14/14 16/16/16
f 19/19/19 14/14/14 20/20/20
f 20/20/20 16/16/16 21/21/21
f 18/18/18 17/17/17 22/22/22
f 23/23/23 18/18/18 22/22/22
f 17/17/17 19/19/19 24/24/24
f 24/24/24 19/19/19 20/20/20
f 22/22/22 17/17/17 24/24/24
f 25/25/25 20/20/20 21/21/21
f 24/24/24 20/20/20 25/25/25
f 25/25/25 21/21/21 26/26/26
f 23/23/23 22/22/22 27/27/27
f 28/28/28 23/23/23 27/27/27
f 22/22/22 24/24/24 29/29/29
f 29/29/29 24/24/24 25/25/25
f 27/27/27 22/22/22 29/29/29
f 30/30/30 25/25/25 26/26/26
f 29/29/29 25/25/25 30/30/30
f 30/30/30 26/26/26 31/31/31
f 28/28/28 27/27/27 32/32/32
f 33/33/33 28/28/28 32/32/32
f 27/27/27 29/29/29 34/34/34
f 34/34/34 29/29/29 30/30/30
f 32/32/32 27/27/27 34/34/34
f 35/35/35 30/30/30 31/31/31
f 34/34/34 30/30/30 35/35/35
f 35/35/35 31/31/31 36/36/36
f 33/33/33 32/32/32 37/37/37
f 38/38/38 33/33/33 37/37/37
f 32/32/32 34/34/34 39/39/39
f 39/39/39 34/34/34 35/35/35
f 37/37/37 32/32/32 39/39/39
f 40/40/40 35/35/35 36/36/36
f 39/39/39 35/35/35 40/40/40
f 40/40/40 36/36/36 41/41/41
f 38/38/38 37/37/37 42/42/42
f 43/43/43 38/38/38 42/42/42
f 37/37/37 39/39/39 44/44/44
f 44/44/44 39/39/39 40/40/40
f 42/42/42 37/37/37 44/44/44
f 45/45/45 40/40/40 41/41/41
f 44/44/44 40/40/40 45/45/45
f 45/45/45 41/41/41 46/46/46
f 43/43/43 42/42/42 47/47/47
f 48/48/48 43/43/43 47/47/47
f 42/42/42 44/44/44 49/49/49
f 49/49/49 44/44/44 45/45/45
f 47/47/47 42/42/42 49/49/49
f 50/50/50 45/45/45 46/46/46
f 49/49/49 45/45/45 50/50/50
f 50/50/50 46/46/46 51/51/51
f 48/48/48 47/47/47 52/52/52
f 53/53/53 48/48/48 52/52/52
f 47/47/47 49/49/49 54/54/54
f 54/54/54 49/49/49 50/50/50
f 52/52/52 47/47/47 54/54/54
f 55/55/55 50/50/50 51/51/51
f 54/54/54 50/50/50 55/55/55
f 55/55/55 51/51/51 56/56/56
f 53/53/53 52/52/52 57/57/57
f 58/58/58 53/53/53 57/57/57
f 58/58/58 57/57/57 59/59/59
f 52/52/52 54/54/54 60/60/60
f 60/60/60 54/54/54 55/55/55
f 57/57/57 52/52/52 60/60/60
f 61/61/61 55/55/55 56/56/56
f 60/60/60 55/55/55 61/61/61
f 61/61/61 56/56/56 62/62/62
f 57/57/57 60/60/60 63/63/63
f 59/59/59 57/57/57 63/63/63
f 63/63/63 60/60/60 61/61/61
f 64/64/64 61/61/61 62/62/62
f 63/63/63 61/61/61 64/64/64
f 64/64/64 62/62/62 65/65/65
f 59/59/59 63/63/63 66/66/66
f 66/66/66 63/63/63 64/64/64
f 67/67/67 59/59/59 66/66/66
f 67/67/67 66/66/66 68/68/68
f 69/69/69 64/64/64 65/65/65
f 66/66/66 64/64/64 69/69/69
f 68/68/68 66/66/66 69/69/69
f 69/69/69 65/65/65 70/70/70
f 68/68/68 69/69/69 71/71/71
f 72/72/72 74/74/74 73/73/73
f 72/72/72 75/75/75 74/74/74
f 76/76/76 75/75/75 72/72/72
f 76/76/76 77/77/77 75/75/75
f 75/75/75 78/78/78 74/74/74
f 77/77/77 79/79/79 75/75/75
f 75/75/75 79/79/79 78/78/78
f 77/77/77 80/80/80 79/79/79
f 81/81/81 80/80/80 77/77/77
f 74/74/74 78/78/78 82/82/82
f 74/74/74 82/82/82 83/83/83
f 84/84/84 78/78/78 79/79/79
f 84/84/84 79/79/79 80/80/80
f 81/81/81 85/85/85 80/80/80
f 86/86/86 85/85/85 81/81/81
f 83/83/83 82/82/82 87/87/87
f 83/83/83 87/87/87 88/88/88
f 89/89/89 82/82/82 78/78/78
f 89/89/89 78/78/78 84/84/84
f 90/90/90 84/84/84 80/80/80
f 90/90/90 80/80/80 85/85/85
f 91/91/91 87/87/87 82/82/82
f 91/91/91 82/82/82 89/89/89
f 92/92/92 89/89/89 84/84/84
f 92/92/92 84/84/84 90/90/90
f 93/93/93 91/91/91 89/89/89
f 93/93/93 89/89/89 92/92/92
f 88/88/88 87/87/87 94/94/94
f 95/95/95 87/87/87 91/91/91
f 95/95/95 94/94/94 87/87/87
f 88/88/88 94/94/94 96/96/96
f 96/96/96 94/94/94 95/95/95
f 97/97/97 88/88/88 96/96/96
f 97/97/97 96/96/96 98/98/98
f 98/98/98 96/96/96 99/99/99
f 96/96/96 95/95/95 99/99/99
f 98/98/98 99/99/99 100/100/100
f 101/101/101 95/95/95 91/91/91
f 99/99/99 95/95/95 101/101/101
f 101/101/101 91/91/91 93/93/93
f 99/99/99 101/101/101 102/102/102
f 102/102/102 101/101/101 103/103/103
f 103/103/103 101/101/101 93/93/93
f 102/102/102 103/103/103 104/104/104
f 103/103/103 93/93/93 105/105/105
f 105/105/105 93/93/93 92/92/92
f 104/104/104 103/103/103 106/106/106
f 106/106/106 103/103/103 105/105/105
f 105/105/105 92/92/92 107/107/107
f 107/107/107 92/92/92 90/90/90
f 104/104/104 106/106/106 108/108/108
f 109/109/109 104/104/104 108/108/108
f 109/109/109 108/108/108 110/110/110
f 106/106/106 105/105/105 111/111/111
f 108/108/108 106/106/106 111/111/111
f 111/111/111 105/105/105 107/107/107
f 110/110/110 108/108/108 112/112/112
f 108/108/108 111/111/111 112/112/112
f 110/110/110 112/112/112 113/113/113
f 112/112/112 111/111/111 114/114/114
f 111/111/111 107/107/107 114/114/114
f 112/112/112 114/114/114 115/115/115
f 107/107/107 90/90/90 116/116/116
f 114/114/114 107/107/107 116/116/116
f 116/116/116 90/90/90 85/85/85
f 115/115/115 114/114/114 117/117/117
f 114/114/114 116/116/116 117/117/117
f 115/115/115 117/117/117 118/118/118
f 116/116/116 85/85/85 119/119/119
f 117/117/117 116/116/116 119/119/119
f 86/86/86 119/119/119 85/85/85
f 118/118/118 117/117/117 120/120/120
f 117/117/117 119/119/119 120/120/120
f 118/118/118 120/120/120 121/121/121
f 121/121/121 120/120/120 119/119/119
f 121/121/121 119/119/119 86/86/86
f 122/122/122 118/118/118 121/121/121
f 122/122/122 121/121/121 123/123/123
f 123/123/123 121/121/121 86/86/86
f 123/123/123 86/86/86 124/124/124
f 125/125/125 127/127/127 126/126/126
f 125/125/125 126/126/126 128/128/128
f 128/128/128 126/126/126 129/129/129
f 128/128/128 129/129/129 130/130/130
f 131/131/131 125/125/125 128/128/128
f 132/132/132 128/128/128 130/130/130
f 131/131/131 128/128/128 132/132/132
f 133/133/133 125/125/125 131/131/131
f 133/133/133 134/134/134 125/125/125
f 135/135/135 133/133/133 131/131/131
f 135/135/135 131/131/131 136/136/136
f 136/136/136 131/131/131 132/132/132
f 137/137/137 135/135/135 136/136/136
f 132/132/132 130/130/130 138/138/138
f 138/138/138 130/130/130 139/139/139
f 138/138/138 139/139/139 140/140/140
f 137/137/137 136/136/136 141/141/141
f 142/142/142 137/137/137 141/141/141
f 136/136/136 132/132/132 143/143/143
f 143/143/143 132/132/132 138/138/138
f 141/141/141 136/136/136 143/143/143
f 144/144/144 138/138/138 140/140/140
f 143/143/143 138/138/138 144/144/144
f 144/144/144 140/140/140 145/145/145
f 142/142/142 141/141/141 146/146/146
f 147/147/147 142/142/142 146/146/146
f 141/141/141 143/143/143 148/148/148
f 148/148/148 143/143/143 144/144/144
f 146/146/146 141/141/141 148/148/148
f 149/149/149 144/144/144 145/145/145
f 148/148/148 144/144/144 149/149/149
f 149/149/149 145/145/145 150/150/150
f 147/147/147 146/146/146 151/151/151
f 152/152/152 147/147/147 151/151/151
f 146/146/146 148/148/148 153/153/153
f 153/153/153 148/148/148 149/149/149
f 151/151/151 146/146/146 153/153/153
f 154/154/154 149/149/149 150/150/150
f 153/153/153 149/149/149 154/154/154
f 154/154/154 150/150/150 155/155/155
f 152/152/152 151/151/151 156/156/156
f 157/157/157 152/152/152 156/156/156
f 151/151/151 153/153/153 158/158/158
f 158/158/158 153/153/153 154/154/154
f 156/156/156 151/151/151 158/158/158
f 159/159/159 154/154/154 155/155/155
f 158/158/158 154/154/154 159/159/159
f 159/159/159 155/155/155 160/160/160
f 157/157/157 156/156/156 161/161/161
f 162/162/162 157/157/157 161/161/161
f 156/156/156 158/158/158 163/163/163
f 163/163/163 158/158/158 159/159/159
f 161/161/161 156/156/156 163/163/163
f 164/164/164 159/159/159 160/160/160
f 163/163/163 159/159/159 164/164/164
f 164/164/164 160/160/160 165/165/165
f 162/162/162 161/161/161 166/166/166
f 167/167/167 162/162/162 166/166/166
f 161/161/161 163/163/163 168/168/168
f 168/168/168 163/163/163 164/164/164
f 166/166/166 161/161/161 168/168/168
f 169/169/169 164/164/164 165/165/165
f 168/168/168 164/164/164 169/169/169
f 169/169/169 165/165/165 170/170/170
f 167/167/167 166/166/166 171/171/171
f 172/172/172 167/167/167 171/171/171
f 166/166/166 168/168/168 173/173/173
f 173/173/173 168/168/168 169/169/169
f 171/171/171 166/166/166 173/173/173
f 174/174/174 169/169/169 170/170/170
f 173/173/173 169/169/169 174/174/174
f 174/174/174 170/170/170 175/175/175
f 172/172/172 171/171/171 176/176/176
f 177/177/177 172/172/172 176/176/176
f 171/171/171 173/173/173 178/178/178
f 178/178/178 173/173/173 174/174/174
f 176/176/176 171/171/171 178/178/178
f 179/179/179 174/174/174 175/175/175
f 178/178/178 174/174/174 179/179/179
f 179/179/179 175/175/175 180/180/180
f 177/177/177 176/176/176 181/181/181
f 182/182/182 177/177/177 181/181/181
f 182/182/182 181/181/181 183/183/183
f 176/176/176 178/178/178 184/184/184
f 184/184/184 178/178/178 179/179/179
f 181/181/181 176/176/176 184/184/184
f 185/185/185 179/179/179 180/180/180
f 184/184/184 179/179/179 185/185/185
f 185/185/185 180/180/180 186/186/186
f 181/181/181 184/184/184 187/187/187
f 183/183/183 181/181/181 187/187/187
f 187/187/187 184/184/184 185/185/185
f 188/188/188 185/185/185 186/186/186
f 187/187/187 185/185/185 188/188/188
f 188/188/188 186/186/186 189/189/189
f 183/183/183 187/187/187 190/190/190
f 190/190/190 187/187/187 188/188/188
f 191/191/191 183/183/183 190/190/190
f 191/191/191 190/190/190 192/192/192
f 193/193/193 188/188/188 189/189/189
f 190/190/190 188/188/188 193/193/193
f 192/192/192 190/190/190 193/193/193
f 193/193/193 189/189/189 194/194/194
f 192/192/192 193/193/193 195/195/195
f 196/196/196 198/198/198 197/197/197
f 196/196/196 197/197/197 199/199/199
f 199/199/199 197/197/197 200/200/200
f 199/199/199 200/200/200 201/201/201
f 202/202/202 196/196/196 199/199/199
f 203/203/203 199/199/199 201/201/201
f 202/202/202 199/199/199 203/203/203
f 204/204/204 196/196/196 202/202/202
f 204/204/204 205/205/205 196/196/196
f 206/206/206 204/204/204 202/202/202
f 206/206/206 202/202/202 207/207/207
f 207/207/207 202/202/202 203/203/203
f 208/208/208 206/206/206 207/207/207
f 203/203/203 201/201/201 209/209/209
f 209/209/209 201/201/201 210/210/210
f 209/209/209 210/210/210 211/211/211
f 208/208/208 207/207/207 212/212/212
f 213/213/213 208/208/208 212/212/212
f 207/207/207 203/203/203 214/214/214
f 214/214/214 203/203/203 209/209/209
f 212/212/212 207/207/207 214/214/214
f 215/215/215 209/209/209 211/211/211
f 214/214/214 209/209/209 215/215/215
f 215/215/215 211/211/211 216/216/216
f 213/213/213 212/212/212 217/217/217
f 218/218/218 213/213/213 217/217/217
f 212/212/212 214/214/214 219/219/219
f 219/219/219 214/214/214 215/215/215
f 217/217/217 212/212/212 219/219/219
f 220/220/220 215/215/215 216/216/216
f 219/219/219 215/215/215 220/220/220
f 220/220/220 216/216/216 221/221/221
f 218/218/218 217/217/217 222/222/222
f 223/223/223 218/218/218 222/222/222
f 217/217/217 219/219/219 224/224/224
f 224/224/224 219/219/219 220/220/220
f 222/222/222 217/217/217 224/224/224
f 225/225/225 220/220/220 221/221/221
f 224/224/224 220/220/220 225/225/225
f 225/225/225 221/221/221 226/226/226
f 223/223/223 222/222/222 227/227/227
f 228/228/228 223/223/223 227/227/227
f 222/222/222 224/224/224 229/229/229
f 229/229/229 224/224/224 225/225/225
f 227/227/227 222/222/222 229/229/229
f 230/230/230 225/225/225 226/226/226
f 229/229/229 225/225/225 230/230/230
f 230/230/230 226/226/226 231/231/231
f 228/228/228 227/227/227 232/232/232
f 233/233/233 228/228/228 232/232/232
f 227/227/227 229/229/229 234/234/234
f 234/234/234 229/229/229 230/230/230
f 232/232/232 227/227/227 234/234/234
f 235/235/235 230/230/230 231/231/231
f 234/234/234 230/230/230 235/235/235
f 235/235/235 231/231/231 236/236/236
f 233/233/233 232/232/232 237/237/237
f 238/238/238 233/233/233 237/237/237
f 232/232/232 234/234/234 239/239/239
f 239/239/239 234/234/234 235/235/235
f 237/237/237 232/232/232 239/239/239
f 240/240/240 235/235/235 236/236/236
f 239/239/239 235/235/235 240/240/240
f 240/240/240 236/236/236 241/241/241
f 238/238/238 237/237/237 242/242/242
f 243/243/243 238/238/238 242/242/242
f 237/237/237 239/239/239 244/244/244
f 244/244/244 239/239/239 240/240/240
f 242/242/242 237/237/237 244/244/244
f 245/245/245 240/240/240 241/241/241
f 244/244/244 240/240/240 245/245/245
f 245/245/245 241/241/241 246/246/246
f 243/243/243 242/242/242 247/247/247
f 248/248/248 243/243/243 247/247/247
f 242/242/242 244/244/244 249/249/249
f 249/249/249 244/244/244 245/245/245
f 247/247/247 242/242/242 249/249/249
f 250/250/250 245/245/245 246/246/246
f 249/249/249 245/245/245 250/250/250
f 250/250/250 246/246/246 251/251/251
f 248/248/248 247/247/247 252/252/252
f 253/253/253 248/248/248 252/252/252
f 253/253/253 252/252/252 254/254/254
f 247/247/247 249/249/249 255/255/255
f 255/255/255 249/249/249 250/250/250
f 252/252/252 247/247/247 255/255/255
f 256/256/256 250/250/250 251/251/251
f 255/255/255 250/250/250 256/256/256
f 256/256/256 251/251/251 257/257/257
f 252/252/252 255/255/255 258/258/258
f 254/254/254 252/252/252 258/258/258
f 258/258/258 255/255/255 256/256/256
f 259/259/259 256/256/256 257/257/257
f 258/258/258 256/256/256 259/259/259
f 259/259/259 257/257/257 260/260/260
f 254/254/254 258/258/258 261/261/261
f 261/261/261 258/258/258 259/259/259
f 262/262/262 254/254/254 261/261/261
f 262/262/262 261/261/261 263/263/263
f 264/264/264 259/259/259 260/260/260
f 261/261/261 259/259/259 264/264/264
f 263/263/263 261/261/261 264/264/264
f 264/264/264 260/260/260 265/265/265
f 263/263/263 264/264/264 266/266/266
f 267/267/267 269/269/269 268/268/268
f 267/267/267 268/268/268 270/270/270
f 270/270/270 268/268/268 271/271/271
f 270/270/270 271/271/271 272/272/272
f 273/273/273 267/267/267 270/270/270
f 274/274/274 270/270/270 272/272/272
f 273/273/273 270/270/270 274/274/274
f 275/275/275 267/267/267 273/273/273
f 275/275/275 276/276/276 267/267/267
f 277/277/277 275/275/275 273/273/273
f 277/277/277 273/273/273 278/278/278
f 278/278/278 273/273/273 274/274/274
f 279/279/279 277/277/277 278/278/278
f 274/274/274 272/272/272 280/280/280
f 280/280/280 272/272/272 281/281/281
f 280/280/280 281/281/281 282/282/282
f 279/279/279 278/278/278 283/283/283
f 284/284/284 279/279/279 283/283/283
f 278/278/278 274/274/274 285/285/285
f 285/285/285 274/274/274 280/280/280
f 283/283/283 278/278/278 285/285/285
f 286/286/286 280/280/280 282/282/282
f 285/285/285 280/280/280 286/286/286
f 286/286/286 282/282/282 287/287/287
f 284/284/284 283/283/283 288/288/288
f 289/289/289 284/284/284 288/288/288
f 283/283/283 285/285/285 290/290/290
f 290/290/290 285/285/285 286/286/286
f 288/288/288 283/283/283 290/290/290
f 291/291/291 286/286/286 287/287/287
f 290/290/290 286/286/286 291/291/291
f 291/291/291 287/287/287 292/292/292
f 289/289/289 288/288/288 293/293/293
f 294/294/294 289/289/289 293/293/293
f 288/288/288 290/290/290 295/295/295
f 295/295/295 290/290/290 291/291/291
f 293/293/293 288/288/288 295/295/295
f 296/296/296 291/291/291 292/292/292
f 295/295/295 291/291/291 296/296/296
f 296/296/296 292/292/292 297/297/297
f 294/294/294 293/293/293 298/298/298
f 299/299/299 294/294/294 298/298/298
f 293/293/293 295/295/295 300/300/300
f 300/300/300 295/295/295 296/296/296
f 298/298/298 293/293/293 300/300/300
f 301/301/301 296/296/296 297/297/297
f 300/300/300 296/296/296 301/301/301
f 301/301/301 297/297/297 302/302/302
f 299/299/299 298/298/298 303/303/303
f 304/304/304 299/299/299 303/303/303
f 298/298/298 300/300/300 305/305/305
f 305/305/305 300/300/300 301/301/301
f 303/303/303 298/298/298 305/305/305
f 306/306/306 301/301/301 302/302/302
f 305/305/305 301/301/301 306/306/306
f 306/306/306 302/302/302 307/307/307
f 304/304/304 303/303/303 308/308/308
f 309/309/309 304/304/304 308/308/308
f 303/303/303 305/305/305 310/310/310
f 310/310/310 305/305/305 306/306/306
f 308/308/308 303/303/303 310/310/310
f 311/311/311 306/306/306 307/307/307
f 310/310/310 306/306/306 311/311/311
f 311/311/311 307/307/307 312/312/312
f 309/309/309 308/308/308 313/313/313
f 314/314/314 309/309/309 313/313/313
f 308/308/308 310/310/310 315/315/315
f 315/315/315 310/310/310 311/311/311
f 313/313/313 308/308/308 315/315/315
f 316/316/316 311/311/311 312/312/312
f 315/315/315 311/311/311 316/316/316
f 316/316/316 312/312/312 317/317/317
f 314/314/314 313/313/313 318/318/318
f 319/319/319 314/314/314 318/318/318
f 313/313/313 315/315/315 320/320/320
f 320/320/320 315/315/315 316/316/316
f 318/318/318 313/313/313 320/320/320
f 321/321/321 316/316/316 317/317/317
f 320/320/320 316/316/316 321/321/321
f 321/321/321 317/317/317 322/322/322
f 319/319/319 318/318/318 323/323/323
f 324/324/324 319/319/319 323/323/323
f 324/324/324 323/323/323 325/325/325
f 318/318/318 320/320/320 326/326/326
f 326/326/326 320/320/320 321/321/321
f 323/323/323 318/318/318 326/326/326
f 327/327/327 321/321/321 322/322/322
f 326/326/326 321/321/321 327/327/327
f 327/327/327 322/322/322 328/328/328
f 323/323/323 326/326/326 329/329/329
f 325/325/325 323/323/323 329/329/329
f 329/329/329 326/326/326 327/327/327
f 330/330/330 327/327/327 328/328/328
f 329/329/329 327/327/327 330/330/330
f 330/330/330 328/328/328 331/331/331
f 325/325/325 329/329/329 332/332/332
f 332/332/332 329/329/329 330/330/330
f 333/333/333 325/325/325 332/332/332
f 333/333/333 332/332/332 334/334/334
f 335/335/335 330/330/330 331/331/331
f 332/332/332 330/330/330 335/335/335
f 334/334/334 332/332/332 335/335/335
f 335/335/335 331/331/331 336/336/336
f 334/334/334 335/335/335 337/337/337
f 338/338/338 340/340/340 339/339/339
f 338/338/338 339/339/339 341/341/341
f 341/341/341 339/339/339 342/342/342
f 341/341/341 342/342/342 343/343/343
f 344/344/344 338/338/338 341/341/341
f 345/345/345 341/341/341 343/343/343
f 344/344/344 341/341/341 345/345/345
f 345/345/345 343/343/343 346/346/346
f 346/346/346 343/343/343 347/347/347
f 348/348/348 338/338/338 344/344/344
f 348/348/348 349/349/349 338/338/338
f 345/345/345 350/350/350 344/344/344
f 345/345/345 346/346/346 350/350/350
f 346/346/346 347/347/347 351/351/351
f 351/351/351 347/347/347 352/352/352
f 344/344/344 353/353/353 348/348/348
f 344/344/344 350/350/350 353/353/353
f 354/354/354 349/349/349 348/348/348
f 354/354/354 355/355/355 349/349/349
f 346/346/346 356/356/356 350/350/350
f 346/346/346 351/351/351 356/356/356
f 350/350/350 357/357/357 353/353/353
f 350/350/350 356/356/356 357/357/357
f 348/348/348 353/353/353 358/358/358
f 348/348/348 358/358/358 354/354/354
f 353/353/353 357/357/357 359/359/359
f 353/353/353 359/359/359 358/358/358
f 360/360/360 355/355/355 354/354/354
f 354/354/354 358/358/358 361/361/361
f 354/354/354 361/361/361 360/360/360
f 360/360/360 362/362/362 355/355/355
f 361/361/361 362/362/362 360/360/360
f 362/362/362 363/363/363 355/355/355
f 362/362/362 364/364/364 363/363/363
f 365/365/365 364/364/364 362/362/362
f 361/361/361 365/365/365 362/362/362
f 365/365/365 366/366/366 364/364/364
f 358/358/358 367/367/367 361/361/361
f 367/367/367 365/365/365 361/361/361
f 358/358/358 359/359/359 367/367/367
f 367/367/367 368/368/368 365/365/365
f 369/369/369 368/368/368 367/367/367
f 359/359/359 369/369/369 367/367/367
f 369/369/369 370/370/370 368/368/368
f 359/359/359 371/371/371 369/369/369
f 357/357/357 371/371/371 359/359/359
f 372/372/372 370/370/370 369/369/369
f 371/371/371 372/372/372 369/369/369
f 357/357/357 373/373/373 371/371/371
f 356/356/356 373/373/373 357/357/357
f 372/372/372 374/374/374 370/370/370
f 374/374/374 375/375/375 370/370/370
f 374/374/374 376/376/376 375/375/375
f 371/371/371 377/377/377 372/372/372
f 377/377/377 374/374/374 372/372/372
f 373/373/373 377/377/377 371/371/371
f 378/378/378 376/376/376 374/374/374
f 377/377/377 378/378/378 374/374/374
f 378/378/378 379/379/379 376/376/376
f 380/380/380 378/378/378 377/377/377
f 373/373/373 380/380/380 377/377/377
f 380/380/380 381/381/381 378/378/378
f 356/356/356 382/382/382 373/373/373
f 382/382/382 380/380/380 373/373/373
f 351/351/351 382/382/382 356/356/356
f 383/383/383 381/381/381 380/380/380
f 382/382/382 383/383/383 380/380/380
f 383/383/383 384/384/384 381/381/381
f 351/351/351 385/385/385 382/382/382
f 385/385/385 383/383/383 382/382/382
f 351/351/351 352/352/352 385/385/385
f 386/386/386 384/384/384 383/383/383
f 385/385/385 386/386/386 383/383/383
f 386/386/386 387/387/387 384/384/384
f 385/385/385 387/387/387 386/386/386
f 385/385/385 352/352/352 387/387/387
f 387/387/387 388/388/388 384/384/384
f 387/387/387 389/389/389 388/388/388
f 352/352/352 389/389/389 387/387/387
f 352/352/352 390/390/390 389/389/389
