# Exported from the Unity project (studs, +Y up, character faces +Z). bounds x[-1.7,-0.8] y[-1,1] z[-0.5,0.5]
v -1.7 -0.89801 0.44901
v -1.7 -0.89801 -0.44901
v -1.6 0.89801 -0.44901
v -1.6 0.89801 0.44901
v -1.57013 0.89801 -0.48506
v -1.55689 0.95689 -0.47845
v -1.57013 0.97013 -0.44901
v -1.57013 0.97013 0.44901
v -1.67013 -0.89801 -0.48506
v -1.65689 -0.95689 -0.47845
v -1.67013 -0.97013 -0.44901
v -1.55689 0.95689 0.47845
v -1.57013 0.89801 0.48506
v -1.67013 -0.89801 0.48506
v -1.7 -0.89801 0.44901
v -1.67013 -0.97013 0.44901
v -1.65689 -0.95689 0.47845
v -1.59801 -0.89801 0.5
v -1.59801 -0.97013 0.48506
v -1.65689 -0.95689 0.47845
v -1.67013 -0.89801 0.48506
v -1.57013 0.89801 0.48506
v -0.90199 -0.89801 0.5
v -0.90199 -0.97013 0.48506
v -0.84311 -0.95689 0.47845
v -0.82987 -0.89801 0.48506
v -1.49801 0.89801 0.5
v -1.55689 0.95689 0.47845
v -1.49801 0.97013 0.48506
v -0.90199 0.97013 0.48506
v -0.90199 0.89801 0.5
v -0.82987 0.89801 0.48506
v -0.84311 0.95689 0.47845
v -1.49801 1 0.44901
v -1.55689 0.95689 0.47845
v -1.57013 0.97013 0.44901
v -1.49801 0.97013 0.48506
v -1.57013 0.97013 -0.44901
v -0.90199 1 0.44901
v -0.90199 0.97013 0.48506
v -0.84311 0.95689 0.47845
v -0.82987 0.97013 0.44901
v -0.90199 1 -0.44901
v -0.82987 0.97013 -0.44901
v -0.84311 0.95689 -0.47845
v -0.90199 0.97013 -0.48506
v -1.49801 1 -0.44901
v -1.55689 0.95689 -0.47845
v -1.49801 0.97013 -0.48506
v -1.59801 -1 -0.44901
v -1.65689 -0.95689 -0.47845
v -1.67013 -0.97013 -0.44901
v -1.59801 -0.97013 -0.48506
v -1.67013 -0.97013 0.44901
v -0.90199 -1 -0.44901
v -0.90199 -0.97013 -0.48506
v -0.84311 -0.95689 -0.47845
v -0.82987 -0.97013 -0.44901
v -0.90199 -1 0.44901
v -0.82987 -0.97013 0.44901
v -0.84311 -0.95689 0.47845
v -0.90199 -0.97013 0.48506
v -1.59801 -1 0.44901
v -1.65689 -0.95689 0.47845
v -1.59801 -0.97013 0.48506
v -1.59801 -0.89801 -0.5
v -1.67013 -0.89801 -0.48506
v -1.65689 -0.95689 -0.47845
v -1.59801 -0.97013 -0.48506
v -0.90199 -0.97013 -0.48506
v -1.49801 0.89801 -0.5
v -1.57013 0.89801 -0.48506
v -1.55689 0.95689 -0.47845
v -1.49801 0.97013 -0.48506
v -0.90199 0.89801 -0.5
v -0.90199 0.97013 -0.48506
v -0.84311 0.95689 -0.47845
v -0.82987 0.89801 -0.48506
v -0.90199 -0.89801 -0.5
v -0.84311 -0.95689 -0.47845
v -0.82987 -0.89801 -0.48506
v -0.8 -0.89801 -0.44901
v -0.84311 -0.95689 -0.47845
v -0.82987 -0.97013 -0.44901
v -0.82987 -0.89801 -0.48506
v -0.82987 -0.97013 0.44901
v -0.8 0.89801 -0.44901
v -0.82987 0.89801 -0.48506
v -0.84311 0.95689 -0.47845
v -0.82987 0.97013 -0.44901
v -0.8 0.89801 0.44901
v -0.82987 0.97013 0.44901
v -0.84311 0.95689 0.47845
v -0.82987 0.89801 0.48506
v -0.8 -0.89801 0.44901
v -0.84311 -0.95689 0.47845
v -0.82987 -0.89801 0.48506
vt 0.38868 0.47501
vt 0.3257 0.47501
vt 0.3257 0.60098
vt 0.38868 0.60098
vt 0.32317 0.60098
vt 0.32363 0.60511
vt 0.3257 0.60604
vt 0.38868 0.60604
vt 0.32317 0.47501
vt 0.32363 0.47088
vt 0.3257 0.46995
vt 0.39075 0.60511
vt 0.39121 0.60098
vt 0.39121 0.47501
vt 0.38868 0.47501
vt 0.38868 0.46995
vt 0.39075 0.47088
vt 0.40292 0.47501
vt 0.40292 0.46995
vt 0.39879 0.47088
vt 0.39786 0.47501
vt 0.40488 0.60098
vt 0.45875 0.47501
vt 0.45875 0.46995
vt 0.46288 0.47088
vt 0.46381 0.47501
vt 0.40993 0.60098
vt 0.4058 0.60511
vt 0.40993 0.60604
vt 0.45875 0.60604
vt 0.45875 0.60098
vt 0.46381 0.60098
vt 0.46288 0.60511
vt 0.40993 0.61522
vt 0.4058 0.61315
vt 0.40488 0.61522
vt 0.40993 0.61269
vt 0.40488 0.6782
vt 0.45875 0.61522
vt 0.45875 0.61269
vt 0.46288 0.61315
vt 0.46381 0.61522
vt 0.45875 0.6782
vt 0.46381 0.6782
vt 0.46288 0.68027
vt 0.45875 0.68073
vt 0.40993 0.6782
vt 0.4058 0.68027
vt 0.40993 0.68073
vt 0.40292 0.39778
vt 0.39879 0.39572
vt 0.39786 0.39778
vt 0.40292 0.39526
vt 0.39786 0.46077
vt 0.45875 0.39778
vt 0.45875 0.39526
vt 0.46288 0.39572
vt 0.46381 0.39778
vt 0.45875 0.46077
vt 0.46381 0.46077
vt 0.46288 0.46284
vt 0.45875 0.4633
vt 0.40292 0.46077
vt 0.39879 0.46284
vt 0.40292 0.4633
vt 0.60604 0.47501
vt 0.6111 0.47501
vt 0.61017 0.47088
vt 0.60604 0.46995
vt 0.55021 0.46995
vt 0.59903 0.60098
vt 0.60409 0.60098
vt 0.60316 0.60511
vt 0.59903 0.60604
vt 0.55021 0.60098
vt 0.55021 0.60604
vt 0.54608 0.60511
vt 0.54515 0.60098
vt 0.55021 0.47501
vt 0.54608 0.47088
vt 0.54515 0.47501
vt 0.53598 0.47501
vt 0.53804 0.47088
vt 0.53598 0.46995
vt 0.5385 0.47501
vt 0.47299 0.46995
vt 0.53598 0.60098
vt 0.5385 0.60098
vt 0.53804 0.60511
vt 0.53598 0.60604
vt 0.47299 0.60098
vt 0.47299 0.60604
vt 0.47092 0.60511
vt 0.47046 0.60098
vt 0.47299 0.47501
vt 0.47092 0.47088
vt 0.47046 0.47501
vn -0.939 -0.1479 0.3106
vn -0.939 -0.1479 -0.3106
vn -0.9289 0.1992 -0.3121
vn -0.9289 0.1992 0.3121
vn -0.5247 0.1374 -0.8402
vn -0.4503 0.4503 -0.771
vn -0.6749 0.6749 -0.2985
vn -0.6749 0.6749 0.2985
vn -0.5355 -0.1088 -0.8375
vn -0.4503 -0.4503 -0.771
vn -0.6749 -0.6749 -0.2985
vn -0.4503 0.4503 0.771
vn -0.5247 0.1374 0.8402
vn -0.5355 -0.1088 0.8375
vn -0.939 -0.1479 0.3106
vn -0.6749 -0.6749 0.2985
vn -0.4503 -0.4503 0.771
vn -0.0972 -0.0924 0.991
vn -0.1233 -0.5301 0.8389
vn -0.4503 -0.4503 0.771
vn -0.5355 -0.1088 0.8375
vn -0.5247 0.1374 0.8402
vn 0.0953 -0.0953 0.9909
vn 0.1233 -0.5301 0.8389
vn 0.4503 -0.4503 0.771
vn 0.5301 -0.1233 0.8389
vn -0.0935 0.0981 0.9908
vn -0.4503 0.4503 0.771
vn -0.1233 0.5301 0.8389
vn 0.1233 0.5301 0.8389
vn 0.0953 0.0953 0.9909
vn 0.5301 0.1233 0.8389
vn 0.4503 0.4503 0.771
vn -0.1735 0.9343 0.3114
vn -0.4503 0.4503 0.771
vn -0.6749 0.6749 0.2985
vn -0.1233 0.5301 0.8389
vn -0.6749 0.6749 -0.2985
vn 0.1735 0.9343 0.3114
vn 0.1233 0.5301 0.8389
vn 0.4503 0.4503 0.771
vn 0.6749 0.6749 0.2985
vn 0.1735 0.9343 -0.3114
vn 0.6749 0.6749 -0.2985
vn 0.4503 0.4503 -0.771
vn 0.1233 0.5301 -0.8389
vn -0.1735 0.9343 -0.3114
vn -0.4503 0.4503 -0.771
vn -0.1233 0.5301 -0.8389
vn -0.1735 -0.9343 -0.3114
vn -0.4503 -0.4503 -0.771
vn -0.6749 -0.6749 -0.2985
vn -0.1233 -0.5301 -0.8389
vn -0.6749 -0.6749 0.2985
vn 0.1735 -0.9343 -0.3114
vn 0.1233 -0.5301 -0.8389
vn 0.4503 -0.4503 -0.771
vn 0.6749 -0.6749 -0.2985
vn 0.1735 -0.9343 0.3114
vn 0.6749 -0.6749 0.2985
vn 0.4503 -0.4503 0.771
vn 0.1233 -0.5301 0.8389
vn -0.1735 -0.9343 0.3114
vn -0.4503 -0.4503 0.771
vn -0.1233 -0.5301 0.8389
vn -0.0972 -0.0924 -0.991
vn -0.5355 -0.1088 -0.8375
vn -0.4503 -0.4503 -0.771
vn -0.1233 -0.5301 -0.8389
vn 0.1233 -0.5301 -0.8389
vn -0.0935 0.0981 -0.9908
vn -0.5247 0.1374 -0.8402
vn -0.4503 0.4503 -0.771
vn -0.1233 0.5301 -0.8389
vn 0.0953 0.0953 -0.9909
vn 0.1233 0.5301 -0.8389
vn 0.4503 0.4503 -0.771
vn 0.5301 0.1233 -0.8389
vn 0.0953 -0.0953 -0.9909
vn 0.4503 -0.4503 -0.771
vn 0.5301 -0.1233 -0.8389
vn 0.9343 -0.1735 -0.3114
vn 0.4503 -0.4503 -0.771
vn 0.6749 -0.6749 -0.2985
vn 0.5301 -0.1233 -0.8389
vn 0.6749 -0.6749 0.2985
vn 0.9343 0.1735 -0.3114
vn 0.5301 0.1233 -0.8389
vn 0.4503 0.4503 -0.771
vn 0.6749 0.6749 -0.2985
vn 0.9343 0.1735 0.3114
vn 0.6749 0.6749 0.2985
vn 0.4503 0.4503 0.771
vn 0.5301 0.1233 0.8389
vn 0.9343 -0.1735 0.3114
vn 0.4503 -0.4503 0.771
vn 0.5301 -0.1233 0.8389
usemtl m0
f 1/1/1 3/3/3 2/2/2
f 1/1/1 4/4/4 3/3/3
f 5/5/5 2/2/2 3/3/3
f 3/3/3 6/6/6 5/5/5
f 3/3/3 7/7/7 6/6/6
f 8/8/8 7/7/7 3/3/3
f 8/8/8 3/3/3 4/4/4
f 5/5/5 9/9/9 2/2/2
f 2/2/2 9/9/9 10/10/10
f 2/2/2 10/10/10 11/11/11
f 4/4/4 12/12/12 8/8/8
f 4/4/4 13/13/13 12/12/12
f 14/14/14 13/13/13 4/4/4
f 11/11/11 15/15/15 2/2/2
f 14/14/14 4/4/4 15/15/15
f 11/11/11 16/16/16 15/15/15
f 15/15/15 17/17/17 14/14/14
f 15/15/15 16/16/16 17/17/17
f 18/18/18 20/20/20 19/19/19
f 18/18/18 21/21/21 20/20/20
f 18/18/18 22/22/22 21/21/21
f 19/19/19 23/23/23 18/18/18
f 19/19/19 24/24/24 23/23/23
f 23/23/23 24/24/24 25/25/25
f 23/23/23 25/25/25 26/26/26
f 18/18/18 27/27/27 22/22/22
f 23/23/23 27/27/27 18/18/18
f 27/27/27 28/28/28 22/22/22
f 27/27/27 29/29/29 28/28/28
f 30/30/30 29/29/29 27/27/27
f 31/31/31 23/23/23 26/26/26
f 23/23/23 31/31/31 27/27/27
f 30/30/30 27/27/27 31/31/31
f 31/31/31 26/26/26 32/32/32
f 31/31/31 33/33/33 30/30/30
f 31/31/31 32/32/32 33/33/33
f 34/34/34 36/36/36 35/35/35
f 34/34/34 35/35/35 37/37/37
f 34/34/34 38/38/38 36/36/36
f 39/39/39 34/34/34 37/37/37
f 39/39/39 37/37/37 40/40/40
f 39/39/39 40/40/40 41/41/41
f 39/39/39 41/41/41 42/42/42
f 43/43/43 39/39/39 42/42/42
f 43/43/43 34/34/34 39/39/39
f 43/43/43 42/42/42 44/44/44
f 43/43/43 44/44/44 45/45/45
f 43/43/43 45/45/45 46/46/46
f 34/34/34 47/47/47 38/38/38
f 43/43/43 47/47/47 34/34/34
f 47/47/47 43/43/43 46/46/46
f 47/47/47 48/48/48 38/38/38
f 47/47/47 46/46/46 49/49/49
f 47/47/47 49/49/49 48/48/48
f 50/50/50 52/52/52 51/51/51
f 50/50/50 51/51/51 53/53/53
f 50/50/50 54/54/54 52/52/52
f 55/55/55 50/50/50 53/53/53
f 55/55/55 53/53/53 56/56/56
f 55/55/55 56/56/56 57/57/57
f 55/55/55 57/57/57 58/58/58
f 59/59/59 55/55/55 58/58/58
f 50/50/50 55/55/55 59/59/59
f 59/59/59 58/58/58 60/60/60
f 59/59/59 60/60/60 61/61/61
f 59/59/59 61/61/61 62/62/62
f 50/50/50 63/63/63 54/54/54
f 50/50/50 59/59/59 63/63/63
f 63/63/63 59/59/59 62/62/62
f 63/63/63 64/64/64 54/54/54
f 63/63/63 62/62/62 65/65/65
f 63/63/63 65/65/65 64/64/64
f 66/66/66 68/68/68 67/67/67
f 66/66/66 69/69/69 68/68/68
f 70/70/70 69/69/69 66/66/66
f 71/71/71 66/66/66 67/67/67
f 71/71/71 67/67/67 72/72/72
f 71/71/71 72/72/72 73/73/73
f 71/71/71 73/73/73 74/74/74
f 74/74/74 75/75/75 71/71/71
f 66/66/66 71/71/71 75/75/75
f 74/74/74 76/76/76 75/75/75
f 75/75/75 76/76/76 77/77/77
f 75/75/75 77/77/77 78/78/78
f 70/70/70 66/66/66 79/79/79
f 66/66/66 75/75/75 79/79/79
f 78/78/78 79/79/79 75/75/75
f 79/79/79 80/80/80 70/70/70
f 78/78/78 81/81/81 79/79/79
f 79/79/79 81/81/81 80/80/80
f 82/82/82 84/84/84 83/83/83
f 82/82/82 83/83/83 85/85/85
f 86/86/86 84/84/84 82/82/82
f 87/87/87 82/82/82 85/85/85
f 87/87/87 85/85/85 88/88/88
f 87/87/87 88/88/88 89/89/89
f 87/87/87 89/89/89 90/90/90
f 90/90/90 91/91/91 87/87/87
f 82/82/82 87/87/87 91/91/91
f 90/90/90 92/92/92 91/91/91
f 91/91/91 92/92/92 93/93/93
f 91/91/91 93/93/93 94/94/94
f 86/86/86 82/82/82 95/95/95
f 82/82/82 91/91/91 95/95/95
f 94/94/94 95/95/95 91/91/91
f 95/95/95 96/96/96 86/86/86
f 94/94/94 97/97/97 95/95/95
f 95/95/95 97/97/97 96/96/96
