# Exported from the Unity project (studs, +Y up, character faces +Z). bounds x[-0.55,0.55] y[0.92,2.08] z[-0.55,0.55]
v 0.55 0.92383 0.55
v 0.55 0.92383 -0.55
v 0.55 2.07617 -0.55
v 0.55 1.55273 -0.06111
v 0.55 0.92383 -0.55
v -0.55 0.92383 -0.55
v -0.55 2.07617 -0.55
v 0.55 2.07617 -0.55
v -0.55 0.92383 -0.55
v -0.55 0.92383 0.55
v -0.55 1.55273 -0.06111
v -0.55 2.07617 -0.55
v -0.55 0.92383 0.55
v 0.55 0.92383 0.55
v 0.55 1.55273 -0.06111
v -0.55 1.55273 -0.06111
v -0.55 2.07617 -0.55
v 0.55 2.07617 -0.55
v 0.55 0.92383 -0.55
v 0.55 0.92383 0.55
v -0.55 0.92383 0.55
v -0.55 0.92383 -0.55
vt 0 -0.02357
vt 0 -0.02357
vt 0 1.02357
vt 0 0.5476
vt 0 -0.02357
vt 1 -0.02357
vt 1 1.02357
vt 0 1.02357
vt 1 -0.02357
vt 1 -0.02357
vt 1 0.5476
vt 1 1.02357
vt 1 -0.02357
vt 0 -0.02357
vt 0 0.5476
vt 1 0.5476
vt 1 1.02357
vt 0 1.02357
vt 0 -0.02357
vt 0 -0.02357
vt 1 -0.02357
vt 1 -0.02357
vn 1 0 0
vn 1 0 0
vn 1 0 0
vn -1 0 0
vn 0 0 -1
vn 0 0 -1
vn 0 0 -1
vn 0 0 -1
vn -1 0 0
vn -1 0 0
vn -1 0 0
vn -1 0 0
vn 0 0.69724 0.71684
vn 0 0.69724 0.71684
vn 0 0.69064 0.7232
vn 0 0.69064 0.7232
vn 0 0.68249 0.7309
vn 0 0.68249 0.7309
vn 0 -1 0
vn 0 -1 0
vn 0 -1 0
vn 0 -1 0
f 13/13/13 14/14/14 15/15/15
f 13/13/13 15/15/15 16/16/16
f 17/17/17 16/16/16 15/15/15
f 17/17/17 15/15/15 18/18/18
