# Exported from the Unity project (studs, +Y up, character faces +Z). bounds x[-0.55,0.55] y[0.92,2.08] z[-0.55,0.55]
v 0.55 0.92383 0.55
v 0.55 0.92383 -0.55
v 0.55 2.07617 -0.55
v 0.55 1.55273 -0.06111
v 0.55 0.92383 -0.55
v -0.55 0.92383 -0.55
v -0.55 2.07617 -0.55
v 0.55 2.07617 -0.55
v -0.55 0.92383 -0.55
v -0.55 0.92383 0.55
v -0.55 1.55273 -0.06111
v -0.55 2.07617 -0.55
v -0.55 0.92383 0.55
v 0.55 0.92383 0.55
v 0.55 1.55273 -0.06111
v -0.55 1.55273 -0.06111
v -0.55 2.07617 -0.55
v 0.55 2.07617 -0.55
v 0.55 0.92383 -0.55
v 0.55 0.92383 0.55
v -0.55 0.92383 0.55
v -0.55 0.92383 -0.55
vt 0.10995 0.13909
vt 0.02578 0.13909
vt 0.02578 0.24408
vt 0.06319 0.19636
vt 0.47292 0.13909
vt 0.38875 0.13909
vt 0.38875 0.24408
vt 0.47292 0.24408
vt 0.35193 0.13909
vt 0.26776 0.13909
vt 0.31452 0.19636
vt 0.35193 0.24408
vt 0.24356 0.12334
vt 0.13415 0.12334
vt 0.13415 0.19779
vt 0.24356 0.19779
vt 0.24356 0.25983
vt 0.13415 0.25983
vt 0.13722 0.01623
vt 0.13722 0.1195
vt 0.24049 0.1195
vt 0.24049 0.01623
vn 1 0 0
vn 1 0 0
vn 1 0 0
vn -1 0 0
vn 0 0 -1
vn 0 0 -1
vn 0 0 -1
vn 0 0 -1
vn -1 0 0
vn -1 0 0
vn -1 0 0
vn -1 0 0
vn 0 0.69724 0.71684
vn 0 0.69724 0.71684
vn 0 0.69064 0.7232
vn 0 0.69064 0.7232
vn 0 0.68249 0.7309
vn 0 0.68249 0.7309
vn 0 -1 0
vn 0 -1 0
vn 0 -1 0
vn 0 -1 0
f 1/1/1 2/2/2 3/3/3
f 1/1/1 3/3/3 4/4/4
f 5/5/5 6/6/6 7/7/7
f 5/5/5 7/7/7 8/8/8
f 9/9/9 10/10/10 11/11/11
f 9/9/9 11/11/11 12/12/12
f 13/13/13 14/14/14 15/15/15
f 13/13/13 15/15/15 16/16/16
f 17/17/17 16/16/16 15/15/15
f 17/17/17 15/15/15 18/18/18
f 19/19/19 20/20/20 21/21/21
f 19/19/19 21/21/21 22/22/22
