# bounds x[-0.63,0.63] y[1.7,2.38] z[-0.62,0.93] (Unity axes)
v 0.45835 1.87636 0.46592
v 0.25293 1.90279 0.58893
v 0.23732 2.19617 0.43794
v 0.4 2.13296 0.3849
v 0.58319 1.87401 0.25992
v 0.45835 1.77675 0.47463
v 0.45835 2.17691 0.21775
v 0.25293 2.30264 0.22242
v 0.58319 1.77439 0.26863
v 0.42667 1.7602 0.45667
v 0.5458 1.77315 0.25448
v 0.62546 1.8655 0.00677
v 0.62546 1.76588 0.01549
v 0.58546 1.76588 0.01549
v 0.48765 2.18542 -0.02122
v 0.58319 1.82992 -0.24401
v 0.58319 1.7303 -0.23529
v 0.5458 1.73154 -0.22114
v 0.26651 2.3227 -0.03323
v 0.12646 2.32428 0.22734
v 0.45835 2.13554 -0.25508
v 0.45835 1.79647 -0.44729
v 0.45835 1.69685 -0.43857
v 0.43006 1.69931 -0.41039
v 0.13326 2.34569 -0.03524
v 0 2.34593 0.23227
v 0.25293 2.25855 -0.28151
v 0.4 2.06323 -0.41206
v 0.25293 1.80113 -0.57302
v 0.25293 1.70152 -0.5643
v 0.23872 1.70477 -0.52705
v 0 2.36867 -0.03725
v -0.12646 2.32428 0.22734
v 0.23732 2.11627 -0.47527
v 0.12646 2.27901 -0.29012
v 0.12646 1.80606 -0.59466
v 0.12646 1.70644 -0.58595
v 0.11987 1.70988 -0.54665
v 0 1.71137 -0.6076
v 0 1.71485 -0.56775
v 0 1.81099 -0.61631
v 0.11866 2.1296 -0.49114
v 0 2.14292 -0.50702
v 0 2.29947 -0.29873
v -0.13326 2.34569 -0.03524
v 0 2.29947 -0.29873
v -0.25293 2.30264 0.22242
v -0.12646 2.27901 -0.29012
v 0 2.14292 -0.50702
v -0.26651 2.3227 -0.03323
v -0.11866 2.1296 -0.49114
v -0.25293 2.25855 -0.28151
v -0.12646 1.80606 -0.59466
v 0 1.81099 -0.61631
v 0 1.71137 -0.6076
v -0.12646 1.70644 -0.58595
v 0 1.71485 -0.56775
v -0.11987 1.70988 -0.54665
v -0.25293 1.80113 -0.57302
v -0.25293 1.70152 -0.5643
v -0.23872 1.70477 -0.52705
v -0.23732 2.11627 -0.47527
v -0.45835 1.79647 -0.44729
v -0.45835 1.69685 -0.43857
v -0.43006 1.69931 -0.41039
v -0.58319 1.7303 -0.23529
v -0.5458 1.73154 -0.22114
v -0.58319 1.82992 -0.24401
v -0.4 2.06324 -0.41206
v -0.45835 2.13554 -0.25508
v -0.62546 1.76588 0.01549
v -0.58546 1.76588 0.01549
v -0.62546 1.8655 0.00677
v -0.48765 2.18542 -0.02122
v -0.58319 1.77439 0.26863
v -0.5458 1.77315 0.25448
v -0.58319 1.87401 0.25992
v -0.45835 2.17691 0.21775
v -0.45835 1.77675 0.47463
v -0.42667 1.7602 0.45667
v -0.45835 1.87636 0.46592
v -0.4 2.13296 0.3849
v -0.23732 2.19617 0.43794
v -0.25293 1.90279 0.58893
v -0.12646 1.9114 0.60939
v -0.25293 1.90279 0.58893
v -0.23732 2.19617 0.43794
v -0.11866 2.21204 0.45126
v -0.12646 2.32428 0.22734
v -0.25293 2.30264 0.22242
v 0 2.34593 0.23227
v 0 2.22792 0.46458
v 0.12646 2.32428 0.22734
v 0.11866 2.21204 0.45126
v 0.25293 2.30264 0.22242
v 0.23732 2.19617 0.43794
v 0.25293 1.90279 0.58893
v 0.12646 1.9114 0.60939
v 0.11866 2.21204 0.45126
v 0.23732 2.19617 0.43794
v -0.06 2.22 0.06
v -0.08748 2.24206 0.03794
v -0.06875 2.2444 0.06875
v -0.06875 2.21125 0.0356
v -0.09382 2.24002 0
v -0.0356 2.21125 0.06875
v -0.07315 2.20685 0
v -0.03794 2.19252 0.03794
v 0 2.20685 0.07315
v -0.03998 2.18618 0
v -0.06875 2.21125 -0.0356
v 0 2.18618 0.03998
v 0.0356 2.21125 0.06875
v -0.03794 2.19252 -0.03794
v -0.06 2.22 -0.06
v -0.0356 2.21125 -0.06875
v 0 2.17926 0
v 0.03794 2.19252 0.03794
v 0.06 2.22 0.06
v 0.06875 2.21125 0.0356
v 0 2.18618 -0.03998
v 0 2.20685 -0.07315
v 0.03998 2.18618 0
v 0.07315 2.20685 0
v 0.03794 2.19252 -0.03794
v 0.06875 2.21125 -0.0356
v -0.06875 2.3156 0.06875
v -0.06875 2.34875 0.0356
v -0.06 2.34 0.06
v -0.08748 2.31794 0.03794
v -0.07315 2.28 0.07315
v -0.07315 2.35315 0
v -0.09382 2.28 0.03998
v -0.06875 2.2444 0.06875
v -0.08748 2.24206 0.03794
v -0.09382 2.31998 0
v -0.06875 2.34875 -0.0356
v -0.10074 2.28 0
v -0.09382 2.24002 0
v -0.08748 2.31794 -0.03794
v -0.06 2.34 -0.06
v -0.09382 2.28 -0.03998
v -0.06875 2.3156 -0.06875
v -0.0356 2.34875 -0.06875
v -0.03794 2.31794 -0.08748
v -0.07315 2.28 -0.07315
v -0.03998 2.28 -0.09382
v -0.08748 2.24206 -0.03794
v -0.07315 2.20685 0
v -0.06875 2.2444 -0.06875
v -0.06875 2.21125 -0.0356
v -0.06 2.22 -0.06
v -0.06875 2.2444 -0.06875
v -0.03998 2.28 -0.09382
v -0.07315 2.28 -0.07315
v -0.03794 2.24206 -0.08748
v -0.06 2.22 -0.06
v -0.0356 2.21125 -0.06875
v 0 2.24002 -0.09382
v 0 2.20685 -0.07315
v 0 2.28 -0.10074
v 0 2.31998 -0.09382
v -0.03794 2.31794 -0.08748
v 0 2.35315 -0.07315
v -0.0356 2.34875 -0.06875
v 0.0356 2.34875 -0.06875
v 0.03794 2.31794 -0.08748
v 0.06 2.34 -0.06
v 0.06875 2.3156 -0.06875
v 0.03998 2.28 -0.09382
v 0.07315 2.28 -0.07315
v 0.03794 2.24206 -0.08748
v 0.06875 2.2444 -0.06875
v 0.0356 2.21125 -0.06875
v 0.06 2.22 -0.06
v 0.06875 2.21125 -0.0356
v 0.03794 2.19252 -0.03794
v 0 2.18618 -0.03998
v 0.06875 2.3156 -0.06875
v 0.06875 2.34875 -0.0356
v 0.06 2.34 -0.06
v 0.08748 2.31794 -0.03794
v 0.07315 2.28 -0.07315
v 0.07315 2.35315 0
v 0.09382 2.28 -0.03998
v 0.06875 2.2444 -0.06875
v 0.09382 2.31998 0
v 0.06875 2.34875 0.0356
v 0.08748 2.24206 -0.03794
v 0.06 2.22 -0.06
v 0.06875 2.21125 -0.0356
v 0.10074 2.28 0
v 0.08748 2.31794 0.03794
v 0.06 2.34 0.06
v 0.06875 2.3156 0.06875
v 0.09382 2.24002 0
v 0.07315 2.20685 0
v 0.09382 2.28 0.03998
v 0.07315 2.28 0.07315
v 0.08748 2.24206 0.03794
v 0.06875 2.21125 0.0356
v 0.06875 2.2444 0.06875
v 0.03998 2.28 0.09382
v 0.06 2.22 0.06
v 0.03794 2.24206 0.08748
v 0.0356 2.21125 0.06875
v 0.06875 2.3156 0.06875
v 0.0356 2.34875 0.06875
v 0.06 2.34 0.06
v 0.03794 2.31794 0.08748
v 0.07315 2.28 0.07315
v 0 2.35315 0.07315
v 0.03998 2.28 0.09382
v 0 2.31998 0.09382
v -0.0356 2.34875 0.06875
v 0 2.28 0.10074
v 0.03794 2.24206 0.08748
v -0.03794 2.31794 0.08748
v -0.06 2.34 0.06
v -0.06875 2.3156 0.06875
v -0.03998 2.28 0.09382
v -0.07315 2.28 0.07315
v 0 2.24002 0.09382
v 0.0356 2.21125 0.06875
v 0 2.20685 0.07315
v -0.03794 2.24206 0.08748
v -0.06875 2.2444 0.06875
v -0.0356 2.21125 0.06875
v -0.06 2.22 0.06
v 0.42887 1.86017 0.44426
v 0.22446 2.16922 0.41132
v 0.23455 1.87392 0.56822
v 0.37539 2.11116 0.36211
v 0.54623 1.86565 0.24712
v 0.42667 1.7602 0.45667
v 0.5458 1.77315 0.25448
v 0.4295 2.15133 0.20708
v 0.23948 2.26641 0.21208
v 0.58628 1.85747 0.00747
v 0.58546 1.76588 0.01549
v 0.45731 2.15945 -0.01895
v 0.54623 1.82391 -0.22995
v 0.5458 1.73154 -0.22114
v 0.25227 2.28547 -0.02997
v 0.11959 2.28639 0.21653
v 0.4295 2.11221 -0.24013
v 0.43042 1.79256 -0.41891
v 0.43006 1.69931 -0.41039
v 0.12637 2.30643 -0.0318
v 0 2.30745 0.22136
v 0.23948 2.22467 -0.26504
v 0.3754 2.04573 -0.38582
v 0.23945 1.79719 -0.53556
v 0.23872 1.70477 -0.52705
v 0 2.32882 -0.03376
v -0.11959 2.28639 0.21653
v 0.22446 2.09436 -0.44437
v 0.11971 1.80161 -0.55549
v 0.11987 1.70988 -0.54665
v 0.11959 2.24357 -0.27289
v -0.12637 2.30643 -0.0318
v -0.23948 2.26641 0.21208
v 0 2.26347 -0.2813
v 0 2.26347 -0.2813
v 0.11166 2.10671 -0.45909
v 0 2.11956 -0.47455
v 0 1.80633 -0.57658
v 0 1.71485 -0.56775
v -0.11959 2.24357 -0.27289
v 0 2.11956 -0.47455
v -0.25227 2.28547 -0.02997
v -0.11166 2.10671 -0.45909
v -0.23948 2.22467 -0.26504
v -0.11971 1.80161 -0.55549
v 0 1.80633 -0.57658
v 0 1.71485 -0.56775
v -0.11987 1.70988 -0.54665
v -0.23945 1.79719 -0.53556
v -0.23872 1.70477 -0.52705
v -0.22446 2.09436 -0.44437
v -0.43042 1.79256 -0.41891
v -0.43006 1.69931 -0.41039
v -0.54623 1.82391 -0.22995
v -0.5458 1.73154 -0.22114
v -0.37539 2.04573 -0.38582
v -0.4295 2.11221 -0.24013
v -0.58628 1.85747 0.00747
v -0.58546 1.76588 0.01549
v -0.45731 2.15945 -0.01895
v -0.54623 1.86565 0.24712
v -0.5458 1.77315 0.25448
v -0.4295 2.15133 0.20708
v -0.42887 1.86017 0.44426
v -0.42667 1.7602 0.45667
v -0.3754 2.11116 0.36211
v -0.22446 2.16922 0.41132
v -0.23455 1.87392 0.56822
v -0.11749 1.87764 0.58991
v -0.22446 2.16922 0.41132
v -0.23455 1.87392 0.56822
v -0.11166 2.18394 0.42367
v -0.11959 2.28639 0.21653
v -0.23948 2.26641 0.21208
v 0 2.30745 0.22136
v 0 2.19928 0.43666
v 0.11959 2.28639 0.21653
v 0.11166 2.18394 0.42367
v 0.23948 2.26641 0.21208
v 0.22446 2.16922 0.41132
v 0.23455 1.87392 0.56822
v 0.22446 2.16922 0.41132
v 0.11166 2.18394 0.42367
v 0.11749 1.87764 0.58991
v -0.03691 2.24309 0.03691
v -0.04191 2.25703 0.04191
v -0.05229 2.25551 0.02449
v -0.04191 2.23809 0.02297
v -0.05644 2.25426 0
v -0.02297 2.23809 0.04191
v -0.04486 2.23514 0
v -0.02449 2.22771 0.02449
v 0 2.23514 0.04486
v -0.02574 2.22356 0
v -0.04191 2.23809 -0.02297
v 0 2.22356 0.02574
v 0.02297 2.23809 0.04191
v -0.02449 2.22771 -0.02449
v -0.03691 2.24309 -0.03691
v -0.02297 2.23809 -0.04191
v 0 2.21926 0
v 0.02449 2.22771 0.02449
v 0.03691 2.24309 0.03691
v 0.04191 2.23809 0.02297
v 0 2.22356 -0.02574
v 0 2.23514 -0.04486
v 0.02574 2.22356 0
v 0.04486 2.23514 0
v 0.02449 2.22771 -0.02449
v 0.04191 2.23809 -0.02297
v -0.04191 2.30297 0.04191
v -0.03691 2.31691 0.03691
v -0.04191 2.32191 0.02297
v -0.05229 2.30449 0.02449
v -0.04486 2.28 0.04486
v -0.04486 2.32486 0
v -0.05644 2.28 0.02574
v -0.04191 2.25703 0.04191
v -0.05229 2.25551 0.02449
v -0.05644 2.30574 0
v -0.06074 2.28 0
v -0.05644 2.25426 0
v -0.04191 2.32191 -0.02297
v -0.05229 2.30449 -0.02449
v -0.05644 2.28 -0.02574
v -0.02449 2.33229 -0.02449
v -0.02574 2.33644 0
v -0.02297 2.32191 -0.04191
v -0.03691 2.31691 -0.03691
v -0.04191 2.30297 -0.04191
v -0.02449 2.30449 -0.05229
v -0.04486 2.28 -0.04486
v -0.02574 2.28 -0.05644
v -0.05229 2.25551 -0.02449
v -0.04486 2.23514 0
v -0.04191 2.25703 -0.04191
v -0.04191 2.23809 -0.02297
v -0.03691 2.24309 -0.03691
v -0.04191 2.25703 -0.04191
v -0.04486 2.28 -0.04486
v -0.02574 2.28 -0.05644
v -0.02449 2.25551 -0.05229
v -0.03691 2.24309 -0.03691
v -0.02297 2.23809 -0.04191
v 0 2.25426 -0.05644
v 0 2.23514 -0.04486
v 0 2.28 -0.06074
v 0 2.30574 -0.05644
v -0.02449 2.30449 -0.05229
v 0 2.32486 -0.04486
v -0.02297 2.32191 -0.04191
v 0.02297 2.32191 -0.04191
v 0.02449 2.30449 -0.05229
v 0.03691 2.31691 -0.03691
v 0.04191 2.30297 -0.04191
v 0.02574 2.28 -0.05644
v 0.04486 2.28 -0.04486
v 0.02449 2.25551 -0.05229
v 0.04191 2.25703 -0.04191
v 0.02297 2.23809 -0.04191
v 0.03691 2.24309 -0.03691
v 0.04191 2.23809 -0.02297
v 0.02449 2.22771 -0.02449
v 0 2.22356 -0.02574
v 0.04191 2.30297 -0.04191
v 0.03691 2.31691 -0.03691
v 0.04191 2.32191 -0.02297
v 0.05229 2.30449 -0.02449
v 0.04486 2.28 -0.04486
v 0.04486 2.32486 0
v 0.05644 2.28 -0.02574
v 0.04191 2.25703 -0.04191
v 0.05644 2.30574 0
v 0.04191 2.32191 0.02297
v 0.05229 2.25551 -0.02449
v 0.03691 2.24309 -0.03691
v 0.04191 2.23809 -0.02297
v 0.06074 2.28 0
v 0.05229 2.30449 0.02449
v 0.03691 2.31691 0.03691
v 0.04191 2.30297 0.04191
v 0.05644 2.25426 0
v 0.04486 2.23514 0
v 0.05644 2.28 0.02574
v 0.04486 2.28 0.04486
v 0.05229 2.25551 0.02449
v 0.04191 2.23809 0.02297
v 0.04191 2.25703 0.04191
v 0.02574 2.28 0.05644
v 0.03691 2.24309 0.03691
v 0.02449 2.25551 0.05229
v 0.02297 2.23809 0.04191
v 0.04191 2.30297 0.04191
v 0.03691 2.31691 0.03691
v 0.02297 2.32191 0.04191
v 0.02449 2.30449 0.05229
v 0.04486 2.28 0.04486
v 0 2.32486 0.04486
v 0.02574 2.28 0.05644
v 0 2.30574 0.05644
v -0.02297 2.32191 0.04191
v 0 2.28 0.06074
v 0.02449 2.25551 0.05229
v -0.02449 2.30449 0.05229
v -0.03691 2.31691 0.03691
v -0.04191 2.30297 0.04191
v -0.02574 2.28 0.05644
v -0.04486 2.28 0.04486
v 0 2.25426 0.05644
v 0.02297 2.23809 0.04191
v 0 2.23514 0.04486
v -0.02449 2.25551 0.05229
v -0.04191 2.25703 0.04191
v -0.02297 2.23809 0.04191
v -0.03691 2.24309 0.03691
v 0 2.32486 -0.04486
v -0.02297 2.32191 -0.04191
v -0.02449 2.33229 -0.02449
v 0 2.33644 -0.02574
v 0.02297 2.32191 -0.04191
v -0.02574 2.33644 0
v 0.02449 2.33229 -0.02449
v 0.03691 2.31691 -0.03691
v 0.04191 2.32191 -0.02297
v 0 2.34074 0
v 0.02574 2.33644 0
v 0.04486 2.32486 0
v 0.02449 2.33229 0.02449
v 0.04191 2.32191 0.02297
v 0 2.33644 0.02574
v 0.02297 2.32191 0.04191
v 0.03691 2.31691 0.03691
v 0 2.32486 0.04486
v -0.02297 2.32191 0.04191
v -0.02449 2.33229 0.02449
v -0.03691 2.31691 0.03691
v -0.04191 2.32191 0.02297
v -0.04486 2.32486 0
v 0 2.22792 0.46458
v 0 1.92001 0.62985
v -0.11866 2.21204 0.45126
v -0.12646 1.9114 0.60939
v 0 2.19928 0.43666
v 0 1.88406 0.61232
v -0.11166 2.18394 0.42367
v -0.11749 1.87764 0.58991
v -0.25293 1.90279 0.58893
v -0.45835 1.77675 0.47463
v -0.45835 1.87636 0.46592
v -0.35293 1.8206 0.79688
v -0.42667 1.7602 0.45667
v -0.12646 1.9114 0.60939
v -0.33374 1.78581 0.79229
v -0.17646 1.93755 0.90825
v 0 1.92001 0.62985
v -0.16872 1.89837 0.9105
v 0 1.94616 0.92871
v 0.12646 1.9114 0.60939
v 0 1.90632 0.93235
v 0.17646 1.93755 0.90825
v 0.25293 1.90279 0.58893
v 0.16872 1.89837 0.9105
v 0.35293 1.8206 0.79688
v 0.45835 1.87636 0.46592
v 0.33374 1.78581 0.79229
v 0.45835 1.77675 0.47463
v 0.42667 1.7602 0.45667
v 0 2.35315 -0.07315
v -0.03794 2.36748 -0.03794
v -0.0356 2.34875 -0.06875
v 0 2.37382 -0.03998
v 0.0356 2.34875 -0.06875
v -0.03998 2.37382 0
v 0.03794 2.36748 -0.03794
v 0.06 2.34 -0.06
v 0.06875 2.34875 -0.0356
v 0 2.38074 0
v 0.03998 2.37382 0
v 0.07315 2.35315 0
v 0.03794 2.36748 0.03794
v 0.06875 2.34875 0.0356
v 0 2.37382 0.03998
v 0.0356 2.34875 0.06875
v 0.06 2.34 0.06
v 0 2.35315 0.07315
v -0.0356 2.34875 0.06875
v -0.03794 2.36748 0.03794
v -0.06 2.34 0.06
v -0.06875 2.34875 0.0356
v -0.07315 2.35315 0
v -0.03794 2.36748 -0.03794
v -0.03998 2.37382 0
v 0.42887 1.86017 0.44426
v 0.33374 1.78581 0.79229
v 0.42667 1.7602 0.45667
v 0.23455 1.87392 0.56822
v 0.16872 1.89837 0.9105
v 0.11749 1.87764 0.58991
v 0 1.90632 0.93235
v 0 1.88406 0.61232
v -0.16872 1.89837 0.9105
v -0.11749 1.87764 0.58991
v -0.33374 1.78581 0.79229
v -0.23455 1.87392 0.56822
v -0.42667 1.7602 0.45667
v -0.42887 1.86017 0.44426
vt 0.5451 0.66867
vt 0.63279 0.61798
vt 0.55041 0.50876
vt 0.50784 0.56698
vt 0.45029 0.68173
vt 0.55289 0.70877
vt 0.44124 0.56105
vt 0.45748 0.46893
vt 0.45529 0.72124
vt 0.55289 0.70877
vt 0.45529 0.72124
vt 0.35261 0.68055
vt 0.35003 0.72099
vt 0.35003 0.72099
vt 0.35786 0.55874
vt 0.25699 0.66971
vt 0.24577 0.70745
vt 0.24577 0.70745
vt 0.35766 0.46883
vt 0.45987 0.41586
vt 0.27894 0.55795
vt 0.17246 0.64169
vt 0.15419 0.67556
vt 0.15419 0.67556
vt 0.35439 0.41745
vt 0.46114 0.3629
vt 0.26704 0.47775
vt 0.2186 0.55785
vt 0.10172 0.58554
vt 0.07707 0.61649
vt 0.07707 0.61649
vt 0.34956 0.3629
vt 0.45987 0.30995
vt 0.18804 0.50378
vt 0.25416 0.43242
vt 0.06738 0.54945
vt 0.03929 0.57895
vt 0.03929 0.57895
vt 0.00399 0.53963
vt 0.00399 0.53963
vt 0.03339 0.51074
vt 0.16648 0.46613
vt 0.14349 0.42561
vt 0.23986 0.38382
vt 0.35439 0.30835
vt 0.23986 0.34198
vt 0.45748 0.25687
vt 0.25416 0.29338
vt 0.14349 0.30019
vt 0.35766 0.25697
vt 0.16648 0.25967
vt 0.26704 0.24805
vt 0.06738 0.17635
vt 0.03339 0.21506
vt 0.00399 0.18617
vt 0.03929 0.14685
vt 0.00399 0.18617
vt 0.03929 0.14685
vt 0.10172 0.14027
vt 0.07707 0.10931
vt 0.07707 0.10931
vt 0.18804 0.22202
vt 0.17246 0.08411
vt 0.15419 0.05024
vt 0.15419 0.05024
vt 0.24577 0.01835
vt 0.24577 0.01835
vt 0.25699 0.05609
vt 0.2186 0.16795
vt 0.27894 0.16785
vt 0.35003 0.00481
vt 0.35003 0.00481
vt 0.35261 0.04525
vt 0.35786 0.16706
vt 0.45529 0.00456
vt 0.45529 0.00456
vt 0.45029 0.04408
vt 0.44124 0.16475
vt 0.55289 0.01703
vt 0.55289 0.01703
vt 0.5451 0.05713
vt 0.50784 0.15883
vt 0.55041 0.21704
vt 0.63279 0.10782
vt 0.09036 -0.08627
vt 0.61208 0.14876
vt 0.62397 0.39602
vt 0.11687 1.04851
vt 0.70819 0.59068
vt 0.61208 0.57633
vt 0.8043 0.60539
vt 0.51916 1.08083
vt 0.90042 0.59068
vt 0.92145 1.04851
vt 0.99653 0.57633
vt 0.98464 0.39602
vt 0.99653 0.14876
vt 0.94797 -0.08627
vt 0.92145 1.04851
vt 0.98464 0.39602
vt 0.13001 0.32769
vt 0.13849 0.31551
vt 0.12519 0.32198
vt 0.14076 0.32556
vt 0.15411 0.31418
vt 0.12609 0.33792
vt 0.15552 0.32513
vt 0.13983 0.33934
vt 0.12316 0.3524
vt 0.15557 0.34007
vt 0.16933 0.32751
vt 0.13788 0.35498
vt 0.12316 0.36641
vt 0.17027 0.34141
vt 0.17816 0.33097
vt 0.18127 0.34167
vt 0.15439 0.35663
vt 0.13671 0.3697
vt 0.12507 0.3757
vt 0.1351 0.38058
vt 0.16996 0.35716
vt 0.18187 0.35639
vt 0.15228 0.37206
vt 0.1495 0.38366
vt 0.16715 0.37177
vt 0.16367 0.38252
vt 0.03002 0.00628
vt 0.04809 0.01113
vt 0.04114 0.00453
vt 0.03497 0.01622
vt 0.01631 0.01203
vt 0.05617 0.02273
vt 0.02071 0.02324
vt 0.00524 0.02115
vt 0.00855 0.03207
vt 0.04249 0.02909
vt 0.06209 0.03641
vt 0.02786 0.03725
vt 0.01465 0.04579
vt 0.04989 0.04316
vt 0.06475 0.04715
vt 0.03643 0.05164
vt 0.05707 0.05511
vt 0.07203 0.04911
vt 0.06475 0.06213
vt 0.04509 0.06399
vt 0.05258 0.07225
vt 0.02348 0.05901
vt 0.00524 0.05329
vt 0.03229 0.06999
vt 0.01422 0.06514
vt 0.02297 0.07222
vt 0.05899 0.32378
vt 0.07029 0.30829
vt 0.05839 0.30906
vt 0.06998 0.32404
vt 0.06209 0.33449
vt 0.07093 0.33795
vt 0.08469 0.32538
vt 0.08473 0.34032
vt 0.08586 0.30883
vt 0.08798 0.29339
vt 0.0731 0.29368
vt 0.09075 0.28179
vt 0.07658 0.28293
vt 0.10515 0.28488
vt 0.10355 0.29575
vt 0.11518 0.28975
vt 0.11709 0.29905
vt 0.10237 0.31048
vt 0.11709 0.31305
vt 0.10043 0.32611
vt 0.11416 0.32753
vt 0.0995 0.33989
vt 0.11024 0.33776
vt 0.11506 0.34348
vt 0.10176 0.34994
vt 0.08614 0.35128
vt 0.04635 0.23972
vt 0.0612 0.25223
vt 0.05602 0.24331
vt 0.04988 0.2506
vt 0.032 0.23856
vt 0.06477 0.26618
vt 0.03481 0.25031
vt 0.01742 0.24169
vt 0.05272 0.2654
vt 0.06417 0.28108
vt 0.01904 0.2527
vt 0.00726 0.24662
vt 0.00533 0.25603
vt 0.03696 0.26594
vt 0.05304 0.28135
vt 0.06102 0.29192
vt 0.05208 0.29543
vt 0.02023 0.26761
vt 0.00533 0.27022
vt 0.03814 0.2827
vt 0.0381 0.29783
vt 0.0222 0.28344
vt 0.00829 0.28488
vt 0.02315 0.29739
vt 0.03667 0.30892
vt 0.01226 0.29524
vt 0.02085 0.30757
vt 0.00739 0.30103
vt 0.00747 0.35238
vt 0.02148 0.34057
vt 0.01229 0.34246
vt 0.01822 0.35396
vt 0.00442 0.36662
vt 0.03532 0.34057
vt 0.01589 0.36936
vt 0.03278 0.35513
vt 0.04964 0.34347
vt 0.03114 0.37145
vt 0.01618 0.38407
vt 0.04823 0.35705
vt 0.05975 0.34735
vt 0.06186 0.35797
vt 0.04751 0.37261
vt 0.06228 0.37257
vt 0.03062 0.38684
vt 0.01777 0.39512
vt 0.03138 0.39861
vt 0.04619 0.38715
vt 0.05994 0.38621
vt 0.04593 0.39802
vt 0.05652 0.39495
vt 0.5451 0.66867
vt 0.55041 0.50876
vt 0.63279 0.61798
vt 0.50784 0.56698
vt 0.45029 0.68173
vt 0.55289 0.70877
vt 0.45529 0.72124
vt 0.44124 0.56105
vt 0.45748 0.46893
vt 0.35261 0.68055
vt 0.35003 0.72099
vt 0.35786 0.55874
vt 0.25699 0.66971
vt 0.24577 0.70745
vt 0.35766 0.46883
vt 0.45987 0.41586
vt 0.27894 0.55795
vt 0.17246 0.64169
vt 0.15419 0.67556
vt 0.35439 0.41745
vt 0.46114 0.3629
vt 0.26704 0.47775
vt 0.2186 0.55785
vt 0.10172 0.58554
vt 0.07707 0.61649
vt 0.34956 0.3629
vt 0.45987 0.30995
vt 0.18804 0.50378
vt 0.06738 0.54945
vt 0.03929 0.57895
vt 0.25416 0.43242
vt 0.35439 0.30835
vt 0.45748 0.25687
vt 0.23986 0.38382
vt 0.23986 0.34198
vt 0.16648 0.46613
vt 0.14349 0.42561
vt 0.03339 0.51074
vt 0.00399 0.53963
vt 0.25416 0.29338
vt 0.14349 0.30019
vt 0.35766 0.25697
vt 0.16648 0.25967
vt 0.26704 0.24805
vt 0.06738 0.17635
vt 0.03339 0.21506
vt 0.00399 0.18617
vt 0.03929 0.14685
vt 0.10172 0.14027
vt 0.07707 0.10931
vt 0.18804 0.22202
vt 0.17246 0.08411
vt 0.15419 0.05024
vt 0.25699 0.05609
vt 0.24577 0.01835
vt 0.2186 0.16795
vt 0.27894 0.16785
vt 0.35261 0.04525
vt 0.35003 0.00481
vt 0.35786 0.16706
vt 0.45029 0.04408
vt 0.45529 0.00456
vt 0.44124 0.16475
vt 0.5451 0.05713
vt 0.55289 0.01703
vt 0.50784 0.15883
vt 0.55041 0.21704
vt 0.63279 0.10782
vt 0.09036 -0.08627
vt 0.62397 0.39602
vt 0.61208 0.14876
vt 0.11687 1.04851
vt 0.70819 0.59068
vt 0.61208 0.57633
vt 0.8043 0.60539
vt 0.51916 1.08083
vt 0.90042 0.59068
vt 0.92145 1.04851
vt 0.99653 0.57633
vt 0.98464 0.39602
vt 0.99653 0.14876
vt 0.98464 0.39602
vt 0.92145 1.04851
vt 0.94797 -0.08627
vt 0.13001 0.32769
vt 0.12519 0.32198
vt 0.13849 0.31551
vt 0.14076 0.32556
vt 0.15411 0.31418
vt 0.12609 0.33792
vt 0.15552 0.32513
vt 0.13983 0.33934
vt 0.12316 0.3524
vt 0.15557 0.34007
vt 0.16933 0.32751
vt 0.13788 0.35498
vt 0.12316 0.36641
vt 0.17027 0.34141
vt 0.17816 0.33097
vt 0.18127 0.34167
vt 0.15439 0.35663
vt 0.13671 0.3697
vt 0.12507 0.3757
vt 0.1351 0.38058
vt 0.16996 0.35716
vt 0.18187 0.35639
vt 0.15228 0.37206
vt 0.1495 0.38366
vt 0.16715 0.37177
vt 0.16367 0.38252
vt 0.03002 0.00628
vt 0.04114 0.00453
vt 0.04809 0.01113
vt 0.03497 0.01622
vt 0.01631 0.01203
vt 0.05617 0.02273
vt 0.02071 0.02324
vt 0.00524 0.02115
vt 0.00855 0.03207
vt 0.04249 0.02909
vt 0.02786 0.03725
vt 0.01465 0.04579
vt 0.06209 0.03641
vt 0.04989 0.04316
vt 0.03643 0.05164
vt 0.07225 0.03419
vt 0.06678 0.01933
vt 0.07203 0.04911
vt 0.06475 0.04715
vt 0.05707 0.05511
vt 0.06475 0.06213
vt 0.04509 0.06399
vt 0.05258 0.07225
vt 0.02348 0.05901
vt 0.00524 0.05329
vt 0.03229 0.06999
vt 0.01422 0.06514
vt 0.02297 0.07222
vt 0.05899 0.32378
vt 0.05839 0.30906
vt 0.07029 0.30829
vt 0.06998 0.32404
vt 0.06209 0.33449
vt 0.07093 0.33795
vt 0.08469 0.32538
vt 0.08473 0.34032
vt 0.08586 0.30883
vt 0.08798 0.29339
vt 0.0731 0.29368
vt 0.09075 0.28179
vt 0.07658 0.28293
vt 0.10515 0.28488
vt 0.10355 0.29575
vt 0.11518 0.28975
vt 0.11709 0.29905
vt 0.10237 0.31048
vt 0.11709 0.31305
vt 0.10043 0.32611
vt 0.11416 0.32753
vt 0.0995 0.33989
vt 0.11024 0.33776
vt 0.11506 0.34348
vt 0.10176 0.34994
vt 0.08614 0.35128
vt 0.04635 0.23972
vt 0.05602 0.24331
vt 0.0612 0.25223
vt 0.04988 0.2506
vt 0.032 0.23856
vt 0.06477 0.26618
vt 0.03481 0.25031
vt 0.01742 0.24169
vt 0.05272 0.2654
vt 0.06417 0.28108
vt 0.01904 0.2527
vt 0.00726 0.24662
vt 0.00533 0.25603
vt 0.03696 0.26594
vt 0.05304 0.28135
vt 0.06102 0.29192
vt 0.05208 0.29543
vt 0.02023 0.26761
vt 0.00533 0.27022
vt 0.03814 0.2827
vt 0.0381 0.29783
vt 0.0222 0.28344
vt 0.00829 0.28488
vt 0.02315 0.29739
vt 0.03667 0.30892
vt 0.01226 0.29524
vt 0.02085 0.30757
vt 0.00739 0.30103
vt 0.00747 0.35238
vt 0.01229 0.34246
vt 0.02148 0.34057
vt 0.01822 0.35396
vt 0.00442 0.36662
vt 0.03532 0.34057
vt 0.01589 0.36936
vt 0.03278 0.35513
vt 0.04964 0.34347
vt 0.03114 0.37145
vt 0.01618 0.38407
vt 0.04823 0.35705
vt 0.05975 0.34735
vt 0.06186 0.35797
vt 0.04751 0.37261
vt 0.06228 0.37257
vt 0.03062 0.38684
vt 0.01777 0.39512
vt 0.03138 0.39861
vt 0.04619 0.38715
vt 0.05994 0.38621
vt 0.04593 0.39802
vt 0.05652 0.39495
vt 0.1001 0.37047
vt 0.11371 0.37396
vt 0.1153 0.38502
vt 0.10086 0.38224
vt 0.08555 0.37106
vt 0.11559 0.39972
vt 0.08529 0.38193
vt 0.07496 0.37413
vt 0.07154 0.38287
vt 0.10033 0.39763
vt 0.08397 0.39647
vt 0.06919 0.39651
vt 0.08324 0.41203
vt 0.06962 0.41111
vt 0.0987 0.41395
vt 0.08184 0.42561
vt 0.07172 0.42174
vt 0.09615 0.42851
vt 0.11 0.42851
vt 0.11325 0.41512
vt 0.11919 0.42662
vt 0.12401 0.4167
vt 0.12706 0.40246
vt 0.51916 1.08083
vt 0.51916 -0.08627
vt 0.11687 1.04851
vt 0.09036 -0.08627
vt 0.51916 1.08083
vt 0.51916 -0.08627
vt 0.11687 1.04851
vt 0.09036 -0.08627
vt 0.70936 0.68165
vt 0.66613 0.59168
vt 0.64276 0.62091
vt 0.78715 0.63317
vt 0.66613 0.59168
vt 0.72189 0.72803
vt 0.78715 0.63317
vt 0.83416 0.70934
vt 0.72981 0.77542
vt 0.83416 0.70934
vt 0.84207 0.77542
vt 0.72189 0.82281
vt 0.84207 0.77542
vt 0.83416 0.8415
vt 0.70936 0.86919
vt 0.83416 0.8415
vt 0.78715 0.91767
vt 0.64276 0.92993
vt 0.78715 0.91767
vt 0.66613 0.95916
vt 0.66613 0.95916
vt 0.1001 0.37047
vt 0.1153 0.38502
vt 0.11371 0.37396
vt 0.10086 0.38224
vt 0.08555 0.37106
vt 0.11559 0.39972
vt 0.08529 0.38193
vt 0.07496 0.37413
vt 0.07154 0.38287
vt 0.10033 0.39763
vt 0.08397 0.39647
vt 0.06919 0.39651
vt 0.08324 0.41203
vt 0.06962 0.41111
vt 0.0987 0.41395
vt 0.08184 0.42561
vt 0.07172 0.42174
vt 0.09615 0.42851
vt 0.11 0.42851
vt 0.11325 0.41512
vt 0.11919 0.42662
vt 0.12401 0.4167
vt 0.12706 0.40246
vt 0.07225 0.03419
vt 0.06678 0.01933
vt 0.64276 0.92993
vt 0.78715 0.91767
vt 0.66613 0.95916
vt 0.70936 0.86919
vt 0.83416 0.8415
vt 0.72189 0.82281
vt 0.84207 0.77542
vt 0.72981 0.77542
vt 0.83416 0.70934
vt 0.72189 0.72803
vt 0.78715 0.63317
vt 0.70936 0.68165
vt 0.66613 0.59168
vt 0.64276 0.62091
vn 0.7368 0.4049 0.5414
vn 0.4594 0.7218 0.5177
vn 0.3215 0.6737 0.6654
vn 0.6151 0.5449 0.5698
vn 0.9241 0.209 0.32
vn 0.8214 -0.3821 0.4235
vn 0.7212 0.6393 0.2668
vn 0.3362 0.9056 0.2584
vn 0.7377 -0.6072 0.295
vn -0.2713 -0.9438 -0.1885
vn -0.5772 -0.7922 -0.1981
vn 0.9795 0.2007 -0.0176
vn 0.7549 -0.6534 0.0572
vn -0.6785 -0.7318 0.064
vn 0.7585 0.6492 -0.0568
vn 0.9241 0.1503 -0.3514
vn 0.7124 -0.681 -0.1695
vn -0.6038 -0.7208 0.3404
vn 0.3561 0.9309 -0.0814
vn 0.1718 0.9473 0.2702
vn 0.7212 0.5832 -0.3737
vn 0.6981 0.0978 -0.7093
vn 0.5203 -0.7199 -0.4594
vn -0.4502 -0.7289 0.5157
vn 0.1722 0.9813 -0.0859
vn 0 0.9621 0.2729
vn 0.3362 0.847 -0.4118
vn 0.6151 0.4377 -0.6558
vn 0.3369 0.0985 -0.9364
vn 0.2281 -0.7225 -0.6526
vn -0.2746 -0.6939 0.6656
vn 0 0.9962 -0.0872
vn -0.1718 0.9473 0.2702
vn 0.3215 0.5479 -0.7723
vn 0.1718 0.886 -0.4306
vn 0.1688 0.1112 -0.9794
vn 0.0786 -0.7646 -0.6397
vn -0.1546 -0.6389 0.7536
vn 0 -0.7207 -0.6932
vn 0 -0.6716 0.7409
vn 0 0.1164 -0.9932
vn 0.1749 0.572 -0.8014
vn 0 0.584 -0.8118
vn 0 0.9001 -0.4358
vn -0.1722 0.9813 -0.0859
vn 0 0.9001 -0.4358
vn -0.3362 0.9056 0.2584
vn -0.1718 0.886 -0.4306
vn 0 0.584 -0.8118
vn -0.3561 0.9309 -0.0814
vn -0.1749 0.572 -0.8014
vn -0.3362 0.847 -0.4118
vn -0.1688 0.1112 -0.9794
vn 0 0.1164 -0.9932
vn 0 -0.7207 -0.6932
vn -0.0786 -0.7646 -0.6397
vn 0 -0.6716 0.7409
vn 0.1546 -0.6389 0.7536
vn -0.3369 0.0985 -0.9364
vn -0.2281 -0.7225 -0.6526
vn 0.2746 -0.6939 0.6656
vn -0.3215 0.5479 -0.7723
vn -0.6981 0.0978 -0.7093
vn -0.5203 -0.7199 -0.4594
vn 0.4502 -0.7289 0.5157
vn -0.7124 -0.681 -0.1695
vn 0.6038 -0.7208 0.3404
vn -0.9241 0.1503 -0.3514
vn -0.6151 0.4377 -0.6558
vn -0.7212 0.5832 -0.3737
vn -0.7549 -0.6534 0.0572
vn 0.6785 -0.7318 0.064
vn -0.9795 0.2007 -0.0176
vn -0.7585 0.6492 -0.0568
vn -0.7377 -0.6072 0.295
vn 0.5772 -0.7922 -0.1981
vn -0.9241 0.209 0.32
vn -0.7212 0.6393 0.2668
vn -0.8214 -0.3821 0.4235
vn 0.2713 -0.9438 -0.1885
vn -0.7368 0.4049 0.5414
vn -0.6151 0.5449 0.5698
vn -0.3215 0.6737 0.6654
vn -0.4594 0.7218 0.5177
vn -0.2243 0.8441 0.487
vn -0.4594 0.7218 0.5177
vn -0.3215 0.6737 0.6654
vn -0.1749 0.7025 0.6899
vn -0.1718 0.9473 0.2702
vn -0.3362 0.9056 0.2584
vn 0 0.9621 0.2729
vn 0 0.7161 0.698
vn 0.1718 0.9473 0.2702
vn 0.1749 0.7025 0.6899
vn 0.3362 0.9056 0.2584
vn 0.3215 0.6737 0.6654
vn 0.4594 0.7218 0.5177
vn 0.2243 0.8441 0.487
vn 0.1749 0.7025 0.6899
vn 0.3215 0.6737 0.6654
vn -0.5774 -0.5773 0.5774
vn -0.8797 -0.3362 0.3362
vn -0.6709 -0.3157 0.6709
vn -0.6709 -0.6709 0.3157
vn -0.9345 -0.356 0
vn -0.3157 -0.6709 0.6709
vn -0.7071 -0.7071 0
vn -0.3362 -0.8797 0.3362
vn 0 -0.7071 0.7071
vn -0.356 -0.9345 0
vn -0.6709 -0.6709 -0.3157
vn 0 -0.9345 0.356
vn 0.3157 -0.6709 0.6709
vn -0.3362 -0.8797 -0.3362
vn -0.5774 -0.5774 -0.5774
vn -0.3157 -0.6709 -0.6709
vn 0 -1 0
vn 0.3362 -0.8797 0.3362
vn 0.5774 -0.5773 0.5774
vn 0.6709 -0.6709 0.3157
vn 0 -0.9345 -0.356
vn 0 -0.7071 -0.7071
vn 0.356 -0.9345 0
vn 0.7071 -0.7071 0
vn 0.3362 -0.8797 -0.3362
vn 0.6709 -0.6709 -0.3157
vn -0.6709 0.3157 0.6709
vn -0.6709 0.6709 0.3157
vn -0.5773 0.5774 0.5774
vn -0.8797 0.3362 0.3362
vn -0.7071 0 0.7071
vn -0.7071 0.7071 0
vn -0.9345 0 0.356
vn -0.6709 -0.3157 0.6709
vn -0.8797 -0.3362 0.3362
vn -0.9345 0.356 0
vn -0.6709 0.6709 -0.3157
vn -1 0 0
vn -0.9345 -0.356 0
vn -0.8797 0.3362 -0.3362
vn -0.5773 0.5774 -0.5774
vn -0.9345 0 -0.356
vn -0.6709 0.3157 -0.6709
vn -0.3157 0.6709 -0.6709
vn -0.3362 0.3362 -0.8797
vn -0.7071 0 -0.7071
vn -0.356 0 -0.9345
vn -0.8797 -0.3362 -0.3362
vn -0.7071 -0.7071 0
vn -0.6709 -0.3157 -0.6709
vn -0.6709 -0.6709 -0.3157
vn -0.5774 -0.5774 -0.5774
vn -0.6709 -0.3157 -0.6709
vn -0.356 0 -0.9345
vn -0.7071 0 -0.7071
vn -0.3362 -0.3362 -0.8797
vn -0.5774 -0.5774 -0.5774
vn -0.3157 -0.6709 -0.6709
vn 0 -0.356 -0.9345
vn 0 -0.7071 -0.7071
vn 0 0 -1
vn 0 0.356 -0.9345
vn -0.3362 0.3362 -0.8797
vn 0 0.7071 -0.7071
vn -0.3157 0.6709 -0.6709
vn 0.3157 0.6709 -0.6709
vn 0.3362 0.3362 -0.8797
vn 0.5773 0.5774 -0.5774
vn 0.6709 0.3157 -0.6709
vn 0.356 0 -0.9345
vn 0.7071 0 -0.7071
vn 0.3362 -0.3362 -0.8797
vn 0.6709 -0.3157 -0.6709
vn 0.3157 -0.6709 -0.6709
vn 0.5773 -0.5774 -0.5774
vn 0.6709 -0.6709 -0.3157
vn 0.3362 -0.8797 -0.3362
vn 0 -0.9345 -0.356
vn 0.6709 0.3157 -0.6709
vn 0.6709 0.6709 -0.3157
vn 0.5773 0.5774 -0.5774
vn 0.8797 0.3362 -0.3362
vn 0.7071 0 -0.7071
vn 0.7071 0.7071 0
vn 0.9345 0 -0.356
vn 0.6709 -0.3157 -0.6709
vn 0.9345 0.356 0
vn 0.6709 0.6709 0.3157
vn 0.8797 -0.3362 -0.3362
vn 0.5773 -0.5774 -0.5774
vn 0.6709 -0.6709 -0.3157
vn 1 0 0
vn 0.8797 0.3362 0.3362
vn 0.5774 0.5774 0.5774
vn 0.6709 0.3157 0.6709
vn 0.9345 -0.356 0
vn 0.7071 -0.7071 0
vn 0.9345 0 0.356
vn 0.7071 0 0.7071
vn 0.8797 -0.3362 0.3362
vn 0.6709 -0.6709 0.3157
vn 0.6709 -0.3157 0.6709
vn 0.356 0 0.9345
vn 0.5774 -0.5773 0.5774
vn 0.3362 -0.3362 0.8797
vn 0.3157 -0.6709 0.6709
vn 0.6709 0.3157 0.6709
vn 0.3157 0.6709 0.6709
vn 0.5774 0.5774 0.5774
vn 0.3362 0.3362 0.8797
vn 0.7071 0 0.7071
vn 0 0.7071 0.7071
vn 0.356 0 0.9345
vn 0 0.356 0.9345
vn -0.3157 0.6709 0.6709
vn 0 0 1
vn 0.3362 -0.3362 0.8797
vn -0.3362 0.3362 0.8797
vn -0.5773 0.5774 0.5774
vn -0.6709 0.3157 0.6709
vn -0.356 0 0.9345
vn -0.7071 0 0.7071
vn 0 -0.356 0.9345
vn 0.3157 -0.6709 0.6709
vn 0 -0.7071 0.7071
vn -0.3362 -0.3362 0.8797
vn -0.6709 -0.3157 0.6709
vn -0.3157 -0.6709 0.6709
vn -0.5774 -0.5773 0.5774
vn -0.7376 -0.3947 -0.5478
vn -0.3213 -0.678 -0.6611
vn -0.4572 -0.7199 -0.5222
vn -0.6164 -0.5457 -0.5677
vn -0.9251 -0.206 -0.319
vn -0.2713 -0.9438 -0.1885
vn -0.5772 -0.7922 -0.1981
vn -0.721 -0.6394 -0.267
vn -0.3323 -0.9075 -0.2569
vn -0.9805 -0.1956 0.0171
vn -0.6785 -0.7318 0.064
vn -0.758 -0.6497 0.0568
vn -0.9251 -0.1457 0.3507
vn -0.6038 -0.7208 0.3404
vn -0.3516 -0.9326 0.0816
vn -0.1718 -0.948 -0.2678
vn -0.721 -0.5839 0.3731
vn -0.6986 -0.0932 0.7094
vn -0.4502 -0.7289 0.5157
vn -0.1719 -0.9814 0.0859
vn 0 -0.9627 -0.2705
vn -0.3323 -0.8491 0.4106
vn -0.6149 -0.4383 0.6556
vn -0.3343 -0.094 0.9378
vn -0.2746 -0.6939 0.6656
vn 0 -0.9962 0.0872
vn 0.1718 -0.948 -0.2678
vn -0.3184 -0.549 0.7728
vn -0.1686 -0.1056 0.98
vn -0.1546 -0.6389 0.7536
vn -0.1718 -0.8871 0.4283
vn 0.1719 -0.9814 0.0859
vn 0.3323 -0.9075 -0.2569
vn 0 -0.9011 0.4336
vn 0 -0.9011 0.4336
vn -0.1756 -0.5726 0.8008
vn 0 -0.5845 0.8114
vn 0 -0.1107 0.9939
vn 0 -0.6716 0.7409
vn 0.1718 -0.8871 0.4283
vn 0 -0.5845 0.8114
vn 0.3516 -0.9326 0.0816
vn 0.1756 -0.5726 0.8008
vn 0.3323 -0.8491 0.4106
vn 0.1686 -0.1056 0.98
vn 0 -0.1107 0.9939
vn 0 -0.6716 0.7409
vn 0.1546 -0.6389 0.7536
vn 0.3343 -0.094 0.9378
vn 0.2746 -0.6939 0.6656
vn 0.3184 -0.549 0.7728
vn 0.6986 -0.0932 0.7094
vn 0.4502 -0.7289 0.5157
vn 0.9251 -0.1457 0.3507
vn 0.6038 -0.7208 0.3404
vn 0.6149 -0.4383 0.6556
vn 0.721 -0.5839 0.3731
vn 0.9805 -0.1956 0.0171
vn 0.6785 -0.7318 0.064
vn 0.758 -0.6497 0.0568
vn 0.9251 -0.206 -0.319
vn 0.5772 -0.7922 -0.1981
vn 0.721 -0.6394 -0.267
vn 0.7376 -0.3947 -0.5478
vn 0.2713 -0.9438 -0.1885
vn 0.6164 -0.5457 -0.5677
vn 0.3213 -0.678 -0.6611
vn 0.4572 -0.7199 -0.5222
vn 0.2277 -0.842 -0.4891
vn 0.3213 -0.678 -0.6611
vn 0.4572 -0.7199 -0.5222
vn 0.1782 -0.7082 -0.6832
vn 0.1718 -0.948 -0.2678
vn 0.3323 -0.9075 -0.2569
vn 0 -0.9627 -0.2705
vn 0 -0.7223 -0.6916
vn -0.1718 -0.948 -0.2678
vn -0.1782 -0.7082 -0.6832
vn -0.3323 -0.9075 -0.2569
vn -0.3213 -0.678 -0.6611
vn -0.4572 -0.7199 -0.5222
vn -0.3213 -0.678 -0.6611
vn -0.1782 -0.7082 -0.6832
vn -0.2277 -0.842 -0.4891
vn 0.5774 0.5773 -0.5774
vn 0.6709 0.316 -0.6709
vn 0.8812 0.3342 -0.3342
vn 0.6709 0.6709 -0.316
vn 0.9368 0.35 0
vn 0.316 0.6709 -0.6709
vn 0.7071 0.7071 0
vn 0.3342 0.8812 -0.3342
vn 0 0.7071 -0.7071
vn 0.35 0.9368 0
vn 0.6709 0.6709 0.316
vn 0 0.9368 -0.35
vn -0.316 0.6709 -0.6709
vn 0.3342 0.8812 0.3342
vn 0.5773 0.5774 0.5774
vn 0.316 0.6709 0.6709
vn 0 1 0
vn -0.3342 0.8812 -0.3342
vn -0.5774 0.5773 -0.5774
vn -0.6709 0.6709 -0.316
vn 0 0.9368 0.35
vn 0 0.7071 0.7071
vn -0.35 0.9368 0
vn -0.7071 0.7071 0
vn -0.3342 0.8812 0.3342
vn -0.6709 0.6709 0.316
vn 0.6709 -0.316 -0.6709
vn 0.5774 -0.5774 -0.5773
vn 0.6709 -0.6709 -0.316
vn 0.8812 -0.3342 -0.3342
vn 0.7071 0 -0.7071
vn 0.7071 -0.7071 0
vn 0.9368 0 -0.35
vn 0.6709 0.316 -0.6709
vn 0.8812 0.3342 -0.3342
vn 0.9368 -0.35 0
vn 1 0 0
vn 0.9368 0.35 0
vn 0.6709 -0.6709 0.316
vn 0.8812 -0.3342 0.3342
vn 0.9368 0 0.35
vn 0.3342 -0.8812 0.3342
vn 0.35 -0.9368 0
vn 0.316 -0.6709 0.6709
vn 0.5774 -0.5773 0.5774
vn 0.6709 -0.316 0.6709
vn 0.3342 -0.3342 0.8812
vn 0.7071 0 0.7071
vn 0.35 0 0.9368
vn 0.8812 0.3342 0.3342
vn 0.7071 0.7071 0
vn 0.6709 0.316 0.6709
vn 0.6709 0.6709 0.316
vn 0.5773 0.5774 0.5774
vn 0.6709 0.316 0.6709
vn 0.7071 0 0.7071
vn 0.35 0 0.9368
vn 0.3342 0.3342 0.8812
vn 0.5773 0.5774 0.5774
vn 0.316 0.6709 0.6709
vn 0 0.35 0.9368
vn 0 0.7071 0.7071
vn 0 0 1
vn 0 -0.35 0.9368
vn 0.3342 -0.3342 0.8812
vn 0 -0.7071 0.7071
vn 0.316 -0.6709 0.6709
vn -0.316 -0.6709 0.6709
vn -0.3342 -0.3342 0.8812
vn -0.5774 -0.5773 0.5774
vn -0.6709 -0.316 0.6709
vn -0.35 0 0.9368
vn -0.7071 0 0.7071
vn -0.3342 0.3342 0.8812
vn -0.6709 0.316 0.6709
vn -0.316 0.6709 0.6709
vn -0.5774 0.5773 0.5773
vn -0.6709 0.6709 0.316
vn -0.3342 0.8812 0.3342
vn 0 0.9368 0.35
vn -0.6709 -0.316 0.6709
vn -0.5774 -0.5773 0.5774
vn -0.6709 -0.6709 0.316
vn -0.8812 -0.3342 0.3342
vn -0.7071 0 0.7071
vn -0.7071 -0.7071 0
vn -0.9368 0 0.35
vn -0.6709 0.316 0.6709
vn -0.9368 -0.35 0
vn -0.6709 -0.6709 -0.316
vn -0.8812 0.3342 0.3342
vn -0.5774 0.5773 0.5773
vn -0.6709 0.6709 0.316
vn -1 0 0
vn -0.8812 -0.3342 -0.3342
vn -0.5774 -0.5774 -0.5773
vn -0.6709 -0.316 -0.6709
vn -0.9368 0.35 0
vn -0.7071 0.7071 0
vn -0.9368 0 -0.35
vn -0.7071 0 -0.7071
vn -0.8812 0.3342 -0.3342
vn -0.6709 0.6709 -0.316
vn -0.6709 0.316 -0.6709
vn -0.35 0 -0.9368
vn -0.5774 0.5773 -0.5774
vn -0.3342 0.3342 -0.8812
vn -0.316 0.6709 -0.6709
vn -0.6709 -0.316 -0.6709
vn -0.5774 -0.5774 -0.5773
vn -0.316 -0.6709 -0.6709
vn -0.3342 -0.3342 -0.8812
vn -0.7071 0 -0.7071
vn 0 -0.7071 -0.7071
vn -0.35 0 -0.9368
vn 0 -0.35 -0.9368
vn 0.316 -0.6709 -0.6709
vn 0 0 -1
vn -0.3342 0.3342 -0.8812
vn 0.3342 -0.3342 -0.8812
vn 0.5774 -0.5774 -0.5773
vn 0.6709 -0.316 -0.6709
vn 0.35 0 -0.9368
vn 0.7071 0 -0.7071
vn 0 0.35 -0.9368
vn -0.316 0.6709 -0.6709
vn 0 0.7071 -0.7071
vn 0.3342 0.3342 -0.8812
vn 0.6709 0.316 -0.6709
vn 0.316 0.6709 -0.6709
vn 0.5774 0.5773 -0.5774
vn 0 -0.7071 0.7071
vn 0.316 -0.6709 0.6709
vn 0.3342 -0.8812 0.3342
vn 0 -0.9368 0.35
vn -0.316 -0.6709 0.6709
vn 0.35 -0.9368 0
vn -0.3342 -0.8812 0.3342
vn -0.5774 -0.5773 0.5774
vn -0.6709 -0.6709 0.316
vn 0 -1 0
vn -0.35 -0.9368 0
vn -0.7071 -0.7071 0
vn -0.3342 -0.8812 -0.3342
vn -0.6709 -0.6709 -0.316
vn 0 -0.9368 -0.35
vn -0.316 -0.6709 -0.6709
vn -0.5774 -0.5774 -0.5773
vn 0 -0.7071 -0.7071
vn 0.316 -0.6709 -0.6709
vn 0.3342 -0.8812 -0.3342
vn 0.5774 -0.5774 -0.5773
vn 0.6709 -0.6709 -0.316
vn 0.7071 -0.7071 0
vn 0 0.7161 0.698
vn 0 0.8988 0.4384
vn -0.1749 0.7025 0.6899
vn -0.2243 0.8441 0.487
vn 0 -0.7223 -0.6916
vn 0 -0.9015 -0.4327
vn 0.1782 -0.7082 -0.6832
vn 0.2277 -0.842 -0.4891
vn -0.4594 0.7218 0.5177
vn -0.8214 -0.3821 0.4235
vn -0.7368 0.4049 0.5414
vn -0.7859 0.1664 0.5955
vn 0.2713 -0.9438 -0.1885
vn -0.2243 0.8441 0.487
vn -0.1491 -0.9172 0.3694
vn -0.3486 0.6777 0.6475
vn 0 0.8988 0.4384
vn -0.1274 -0.6316 0.7647
vn 0 0.7429 0.6694
vn 0.2243 0.8441 0.487
vn 0 -0.6199 0.7847
vn 0.3486 0.6777 0.6475
vn 0.4594 0.7218 0.5177
vn 0.1274 -0.6316 0.7647
vn 0.7859 0.1664 0.5955
vn 0.7368 0.4049 0.5414
vn 0.1491 -0.9172 0.3694
vn 0.8214 -0.3821 0.4235
vn -0.2713 -0.9438 -0.1885
vn 0 0.7071 -0.7071
vn -0.3362 0.8797 -0.3362
vn -0.3157 0.6709 -0.6709
vn 0 0.9345 -0.356
vn 0.3157 0.6709 -0.6709
vn -0.356 0.9345 0
vn 0.3362 0.8797 -0.3362
vn 0.5773 0.5774 -0.5774
vn 0.6709 0.6709 -0.3157
vn 0 1 0
vn 0.356 0.9345 0
vn 0.7071 0.7071 0
vn 0.3362 0.8797 0.3362
vn 0.6709 0.6709 0.3157
vn 0 0.9345 0.356
vn 0.3157 0.6709 0.6709
vn 0.5774 0.5774 0.5774
vn 0 0.7071 0.7071
vn -0.3157 0.6709 0.6709
vn -0.3362 0.8797 0.3362
vn -0.5773 0.5774 0.5774
vn -0.6709 0.6709 0.3157
vn -0.7071 0.7071 0
vn -0.3362 0.8797 -0.3362
vn -0.356 0.9345 0
vn -0.7376 -0.3947 -0.5478
vn 0.1491 -0.9172 0.3694
vn -0.2713 -0.9438 -0.1885
vn -0.4572 -0.7199 -0.5222
vn 0.1274 -0.6316 0.7647
vn -0.2277 -0.842 -0.4891
vn 0 -0.6199 0.7847
vn 0 -0.9015 -0.4327
vn -0.1274 -0.6316 0.7647
vn 0.2277 -0.842 -0.4891
vn -0.1491 -0.9172 0.3694
vn 0.4572 -0.7199 -0.5222
vn 0.2713 -0.9438 -0.1885
vn 0.7376 -0.3947 -0.5478
usemtl m0
f 1/1/1 3/3/3 2/2/2
f 1/1/1 4/4/4 3/3/3
f 5/5/5 4/4/4 1/1/1
f 5/5/5 1/1/1 6/6/6
f 7/7/7 3/3/3 4/4/4
f 5/5/5 7/7/7 4/4/4
f 7/7/7 8/8/8 3/3/3
f 5/5/5 6/6/6 9/9/9
f 9/9/9 6/6/6 10/10/10
f 9/9/9 10/10/10 11/11/11
f 12/12/12 7/7/7 5/5/5
f 12/12/12 5/5/5 9/9/9
f 13/13/13 9/9/9 11/11/11
f 12/12/12 9/9/9 13/13/13
f 13/13/13 11/11/11 14/14/14
f 15/15/15 8/8/8 7/7/7
f 12/12/12 15/15/15 7/7/7
f 16/16/16 12/12/12 13/13/13
f 16/16/16 15/15/15 12/12/12
f 17/17/17 13/13/13 14/14/14
f 16/16/16 13/13/13 17/17/17
f 17/17/17 14/14/14 18/18/18
f 15/15/15 19/19/19 8/8/8
f 19/19/19 20/20/20 8/8/8
f 16/16/16 21/21/21 15/15/15
f 21/21/21 19/19/19 15/15/15
f 22/22/22 16/16/16 17/17/17
f 22/22/22 21/21/21 16/16/16
f 23/23/23 17/17/17 18/18/18
f 22/22/22 17/17/17 23/23/23
f 23/23/23 18/18/18 24/24/24
f 19/19/19 25/25/25 20/20/20
f 25/25/25 26/26/26 20/20/20
f 21/21/21 27/27/27 19/19/19
f 27/27/27 25/25/25 19/19/19
f 22/22/22 28/28/28 21/21/21
f 28/28/28 27/27/27 21/21/21
f 29/29/29 22/22/22 23/23/23
f 29/29/29 28/28/28 22/22/22
f 30/30/30 23/23/23 24/24/24
f 29/29/29 23/23/23 30/30/30
f 30/30/30 24/24/24 31/31/31
f 25/25/25 32/32/32 26/26/26
f 32/32/32 33/33/33 26/26/26
f 28/28/28 34/34/34 27/27/27
f 29/29/29 34/34/34 28/28/28
f 27/27/27 35/35/35 25/25/25
f 35/35/35 32/32/32 25/25/25
f 34/34/34 35/35/35 27/27/27
f 36/36/36 29/29/29 30/30/30
f 36/36/36 34/34/34 29/29/29
f 37/37/37 30/30/30 31/31/31
f 36/36/36 30/30/30 37/37/37
f 37/37/37 31/31/31 38/38/38
f 39/39/39 37/37/37 38/38/38
f 39/39/39 38/38/38 40/40/40
f 41/41/41 37/37/37 39/39/39
f 41/41/41 36/36/36 37/37/37
f 36/36/36 42/42/42 34/34/34
f 41/41/41 42/42/42 36/36/36
f 34/34/34 42/42/42 35/35/35
f 41/41/41 43/43/43 42/42/42
f 42/42/42 43/43/43 44/44/44
f 42/42/42 44/44/44 35/35/35
f 35/35/35 44/44/44 32/32/32
f 32/32/32 45/45/45 33/33/33
f 46/46/46 45/45/45 32/32/32
f 45/45/45 47/47/47 33/33/33
f 46/46/46 48/48/48 45/45/45
f 49/49/49 48/48/48 46/46/46
f 45/45/45 50/50/50 47/47/47
f 48/48/48 50/50/50 45/45/45
f 49/49/49 51/51/51 48/48/48
f 48/48/48 52/52/52 50/50/50
f 51/51/51 52/52/52 48/48/48
f 53/53/53 51/51/51 49/49/49
f 53/53/53 49/49/49 54/54/54
f 53/53/53 54/54/54 55/55/55
f 53/53/53 55/55/55 56/56/56
f 56/56/56 55/55/55 57/57/57
f 56/56/56 57/57/57 58/58/58
f 59/59/59 51/51/51 53/53/53
f 59/59/59 53/53/53 56/56/56
f 60/60/60 56/56/56 58/58/58
f 59/59/59 56/56/56 60/60/60
f 60/60/60 58/58/58 61/61/61
f 59/59/59 62/62/62 51/51/51
f 51/51/51 62/62/62 52/52/52
f 63/63/63 59/59/59 60/60/60
f 63/63/63 62/62/62 59/59/59
f 64/64/64 60/60/60 61/61/61
f 63/63/63 60/60/60 64/64/64
f 64/64/64 61/61/61 65/65/65
f 66/66/66 64/64/64 65/65/65
f 66/66/66 65/65/65 67/67/67
f 68/68/68 63/63/63 64/64/64
f 68/68/68 64/64/64 66/66/66
f 63/63/63 69/69/69 62/62/62
f 68/68/68 69/69/69 63/63/63
f 62/62/62 69/69/69 70/70/70
f 62/62/62 70/70/70 52/52/52
f 68/68/68 70/70/70 69/69/69
f 71/71/71 66/66/66 67/67/67
f 71/71/71 67/67/67 72/72/72
f 73/73/73 68/68/68 66/66/66
f 73/73/73 70/70/70 68/68/68
f 73/73/73 66/66/66 71/71/71
f 52/52/52 70/70/70 74/74/74
f 73/73/73 74/74/74 70/70/70
f 52/52/52 74/74/74 50/50/50
f 75/75/75 71/71/71 72/72/72
f 75/75/75 72/72/72 76/76/76
f 77/77/77 73/73/73 71/71/71
f 77/77/77 74/74/74 73/73/73
f 77/77/77 71/71/71 75/75/75
f 50/50/50 74/74/74 78/78/78
f 77/77/77 78/78/78 74/74/74
f 50/50/50 78/78/78 47/47/47
f 79/79/79 75/75/75 76/76/76
f 79/79/79 76/76/76 80/80/80
f 81/81/81 75/75/75 79/79/79
f 81/81/81 77/77/77 75/75/75
f 81/81/81 78/78/78 77/77/77
f 47/47/47 78/78/78 82/82/82
f 81/81/81 82/82/82 78/78/78
f 47/47/47 82/82/82 83/83/83
f 84/84/84 82/82/82 81/81/81
f 84/84/84 83/83/83 82/82/82
f 85/85/85 87/87/87 86/86/86
f 85/85/85 88/88/88 87/87/87
f 89/89/89 87/87/87 88/88/88
f 89/89/89 90/90/90 87/87/87
f 91/91/91 89/89/89 88/88/88
f 91/91/91 88/88/88 92/92/92
f 93/93/93 91/91/91 92/92/92
f 93/93/93 92/92/92 94/94/94
f 95/95/95 93/93/93 94/94/94
f 95/95/95 94/94/94 96/96/96
f 97/97/97 99/99/99 98/98/98
f 97/97/97 100/100/100 99/99/99
f 101/101/101 103/103/103 102/102/102
f 101/101/101 102/102/102 104/104/104
f 104/104/104 102/102/102 105/105/105
f 104/104/104 106/106/106 101/101/101
f 104/104/104 105/105/105 107/107/107
f 104/104/104 108/108/108 106/106/106
f 107/107/107 108/108/108 104/104/104
f 108/108/108 109/109/109 106/106/106
f 107/107/107 110/110/110 108/108/108
f 111/111/111 110/110/110 107/107/107
f 108/108/108 112/112/112 109/109/109
f 110/110/110 112/112/112 108/108/108
f 112/112/112 113/113/113 109/109/109
f 111/111/111 114/114/114 110/110/110
f 115/115/115 114/114/114 111/111/111
f 115/115/115 116/116/116 114/114/114
f 110/110/110 117/117/117 112/112/112
f 114/114/114 117/117/117 110/110/110
f 112/112/112 118/118/118 113/113/113
f 117/117/117 118/118/118 112/112/112
f 118/118/118 119/119/119 113/113/113
f 118/118/118 120/120/120 119/119/119
f 116/116/116 121/121/121 114/114/114
f 114/114/114 121/121/121 117/117/117
f 116/116/116 122/122/122 121/121/121
f 117/117/117 123/123/123 118/118/118
f 123/123/123 120/120/120 118/118/118
f 121/121/121 123/123/123 117/117/117
f 123/123/123 124/124/124 120/120/120
f 121/121/121 125/125/125 123/123/123
f 125/125/125 124/124/124 123/123/123
f 125/125/125 126/126/126 124/124/124
f 127/127/127 129/129/129 128/128/128
f 127/127/127 128/128/128 130/130/130
f 131/131/131 127/127/127 130/130/130
f 130/130/130 128/128/128 132/132/132
f 131/131/131 130/130/130 133/133/133
f 134/134/134 131/131/131 133/133/133
f 134/134/134 133/133/133 135/135/135
f 130/130/130 132/132/132 136/136/136
f 133/133/133 130/130/130 136/136/136
f 136/136/136 132/132/132 137/137/137
f 135/135/135 133/133/133 138/138/138
f 133/133/133 136/136/136 138/138/138
f 135/135/135 138/138/138 139/139/139
f 136/136/136 137/137/137 140/140/140
f 138/138/138 136/136/136 140/140/140
f 140/140/140 137/137/137 141/141/141
f 139/139/139 138/138/138 142/142/142
f 138/138/138 140/140/140 142/142/142
f 140/140/140 141/141/141 143/143/143
f 142/142/142 140/140/140 143/143/143
f 143/143/143 141/141/141 144/144/144
f 143/143/143 144/144/144 145/145/145
f 146/146/146 143/143/143 145/145/145
f 142/142/142 143/143/143 146/146/146
f 146/146/146 145/145/145 147/147/147
f 139/139/139 142/142/142 148/148/148
f 148/148/148 142/142/142 146/146/146
f 149/149/149 139/139/139 148/148/148
f 148/148/148 146/146/146 150/150/150
f 149/149/149 148/148/148 151/151/151
f 151/151/151 148/148/148 150/150/150
f 151/151/151 150/150/150 152/152/152
f 153/153/153 155/155/155 154/154/154
f 153/153/153 154/154/154 156/156/156
f 157/157/157 153/153/153 156/156/156
f 157/157/157 156/156/156 158/158/158
f 158/158/158 156/156/156 159/159/159
f 158/158/158 159/159/159 160/160/160
f 156/156/156 154/154/154 161/161/161
f 156/156/156 161/161/161 159/159/159
f 154/154/154 162/162/162 161/161/161
f 154/154/154 163/163/163 162/162/162
f 163/163/163 164/164/164 162/162/162
f 163/163/163 165/165/165 164/164/164
f 162/162/162 164/164/164 166/166/166
f 162/162/162 166/166/166 167/167/167
f 161/161/161 162/162/162 167/167/167
f 167/167/167 166/166/166 168/168/168
f 167/167/167 168/168/168 169/169/169
f 161/161/161 167/167/167 170/170/170
f 170/170/170 167/167/167 169/169/169
f 159/159/159 161/161/161 170/170/170
f 170/170/170 169/169/169 171/171/171
f 159/159/159 170/170/170 172/172/172
f 172/172/172 170/170/170 171/171/171
f 160/160/160 159/159/159 172/172/172
f 172/172/172 171/171/171 173/173/173
f 174/174/174 172/172/172 173/173/173
f 160/160/160 172/172/172 174/174/174
f 174/174/174 173/173/173 175/175/175
f 174/174/174 175/175/175 176/176/176
f 174/174/174 176/176/176 177/177/177
f 160/160/160 174/174/174 177/177/177
f 160/160/160 177/177/177 178/178/178
f 179/179/179 181/181/181 180/180/180
f 179/179/179 180/180/180 182/182/182
f 183/183/183 179/179/179 182/182/182
f 182/182/182 180/180/180 184/184/184
f 183/183/183 182/182/182 185/185/185
f 186/186/186 183/183/183 185/185/185
f 182/182/182 184/184/184 187/187/187
f 185/185/185 182/182/182 187/187/187
f 187/187/187 184/184/184 188/188/188
f 186/186/186 185/185/185 189/189/189
f 190/190/190 186/186/186 189/189/189
f 190/190/190 189/189/189 191/191/191
f 185/185/185 187/187/187 192/192/192
f 189/189/189 185/185/185 192/192/192
f 187/187/187 188/188/188 193/193/193
f 192/192/192 187/187/187 193/193/193
f 193/193/193 188/188/188 194/194/194
f 193/193/193 194/194/194 195/195/195
f 191/191/191 189/189/189 196/196/196
f 189/189/189 192/192/192 196/196/196
f 191/191/191 196/196/196 197/197/197
f 192/192/192 193/193/193 198/198/198
f 198/198/198 193/193/193 195/195/195
f 196/196/196 192/192/192 198/198/198
f 198/198/198 195/195/195 199/199/199
f 197/197/197 196/196/196 200/200/200
f 196/196/196 198/198/198 200/200/200
f 200/200/200 198/198/198 199/199/199
f 197/197/197 200/200/200 201/201/201
f 200/200/200 199/199/199 202/202/202
f 201/201/201 200/200/200 202/202/202
f 202/202/202 199/199/199 203/203/203
f 201/201/201 202/202/202 204/204/204
f 202/202/202 203/203/203 205/205/205
f 204/204/204 202/202/202 205/205/205
f 204/204/204 205/205/205 206/206/206
f 207/207/207 209/209/209 208/208/208
f 207/207/207 208/208/208 210/210/210
f 211/211/211 207/207/207 210/210/210
f 210/210/210 208/208/208 212/212/212
f 211/211/211 210/210/210 213/213/213
f 210/210/210 212/212/212 214/214/214
f 213/213/213 210/210/210 214/214/214
f 214/214/214 212/212/212 215/215/215
f 213/213/213 214/214/214 216/216/216
f 217/217/217 213/213/213 216/216/216
f 214/214/214 215/215/215 218/218/218
f 216/216/216 214/214/214 218/218/218
f 218/218/218 215/215/215 219/219/219
f 218/218/218 219/219/219 220/220/220
f 221/221/221 218/218/218 220/220/220
f 216/216/216 218/218/218 221/221/221
f 221/221/221 220/220/220 222/222/222
f 217/217/217 216/216/216 223/223/223
f 223/223/223 216/216/216 221/221/221
f 224/224/224 217/217/217 223/223/223
f 224/224/224 223/223/223 225/225/225
f 226/226/226 221/221/221 222/222/222
f 223/223/223 221/221/221 226/226/226
f 225/225/225 223/223/223 226/226/226
f 226/226/226 222/222/222 227/227/227
f 225/225/225 226/226/226 228/228/228
f 228/228/228 226/226/226 227/227/227
f 228/228/228 227/227/227 229/229/229
f 230/230/230 232/232/232 231/231/231
f 230/230/230 231/231/231 233/233/233
f 234/234/234 230/230/230 233/233/233
f 234/234/234 235/235/235 230/230/230
f 234/234/234 236/236/236 235/235/235
f 237/237/237 233/233/233 231/231/231
f 234/234/234 233/233/233 237/237/237
f 237/237/237 231/231/231 238/238/238
f 239/239/239 236/236/236 234/234/234
f 239/239/239 234/234/234 237/237/237
f 239/239/239 240/240/240 236/236/236
f 241/241/241 237/237/237 238/238/238
f 239/239/239 237/237/237 241/241/241
f 242/242/242 240/240/240 239/239/239
f 242/242/242 239/239/239 241/241/241
f 242/242/242 243/243/243 240/240/240
f 241/241/241 238/238/238 244/244/244
f 244/244/244 238/238/238 245/245/245
f 242/242/242 241/241/241 246/246/246
f 246/246/246 241/241/241 244/244/244
f 247/247/247 243/243/243 242/242/242
f 247/247/247 242/242/242 246/246/246
f 247/247/247 248/248/248 243/243/243
f 244/244/244 245/245/245 249/249/249
f 249/249/249 245/245/245 250/250/250
f 246/246/246 244/244/244 251/251/251
f 251/251/251 244/244/244 249/249/249
f 247/247/247 246/246/246 252/252/252
f 252/252/252 246/246/246 251/251/251
f 253/253/253 248/248/248 247/247/247
f 253/253/253 247/247/247 252/252/252
f 253/253/253 254/254/254 248/248/248
f 249/249/249 250/250/250 255/255/255
f 255/255/255 250/250/250 256/256/256
f 252/252/252 251/251/251 257/257/257
f 253/253/253 252/252/252 257/257/257
f 258/258/258 254/254/254 253/253/253
f 258/258/258 253/253/253 257/257/257
f 258/258/258 259/259/259 254/254/254
f 251/251/251 249/249/249 260/260/260
f 257/257/257 251/251/251 260/260/260
f 260/260/260 249/249/249 255/255/255
f 255/255/255 256/256/256 261/261/261
f 261/261/261 256/256/256 262/262/262
f 260/260/260 255/255/255 263/263/263
f 264/264/264 255/255/255 261/261/261
f 257/257/257 260/260/260 265/265/265
f 265/265/265 260/260/260 263/263/263
f 258/258/258 257/257/257 265/265/265
f 265/265/265 263/263/263 266/266/266
f 267/267/267 265/265/265 266/266/266
f 267/267/267 258/258/258 265/265/265
f 267/267/267 259/259/259 258/258/258
f 267/267/267 268/268/268 259/259/259
f 264/264/264 261/261/261 269/269/269
f 270/270/270 264/264/264 269/269/269
f 261/261/261 262/262/262 271/271/271
f 269/269/269 261/261/261 271/271/271
f 270/270/270 269/269/269 272/272/272
f 269/269/269 271/271/271 273/273/273
f 272/272/272 269/269/269 273/273/273
f 274/274/274 270/270/270 272/272/272
f 274/274/274 275/275/275 270/270/270
f 274/274/274 276/276/276 275/275/275
f 274/274/274 277/277/277 276/276/276
f 278/278/278 277/277/277 274/274/274
f 278/278/278 274/274/274 272/272/272
f 278/278/278 279/279/279 277/277/277
f 278/278/278 272/272/272 280/280/280
f 272/272/272 273/273/273 280/280/280
f 281/281/281 279/279/279 278/278/278
f 281/281/281 278/278/278 280/280/280
f 281/281/281 282/282/282 279/279/279
f 283/283/283 282/282/282 281/281/281
f 283/283/283 284/284/284 282/282/282
f 281/281/281 280/280/280 285/285/285
f 283/283/283 281/281/281 285/285/285
f 280/280/280 286/286/286 285/285/285
f 280/280/280 273/273/273 286/286/286
f 283/283/283 285/285/285 286/286/286
f 287/287/287 284/284/284 283/283/283
f 287/287/287 283/283/283 286/286/286
f 287/287/287 288/288/288 284/284/284
f 273/273/273 289/289/289 286/286/286
f 287/287/287 286/286/286 289/289/289
f 273/273/273 271/271/271 289/289/289
f 290/290/290 288/288/288 287/287/287
f 290/290/290 287/287/287 289/289/289
f 290/290/290 291/291/291 288/288/288
f 271/271/271 292/292/292 289/289/289
f 290/290/290 289/289/289 292/292/292
f 271/271/271 262/262/262 292/292/292
f 293/293/293 291/291/291 290/290/290
f 293/293/293 290/290/290 292/292/292
f 293/293/293 294/294/294 291/291/291
f 262/262/262 295/295/295 292/292/292
f 293/293/293 292/292/292 295/295/295
f 262/262/262 296/296/296 295/295/295
f 297/297/297 293/293/293 295/295/295
f 297/297/297 295/295/295 296/296/296
f 298/298/298 300/300/300 299/299/299
f 298/298/298 299/299/299 301/301/301
f 302/302/302 301/301/301 299/299/299
f 302/302/302 299/299/299 303/303/303
f 304/304/304 301/301/301 302/302/302
f 304/304/304 305/305/305 301/301/301
f 306/306/306 305/305/305 304/304/304
f 306/306/306 307/307/307 305/305/305
f 308/308/308 307/307/307 306/306/306
f 308/308/308 309/309/309 307/307/307
f 310/310/310 312/312/312 311/311/311
f 310/310/310 313/313/313 312/312/312
f 314/314/314 316/316/316 315/315/315
f 314/314/314 317/317/317 316/316/316
f 317/317/317 318/318/318 316/316/316
f 317/317/317 314/314/314 319/319/319
f 317/317/317 320/320/320 318/318/318
f 317/317/317 319/319/319 321/321/321
f 320/320/320 317/317/317 321/321/321
f 321/321/321 319/319/319 322/322/322
f 320/320/320 321/321/321 323/323/323
f 324/324/324 320/320/320 323/323/323
f 321/321/321 322/322/322 325/325/325
f 323/323/323 321/321/321 325/325/325
f 325/325/325 322/322/322 326/326/326
f 324/324/324 323/323/323 327/327/327
f 328/328/328 324/324/324 327/327/327
f 328/328/328 327/327/327 329/329/329
f 323/323/323 325/325/325 330/330/330
f 327/327/327 323/323/323 330/330/330
f 325/325/325 326/326/326 331/331/331
f 330/330/330 325/325/325 331/331/331
f 331/331/331 326/326/326 332/332/332
f 331/331/331 332/332/332 333/333/333
f 329/329/329 327/327/327 334/334/334
f 327/327/327 330/330/330 334/334/334
f 329/329/329 334/334/334 335/335/335
f 330/330/330 331/331/331 336/336/336
f 336/336/336 331/331/331 333/333/333
f 334/334/334 330/330/330 336/336/336
f 336/336/336 333/333/333 337/337/337
f 334/334/334 336/336/336 338/338/338
f 338/338/338 336/336/336 337/337/337
f 338/338/338 337/337/337 339/339/339
f 340/340/340 342/342/342 341/341/341
f 340/340/340 343/343/343 342/342/342
f 344/344/344 343/343/343 340/340/340
f 343/343/343 345/345/345 342/342/342
f 344/344/344 346/346/346 343/343/343
f 347/347/347 346/346/346 344/344/344
f 347/347/347 348/348/348 346/346/346
f 346/346/346 349/349/349 343/343/343
f 343/343/343 349/349/349 345/345/345
f 348/348/348 350/350/350 346/346/346
f 346/346/346 350/350/350 349/349/349
f 348/348/348 351/351/351 350/350/350
f 349/349/349 352/352/352 345/345/345
f 350/350/350 353/353/353 349/349/349
f 349/349/349 353/353/353 352/352/352
f 351/351/351 354/354/354 350/350/350
f 350/350/350 354/354/354 353/353/353
f 355/355/355 345/345/345 352/352/352
f 355/355/355 356/356/356 345/345/345
f 357/357/357 355/355/355 352/352/352
f 353/353/353 358/358/358 352/352/352
f 357/357/357 352/352/352 358/358/358
f 353/353/353 359/359/359 358/358/358
f 359/359/359 357/357/357 358/358/358
f 354/354/354 359/359/359 353/353/353
f 359/359/359 360/360/360 357/357/357
f 361/361/361 360/360/360 359/359/359
f 354/354/354 361/361/361 359/359/359
f 361/361/361 362/362/362 360/360/360
f 351/351/351 363/363/363 354/354/354
f 363/363/363 361/361/361 354/354/354
f 364/364/364 363/363/363 351/351/351
f 363/363/363 365/365/365 361/361/361
f 364/364/364 366/366/366 363/363/363
f 366/366/366 365/365/365 363/363/363
f 366/366/366 367/367/367 365/365/365
f 368/368/368 370/370/370 369/369/369
f 368/368/368 371/371/371 370/370/370
f 372/372/372 371/371/371 368/368/368
f 372/372/372 373/373/373 371/371/371
f 373/373/373 374/374/374 371/371/371
f 373/373/373 375/375/375 374/374/374
f 371/371/371 376/376/376 370/370/370
f 371/371/371 374/374/374 376/376/376
f 370/370/370 376/376/376 377/377/377
f 370/370/370 377/377/377 378/378/378
f 378/378/378 377/377/377 379/379/379
f 378/378/378 379/379/379 380/380/380
f 377/377/377 381/381/381 379/379/379
f 377/377/377 382/382/382 381/381/381
f 376/376/376 382/382/382 377/377/377
f 382/382/382 383/383/383 381/381/381
f 382/382/382 384/384/384 383/383/383
f 376/376/376 385/385/385 382/382/382
f 385/385/385 384/384/384 382/382/382
f 374/374/374 385/385/385 376/376/376
f 385/385/385 386/386/386 384/384/384
f 374/374/374 387/387/387 385/385/385
f 387/387/387 386/386/386 385/385/385
f 375/375/375 387/387/387 374/374/374
f 387/387/387 388/388/388 386/386/386
f 389/389/389 388/388/388 387/387/387
f 375/375/375 389/389/389 387/387/387
f 389/389/389 390/390/390 388/388/388
f 389/389/389 391/391/391 390/390/390
f 389/389/389 392/392/392 391/391/391
f 375/375/375 392/392/392 389/389/389
f 375/375/375 393/393/393 392/392/392
f 394/394/394 396/396/396 395/395/395
f 394/394/394 397/397/397 396/396/396
f 398/398/398 397/397/397 394/394/394
f 397/397/397 399/399/399 396/396/396
f 398/398/398 400/400/400 397/397/397
f 401/401/401 400/400/400 398/398/398
f 397/397/397 402/402/402 399/399/399
f 400/400/400 402/402/402 397/397/397
f 402/402/402 403/403/403 399/399/399
f 401/401/401 404/404/404 400/400/400
f 405/405/405 404/404/404 401/401/401
f 405/405/405 406/406/406 404/404/404
f 400/400/400 407/407/407 402/402/402
f 404/404/404 407/407/407 400/400/400
f 402/402/402 408/408/408 403/403/403
f 407/407/407 408/408/408 402/402/402
f 408/408/408 409/409/409 403/403/403
f 408/408/408 410/410/410 409/409/409
f 406/406/406 411/411/411 404/404/404
f 404/404/404 411/411/411 407/407/407
f 406/406/406 412/412/412 411/411/411
f 407/407/407 413/413/413 408/408/408
f 413/413/413 410/410/410 408/408/408
f 411/411/411 413/413/413 407/407/407
f 413/413/413 414/414/414 410/410/410
f 412/412/412 415/415/415 411/411/411
f 411/411/411 415/415/415 413/413/413
f 415/415/415 414/414/414 413/413/413
f 412/412/412 416/416/416 415/415/415
f 415/415/415 417/417/417 414/414/414
f 416/416/416 417/417/417 415/415/415
f 417/417/417 418/418/418 414/414/414
f 416/416/416 419/419/419 417/417/417
f 417/417/417 420/420/420 418/418/418
f 419/419/419 420/420/420 417/417/417
f 419/419/419 421/421/421 420/420/420
f 422/422/422 424/424/424 423/423/423
f 422/422/422 425/425/425 424/424/424
f 426/426/426 425/425/425 422/422/422
f 425/425/425 427/427/427 424/424/424
f 426/426/426 428/428/428 425/425/425
f 425/425/425 429/429/429 427/427/427
f 428/428/428 429/429/429 425/425/425
f 429/429/429 430/430/430 427/427/427
f 428/428/428 431/431/431 429/429/429
f 432/432/432 431/431/431 428/428/428
f 429/429/429 433/433/433 430/430/430
f 431/431/431 433/433/433 429/429/429
f 433/433/433 434/434/434 430/430/430
f 433/433/433 435/435/435 434/434/434
f 436/436/436 435/435/435 433/433/433
f 431/431/431 436/436/436 433/433/433
f 436/436/436 437/437/437 435/435/435
f 432/432/432 438/438/438 431/431/431
f 438/438/438 436/436/436 431/431/431
f 439/439/439 438/438/438 432/432/432
f 439/439/439 440/440/440 438/438/438
f 441/441/441 437/437/437 436/436/436
f 438/438/438 441/441/441 436/436/436
f 440/440/440 441/441/441 438/438/438
f 441/441/441 442/442/442 437/437/437
f 440/440/440 443/443/443 441/441/441
f 443/443/443 442/442/442 441/441/441
f 443/443/443 444/444/444 442/442/442
f 445/445/445 447/447/447 446/446/446
f 445/445/445 448/448/448 447/447/447
f 449/449/449 448/448/448 445/445/445
f 448/448/448 450/450/450 447/447/447
f 449/449/449 451/451/451 448/448/448
f 452/452/452 451/451/451 449/449/449
f 452/452/452 453/453/453 451/451/451
f 451/451/451 454/454/454 448/448/448
f 448/448/448 454/454/454 450/450/450
f 453/453/453 455/455/455 451/451/451
f 451/451/451 455/455/455 454/454/454
f 453/453/453 456/456/456 455/455/455
f 456/456/456 457/457/457 455/455/455
f 456/456/456 458/458/458 457/457/457
f 455/455/455 459/459/459 454/454/454
f 455/455/455 457/457/457 459/459/459
f 458/458/458 460/460/460 457/457/457
f 458/458/458 461/461/461 460/460/460
f 457/457/457 460/460/460 462/462/462
f 457/457/457 462/462/462 459/459/459
f 459/459/459 462/462/462 463/463/463
f 454/454/454 459/459/459 464/464/464
f 459/459/459 463/463/463 464/464/464
f 454/454/454 464/464/464 450/450/450
f 464/464/464 463/463/463 465/465/465
f 464/464/464 465/465/465 466/466/466
f 450/450/450 464/464/464 466/466/466
f 450/450/450 466/466/466 467/467/467
usemtl m1
f 98/98/98 99/99/99 468/468/468
f 98/98/98 468/468/468 469/469/469
f 469/469/469 468/468/468 470/470/470
f 469/469/469 470/470/470 471/471/471
f 313/313/313 472/472/472 312/312/312
f 313/313/313 473/473/473 472/472/472
f 473/473/473 474/474/474 472/472/472
f 473/473/473 475/475/475 474/474/474
usemtl m2
f 476/476/476 478/478/478 477/477/477
f 476/476/476 477/477/477 479/479/479
f 479/479/479 477/477/477 480/480/480
f 481/481/481 476/476/476 479/479/479
f 479/479/479 480/480/480 482/482/482
f 481/481/481 479/479/479 483/483/483
f 483/483/483 479/479/479 482/482/482
f 484/484/484 481/481/481 483/483/483
f 483/483/483 482/482/482 485/485/485
f 484/484/484 483/483/483 486/486/486
f 486/486/486 483/483/483 485/485/485
f 487/487/487 484/484/484 486/486/486
f 486/486/486 485/485/485 488/488/488
f 487/487/487 486/486/486 489/489/489
f 489/489/489 486/486/486 488/488/488
f 490/490/490 487/487/487 489/489/489
f 489/489/489 488/488/488 491/491/491
f 490/490/490 489/489/489 492/492/492
f 492/492/492 489/489/489 491/491/491
f 493/493/493 490/490/490 492/492/492
f 492/492/492 491/491/491 494/494/494
f 493/493/493 492/492/492 495/495/495
f 495/495/495 492/492/492 494/494/494
f 495/495/495 494/494/494 496/496/496
f 497/497/497 499/499/499 498/498/498
f 497/497/497 498/498/498 500/500/500
f 501/501/501 497/497/497 500/500/500
f 500/500/500 498/498/498 502/502/502
f 501/501/501 500/500/500 503/503/503
f 504/504/504 501/501/501 503/503/503
f 504/504/504 503/503/503 505/505/505
f 503/503/503 500/500/500 506/506/506
f 500/500/500 502/502/502 506/506/506
f 505/505/505 503/503/503 507/507/507
f 503/503/503 506/506/506 507/507/507
f 505/505/505 507/507/507 508/508/508
f 508/508/508 507/507/507 509/509/509
f 508/508/508 509/509/509 510/510/510
f 507/507/507 506/506/506 511/511/511
f 507/507/507 511/511/511 509/509/509
f 510/510/510 509/509/509 512/512/512
f 510/510/510 512/512/512 513/513/513
f 509/509/509 514/514/514 512/512/512
f 509/509/509 511/511/511 514/514/514
f 511/511/511 515/515/515 514/514/514
f 506/506/506 516/516/516 511/511/511
f 511/511/511 516/516/516 515/515/515
f 506/506/506 502/502/502 516/516/516
f 516/516/516 517/517/517 515/515/515
f 516/516/516 518/518/518 517/517/517
f 502/502/502 518/518/518 516/516/516
f 502/502/502 519/519/519 518/518/518
f 144/144/144 141/141/141 137/137/137
f 144/144/144 137/137/137 520/520/520
f 520/520/520 137/137/137 132/132/132
f 520/520/520 132/132/132 521/521/521
f 522/522/522 524/524/524 523/523/523
f 522/522/522 523/523/523 525/525/525
f 525/525/525 523/523/523 526/526/526
f 525/525/525 526/526/526 527/527/527
f 527/527/527 526/526/526 528/528/528
f 527/527/527 528/528/528 529/529/529
f 529/529/529 528/528/528 530/530/530
f 529/529/529 530/530/530 531/531/531
f 531/531/531 530/530/530 532/532/532
f 531/531/531 532/532/532 533/533/533
f 533/533/533 532/532/532 534/534/534
f 533/533/533 534/534/534 535/535/535
