# Exported from the Unity project (studs, +Y up, character faces +Z). y[0.92,2.18]
v 0.4908 2.04102 0.20932
v 0.47199 2.09863 0
v 0.44011 2.0957 0.19087
v 0.52685 2.04199 0
v 0.44011 2.0957 -0.19087
v 0.4908 2.04102 -0.20932
v 0.50979 1.97363 0.21757
v 0.54711 1.97363 0
v 0.39786 1.97363 0.39786
v 0.38287 2.04004 0.38287
v 0.4 1.89941 0.4
v 0.5125 1.89941 0.21875
v 0.4 1.8252 0.4
v 0.50979 1.97363 -0.21757
v 0.38287 2.04004 -0.38287
v 0.39786 1.97363 -0.39786
v 0.5125 1.8252 0.21875
v 0.4 1.75 0.4
v 0.55 1.89941 0
v 0.5125 1.89941 -0.21875
v 0.4 1.89941 -0.4
v 0.5125 1.75 0.21875
v 0.4 1.67481 0.4
v 0.55 1.8252 0
v 0.5125 1.8252 -0.21875
v 0.4 1.8252 -0.4
v 0.5125 1.67481 0.21875
v 0.4 1.59961 0.4
v 0.55 1.75 0
v 0.5125 1.75 -0.21875
v 0.4 1.75 -0.4
v 0.5125 1.59961 0.21875
v 0.4 1.52441 0.4
v 0.5125 1.52441 0.21875
v 0.55 1.67481 0
v 0.5125 1.67481 -0.21875
v 0.4 1.67481 -0.4
v 0.55 1.59961 0
v 0.55 1.52441 0
v 0.5125 1.59961 -0.21875
v 0.4 1.59961 -0.4
v 0.5125 1.52441 -0.21875
v 0.4 1.52441 -0.4
v 0.38287 2.04004 0.38287
v 0.4908 2.04102 0.20932
v 0.44011 2.0957 0.19087
v 0.3459 2.09277 0.3459
v 0.20932 2.04102 0.4908
v 0.19087 2.0957 0.44011
v 0.34376 2.13574 0.17799
v 0.3 2.125 0.3
v 0.17799 2.13574 0.34376
v 0 2.09863 0.47199
v 0.36574 2.1416 0
v 0.47199 2.09863 0
v 0.18969 2.15918 0.18969
v 0 2.1416 0.36574
v -0.19087 2.0957 0.44011
v 0.34376 2.13574 -0.17799
v 0.44011 2.0957 -0.19087
v 0.19988 2.16699 0
v 0 2.16699 0.19988
v 0.18969 2.15918 -0.18969
v 0 2.17578 0
v 0 2.16699 -0.19988
v 0.3 2.125 -0.3
v 0.17799 2.13574 -0.34376
v 0.3459 2.09277 -0.3459
v 0.4908 2.04102 -0.20932
v 0.38287 2.04004 -0.38287
v 0.19087 2.0957 -0.44011
v 0.20932 2.04102 -0.4908
v 0 2.1416 -0.36574
v 0 2.09863 -0.47199
v -0.17799 2.13574 -0.34376
v -0.19087 2.0957 -0.44011
v -0.18969 2.15918 -0.18969
v -0.3 2.125 -0.3
v -0.19988 2.16699 0
v -0.3459 2.09277 -0.3459
v -0.20932 2.04102 -0.4908
v -0.38287 2.04004 -0.38287
v -0.34376 2.13574 -0.17799
v -0.44011 2.0957 -0.19087
v -0.4908 2.04102 -0.20932
v -0.36574 2.1416 0
v -0.47199 2.09863 0
v -0.18969 2.15918 0.18969
v -0.34376 2.13574 0.17799
v -0.44011 2.0957 0.19087
v -0.17799 2.13574 0.34376
v -0.3 2.125 0.3
v -0.3459 2.09277 0.3459
v -0.4908 2.04102 0.20932
v -0.38287 2.04004 0.38287
v -0.20932 2.04102 0.4908
v 0.20932 2.04102 -0.4908
v 0 2.09863 -0.47199
v 0.19087 2.0957 -0.44011
v 0 2.04199 -0.52685
v -0.19087 2.0957 -0.44011
v -0.20932 2.04102 -0.4908
v 0.21757 1.97363 -0.50979
v 0 1.97363 -0.54711
v 0.39786 1.97363 -0.39786
v 0.38287 2.04004 -0.38287
v 0.4 1.89941 -0.4
v 0.21875 1.89941 -0.5125
v 0.4 1.8252 -0.4
v -0.21757 1.97363 -0.50979
v -0.38287 2.04004 -0.38287
v -0.39786 1.97363 -0.39786
v 0.21875 1.8252 -0.5125
v 0.4 1.75 -0.4
v 0 1.89941 -0.55
v -0.21875 1.89941 -0.5125
v -0.4 1.89941 -0.4
v 0.21875 1.75 -0.5125
v 0.4 1.67481 -0.4
v 0 1.8252 -0.55
v -0.21875 1.8252 -0.5125
v -0.4 1.8252 -0.4
v 0.21875 1.67481 -0.5125
v 0.4 1.59961 -0.4
v 0 1.75 -0.55
v -0.21875 1.75 -0.5125
v -0.4 1.75 -0.4
v 0.21875 1.59961 -0.5125
v 0.4 1.52441 -0.4
v 0.21875 1.52441 -0.5125
v 0 1.67481 -0.55
v -0.21875 1.67481 -0.5125
v -0.4 1.67481 -0.4
v 0 1.59961 -0.55
v 0 1.52441 -0.55
v -0.21875 1.59961 -0.5125
v -0.4 1.59961 -0.4
v -0.21875 1.52441 -0.5125
v -0.4 1.52441 -0.4
v -0.4908 2.04102 -0.20932
v -0.47199 2.09863 0
v -0.44011 2.0957 -0.19087
v -0.52685 2.04199 0
v -0.44011 2.0957 0.19087
v -0.4908 2.04102 0.20932
v -0.50979 1.97363 -0.21757
v -0.54711 1.97363 0
v -0.39786 1.97363 -0.39786
v -0.38287 2.04004 -0.38287
v -0.4 1.89941 -0.4
v -0.5125 1.89941 -0.21875
v -0.4 1.8252 -0.4
v -0.50979 1.97363 0.21757
v -0.38287 2.04004 0.38287
v -0.39786 1.97363 0.39786
v -0.5125 1.8252 -0.21875
v -0.4 1.75 -0.4
v -0.55 1.89941 0
v -0.5125 1.89941 0.21875
v -0.4 1.89941 0.4
v -0.5125 1.75 -0.21875
v -0.4 1.67481 -0.4
v -0.55 1.8252 0
v -0.5125 1.8252 0.21875
v -0.4 1.8252 0.4
v -0.5125 1.67481 -0.21875
v -0.4 1.59961 -0.4
v -0.55 1.75 0
v -0.5125 1.75 0.21875
v -0.4 1.75 0.4
v -0.5125 1.59961 -0.21875
v -0.4 1.52441 -0.4
v -0.5125 1.52441 -0.21875
v -0.55 1.67481 0
v -0.5125 1.67481 0.21875
v -0.4 1.67481 0.4
v -0.55 1.59961 0
v -0.55 1.52441 0
v -0.5125 1.59961 0.21875
v -0.4 1.59961 0.4
v -0.5125 1.52441 0.21875
v -0.4 1.52441 0.4
v -0.20932 2.04102 0.4908
v 0 2.09863 0.47199
v -0.19087 2.0957 0.44011
v 0 2.04199 0.52685
v 0.19087 2.0957 0.44011
v 0.20932 2.04102 0.4908
v -0.21757 1.97363 0.50979
v 0 1.97363 0.54711
v -0.39786 1.97363 0.39786
v -0.38287 2.04004 0.38287
v -0.4 1.89941 0.4
v -0.21875 1.89941 0.5125
v -0.4 1.8252 0.4
v 0.21757 1.97363 0.50979
v 0.38287 2.04004 0.38287
v 0.39786 1.97363 0.39786
v -0.21875 1.8252 0.5125
v -0.4 1.75 0.4
v 0 1.89941 0.55
v 0.21875 1.89941 0.5125
v 0.4 1.89941 0.4
v -0.21875 1.75 0.5125
v -0.4 1.67481 0.4
v 0 1.8252 0.55
v 0.21875 1.8252 0.5125
v 0.4 1.8252 0.4
v -0.21875 1.67481 0.5125
v -0.4 1.59961 0.4
v 0 1.75 0.55
v 0.21875 1.75 0.5125
v 0.4 1.75 0.4
v -0.21875 1.59961 0.5125
v -0.4 1.52441 0.4
v -0.21875 1.52441 0.5125
v 0 1.67481 0.55
v 0.21875 1.67481 0.5125
v 0.4 1.67481 0.4
v 0 1.59961 0.55
v 0 1.52441 0.55
v 0.21875 1.59961 0.5125
v 0.4 1.59961 0.4
v 0.21875 1.52441 0.5125
v 0.4 1.52441 0.4
v -0.5125 1.52441 0.21875
v -0.55 1.52441 0
v -0.5125 1.52441 -0.21875
v -0.4 1.52441 0.4
v -0.4 1.52441 -0.4
v -0.21875 1.52441 0.5125
v -0.21875 1.52441 -0.5125
v 0 1.52441 0.55
v 0 1.52441 -0.55
v 0.21875 1.52441 0.5125
v 0.21875 1.52441 -0.5125
v 0.4 1.52441 -0.4
v 0.4 1.52441 0.4
v 0.5125 1.52441 -0.21875
v 0.5125 1.52441 0.21875
v 0.55 1.52441 0
v -0.4 1.34961 0.4
v -0.21875 1.42481 0.5125
v -0.4 1.42481 0.4
v -0.21875 1.34961 0.5125
v -0.4 1.27441 0.4
v 0 1.42481 0.55
v -0.21875 1.27441 0.5125
v -0.4 1.2002 0.4
v 0 1.34961 0.55
v 0.21875 1.42481 0.5125
v -0.21875 1.2002 0.5125
v -0.39786 1.12598 0.39786
v 0 1.27441 0.55
v 0.21875 1.34961 0.5125
v 0.4 1.42481 0.4
v 0.4 1.34961 0.4
v 0.21875 1.27441 0.5125
v 0.4 1.27441 0.4
v -0.21757 1.12598 0.50979
v -0.38287 1.05957 0.38287
v -0.20932 1.05859 0.4908
v 0 1.2002 0.55
v 0.21875 1.2002 0.5125
v 0.4 1.2002 0.4
v 0 1.12598 0.54711
v 0.21757 1.12598 0.50979
v 0.39786 1.12598 0.39786
v 0 1.05762 0.52685
v -0.19087 1.00391 0.44011
v 0 1.00098 0.47199
v 0.20932 1.05859 0.4908
v 0.38287 1.05957 0.38287
v 0.19087 1.00391 0.44011
v -0.4 1.34961 -0.4
v -0.5125 1.42481 -0.21875
v -0.4 1.42481 -0.4
v -0.5125 1.34961 -0.21875
v -0.4 1.27441 -0.4
v -0.55 1.42481 0
v -0.5125 1.27441 -0.21875
v -0.4 1.2002 -0.4
v -0.55 1.34961 0
v -0.5125 1.42481 0.21875
v -0.5125 1.2002 -0.21875
v -0.39786 1.12598 -0.39786
v -0.55 1.27441 0
v -0.5125 1.34961 0.21875
v -0.4 1.42481 0.4
v -0.4 1.34961 0.4
v -0.5125 1.27441 0.21875
v -0.4 1.27441 0.4
v -0.50979 1.12598 -0.21757
v -0.38287 1.05957 -0.38287
v -0.4908 1.05859 -0.20932
v -0.55 1.2002 0
v -0.5125 1.2002 0.21875
v -0.4 1.2002 0.4
v -0.54711 1.12598 0
v -0.50979 1.12598 0.21757
v -0.39786 1.12598 0.39786
v -0.52685 1.05762 0
v -0.44011 1.00391 -0.19087
v -0.47199 1.00098 0
v -0.4908 1.05859 0.20932
v -0.38287 1.05957 0.38287
v -0.44011 1.00391 0.19087
v 0.4 1.34961 -0.4
v 0.21875 1.42481 -0.5125
v 0.4 1.42481 -0.4
v 0.21875 1.34961 -0.5125
v 0.4 1.27441 -0.4
v 0 1.42481 -0.55
v 0.21875 1.27441 -0.5125
v 0.4 1.2002 -0.4
v 0 1.34961 -0.55
v -0.21875 1.42481 -0.5125
v 0.21875 1.2002 -0.5125
v 0.39786 1.12598 -0.39786
v 0 1.27441 -0.55
v -0.21875 1.34961 -0.5125
v -0.4 1.42481 -0.4
v -0.4 1.34961 -0.4
v -0.21875 1.27441 -0.5125
v -0.4 1.27441 -0.4
v 0.21757 1.12598 -0.50979
v 0.38287 1.05957 -0.38287
v 0.20932 1.05859 -0.4908
v 0 1.2002 -0.55
v -0.21875 1.2002 -0.5125
v -0.4 1.2002 -0.4
v 0 1.12598 -0.54711
v -0.21757 1.12598 -0.50979
v -0.39786 1.12598 -0.39786
v 0 1.05762 -0.52685
v 0.19087 1.00391 -0.44011
v 0 1.00098 -0.47199
v -0.20932 1.05859 -0.4908
v -0.38287 1.05957 -0.38287
v -0.19087 1.00391 -0.44011
v 0.4 1.34961 0.4
v 0.5125 1.42481 0.21875
v 0.4 1.42481 0.4
v 0.5125 1.34961 0.21875
v 0.4 1.27441 0.4
v 0.55 1.42481 0
v 0.5125 1.27441 0.21875
v 0.4 1.2002 0.4
v 0.55 1.34961 0
v 0.5125 1.42481 -0.21875
v 0.5125 1.2002 0.21875
v 0.39786 1.12598 0.39786
v 0.55 1.27441 0
v 0.5125 1.34961 -0.21875
v 0.4 1.42481 -0.4
v 0.4 1.34961 -0.4
v 0.5125 1.27441 -0.21875
v 0.4 1.27441 -0.4
v 0.50979 1.12598 0.21757
v 0.38287 1.05957 0.38287
v 0.4908 1.05859 0.20932
v 0.55 1.2002 0
v 0.5125 1.2002 -0.21875
v 0.4 1.2002 -0.4
v 0.54711 1.12598 0
v 0.50979 1.12598 -0.21757
v 0.39786 1.12598 -0.39786
v 0.52685 1.05762 0
v 0.44011 1.00391 0.19087
v 0.47199 1.00098 0
v 0.4908 1.05859 -0.20932
v 0.38287 1.05957 -0.38287
v 0.44011 1.00391 -0.19087
v 0.44011 1.00391 -0.19087
v 0.38287 1.05957 -0.38287
v 0.4908 1.05859 -0.20932
v 0.3459 1.00684 -0.3459
v 0.20932 1.05859 -0.4908
v 0.19087 1.00391 -0.44011
v 0.34376 0.96387 -0.17799
v 0.3 0.97461 -0.3
v 0.17799 0.96387 -0.34376
v 0 1.00098 -0.47199
v 0.36574 0.95801 0
v 0.47199 1.00098 0
v 0.18969 0.94043 -0.18969
v 0 0.95801 -0.36574
v -0.19087 1.00391 -0.44011
v 0.19988 0.93262 0
v 0.34376 0.96387 0.17799
v 0.44011 1.00391 0.19087
v 0 0.93262 -0.19988
v 0 0.92383 0
v 0.18969 0.94043 0.18969
v 0 0.93262 0.19988
v 0.3 0.97461 0.3
v 0.17799 0.96387 0.34376
v 0.3459 1.00684 0.3459
v 0.4908 1.05859 0.20932
v 0.38287 1.05957 0.38287
v 0.19087 1.00391 0.44011
v 0.20932 1.05859 0.4908
v 0 0.95801 0.36574
v 0 1.00098 0.47199
v -0.17799 0.96387 0.34376
v -0.19087 1.00391 0.44011
v -0.18969 0.94043 0.18969
v -0.3 0.97461 0.3
v -0.19988 0.93262 0
v -0.3459 1.00684 0.3459
v -0.20932 1.05859 0.4908
v -0.38287 1.05957 0.38287
v -0.34376 0.96387 0.17799
v -0.44011 1.00391 0.19087
v -0.4908 1.05859 0.20932
v -0.36574 0.95801 0
v -0.47199 1.00098 0
v -0.18969 0.94043 -0.18969
v -0.34376 0.96387 -0.17799
v -0.44011 1.00391 -0.19087
v -0.17799 0.96387 -0.34376
v -0.3 0.97461 -0.3
v -0.3459 1.00684 -0.3459
v -0.4908 1.05859 -0.20932
v -0.38287 1.05957 -0.38287
v -0.20932 1.05859 -0.4908
v -0.5125 1.42481 -0.21875
v -0.55 1.42481 0
v -0.5125 1.42481 0.21875
v -0.4 1.42481 -0.4
v -0.4 1.42481 0.4
v -0.21875 1.42481 0.5125
v -0.21875 1.42481 -0.5125
v 0 1.42481 -0.55
v 0 1.42481 0.55
v 0.21875 1.42481 0.5125
v 0.21875 1.42481 -0.5125
v 0.4 1.42481 -0.4
v 0.4 1.42481 0.4
v 0.5125 1.42481 -0.21875
v 0.5125 1.42481 0.21875
v 0.55 1.42481 0
v 0.5 1.39941 0.08
v 0.5 1.39941 -0.08
v 0.5 1.55957 -0.08
v 0.5 1.55957 0.08
v 0.5 1.39941 -0.08
v 0.34 1.39941 -0.08
v 0.34 1.55957 -0.08
v 0.5 1.55957 -0.08
v 0.34 1.39941 -0.08
v 0.34 1.39941 0.08
v 0.34 1.55957 0.08
v 0.34 1.55957 -0.08
v 0.34 1.39941 0.08
v 0.5 1.39941 0.08
v 0.5 1.55957 0.08
v 0.34 1.55957 0.08
v 0.5 1.39941 -0.08
v 0.5 1.39941 0.08
v 0.34 1.39941 0.08
v 0.34 1.39941 -0.08
v 0.34 1.55957 -0.08
v 0.34 1.55957 0.08
v 0.5 1.55957 0.08
v 0.5 1.55957 -0.08
v -0.34 1.39941 0.08
v -0.34 1.39941 -0.08
v -0.34 1.55957 -0.08
v -0.34 1.55957 0.08
v -0.34 1.39941 -0.08
v -0.5 1.39941 -0.08
v -0.5 1.55957 -0.08
v -0.34 1.55957 -0.08
v -0.5 1.39941 -0.08
v -0.5 1.39941 0.08
v -0.5 1.55957 0.08
v -0.5 1.55957 -0.08
v -0.5 1.39941 0.08
v -0.34 1.39941 0.08
v -0.34 1.55957 0.08
v -0.5 1.55957 0.08
v -0.34 1.39941 -0.08
v -0.34 1.39941 0.08
v -0.5 1.39941 0.08
v -0.5 1.39941 -0.08
v -0.5 1.55957 -0.08
v -0.5 1.55957 0.08
v -0.34 1.55957 0.08
v -0.34 1.55957 -0.08
vt 0.05382 0.94665
vt 0.07092 0.99908
vt 0.0999 0.99667
vt 0.02104 0.94739
vt 0.0999 0.99667
vt 0.05382 0.94665
vt 0.03656 0.88538
vt 0.00263 0.88547
vt 0.13831 0.88529
vt 0.15194 0.94592
vt 0.13636 0.81818
vt 0.03409 0.81818
vt 0.13636 0.75
vt 0.03656 0.88538
vt 0.15194 0.94592
vt 0.13831 0.88529
vt 0.03409 0.75
vt 0.13636 0.68182
vt 0 0.81818
vt 0.03409 0.81818
vt 0.13636 0.81818
vt 0.03409 0.68182
vt 0.13636 0.61364
vt 0 0.75
vt 0.03409 0.75
vt 0.13636 0.75
vt 0.03409 0.61364
vt 0.13636 0.54545
vt 0 0.68182
vt 0.03409 0.68182
vt 0.13636 0.68182
vt 0.03409 0.54545
vt 0.13636 0.47727
vt 0.03409 0.47727
vt 0 0.61364
vt 0.03409 0.61364
vt 0.13636 0.61364
vt 0 0.54545
vt 0 0.47727
vt 0.03409 0.54545
vt 0.13636 0.54545
vt 0.03409 0.47727
vt 0.13636 0.47727
vt 0.15194 0.94592
vt 0.05382 0.94665
vt 0.0999 0.99667
vt 0.18554 0.99392
vt 0.30971 0.94665
vt 0.32648 0.99667
vt 0.18749 1.03267
vt 0.22727 1.02273
vt 0.33819 1.03267
vt 0.5 0.99908
vt 0.16751 1.03767
vt 0.07092 0.99908
vt 0.32755 1.05395
vt 0.5 1.03767
vt 0.67352 0.99667
vt 0.18749 1.03267
vt 0.0999 0.99667
vt 0.31829 1.06116
vt 0.5 1.06116
vt 0.32755 1.05395
vt 0.5 1.06902
vt 0.5 1.06116
vt 0.22727 1.02273
vt 0.33819 1.03267
vt 0.18554 0.99392
vt 0.05382 0.94665
vt 0.15194 0.94592
vt 0.32648 0.99667
vt 0.30971 0.94665
vt 0.5 1.03767
vt 0.5 0.99908
vt 0.66181 1.03267
vt 0.67352 0.99667
vt 0.67245 1.05395
vt 0.77273 1.02273
vt 0.68171 1.06116
vt 0.81446 0.99392
vt 0.69029 0.94665
vt 0.84806 0.94592
vt 0.81251 1.03267
vt 0.9001 0.99667
vt 0.94618 0.94665
vt 0.83249 1.03767
vt 0.92908 0.99908
vt 0.67245 1.05395
vt 0.81251 1.03267
vt 0.9001 0.99667
vt 0.66181 1.03267
vt 0.77273 1.02273
vt 0.81446 0.99392
vt 0.94618 0.94665
vt 0.84806 0.94592
vt 0.69029 0.94665
vt 0.30971 0.94665
vt 0.5 0.99908
vt 0.32648 0.99667
vt 0.5 0.94739
vt 0.67352 0.99667
vt 0.69029 0.94665
vt 0.30221 0.88538
vt 0.5 0.88547
vt 0.13831 0.88529
vt 0.15194 0.94592
vt 0.13636 0.81818
vt 0.30114 0.81818
vt 0.13636 0.75
vt 0.69779 0.88538
vt 0.84806 0.94592
vt 0.86169 0.88529
vt 0.30114 0.75
vt 0.13636 0.68182
vt 0.5 0.81818
vt 0.69886 0.81818
vt 0.86364 0.81818
vt 0.30114 0.68182
vt 0.13636 0.61364
vt 0.5 0.75
vt 0.69886 0.75
vt 0.86364 0.75
vt 0.30114 0.61364
vt 0.13636 0.54545
vt 0.5 0.68182
vt 0.69886 0.68182
vt 0.86364 0.68182
vt 0.30114 0.54545
vt 0.13636 0.47727
vt 0.30114 0.47727
vt 0.5 0.61364
vt 0.69886 0.61364
vt 0.86364 0.61364
vt 0.5 0.54545
vt 0.5 0.47727
vt 0.69886 0.54545
vt 0.86364 0.54545
vt 0.69886 0.47727
vt 0.86364 0.47727
vt 0.94618 0.94665
vt 0.92908 0.99908
vt 0.9001 0.99667
vt 0.97896 0.94739
vt 0.9001 0.99667
vt 0.94618 0.94665
vt 0.96344 0.88538
vt 0.99737 0.88547
vt 0.86169 0.88529
vt 0.84806 0.94592
vt 0.86364 0.81818
vt 0.96591 0.81818
vt 0.86364 0.75
vt 0.96344 0.88538
vt 0.84806 0.94592
vt 0.86169 0.88529
vt 0.96591 0.75
vt 0.86364 0.68182
vt 1 0.81818
vt 0.96591 0.81818
vt 0.86364 0.81818
vt 0.96591 0.68182
vt 0.86364 0.61364
vt 1 0.75
vt 0.96591 0.75
vt 0.86364 0.75
vt 0.96591 0.61364
vt 0.86364 0.54545
vt 1 0.68182
vt 0.96591 0.68182
vt 0.86364 0.68182
vt 0.96591 0.54545
vt 0.86364 0.47727
vt 0.96591 0.47727
vt 1 0.61364
vt 0.96591 0.61364
vt 0.86364 0.61364
vt 1 0.54545
vt 1 0.47727
vt 0.96591 0.54545
vt 0.86364 0.54545
vt 0.96591 0.47727
vt 0.86364 0.47727
vt 0.69029 0.94665
vt 0.5 0.99908
vt 0.67352 0.99667
vt 0.5 0.94739
vt 0.32648 0.99667
vt 0.30971 0.94665
vt 0.69779 0.88538
vt 0.5 0.88547
vt 0.86169 0.88529
vt 0.84806 0.94592
vt 0.86364 0.81818
vt 0.69886 0.81818
vt 0.86364 0.75
vt 0.30221 0.88538
vt 0.15194 0.94592
vt 0.13831 0.88529
vt 0.69886 0.75
vt 0.86364 0.68182
vt 0.5 0.81818
vt 0.30114 0.81818
vt 0.13636 0.81818
vt 0.69886 0.68182
vt 0.86364 0.61364
vt 0.5 0.75
vt 0.30114 0.75
vt 0.13636 0.75
vt 0.69886 0.61364
vt 0.86364 0.54545
vt 0.5 0.68182
vt 0.30114 0.68182
vt 0.13636 0.68182
vt 0.69886 0.54545
vt 0.86364 0.47727
vt 0.69886 0.47727
vt 0.5 0.61364
vt 0.30114 0.61364
vt 0.13636 0.61364
vt 0.5 0.54545
vt 0.5 0.47727
vt 0.30114 0.54545
vt 0.13636 0.54545
vt 0.30114 0.47727
vt 0.13636 0.47727
vt 0.96591 0.47727
vt 1 0.47727
vt 0.96591 0.47727
vt 0.86364 0.47727
vt 0.86364 0.47727
vt 0.69886 0.47727
vt 0.69886 0.47727
vt 0.5 0.47727
vt 0.5 0.47727
vt 0.30114 0.47727
vt 0.30114 0.47727
vt 0.13636 0.47727
vt 0.13636 0.47727
vt 0.03409 0.47727
vt 0.03409 0.47727
vt 0 0.47727
vt 0.86364 0.31818
vt 0.69886 0.38636
vt 0.86364 0.38636
vt 0.69886 0.31818
vt 0.86364 0.25
vt 0.5 0.38636
vt 0.69886 0.25
vt 0.86364 0.18182
vt 0.5 0.31818
vt 0.30114 0.38636
vt 0.69886 0.18182
vt 0.86169 0.11471
vt 0.5 0.25
vt 0.30114 0.31818
vt 0.13636 0.38636
vt 0.13636 0.31818
vt 0.30114 0.25
vt 0.13636 0.25
vt 0.69779 0.11462
vt 0.84806 0.05408
vt 0.69029 0.05335
vt 0.5 0.18182
vt 0.30114 0.18182
vt 0.13636 0.18182
vt 0.5 0.11453
vt 0.30221 0.11462
vt 0.13831 0.11471
vt 0.5 0.05261
vt 0.67352 0.00333
vt 0.5 0.00092
vt 0.30971 0.05335
vt 0.15194 0.05408
vt 0.32648 0.00333
vt 0.86364 0.31818
vt 0.96591 0.38636
vt 0.86364 0.38636
vt 0.96591 0.31818
vt 0.86364 0.25
vt 1 0.38636
vt 0.96591 0.25
vt 0.86364 0.18182
vt 1 0.31818
vt 0.96591 0.38636
vt 0.96591 0.18182
vt 0.86169 0.11471
vt 1 0.25
vt 0.96591 0.31818
vt 0.86364 0.38636
vt 0.86364 0.31818
vt 0.96591 0.25
vt 0.86364 0.25
vt 0.96344 0.11462
vt 0.84806 0.05408
vt 0.94618 0.05335
vt 1 0.18182
vt 0.96591 0.18182
vt 0.86364 0.18182
vt 0.99737 0.11453
vt 0.96344 0.11462
vt 0.86169 0.11471
vt 0.97896 0.05261
vt 0.9001 0.00333
vt 0.92908 0.00092
vt 0.94618 0.05335
vt 0.84806 0.05408
vt 0.9001 0.00333
vt 0.13636 0.31818
vt 0.30114 0.38636
vt 0.13636 0.38636
vt 0.30114 0.31818
vt 0.13636 0.25
vt 0.5 0.38636
vt 0.30114 0.25
vt 0.13636 0.18182
vt 0.5 0.31818
vt 0.69886 0.38636
vt 0.30114 0.18182
vt 0.13831 0.11471
vt 0.5 0.25
vt 0.69886 0.31818
vt 0.86364 0.38636
vt 0.86364 0.31818
vt 0.69886 0.25
vt 0.86364 0.25
vt 0.30221 0.11462
vt 0.15194 0.05408
vt 0.30971 0.05335
vt 0.5 0.18182
vt 0.69886 0.18182
vt 0.86364 0.18182
vt 0.5 0.11453
vt 0.69779 0.11462
vt 0.86169 0.11471
vt 0.5 0.05261
vt 0.32648 0.00333
vt 0.5 0.00092
vt 0.69029 0.05335
vt 0.84806 0.05408
vt 0.67352 0.00333
vt 0.13636 0.31818
vt 0.03409 0.38636
vt 0.13636 0.38636
vt 0.03409 0.31818
vt 0.13636 0.25
vt 0 0.38636
vt 0.03409 0.25
vt 0.13636 0.18182
vt 0 0.31818
vt 0.03409 0.38636
vt 0.03409 0.18182
vt 0.13831 0.11471
vt 0 0.25
vt 0.03409 0.31818
vt 0.13636 0.38636
vt 0.13636 0.31818
vt 0.03409 0.25
vt 0.13636 0.25
vt 0.03656 0.11462
vt 0.15194 0.05408
vt 0.05382 0.05335
vt 0 0.18182
vt 0.03409 0.18182
vt 0.13636 0.18182
vt 0.00263 0.11453
vt 0.03656 0.11462
vt 0.13831 0.11471
vt 0.02104 0.05261
vt 0.0999 0.00333
vt 0.07092 0.00092
vt 0.05382 0.05335
vt 0.15194 0.05408
vt 0.0999 0.00333
vt 0.0999 0.00333
vt 0.15194 0.05408
vt 0.05382 0.05335
vt 0.18554 0.00608
vt 0.30971 0.05335
vt 0.32648 0.00333
vt 0.18749 -0.03267
vt 0.22727 -0.02273
vt 0.33819 -0.03267
vt 0.5 0.00092
vt 0.16751 -0.03767
vt 0.07092 0.00092
vt 0.32755 -0.05395
vt 0.5 -0.03767
vt 0.67352 0.00333
vt 0.31829 -0.06116
vt 0.18749 -0.03267
vt 0.0999 0.00333
vt 0.5 -0.06116
vt 0.5 -0.06902
vt 0.32755 -0.05395
vt 0.5 -0.06116
vt 0.22727 -0.02273
vt 0.33819 -0.03267
vt 0.18554 0.00608
vt 0.05382 0.05335
vt 0.15194 0.05408
vt 0.32648 0.00333
vt 0.30971 0.05335
vt 0.5 -0.03767
vt 0.5 0.00092
vt 0.66181 -0.03267
vt 0.67352 0.00333
vt 0.67245 -0.05395
vt 0.77273 -0.02273
vt 0.68171 -0.06116
vt 0.81446 0.00608
vt 0.69029 0.05335
vt 0.84806 0.05408
vt 0.81251 -0.03267
vt 0.9001 0.00333
vt 0.94618 0.05335
vt 0.83249 -0.03767
vt 0.92908 0.00092
vt 0.67245 -0.05395
vt 0.81251 -0.03267
vt 0.9001 0.00333
vt 0.66181 -0.03267
vt 0.77273 -0.02273
vt 0.81446 0.00608
vt 0.94618 0.05335
vt 0.84806 0.05408
vt 0.69029 0.05335
vt 0.96591 0.38636
vt 1 0.38636
vt 0.96591 0.38636
vt 0.86364 0.38636
vt 0.86364 0.38636
vt 0.69886 0.38636
vt 0.69886 0.38636
vt 0.5 0.38636
vt 0.5 0.38636
vt 0.30114 0.38636
vt 0.30114 0.38636
vt 0.13636 0.38636
vt 0.13636 0.38636
vt 0.03409 0.38636
vt 0.03409 0.38636
vt 0 0.38636
vt 0.04545 0.36364
vt 0.04545 0.36364
vt 0.04545 0.50909
vt 0.04545 0.50909
vt 0.04545 0.36364
vt 0.19091 0.36364
vt 0.19091 0.50909
vt 0.04545 0.50909
vt 0.19091 0.36364
vt 0.19091 0.36364
vt 0.19091 0.50909
vt 0.19091 0.50909
vt 0.19091 0.36364
vt 0.04545 0.36364
vt 0.04545 0.50909
vt 0.19091 0.50909
vt 0.04545 0.36364
vt 0.04545 0.36364
vt 0.19091 0.36364
vt 0.19091 0.36364
vt 0.19091 0.50909
vt 0.19091 0.50909
vt 0.04545 0.50909
vt 0.04545 0.50909
vt 0.80909 0.36364
vt 0.80909 0.36364
vt 0.80909 0.50909
vt 0.80909 0.50909
vt 0.80909 0.36364
vt 0.95455 0.36364
vt 0.95455 0.50909
vt 0.80909 0.50909
vt 0.95455 0.36364
vt 0.95455 0.36364
vt 0.95455 0.50909
vt 0.95455 0.50909
vt 0.95455 0.36364
vt 0.80909 0.36364
vt 0.80909 0.50909
vt 0.95455 0.50909
vt 0.80909 0.36364
vt 0.80909 0.36364
vt 0.95455 0.36364
vt 0.95455 0.36364
vt 0.95455 0.50909
vt 0.95455 0.50909
vt 0.80909 0.50909
vt 0.80909 0.50909
vn 0.8102 0.4984 0.30851
vn 0.57006 0.8216 0
vn 0.54182 0.81439 0.20786
vn 0.86807 0.49644 0
vn 0.54182 0.81439 -0.20786
vn 0.8102 0.4984 -0.30851
vn 0.92167 0.16554 0.35089
vn 0.9867 0.16253 0
vn 0.69695 0.16888 0.69695
vn 0.61205 0.5008 0.61205
vn 0.70696 0.02035 0.70696
vn 0.93473 0.01993 0.3548
vn 0.70711 0 0.70711
vn 0.92167 0.16554 -0.35089
vn 0.61205 0.5008 -0.61205
vn 0.69695 0.16888 -0.69695
vn 0.93497 0 0.35474
vn 0.70711 0 0.70711
vn 0.99981 0.01958 0
vn 0.93473 0.01993 -0.3548
vn 0.70696 0.02035 -0.70696
vn 0.93497 0 0.35474
vn 0.70711 0 0.70711
vn 1 0 0
vn 0.93497 0 -0.35474
vn 0.70711 0 -0.70711
vn 0.93497 0 0.35474
vn 0.70711 0 0.70711
vn 1 0 0
vn 0.93497 0 -0.35474
vn 0.70711 0 -0.70711
vn 0.93497 0 0.35474
vn 0.5317 -0.65923 0.5317
vn 0.6971 -0.66641 0.26449
vn 1 0 0
vn 0.93497 0 -0.35474
vn 0.70711 0 -0.70711
vn 1 0 0
vn 0.74147 -0.67099 0
vn 0.93497 0 -0.35474
vn 0.70711 0 -0.70711
vn 0.6971 -0.66641 -0.26449
vn 0.5317 -0.65923 -0.5317
vn 0.61205 0.5008 0.61205
vn 0.8102 0.4984 0.30851
vn 0.54182 0.81439 0.20786
vn 0.41869 0.80585 0.41869
vn 0.30851 0.4984 0.8102
vn 0.20786 0.81439 0.54182
vn 0.26814 0.95526 0.12481
vn 0.2443 0.93842 0.2443
vn 0.12481 0.95526 0.26814
vn 0 0.8216 0.57006
vn 0.27185 0.96234 0
vn 0.57006 0.8216 0
vn 0.10004 0.98994 0.10004
vn 0 0.96234 0.27185
vn -0.20786 0.81439 0.54182
vn 0.26814 0.95526 -0.12481
vn 0.54182 0.81439 -0.20786
vn 0.10066 0.99492 0
vn 0 0.99492 0.10066
vn 0.10004 0.98994 -0.10004
vn 0 1 0
vn 0 0.99492 -0.10066
vn 0.2443 0.93842 -0.2443
vn 0.12481 0.95526 -0.26814
vn 0.41869 0.80585 -0.41869
vn 0.8102 0.4984 -0.30851
vn 0.61205 0.5008 -0.61205
vn 0.20786 0.81439 -0.54181
vn 0.30851 0.4984 -0.8102
vn 0 0.96234 -0.27185
vn 0 0.8216 -0.57006
vn -0.12481 0.95526 -0.26814
vn -0.20786 0.81439 -0.54181
vn -0.10004 0.98994 -0.10004
vn -0.2443 0.93842 -0.2443
vn -0.10066 0.99492 0
vn -0.41869 0.80585 -0.41869
vn -0.30851 0.4984 -0.8102
vn -0.61205 0.5008 -0.61204
vn -0.26814 0.95526 -0.12481
vn -0.54182 0.81439 -0.20786
vn -0.8102 0.4984 -0.30851
vn -0.27185 0.96234 0
vn -0.57006 0.8216 0
vn -0.10004 0.98994 0.10004
vn -0.26814 0.95526 0.12481
vn -0.54182 0.81439 0.20786
vn -0.12481 0.95526 0.26814
vn -0.2443 0.93842 0.2443
vn -0.41869 0.80585 0.41869
vn -0.8102 0.4984 0.30851
vn -0.61205 0.5008 0.61205
vn -0.30851 0.4984 0.8102
vn 0.30851 0.4984 -0.8102
vn 0 0.8216 -0.57006
vn 0.20786 0.81439 -0.54181
vn 0 0.49644 -0.86807
vn -0.20786 0.81439 -0.54181
vn -0.30851 0.4984 -0.8102
vn 0.35089 0.16554 -0.92167
vn 0 0.16253 -0.9867
vn 0.69695 0.16888 -0.69695
vn 0.61205 0.5008 -0.61205
vn 0.70696 0.02035 -0.70696
vn 0.3548 0.01993 -0.93473
vn 0.70711 0 -0.70711
vn -0.35089 0.16554 -0.92167
vn -0.61205 0.5008 -0.61204
vn -0.69695 0.16888 -0.69695
vn 0.35474 0 -0.93497
vn 0.70711 0 -0.70711
vn 0 0.01958 -0.99981
vn -0.3548 0.01993 -0.93473
vn -0.70696 0.02035 -0.70696
vn 0.35474 0 -0.93497
vn 0.70711 0 -0.70711
vn 0 0 -1
vn -0.35474 0 -0.93497
vn -0.70711 0 -0.70711
vn 0.35474 0 -0.93497
vn 0.70711 0 -0.70711
vn 0 0 -1
vn -0.35474 0 -0.93497
vn -0.70711 0 -0.70711
vn 0.35474 0 -0.93497
vn 0.5317 -0.65923 -0.5317
vn 0.26449 -0.66641 -0.6971
vn 0 0 -1
vn -0.35474 0 -0.93497
vn -0.70711 0 -0.70711
vn 0 0 -1
vn 0 -0.67099 -0.74147
vn -0.35474 0 -0.93497
vn -0.70711 0 -0.70711
vn -0.26449 -0.66641 -0.6971
vn -0.5317 -0.65923 -0.5317
vn -0.8102 0.4984 -0.30851
vn -0.57006 0.8216 0
vn -0.54182 0.81439 -0.20786
vn -0.86807 0.49644 0
vn -0.54182 0.81439 0.20786
vn -0.8102 0.4984 0.30851
vn -0.92167 0.16554 -0.35089
vn -0.9867 0.16253 0
vn -0.69695 0.16888 -0.69695
vn -0.61205 0.5008 -0.61204
vn -0.70696 0.02035 -0.70696
vn -0.93473 0.01993 -0.3548
vn -0.70711 0 -0.70711
vn -0.92167 0.16554 0.35089
vn -0.61205 0.5008 0.61205
vn -0.69695 0.16888 0.69695
vn -0.93497 0 -0.35474
vn -0.70711 0 -0.70711
vn -0.99981 0.01958 0
vn -0.93473 0.01993 0.3548
vn -0.70696 0.02035 0.70696
vn -0.93497 0 -0.35474
vn -0.70711 0 -0.70711
vn -1 0 0
vn -0.93497 0 0.35474
vn -0.70711 0 0.70711
vn -0.93497 0 -0.35474
vn -0.70711 0 -0.70711
vn -1 0 0
vn -0.93497 0 0.35474
vn -0.70711 0 0.70711
vn -0.93497 0 -0.35474
vn -0.5317 -0.65923 -0.5317
vn -0.6971 -0.66641 -0.26449
vn -1 0 0
vn -0.93497 0 0.35474
vn -0.70711 0 0.70711
vn -1 0 0
vn -0.74147 -0.67099 0
vn -0.93497 0 0.35474
vn -0.70711 0 0.70711
vn -0.6971 -0.66641 0.26449
vn -0.5317 -0.65923 0.5317
vn -0.30851 0.4984 0.8102
vn 0 0.8216 0.57006
vn -0.20786 0.81439 0.54182
vn 0 0.49644 0.86807
vn 0.20786 0.81439 0.54182
vn 0.30851 0.4984 0.8102
vn -0.35089 0.16554 0.92167
vn 0 0.16253 0.9867
vn -0.69695 0.16888 0.69695
vn -0.61205 0.5008 0.61205
vn -0.70696 0.02035 0.70696
vn -0.3548 0.01993 0.93473
vn -0.70711 0 0.70711
vn 0.35089 0.16554 0.92167
vn 0.61205 0.5008 0.61205
vn 0.69695 0.16888 0.69695
vn -0.35474 0 0.93497
vn -0.70711 0 0.70711
vn 0 0.01958 0.99981
vn 0.3548 0.01993 0.93473
vn 0.70696 0.02035 0.70696
vn -0.35474 0 0.93497
vn -0.70711 0 0.70711
vn 0 0 1
vn 0.35474 0 0.93497
vn 0.70711 0 0.70711
vn -0.35474 0 0.93497
vn -0.70711 0 0.70711
vn 0 0 1
vn 0.35474 0 0.93497
vn 0.70711 0 0.70711
vn -0.35474 0 0.93497
vn -0.5317 -0.65923 0.5317
vn -0.26449 -0.66641 0.6971
vn 0 0 1
vn 0.35474 0 0.93497
vn 0.70711 0 0.70711
vn 0 0 1
vn 0 -0.67099 0.74147
vn 0.35474 0 0.93497
vn 0.70711 0 0.70711
vn 0.26449 -0.66641 0.6971
vn 0.5317 -0.65923 0.5317
vn -0.6971 -0.66641 0.26449
vn -0.74147 -0.67099 0
vn -0.6971 -0.66641 -0.26449
vn -0.5317 -0.65923 0.5317
vn -0.5317 -0.65923 -0.5317
vn -0.26449 -0.66641 0.6971
vn -0.26449 -0.66641 -0.6971
vn 0 -0.67099 0.74147
vn 0 -0.67099 -0.74147
vn 0.26449 -0.66641 0.6971
vn 0.26449 -0.66641 -0.6971
vn 0.5317 -0.65923 -0.5317
vn 0.5317 -0.65923 0.5317
vn 0.6971 -0.66641 -0.26449
vn 0.6971 -0.66641 0.26449
vn 0.74147 -0.67099 0
vn -0.70711 0 0.70711
vn -0.26449 0.66641 0.6971
vn -0.5317 0.65923 0.5317
vn -0.35474 0 0.93497
vn -0.70711 0 0.70711
vn 0 0.67099 0.74147
vn -0.35474 0 0.93497
vn -0.70696 -0.02035 0.70696
vn 0 0 1
vn 0.26449 0.66641 0.6971
vn -0.3548 -0.01993 0.93473
vn -0.69695 -0.16888 0.69695
vn 0 0 1
vn 0.35474 0 0.93497
vn 0.5317 0.65923 0.5317
vn 0.70711 0 0.70711
vn 0.35474 0 0.93497
vn 0.70711 0 0.70711
vn -0.35089 -0.16554 0.92167
vn -0.61205 -0.5008 0.61204
vn -0.30851 -0.4984 0.8102
vn 0 -0.01958 0.99981
vn 0.3548 -0.01993 0.93473
vn 0.70696 -0.02035 0.70696
vn 0 -0.16253 0.9867
vn 0.35089 -0.16554 0.92167
vn 0.69695 -0.16888 0.69695
vn 0 -0.49644 0.86807
vn -0.20786 -0.81439 0.54181
vn 0 -0.8216 0.57006
vn 0.30851 -0.4984 0.8102
vn 0.61205 -0.5008 0.61205
vn 0.20786 -0.81439 0.54182
vn -0.70711 0 -0.70711
vn -0.6971 0.66641 -0.26449
vn -0.5317 0.65923 -0.5317
vn -0.93497 0 -0.35474
vn -0.70711 0 -0.70711
vn -0.74147 0.67099 0
vn -0.93497 0 -0.35474
vn -0.70696 -0.02035 -0.70696
vn -1 0 0
vn -0.6971 0.66641 0.26449
vn -0.93473 -0.01993 -0.3548
vn -0.69695 -0.16888 -0.69695
vn -1 0 0
vn -0.93497 0 0.35474
vn -0.5317 0.65923 0.5317
vn -0.70711 0 0.70711
vn -0.93497 0 0.35474
vn -0.70711 0 0.70711
vn -0.92167 -0.16554 -0.35089
vn -0.61205 -0.5008 -0.61204
vn -0.8102 -0.4984 -0.30851
vn -0.99981 -0.01958 0
vn -0.93473 -0.01993 0.3548
vn -0.70696 -0.02035 0.70696
vn -0.9867 -0.16253 0
vn -0.92167 -0.16554 0.35089
vn -0.69695 -0.16888 0.69695
vn -0.86807 -0.49644 0
vn -0.54181 -0.81439 -0.20786
vn -0.57006 -0.8216 0
vn -0.8102 -0.4984 0.30851
vn -0.61205 -0.5008 0.61204
vn -0.54182 -0.81439 0.20786
vn 0.70711 0 -0.70711
vn 0.26449 0.66641 -0.6971
vn 0.5317 0.65923 -0.5317
vn 0.35474 0 -0.93497
vn 0.70711 0 -0.70711
vn 0 0.67099 -0.74147
vn 0.35474 0 -0.93497
vn 0.70696 -0.02035 -0.70696
vn 0 0 -1
vn -0.26449 0.66641 -0.6971
vn 0.3548 -0.01993 -0.93473
vn 0.69695 -0.16888 -0.69695
vn 0 0 -1
vn -0.35474 0 -0.93497
vn -0.5317 0.65923 -0.5317
vn -0.70711 0 -0.70711
vn -0.35474 0 -0.93497
vn -0.70711 0 -0.70711
vn 0.35089 -0.16554 -0.92167
vn 0.61205 -0.5008 -0.61205
vn 0.30851 -0.4984 -0.8102
vn 0 -0.01958 -0.99981
vn -0.3548 -0.01993 -0.93473
vn -0.70696 -0.02035 -0.70696
vn 0 -0.16253 -0.9867
vn -0.35089 -0.16554 -0.92167
vn -0.69695 -0.16888 -0.69695
vn 0 -0.49644 -0.86807
vn 0.20786 -0.81439 -0.54181
vn 0 -0.8216 -0.57006
vn -0.30851 -0.4984 -0.8102
vn -0.61205 -0.5008 -0.61204
vn -0.20786 -0.81439 -0.54181
vn 0.70711 0 0.70711
vn 0.6971 0.66641 0.26449
vn 0.5317 0.65923 0.5317
vn 0.93497 0 0.35474
vn 0.70711 0 0.70711
vn 0.74147 0.67099 0
vn 0.93497 0 0.35474
vn 0.70696 -0.02035 0.70696
vn 1 0 0
vn 0.6971 0.66641 -0.26449
vn 0.93473 -0.01993 0.3548
vn 0.69695 -0.16888 0.69695
vn 1 0 0
vn 0.93497 0 -0.35474
vn 0.5317 0.65923 -0.5317
vn 0.70711 0 -0.70711
vn 0.93497 0 -0.35474
vn 0.70711 0 -0.70711
vn 0.92167 -0.16554 0.35089
vn 0.61205 -0.5008 0.61205
vn 0.8102 -0.4984 0.30851
vn 0.99981 -0.01958 0
vn 0.93473 -0.01993 -0.3548
vn 0.70696 -0.02035 -0.70696
vn 0.9867 -0.16253 0
vn 0.92167 -0.16554 -0.35089
vn 0.69695 -0.16888 -0.69695
vn 0.86807 -0.49644 0
vn 0.54182 -0.81439 0.20786
vn 0.57006 -0.8216 0
vn 0.8102 -0.4984 -0.30851
vn 0.61205 -0.5008 -0.61205
vn 0.54181 -0.81439 -0.20786
vn 0.54181 -0.81439 -0.20786
vn 0.61205 -0.5008 -0.61205
vn 0.8102 -0.4984 -0.30851
vn 0.41869 -0.80585 -0.41869
vn 0.30851 -0.4984 -0.8102
vn 0.20786 -0.81439 -0.54181
vn 0.26814 -0.95526 -0.12481
vn 0.2443 -0.93842 -0.2443
vn 0.12481 -0.95526 -0.26814
vn 0 -0.8216 -0.57006
vn 0.27185 -0.96234 0
vn 0.57006 -0.8216 0
vn 0.10004 -0.98994 -0.10004
vn 0 -0.96234 -0.27185
vn -0.20786 -0.81439 -0.54181
vn 0.10066 -0.99492 0
vn 0.26814 -0.95526 0.12481
vn 0.54182 -0.81439 0.20786
vn 0 -0.99492 -0.10066
vn 0 -1 0
vn 0.10004 -0.98994 0.10004
vn 0 -0.99492 0.10066
vn 0.2443 -0.93842 0.2443
vn 0.12481 -0.95526 0.26814
vn 0.41869 -0.80585 0.41869
vn 0.8102 -0.4984 0.30851
vn 0.61205 -0.5008 0.61205
vn 0.20786 -0.81439 0.54182
vn 0.30851 -0.4984 0.8102
vn 0 -0.96234 0.27185
vn 0 -0.8216 0.57006
vn -0.12481 -0.95526 0.26814
vn -0.20786 -0.81439 0.54181
vn -0.10004 -0.98994 0.10004
vn -0.2443 -0.93842 0.2443
vn -0.10066 -0.99492 0
vn -0.41869 -0.80585 0.41869
vn -0.30851 -0.4984 0.8102
vn -0.61205 -0.5008 0.61204
vn -0.26814 -0.95526 0.12481
vn -0.54182 -0.81439 0.20786
vn -0.8102 -0.4984 0.30851
vn -0.27185 -0.96234 0
vn -0.57006 -0.8216 0
vn -0.10004 -0.98994 -0.10004
vn -0.26814 -0.95526 -0.12481
vn -0.54181 -0.81439 -0.20786
vn -0.12481 -0.95526 -0.26814
vn -0.2443 -0.93842 -0.2443
vn -0.41869 -0.80585 -0.41869
vn -0.8102 -0.4984 -0.30851
vn -0.61205 -0.5008 -0.61204
vn -0.30851 -0.4984 -0.8102
vn -0.6971 0.66641 -0.26449
vn -0.74147 0.67099 0
vn -0.6971 0.66641 0.26449
vn -0.5317 0.65923 -0.5317
vn -0.5317 0.65923 0.5317
vn -0.26449 0.66641 0.6971
vn -0.26449 0.66641 -0.6971
vn 0 0.67099 -0.74147
vn 0 0.67099 0.74147
vn 0.26449 0.66641 0.6971
vn 0.26449 0.66641 -0.6971
vn 0.5317 0.65923 -0.5317
vn 0.5317 0.65923 0.5317
vn 0.6971 0.66641 -0.26449
vn 0.6971 0.66641 0.26449
vn 0.74147 0.67099 0
vn 1 0 0
vn 1 0 0
vn 1 0 0
vn 1 0 0
vn 0 0 -1
vn 0 0 -1
vn 0 0 -1
vn 0 0 -1
vn -1 0 0
vn -1 0 0
vn -1 0 0
vn -1 0 0
vn 0 0 1
vn 0 0 1
vn 0 0 1
vn 0 0 1
vn 0 -1 0
vn 0 -1 0
vn 0 -1 0
vn 0 -1 0
vn 0 1 0
vn 0 1 0
vn 0 1 0
vn 0 1 0
vn 1 0 0
vn 1 0 0
vn 1 0 0
vn 1 0 0
vn 0 0 -1
vn 0 0 -1
vn 0 0 -1
vn 0 0 -1
vn -1 0 0
vn -1 0 0
vn -1 0 0
vn -1 0 0
vn 0 0 1
vn 0 0 1
vn 0 0 1
vn 0 0 1
vn 0 -1 0
vn 0 -1 0
vn 0 -1 0
vn 0 -1 0
vn 0 1 0
vn 0 1 0
vn 0 1 0
vn 0 1 0
usemtl skin
f 9/9/9 7/7/7 1/1/1
f 9/9/9 1/1/1 10/10/10
f 11/11/11 7/7/7 9/9/9
f 11/11/11 12/12/12 7/7/7
f 13/13/13 12/12/12 11/11/11
f 13/13/13 17/17/17 12/12/12
f 18/18/18 17/17/17 13/13/13
f 18/18/18 22/22/22 17/17/17
f 23/23/23 22/22/22 18/18/18
f 23/23/23 27/27/27 22/22/22
f 28/28/28 27/27/27 23/23/23
f 28/28/28 32/32/32 27/27/27
f 33/33/33 32/32/32 28/28/28
f 33/33/33 34/34/34 32/32/32
f 44/44/44 45/45/45 46/46/46
f 44/44/44 46/46/46 47/47/47
f 48/48/48 44/44/44 47/47/47
f 48/48/48 47/47/47 49/49/49
f 47/47/47 46/46/46 50/50/50
f 49/49/49 47/47/47 51/51/51
f 47/47/47 50/50/50 51/51/51
f 49/49/49 51/51/51 52/52/52
f 53/53/53 49/49/49 52/52/52
f 56/56/56 51/51/51 50/50/50
f 56/56/56 52/52/52 51/51/51
f 53/53/53 52/52/52 57/57/57
f 58/58/58 53/53/53 57/57/57
f 62/62/62 52/52/52 56/56/56
f 62/62/62 57/57/57 52/52/52
f 88/88/88 57/57/57 62/62/62
f 88/88/88 91/91/91 57/57/57
f 89/89/89 91/91/91 88/88/88
f 58/58/58 57/57/57 91/91/91
f 90/90/90 92/92/92 89/89/89
f 89/89/89 92/92/92 91/91/91
f 90/90/90 93/93/93 92/92/92
f 93/93/93 91/91/91 92/92/92
f 93/93/93 58/58/58 91/91/91
f 94/94/94 93/93/93 90/90/90
f 94/94/94 95/95/95 93/93/93
f 95/95/95 58/58/58 93/93/93
f 95/95/95 96/96/96 58/58/58
f 153/153/153 154/154/154 145/145/145
f 153/153/153 155/155/155 154/154/154
f 159/159/159 155/155/155 153/153/153
f 159/159/159 160/160/160 155/155/155
f 164/164/164 160/160/160 159/159/159
f 164/164/164 165/165/165 160/160/160
f 169/169/169 165/165/165 164/164/164
f 169/169/169 170/170/170 165/165/165
f 175/175/175 170/170/170 169/169/169
f 175/175/175 176/176/176 170/170/170
f 179/179/179 176/176/176 175/175/175
f 179/179/179 180/180/180 176/176/176
f 181/181/181 180/180/180 179/179/179
f 181/181/181 182/182/182 180/180/180
f 183/183/183 184/184/184 185/185/185
f 183/183/183 186/186/186 184/184/184
f 186/186/186 187/187/187 184/184/184
f 186/186/186 188/188/188 187/187/187
f 189/189/189 186/186/186 183/183/183
f 190/190/190 188/188/188 186/186/186
f 189/189/189 190/190/190 186/186/186
f 191/191/191 189/189/189 183/183/183
f 191/191/191 183/183/183 192/192/192
f 193/193/193 189/189/189 191/191/191
f 193/193/193 194/194/194 189/189/189
f 194/194/194 190/190/190 189/189/189
f 195/195/195 194/194/194 193/193/193
f 190/190/190 196/196/196 188/188/188
f 196/196/196 197/197/197 188/188/188
f 196/196/196 198/198/198 197/197/197
f 195/195/195 199/199/199 194/194/194
f 200/200/200 199/199/199 195/195/195
f 194/194/194 201/201/201 190/190/190
f 201/201/201 196/196/196 190/190/190
f 199/199/199 201/201/201 194/194/194
f 202/202/202 198/198/198 196/196/196
f 201/201/201 202/202/202 196/196/196
f 202/202/202 203/203/203 198/198/198
f 200/200/200 204/204/204 199/199/199
f 205/205/205 204/204/204 200/200/200
f 199/199/199 206/206/206 201/201/201
f 206/206/206 202/202/202 201/201/201
f 204/204/204 206/206/206 199/199/199
f 207/207/207 203/203/203 202/202/202
f 206/206/206 207/207/207 202/202/202
f 207/207/207 208/208/208 203/203/203
f 205/205/205 209/209/209 204/204/204
f 210/210/210 209/209/209 205/205/205
f 204/204/204 211/211/211 206/206/206
f 211/211/211 207/207/207 206/206/206
f 209/209/209 211/211/211 204/204/204
f 212/212/212 208/208/208 207/207/207
f 211/211/211 212/212/212 207/207/207
f 212/212/212 213/213/213 208/208/208
f 210/210/210 214/214/214 209/209/209
f 215/215/215 214/214/214 210/210/210
f 215/215/215 216/216/216 214/214/214
f 209/209/209 217/217/217 211/211/211
f 217/217/217 212/212/212 211/211/211
f 214/214/214 217/217/217 209/209/209
f 218/218/218 213/213/213 212/212/212
f 217/217/217 218/218/218 212/212/212
f 218/218/218 219/219/219 213/213/213
f 216/216/216 220/220/220 214/214/214
f 214/214/214 220/220/220 217/217/217
f 220/220/220 218/218/218 217/217/217
f 216/216/216 221/221/221 220/220/220
f 222/222/222 219/219/219 218/218/218
f 220/220/220 222/222/222 218/218/218
f 221/221/221 222/222/222 220/220/220
f 222/222/222 223/223/223 219/219/219
f 221/221/221 224/224/224 222/222/222
f 224/224/224 223/223/223 222/222/222
f 224/224/224 225/225/225 223/223/223
f 242/242/242 243/243/243 244/244/244
f 242/242/242 245/245/245 243/243/243
f 246/246/246 245/245/245 242/242/242
f 245/245/245 247/247/247 243/243/243
f 246/246/246 248/248/248 245/245/245
f 249/249/249 248/248/248 246/246/246
f 245/245/245 250/250/250 247/247/247
f 248/248/248 250/250/250 245/245/245
f 250/250/250 251/251/251 247/247/247
f 249/249/249 252/252/252 248/248/248
f 253/253/253 252/252/252 249/249/249
f 248/248/248 254/254/254 250/250/250
f 252/252/252 254/254/254 248/248/248
f 250/250/250 255/255/255 251/251/251
f 254/254/254 255/255/255 250/250/250
f 255/255/255 256/256/256 251/251/251
f 255/255/255 257/257/257 256/256/256
f 258/258/258 257/257/257 255/255/255
f 254/254/254 258/258/258 255/255/255
f 258/258/258 259/259/259 257/257/257
f 253/253/253 260/260/260 252/252/252
f 261/261/261 260/260/260 253/253/253
f 261/261/261 262/262/262 260/260/260
f 252/252/252 263/263/263 254/254/254
f 263/263/263 258/258/258 254/254/254
f 260/260/260 263/263/263 252/252/252
f 264/264/264 259/259/259 258/258/258
f 263/263/263 264/264/264 258/258/258
f 264/264/264 265/265/265 259/259/259
f 260/260/260 266/266/266 263/263/263
f 262/262/262 266/266/266 260/260/260
f 266/266/266 264/264/264 263/263/263
f 267/267/267 265/265/265 264/264/264
f 266/266/266 267/267/267 264/264/264
f 267/267/267 268/268/268 265/265/265
f 262/262/262 269/269/269 266/266/266
f 269/269/269 267/267/267 266/266/266
f 270/270/270 269/269/269 262/262/262
f 270/270/270 271/271/271 269/269/269
f 272/272/272 268/268/268 267/267/267
f 269/269/269 272/272/272 267/267/267
f 271/271/271 272/272/272 269/269/269
f 272/272/272 273/273/273 268/268/268
f 271/271/271 274/274/274 272/272/272
f 288/288/288 289/289/289 284/284/284
f 288/288/288 290/290/290 289/289/289
f 291/291/291 290/290/290 288/288/288
f 291/291/291 292/292/292 290/290/290
f 297/297/297 292/292/292 291/291/291
f 297/297/297 298/298/298 292/292/292
f 300/300/300 298/298/298 297/297/297
f 300/300/300 301/301/301 298/298/298
f 305/305/305 301/301/301 300/300/300
f 305/305/305 306/306/306 301/301/301
f 341/341/341 342/342/342 343/343/343
f 341/341/341 344/344/344 342/342/342
f 345/345/345 344/344/344 341/341/341
f 345/345/345 347/347/347 344/344/344
f 348/348/348 347/347/347 345/345/345
f 348/348/348 351/351/351 347/347/347
f 352/352/352 351/351/351 348/348/348
f 352/352/352 359/359/359 351/351/351
f 360/360/360 359/359/359 352/352/352
f 360/360/360 361/361/361 359/359/359
f 396/396/396 390/390/390 391/391/391
f 390/390/390 397/397/397 394/394/394
f 390/390/390 396/396/396 397/397/397
f 396/396/396 391/391/391 398/398/398
f 397/397/397 396/396/396 398/398/398
f 398/398/398 391/391/391 399/399/399
f 398/398/398 399/399/399 400/400/400
f 401/401/401 398/398/398 400/400/400
f 397/397/397 398/398/398 401/401/401
f 401/401/401 400/400/400 402/402/402
f 394/394/394 397/397/397 403/403/403
f 403/403/403 397/397/397 401/401/401
f 394/394/394 403/403/403 395/395/395
f 403/403/403 401/401/401 404/404/404
f 405/405/405 403/403/403 404/404/404
f 395/395/395 403/403/403 405/405/405
f 405/405/405 404/404/404 406/406/406
f 395/395/395 405/405/405 407/407/407
f 408/408/408 405/405/405 406/406/406
f 407/407/407 405/405/405 408/408/408
f 408/408/408 406/406/406 410/410/410
f 410/410/410 406/406/406 411/411/411
f 410/410/410 411/411/411 412/412/412
f 407/407/407 408/408/408 413/413/413
f 413/413/413 408/408/408 410/410/410
f 414/414/414 410/410/410 412/412/412
f 413/413/413 410/410/410 414/414/414
f 414/414/414 412/412/412 415/415/415
