# Exported from the Unity project (studs, +Y up, character faces +Z). y[0.92,2.18]
v 0.4908 2.04102 0.20932
v 0.47199 2.09863 0
v 0.44011 2.0957 0.19087
v 0.52685 2.04199 0
v 0.44011 2.0957 -0.19087
v 0.4908 2.04102 -0.20932
v 0.50979 1.97363 0.21757
v 0.54711 1.97363 0
v 0.39786 1.97363 0.39786
v 0.38287 2.04004 0.38287
v 0.4 1.89941 0.4
v 0.5125 1.89941 0.21875
v 0.4 1.8252 0.4
v 0.50979 1.97363 -0.21757
v 0.38287 2.04004 -0.38287
v 0.39786 1.97363 -0.39786
v 0.5125 1.8252 0.21875
v 0.4 1.75 0.4
v 0.55 1.89941 0
v 0.5125 1.89941 -0.21875
v 0.4 1.89941 -0.4
v 0.5125 1.75 0.21875
v 0.4 1.67481 0.4
v 0.55 1.8252 0
v 0.5125 1.8252 -0.21875
v 0.4 1.8252 -0.4
v 0.5125 1.67481 0.21875
v 0.4 1.59961 0.4
v 0.55 1.75 0
v 0.5125 1.75 -0.21875
v 0.4 1.75 -0.4
v 0.5125 1.59961 0.21875
v 0.4 1.52441 0.4
v 0.5125 1.52441 0.21875
v 0.55 1.67481 0
v 0.5125 1.67481 -0.21875
v 0.4 1.67481 -0.4
v 0.55 1.59961 0
v 0.55 1.52441 0
v 0.5125 1.59961 -0.21875
v 0.4 1.59961 -0.4
v 0.5125 1.52441 -0.21875
v 0.4 1.52441 -0.4
v 0.38287 2.04004 0.38287
v 0.4908 2.04102 0.20932
v 0.44011 2.0957 0.19087
v 0.3459 2.09277 0.3459
v 0.20932 2.04102 0.4908
v 0.19087 2.0957 0.44011
v 0.34376 2.13574 0.17799
v 0.3 2.125 0.3
v 0.17799 2.13574 0.34376
v 0 2.09863 0.47199
v 0.36574 2.1416 0
v 0.47199 2.09863 0
v 0.18969 2.15918 0.18969
v 0 2.1416 0.36574
v -0.19087 2.0957 0.44011
v 0.34376 2.13574 -0.17799
v 0.44011 2.0957 -0.19087
v 0.19988 2.16699 0
v 0 2.16699 0.19988
v 0.18969 2.15918 -0.18969
v 0 2.17578 0
v 0 2.16699 -0.19988
v 0.3 2.125 -0.3
v 0.17799 2.13574 -0.34376
v 0.3459 2.09277 -0.3459
v 0.4908 2.04102 -0.20932
v 0.38287 2.04004 -0.38287
v 0.19087 2.0957 -0.44011
v 0.20932 2.04102 -0.4908
v 0 2.1416 -0.36574
v 0 2.09863 -0.47199
v -0.17799 2.13574 -0.34376
v -0.19087 2.0957 -0.44011
v -0.18969 2.15918 -0.18969
v -0.3 2.125 -0.3
v -0.19988 2.16699 0
v -0.3459 2.09277 -0.3459
v -0.20932 2.04102 -0.4908
v -0.38287 2.04004 -0.38287
v -0.34376 2.13574 -0.17799
v -0.44011 2.0957 -0.19087
v -0.4908 2.04102 -0.20932
v -0.36574 2.1416 0
v -0.47199 2.09863 0
v -0.18969 2.15918 0.18969
v -0.34376 2.13574 0.17799
v -0.44011 2.0957 0.19087
v -0.17799 2.13574 0.34376
v -0.3 2.125 0.3
v -0.3459 2.09277 0.3459
v -0.4908 2.04102 0.20932
v -0.38287 2.04004 0.38287
v -0.20932 2.04102 0.4908
v 0.20932 2.04102 -0.4908
v 0 2.09863 -0.47199
v 0.19087 2.0957 -0.44011
v 0 2.04199 -0.52685
v -0.19087 2.0957 -0.44011
v -0.20932 2.04102 -0.4908
v 0.21757 1.97363 -0.50979
v 0 1.97363 -0.54711
v 0.39786 1.97363 -0.39786
v 0.38287 2.04004 -0.38287
v 0.4 1.89941 -0.4
v 0.21875 1.89941 -0.5125
v 0.4 1.8252 -0.4
v -0.21757 1.97363 -0.50979
v -0.38287 2.04004 -0.38287
v -0.39786 1.97363 -0.39786
v 0.21875 1.8252 -0.5125
v 0.4 1.75 -0.4
v 0 1.89941 -0.55
v -0.21875 1.89941 -0.5125
v -0.4 1.89941 -0.4
v 0.21875 1.75 -0.5125
v 0.4 1.67481 -0.4
v 0 1.8252 -0.55
v -0.21875 1.8252 -0.5125
v -0.4 1.8252 -0.4
v 0.21875 1.67481 -0.5125
v 0.4 1.59961 -0.4
v 0 1.75 -0.55
v -0.21875 1.75 -0.5125
v -0.4 1.75 -0.4
v 0.21875 1.59961 -0.5125
v 0.4 1.52441 -0.4
v 0.21875 1.52441 -0.5125
v 0 1.67481 -0.55
v -0.21875 1.67481 -0.5125
v -0.4 1.67481 -0.4
v 0 1.59961 -0.55
v 0 1.52441 -0.55
v -0.21875 1.59961 -0.5125
v -0.4 1.59961 -0.4
v -0.21875 1.52441 -0.5125
v -0.4 1.52441 -0.4
v -0.4908 2.04102 -0.20932
v -0.47199 2.09863 0
v -0.44011 2.0957 -0.19087
v -0.52685 2.04199 0
v -0.44011 2.0957 0.19087
v -0.4908 2.04102 0.20932
v -0.50979 1.97363 -0.21757
v -0.54711 1.97363 0
v -0.39786 1.97363 -0.39786
v -0.38287 2.04004 -0.38287
v -0.4 1.89941 -0.4
v -0.5125 1.89941 -0.21875
v -0.4 1.8252 -0.4
v -0.50979 1.97363 0.21757
v -0.38287 2.04004 0.38287
v -0.39786 1.97363 0.39786
v -0.5125 1.8252 -0.21875
v -0.4 1.75 -0.4
v -0.55 1.89941 0
v -0.5125 1.89941 0.21875
v -0.4 1.89941 0.4
v -0.5125 1.75 -0.21875
v -0.4 1.67481 -0.4
v -0.55 1.8252 0
v -0.5125 1.8252 0.21875
v -0.4 1.8252 0.4
v -0.5125 1.67481 -0.21875
v -0.4 1.59961 -0.4
v -0.55 1.75 0
v -0.5125 1.75 0.21875
v -0.4 1.75 0.4
v -0.5125 1.59961 -0.21875
v -0.4 1.52441 -0.4
v -0.5125 1.52441 -0.21875
v -0.55 1.67481 0
v -0.5125 1.67481 0.21875
v -0.4 1.67481 0.4
v -0.55 1.59961 0
v -0.55 1.52441 0
v -0.5125 1.59961 0.21875
v -0.4 1.59961 0.4
v -0.5125 1.52441 0.21875
v -0.4 1.52441 0.4
v -0.20932 2.04102 0.4908
v 0 2.09863 0.47199
v -0.19087 2.0957 0.44011
v 0 2.04199 0.52685
v 0.19087 2.0957 0.44011
v 0.20932 2.04102 0.4908
v -0.21757 1.97363 0.50979
v 0 1.97363 0.54711
v -0.39786 1.97363 0.39786
v -0.38287 2.04004 0.38287
v -0.4 1.89941 0.4
v -0.21875 1.89941 0.5125
v -0.4 1.8252 0.4
v 0.21757 1.97363 0.50979
v 0.38287 2.04004 0.38287
v 0.39786 1.97363 0.39786
v -0.21875 1.8252 0.5125
v -0.4 1.75 0.4
v 0 1.89941 0.55
v 0.21875 1.89941 0.5125
v 0.4 1.89941 0.4
v -0.21875 1.75 0.5125
v -0.4 1.67481 0.4
v 0 1.8252 0.55
v 0.21875 1.8252 0.5125
v 0.4 1.8252 0.4
v -0.21875 1.67481 0.5125
v -0.4 1.59961 0.4
v 0 1.75 0.55
v 0.21875 1.75 0.5125
v 0.4 1.75 0.4
v -0.21875 1.59961 0.5125
v -0.4 1.52441 0.4
v -0.21875 1.52441 0.5125
v 0 1.67481 0.55
v 0.21875 1.67481 0.5125
v 0.4 1.67481 0.4
v 0 1.59961 0.55
v 0 1.52441 0.55
v 0.21875 1.59961 0.5125
v 0.4 1.59961 0.4
v 0.21875 1.52441 0.5125
v 0.4 1.52441 0.4
v -0.5125 1.52441 0.21875
v -0.55 1.52441 0
v -0.5125 1.52441 -0.21875
v -0.4 1.52441 0.4
v -0.4 1.52441 -0.4
v -0.21875 1.52441 0.5125
v -0.21875 1.52441 -0.5125
v 0 1.52441 0.55
v 0 1.52441 -0.55
v 0.21875 1.52441 0.5125
v 0.21875 1.52441 -0.5125
v 0.4 1.52441 -0.4
v 0.4 1.52441 0.4
v 0.5125 1.52441 -0.21875
v 0.5125 1.52441 0.21875
v 0.55 1.52441 0
v -0.4 1.34961 0.4
v -0.21875 1.42481 0.5125
v -0.4 1.42481 0.4
v -0.21875 1.34961 0.5125
v -0.4 1.27441 0.4
v 0 1.42481 0.55
v -0.21875 1.27441 0.5125
v -0.4 1.2002 0.4
v 0 1.34961 0.55
v 0.21875 1.42481 0.5125
v -0.21875 1.2002 0.5125
v -0.39786 1.12598 0.39786
v 0 1.27441 0.55
v 0.21875 1.34961 0.5125
v 0.4 1.42481 0.4
v 0.4 1.34961 0.4
v 0.21875 1.27441 0.5125
v 0.4 1.27441 0.4
v -0.21757 1.12598 0.50979
v -0.38287 1.05957 0.38287
v -0.20932 1.05859 0.4908
v 0 1.2002 0.55
v 0.21875 1.2002 0.5125
v 0.4 1.2002 0.4
v 0 1.12598 0.54711
v 0.21757 1.12598 0.50979
v 0.39786 1.12598 0.39786
v 0 1.05762 0.52685
v -0.19087 1.00391 0.44011
v 0 1.00098 0.47199
v 0.20932 1.05859 0.4908
v 0.38287 1.05957 0.38287
v 0.19087 1.00391 0.44011
v -0.4 1.34961 -0.4
v -0.5125 1.42481 -0.21875
v -0.4 1.42481 -0.4
v -0.5125 1.34961 -0.21875
v -0.4 1.27441 -0.4
v -0.55 1.42481 0
v -0.5125 1.27441 -0.21875
v -0.4 1.2002 -0.4
v -0.55 1.34961 0
v -0.5125 1.42481 0.21875
v -0.5125 1.2002 -0.21875
v -0.39786 1.12598 -0.39786
v -0.55 1.27441 0
v -0.5125 1.34961 0.21875
v -0.4 1.42481 0.4
v -0.4 1.34961 0.4
v -0.5125 1.27441 0.21875
v -0.4 1.27441 0.4
v -0.50979 1.12598 -0.21757
v -0.38287 1.05957 -0.38287
v -0.4908 1.05859 -0.20932
v -0.55 1.2002 0
v -0.5125 1.2002 0.21875
v -0.4 1.2002 0.4
v -0.54711 1.12598 0
v -0.50979 1.12598 0.21757
v -0.39786 1.12598 0.39786
v -0.52685 1.05762 0
v -0.44011 1.00391 -0.19087
v -0.47199 1.00098 0
v -0.4908 1.05859 0.20932
v -0.38287 1.05957 0.38287
v -0.44011 1.00391 0.19087
v 0.4 1.34961 -0.4
v 0.21875 1.42481 -0.5125
v 0.4 1.42481 -0.4
v 0.21875 1.34961 -0.5125
v 0.4 1.27441 -0.4
v 0 1.42481 -0.55
v 0.21875 1.27441 -0.5125
v 0.4 1.2002 -0.4
v 0 1.34961 -0.55
v -0.21875 1.42481 -0.5125
v 0.21875 1.2002 -0.5125
v 0.39786 1.12598 -0.39786
v 0 1.27441 -0.55
v -0.21875 1.34961 -0.5125
v -0.4 1.42481 -0.4
v -0.4 1.34961 -0.4
v -0.21875 1.27441 -0.5125
v -0.4 1.27441 -0.4
v 0.21757 1.12598 -0.50979
v 0.38287 1.05957 -0.38287
v 0.20932 1.05859 -0.4908
v 0 1.2002 -0.55
v -0.21875 1.2002 -0.5125
v -0.4 1.2002 -0.4
v 0 1.12598 -0.54711
v -0.21757 1.12598 -0.50979
v -0.39786 1.12598 -0.39786
v 0 1.05762 -0.52685
v 0.19087 1.00391 -0.44011
v 0 1.00098 -0.47199
v -0.20932 1.05859 -0.4908
v -0.38287 1.05957 -0.38287
v -0.19087 1.00391 -0.44011
v 0.4 1.34961 0.4
v 0.5125 1.42481 0.21875
v 0.4 1.42481 0.4
v 0.5125 1.34961 0.21875
v 0.4 1.27441 0.4
v 0.55 1.42481 0
v 0.5125 1.27441 0.21875
v 0.4 1.2002 0.4
v 0.55 1.34961 0
v 0.5125 1.42481 -0.21875
v 0.5125 1.2002 0.21875
v 0.39786 1.12598 0.39786
v 0.55 1.27441 0
v 0.5125 1.34961 -0.21875
v 0.4 1.42481 -0.4
v 0.4 1.34961 -0.4
v 0.5125 1.27441 -0.21875
v 0.4 1.27441 -0.4
v 0.50979 1.12598 0.21757
v 0.38287 1.05957 0.38287
v 0.4908 1.05859 0.20932
v 0.55 1.2002 0
v 0.5125 1.2002 -0.21875
v 0.4 1.2002 -0.4
v 0.54711 1.12598 0
v 0.50979 1.12598 -0.21757
v 0.39786 1.12598 -0.39786
v 0.52685 1.05762 0
v 0.44011 1.00391 0.19087
v 0.47199 1.00098 0
v 0.4908 1.05859 -0.20932
v 0.38287 1.05957 -0.38287
v 0.44011 1.00391 -0.19087
v 0.44011 1.00391 -0.19087
v 0.38287 1.05957 -0.38287
v 0.4908 1.05859 -0.20932
v 0.3459 1.00684 -0.3459
v 0.20932 1.05859 -0.4908
v 0.19087 1.00391 -0.44011
v 0.34376 0.96387 -0.17799
v 0.3 0.97461 -0.3
v 0.17799 0.96387 -0.34376
v 0 1.00098 -0.47199
v 0.36574 0.95801 0
v 0.47199 1.00098 0
v 0.18969 0.94043 -0.18969
v 0 0.95801 -0.36574
v -0.19087 1.00391 -0.44011
v 0.19988 0.93262 0
v 0.34376 0.96387 0.17799
v 0.44011 1.00391 0.19087
v 0 0.93262 -0.19988
v 0 0.92383 0
v 0.18969 0.94043 0.18969
v 0 0.93262 0.19988
v 0.3 0.97461 0.3
v 0.17799 0.96387 0.34376
v 0.3459 1.00684 0.3459
v 0.4908 1.05859 0.20932
v 0.38287 1.05957 0.38287
v 0.19087 1.00391 0.44011
v 0.20932 1.05859 0.4908
v 0 0.95801 0.36574
v 0 1.00098 0.47199
v -0.17799 0.96387 0.34376
v -0.19087 1.00391 0.44011
v -0.18969 0.94043 0.18969
v -0.3 0.97461 0.3
v -0.19988 0.93262 0
v -0.3459 1.00684 0.3459
v -0.20932 1.05859 0.4908
v -0.38287 1.05957 0.38287
v -0.34376 0.96387 0.17799
v -0.44011 1.00391 0.19087
v -0.4908 1.05859 0.20932
v -0.36574 0.95801 0
v -0.47199 1.00098 0
v -0.18969 0.94043 -0.18969
v -0.34376 0.96387 -0.17799
v -0.44011 1.00391 -0.19087
v -0.17799 0.96387 -0.34376
v -0.3 0.97461 -0.3
v -0.3459 1.00684 -0.3459
v -0.4908 1.05859 -0.20932
v -0.38287 1.05957 -0.38287
v -0.20932 1.05859 -0.4908
v -0.5125 1.42481 -0.21875
v -0.55 1.42481 0
v -0.5125 1.42481 0.21875
v -0.4 1.42481 -0.4
v -0.4 1.42481 0.4
v -0.21875 1.42481 0.5125
v -0.21875 1.42481 -0.5125
v 0 1.42481 -0.55
v 0 1.42481 0.55
v 0.21875 1.42481 0.5125
v 0.21875 1.42481 -0.5125
v 0.4 1.42481 -0.4
v 0.4 1.42481 0.4
v 0.5125 1.42481 -0.21875
v 0.5125 1.42481 0.21875
v 0.55 1.42481 0
v 0.5 1.39941 0.08
v 0.5 1.39941 -0.08
v 0.5 1.55957 -0.08
v 0.5 1.55957 0.08
v 0.5 1.39941 -0.08
v 0.34 1.39941 -0.08
v 0.34 1.55957 -0.08
v 0.5 1.55957 -0.08
v 0.34 1.39941 -0.08
v 0.34 1.39941 0.08
v 0.34 1.55957 0.08
v 0.34 1.55957 -0.08
v 0.34 1.39941 0.08
v 0.5 1.39941 0.08
v 0.5 1.55957 0.08
v 0.34 1.55957 0.08
v 0.5 1.39941 -0.08
v 0.5 1.39941 0.08
v 0.34 1.39941 0.08
v 0.34 1.39941 -0.08
v 0.34 1.55957 -0.08
v 0.34 1.55957 0.08
v 0.5 1.55957 0.08
v 0.5 1.55957 -0.08
v -0.34 1.39941 0.08
v -0.34 1.39941 -0.08
v -0.34 1.55957 -0.08
v -0.34 1.55957 0.08
v -0.34 1.39941 -0.08
v -0.5 1.39941 -0.08
v -0.5 1.55957 -0.08
v -0.34 1.55957 -0.08
v -0.5 1.39941 -0.08
v -0.5 1.39941 0.08
v -0.5 1.55957 0.08
v -0.5 1.55957 -0.08
v -0.5 1.39941 0.08
v -0.34 1.39941 0.08
v -0.34 1.55957 0.08
v -0.5 1.55957 0.08
v -0.34 1.39941 -0.08
v -0.34 1.39941 0.08
v -0.5 1.39941 0.08
v -0.5 1.39941 -0.08
v -0.5 1.55957 -0.08
v -0.5 1.55957 0.08
v -0.34 1.55957 0.08
v -0.34 1.55957 -0.08
vt 0.08388 0.23279
vt 0.06786 0.23763
vt 0.08247 0.23741
vt 0.06786 0.23286
vt 0.05326 0.23741
vt 0.05185 0.23279
vt 0.08451 0.22714
vt 0.06786 0.22715
vt 0.09831 0.22713
vt 0.09716 0.23272
vt 0.09847 0.22094
vt 0.0846 0.22094
vt 0.09847 0.21465
vt 0.05122 0.22714
vt 0.03857 0.23272
vt 0.03742 0.22713
vt 0.0846 0.21465
vt 0.09847 0.20836
vt 0.06786 0.22094
vt 0.05113 0.22094
vt 0.03726 0.22094
vt 0.0846 0.20836
vt 0.09847 0.20207
vt 0.06786 0.21465
vt 0.05113 0.21465
vt 0.03726 0.21465
vt 0.0846 0.20207
vt 0.09847 0.19578
vt 0.06786 0.20836
vt 0.05113 0.20836
vt 0.03726 0.20836
vt 0.0846 0.19578
vt 0.09847 0.18949
vt 0.0846 0.18949
vt 0.06786 0.20207
vt 0.05113 0.20207
vt 0.03726 0.20207
vt 0.06786 0.19578
vt 0.06786 0.18949
vt 0.05113 0.19578
vt 0.03726 0.19578
vt 0.05113 0.18949
vt 0.03726 0.18949
vt 0.15291 0.27935
vt 0.14278 0.29565
vt 0.14754 0.29738
vt 0.15638 0.28282
vt 0.1692 0.26922
vt 0.17094 0.27398
vt 0.15658 0.29859
vt 0.16069 0.28713
vt 0.17215 0.28302
vt 0.18886 0.27098
vt 0.15452 0.3153
vt 0.14454 0.3153
vt 0.17105 0.29749
vt 0.18886 0.28096
vt 0.20677 0.27398
vt 0.15658 0.33201
vt 0.14754 0.33322
vt 0.17009 0.3153
vt 0.18886 0.29653
vt 0.17105 0.33311
vt 0.18886 0.3153
vt 0.18886 0.33407
vt 0.16069 0.34347
vt 0.17215 0.34758
vt 0.15638 0.34778
vt 0.14278 0.33495
vt 0.15291 0.35125
vt 0.17094 0.35662
vt 0.1692 0.36138
vt 0.18886 0.34964
vt 0.18886 0.35962
vt 0.20557 0.34758
vt 0.20677 0.35662
vt 0.20666 0.33311
vt 0.21702 0.34347
vt 0.20762 0.3153
vt 0.22133 0.34778
vt 0.20851 0.36138
vt 0.2248 0.35125
vt 0.22113 0.33201
vt 0.23017 0.33322
vt 0.23493 0.33495
vt 0.22319 0.3153
vt 0.23317 0.3153
vt 0.20666 0.29749
vt 0.22113 0.29859
vt 0.23017 0.29738
vt 0.20557 0.28302
vt 0.21702 0.28713
vt 0.22133 0.28282
vt 0.23493 0.29565
vt 0.2248 0.27935
vt 0.20851 0.26922
vt 0.44685 0.23279
vt 0.43084 0.23763
vt 0.44544 0.23741
vt 0.43084 0.23286
vt 0.41623 0.23741
vt 0.41482 0.23279
vt 0.44748 0.22714
vt 0.43084 0.22715
vt 0.46128 0.22713
vt 0.46013 0.23272
vt 0.46144 0.22094
vt 0.44757 0.22094
vt 0.46144 0.21465
vt 0.41419 0.22714
vt 0.40154 0.23272
vt 0.40039 0.22713
vt 0.44757 0.21465
vt 0.46144 0.20836
vt 0.43084 0.22094
vt 0.4141 0.22094
vt 0.40023 0.22094
vt 0.44757 0.20836
vt 0.46144 0.20207
vt 0.43084 0.21465
vt 0.4141 0.21465
vt 0.40023 0.21465
vt 0.44757 0.20207
vt 0.46144 0.19578
vt 0.43084 0.20836
vt 0.4141 0.20836
vt 0.40023 0.20836
vt 0.44757 0.19578
vt 0.46144 0.18949
vt 0.44757 0.18949
vt 0.43084 0.20207
vt 0.4141 0.20207
vt 0.40023 0.20207
vt 0.43084 0.19578
vt 0.43084 0.18949
vt 0.4141 0.19578
vt 0.40023 0.19578
vt 0.4141 0.18949
vt 0.40023 0.18949
vt 0.32586 0.23279
vt 0.30985 0.23763
vt 0.32445 0.23741
vt 0.30985 0.23286
vt 0.29524 0.23741
vt 0.29383 0.23279
vt 0.32649 0.22714
vt 0.30985 0.22715
vt 0.34029 0.22713
vt 0.33914 0.23272
vt 0.34045 0.22094
vt 0.32658 0.22094
vt 0.34045 0.21465
vt 0.2932 0.22714
vt 0.28055 0.23272
vt 0.2794 0.22713
vt 0.32658 0.21465
vt 0.34045 0.20836
vt 0.30985 0.22094
vt 0.29311 0.22094
vt 0.27924 0.22094
vt 0.32658 0.20836
vt 0.34045 0.20207
vt 0.30985 0.21465
vt 0.29311 0.21465
vt 0.27924 0.21465
vt 0.32658 0.20207
vt 0.34045 0.19578
vt 0.30985 0.20836
vt 0.29311 0.20836
vt 0.27924 0.20836
vt 0.32658 0.19578
vt 0.34045 0.18949
vt 0.32658 0.18949
vt 0.30985 0.20207
vt 0.29311 0.20207
vt 0.27924 0.20207
vt 0.30985 0.19578
vt 0.30985 0.18949
vt 0.29311 0.19578
vt 0.27924 0.19578
vt 0.29311 0.18949
vt 0.27924 0.18949
vt 0.20967 0.24515
vt 0.18886 0.25144
vt 0.20784 0.25115
vt 0.18886 0.24524
vt 0.16987 0.25115
vt 0.16804 0.24515
vt 0.2105 0.2378
vt 0.18886 0.23782
vt 0.22843 0.23779
vt 0.22694 0.24507
vt 0.22864 0.22975
vt 0.21061 0.22975
vt 0.22864 0.22157
vt 0.16721 0.2378
vt 0.15077 0.24507
vt 0.14928 0.23779
vt 0.21061 0.22157
vt 0.22864 0.21339
vt 0.18886 0.22975
vt 0.1671 0.22975
vt 0.14907 0.22975
vt 0.21061 0.21339
vt 0.22864 0.20521
vt 0.18886 0.22157
vt 0.1671 0.22157
vt 0.14907 0.22157
vt 0.21061 0.20521
vt 0.22864 0.19704
vt 0.18886 0.21339
vt 0.1671 0.21339
vt 0.14907 0.21339
vt 0.21061 0.19704
vt 0.22864 0.18886
vt 0.21061 0.18886
vt 0.18886 0.20521
vt 0.1671 0.20521
vt 0.14907 0.20521
vt 0.18886 0.19704
vt 0.18886 0.18886
vt 0.1671 0.19704
vt 0.14907 0.19704
vt 0.1671 0.18886
vt 0.14907 0.18886
vt 0.23697 0.0884
vt 0.24049 0.06786
vt 0.23697 0.04733
vt 0.22641 0.10542
vt 0.22641 0.03031
vt 0.20939 0.11598
vt 0.20939 0.01975
vt 0.18886 0.1195
vt 0.18886 0.01623
vt 0.16832 0.11598
vt 0.16832 0.01975
vt 0.1513 0.03031
vt 0.1513 0.10542
vt 0.14074 0.04733
vt 0.14074 0.0884
vt 0.13722 0.06786
vt 0.22864 0.16978
vt 0.21061 0.17796
vt 0.22864 0.17796
vt 0.21061 0.16978
vt 0.22864 0.1616
vt 0.18886 0.17796
vt 0.21061 0.1616
vt 0.22864 0.15342
vt 0.18886 0.16978
vt 0.1671 0.17796
vt 0.21061 0.15342
vt 0.22843 0.14538
vt 0.18886 0.1616
vt 0.1671 0.16978
vt 0.14907 0.17796
vt 0.14907 0.16978
vt 0.1671 0.1616
vt 0.14907 0.1616
vt 0.2105 0.14537
vt 0.22694 0.1381
vt 0.20967 0.13802
vt 0.18886 0.15342
vt 0.1671 0.15342
vt 0.14907 0.15342
vt 0.18886 0.14535
vt 0.16721 0.14537
vt 0.14928 0.14538
vt 0.18886 0.13793
vt 0.20784 0.13202
vt 0.18886 0.13173
vt 0.16804 0.13802
vt 0.15077 0.1381
vt 0.16987 0.13202
vt 0.34045 0.17481
vt 0.32658 0.1811
vt 0.34045 0.1811
vt 0.32658 0.17481
vt 0.34045 0.16852
vt 0.30985 0.1811
vt 0.32658 0.16852
vt 0.34045 0.16223
vt 0.30985 0.17481
vt 0.29311 0.1811
vt 0.32658 0.16223
vt 0.34029 0.15604
vt 0.30985 0.16852
vt 0.29311 0.17481
vt 0.27924 0.1811
vt 0.27924 0.17481
vt 0.29311 0.16852
vt 0.27924 0.16852
vt 0.32649 0.15603
vt 0.33914 0.15045
vt 0.32586 0.15038
vt 0.30985 0.16223
vt 0.29311 0.16223
vt 0.27924 0.16223
vt 0.30985 0.15602
vt 0.2932 0.15603
vt 0.2794 0.15604
vt 0.30985 0.15031
vt 0.32445 0.14576
vt 0.30985 0.14554
vt 0.29383 0.15038
vt 0.28055 0.15045
vt 0.29524 0.14576
vt 0.46144 0.17481
vt 0.44757 0.1811
vt 0.46144 0.1811
vt 0.44757 0.17481
vt 0.46144 0.16852
vt 0.43084 0.1811
vt 0.44757 0.16852
vt 0.46144 0.16223
vt 0.43084 0.17481
vt 0.4141 0.1811
vt 0.44757 0.16223
vt 0.46128 0.15604
vt 0.43084 0.16852
vt 0.4141 0.17481
vt 0.40023 0.1811
vt 0.40023 0.17481
vt 0.4141 0.16852
vt 0.40023 0.16852
vt 0.44748 0.15603
vt 0.46013 0.15045
vt 0.44685 0.15038
vt 0.43084 0.16223
vt 0.4141 0.16223
vt 0.40023 0.16223
vt 0.43084 0.15602
vt 0.41419 0.15603
vt 0.40039 0.15604
vt 0.43084 0.15031
vt 0.44544 0.14576
vt 0.43084 0.14554
vt 0.41482 0.15038
vt 0.40154 0.15045
vt 0.41623 0.14576
vt 0.09847 0.17481
vt 0.0846 0.1811
vt 0.09847 0.1811
vt 0.0846 0.17481
vt 0.09847 0.16852
vt 0.06786 0.1811
vt 0.0846 0.16852
vt 0.09847 0.16223
vt 0.06786 0.17481
vt 0.05113 0.1811
vt 0.0846 0.16223
vt 0.09831 0.15604
vt 0.06786 0.16852
vt 0.05113 0.17481
vt 0.03726 0.1811
vt 0.03726 0.17481
vt 0.05113 0.16852
vt 0.03726 0.16852
vt 0.08451 0.15603
vt 0.09716 0.15045
vt 0.08388 0.15038
vt 0.06786 0.16223
vt 0.05113 0.16223
vt 0.03726 0.16223
vt 0.06786 0.15602
vt 0.05122 0.15603
vt 0.03742 0.15604
vt 0.06786 0.15031
vt 0.08247 0.14576
vt 0.06786 0.14554
vt 0.05185 0.15038
vt 0.03857 0.15045
vt 0.05326 0.14576
vt 0.14754 0.04995
vt 0.15291 0.03192
vt 0.14278 0.04821
vt 0.15638 0.03539
vt 0.1692 0.02179
vt 0.17094 0.02655
vt 0.15658 0.05115
vt 0.16069 0.0397
vt 0.17215 0.03559
vt 0.18886 0.02355
vt 0.15452 0.06786
vt 0.14454 0.06786
vt 0.17105 0.05006
vt 0.18886 0.03353
vt 0.20677 0.02655
vt 0.17009 0.06786
vt 0.15658 0.08458
vt 0.14754 0.08578
vt 0.18886 0.0491
vt 0.18886 0.06786
vt 0.17105 0.08567
vt 0.18886 0.08663
vt 0.16069 0.09603
vt 0.17215 0.10014
vt 0.15638 0.10034
vt 0.14278 0.08752
vt 0.15291 0.10381
vt 0.17094 0.10918
vt 0.1692 0.11394
vt 0.18886 0.1022
vt 0.18886 0.11218
vt 0.20557 0.10014
vt 0.20677 0.10918
vt 0.20666 0.08567
vt 0.21702 0.09603
vt 0.20762 0.06786
vt 0.22133 0.10034
vt 0.20851 0.11394
vt 0.2248 0.10381
vt 0.22113 0.08458
vt 0.23017 0.08578
vt 0.23493 0.08752
vt 0.22319 0.06786
vt 0.23317 0.06786
vt 0.20666 0.05006
vt 0.22113 0.05115
vt 0.23017 0.04995
vt 0.20557 0.03559
vt 0.21702 0.0397
vt 0.22133 0.03539
vt 0.23493 0.04821
vt 0.2248 0.03192
vt 0.20851 0.02179
vt 0.23697 0.33584
vt 0.24049 0.3153
vt 0.23697 0.29476
vt 0.22641 0.35286
vt 0.22641 0.27774
vt 0.20939 0.26718
vt 0.20939 0.36342
vt 0.18886 0.36694
vt 0.18886 0.26366
vt 0.16832 0.26718
vt 0.16832 0.36342
vt 0.1513 0.35286
vt 0.1513 0.27774
vt 0.14074 0.33584
vt 0.14074 0.29476
vt 0.13722 0.3153
vt 0.07294 0.1756
vt 0.05645 0.1756
vt 0.05645 0.1921
vt 0.07294 0.1921
vt 0.47187 0.1756
vt 0.45537 0.1756
vt 0.45537 0.1921
vt 0.47187 0.1921
vt 0.31003 0.1756
vt 0.29354 0.1756
vt 0.29354 0.1921
vt 0.31003 0.1921
vt 0.14819 0.1756
vt 0.1317 0.1756
vt 0.1317 0.1921
vt 0.14819 0.1921
vt 0.1317 0.05645
vt 0.1317 0.07294
vt 0.14819 0.07294
vt 0.14819 0.05645
vt 0.14819 0.32568
vt 0.14819 0.30919
vt 0.1317 0.30919
vt 0.1317 0.32568
vt 0.07294 0.1756
vt 0.05645 0.1756
vt 0.05645 0.1921
vt 0.07294 0.1921
vt 0.38528 0.1756
vt 0.36878 0.1756
vt 0.36878 0.1921
vt 0.38528 0.1921
vt 0.31003 0.1756
vt 0.29354 0.1756
vt 0.29354 0.1921
vt 0.31003 0.1921
vt 0.23478 0.1756
vt 0.21829 0.1756
vt 0.21829 0.1921
vt 0.23478 0.1921
vt 0.21829 0.05645
vt 0.21829 0.07294
vt 0.23478 0.07294
vt 0.23478 0.05645
vt 0.23478 0.32568
vt 0.23478 0.30919
vt 0.21829 0.30919
vt 0.21829 0.32568
vn 0.8102 0.4984 0.30851
vn 0.57006 0.8216 0
vn 0.54182 0.81439 0.20786
vn 0.86807 0.49644 0
vn 0.54182 0.81439 -0.20786
vn 0.8102 0.4984 -0.30851
vn 0.92167 0.16554 0.35089
vn 0.9867 0.16253 0
vn 0.69695 0.16888 0.69695
vn 0.61205 0.5008 0.61205
vn 0.70696 0.02035 0.70696
vn 0.93473 0.01993 0.3548
vn 0.70711 0 0.70711
vn 0.92167 0.16554 -0.35089
vn 0.61205 0.5008 -0.61205
vn 0.69695 0.16888 -0.69695
vn 0.93497 0 0.35474
vn 0.70711 0 0.70711
vn 0.99981 0.01958 0
vn 0.93473 0.01993 -0.3548
vn 0.70696 0.02035 -0.70696
vn 0.93497 0 0.35474
vn 0.70711 0 0.70711
vn 1 0 0
vn 0.93497 0 -0.35474
vn 0.70711 0 -0.70711
vn 0.93497 0 0.35474
vn 0.70711 0 0.70711
vn 1 0 0
vn 0.93497 0 -0.35474
vn 0.70711 0 -0.70711
vn 0.93497 0 0.35474
vn 0.5317 -0.65923 0.5317
vn 0.6971 -0.66641 0.26449
vn 1 0 0
vn 0.93497 0 -0.35474
vn 0.70711 0 -0.70711
vn 1 0 0
vn 0.74147 -0.67099 0
vn 0.93497 0 -0.35474
vn 0.70711 0 -0.70711
vn 0.6971 -0.66641 -0.26449
vn 0.5317 -0.65923 -0.5317
vn 0.61205 0.5008 0.61205
vn 0.8102 0.4984 0.30851
vn 0.54182 0.81439 0.20786
vn 0.41869 0.80585 0.41869
vn 0.30851 0.4984 0.8102
vn 0.20786 0.81439 0.54182
vn 0.26814 0.95526 0.12481
vn 0.2443 0.93842 0.2443
vn 0.12481 0.95526 0.26814
vn 0 0.8216 0.57006
vn 0.27185 0.96234 0
vn 0.57006 0.8216 0
vn 0.10004 0.98994 0.10004
vn 0 0.96234 0.27185
vn -0.20786 0.81439 0.54182
vn 0.26814 0.95526 -0.12481
vn 0.54182 0.81439 -0.20786
vn 0.10066 0.99492 0
vn 0 0.99492 0.10066
vn 0.10004 0.98994 -0.10004
vn 0 1 0
vn 0 0.99492 -0.10066
vn 0.2443 0.93842 -0.2443
vn 0.12481 0.95526 -0.26814
vn 0.41869 0.80585 -0.41869
vn 0.8102 0.4984 -0.30851
vn 0.61205 0.5008 -0.61205
vn 0.20786 0.81439 -0.54181
vn 0.30851 0.4984 -0.8102
vn 0 0.96234 -0.27185
vn 0 0.8216 -0.57006
vn -0.12481 0.95526 -0.26814
vn -0.20786 0.81439 -0.54181
vn -0.10004 0.98994 -0.10004
vn -0.2443 0.93842 -0.2443
vn -0.10066 0.99492 0
vn -0.41869 0.80585 -0.41869
vn -0.30851 0.4984 -0.8102
vn -0.61205 0.5008 -0.61204
vn -0.26814 0.95526 -0.12481
vn -0.54182 0.81439 -0.20786
vn -0.8102 0.4984 -0.30851
vn -0.27185 0.96234 0
vn -0.57006 0.8216 0
vn -0.10004 0.98994 0.10004
vn -0.26814 0.95526 0.12481
vn -0.54182 0.81439 0.20786
vn -0.12481 0.95526 0.26814
vn -0.2443 0.93842 0.2443
vn -0.41869 0.80585 0.41869
vn -0.8102 0.4984 0.30851
vn -0.61205 0.5008 0.61205
vn -0.30851 0.4984 0.8102
vn 0.30851 0.4984 -0.8102
vn 0 0.8216 -0.57006
vn 0.20786 0.81439 -0.54181
vn 0 0.49644 -0.86807
vn -0.20786 0.81439 -0.54181
vn -0.30851 0.4984 -0.8102
vn 0.35089 0.16554 -0.92167
vn 0 0.16253 -0.9867
vn 0.69695 0.16888 -0.69695
vn 0.61205 0.5008 -0.61205
vn 0.70696 0.02035 -0.70696
vn 0.3548 0.01993 -0.93473
vn 0.70711 0 -0.70711
vn -0.35089 0.16554 -0.92167
vn -0.61205 0.5008 -0.61204
vn -0.69695 0.16888 -0.69695
vn 0.35474 0 -0.93497
vn 0.70711 0 -0.70711
vn 0 0.01958 -0.99981
vn -0.3548 0.01993 -0.93473
vn -0.70696 0.02035 -0.70696
vn 0.35474 0 -0.93497
vn 0.70711 0 -0.70711
vn 0 0 -1
vn -0.35474 0 -0.93497
vn -0.70711 0 -0.70711
vn 0.35474 0 -0.93497
vn 0.70711 0 -0.70711
vn 0 0 -1
vn -0.35474 0 -0.93497
vn -0.70711 0 -0.70711
vn 0.35474 0 -0.93497
vn 0.5317 -0.65923 -0.5317
vn 0.26449 -0.66641 -0.6971
vn 0 0 -1
vn -0.35474 0 -0.93497
vn -0.70711 0 -0.70711
vn 0 0 -1
vn 0 -0.67099 -0.74147
vn -0.35474 0 -0.93497
vn -0.70711 0 -0.70711
vn -0.26449 -0.66641 -0.6971
vn -0.5317 -0.65923 -0.5317
vn -0.8102 0.4984 -0.30851
vn -0.57006 0.8216 0
vn -0.54182 0.81439 -0.20786
vn -0.86807 0.49644 0
vn -0.54182 0.81439 0.20786
vn -0.8102 0.4984 0.30851
vn -0.92167 0.16554 -0.35089
vn -0.9867 0.16253 0
vn -0.69695 0.16888 -0.69695
vn -0.61205 0.5008 -0.61204
vn -0.70696 0.02035 -0.70696
vn -0.93473 0.01993 -0.3548
vn -0.70711 0 -0.70711
vn -0.92167 0.16554 0.35089
vn -0.61205 0.5008 0.61205
vn -0.69695 0.16888 0.69695
vn -0.93497 0 -0.35474
vn -0.70711 0 -0.70711
vn -0.99981 0.01958 0
vn -0.93473 0.01993 0.3548
vn -0.70696 0.02035 0.70696
vn -0.93497 0 -0.35474
vn -0.70711 0 -0.70711
vn -1 0 0
vn -0.93497 0 0.35474
vn -0.70711 0 0.70711
vn -0.93497 0 -0.35474
vn -0.70711 0 -0.70711
vn -1 0 0
vn -0.93497 0 0.35474
vn -0.70711 0 0.70711
vn -0.93497 0 -0.35474
vn -0.5317 -0.65923 -0.5317
vn -0.6971 -0.66641 -0.26449
vn -1 0 0
vn -0.93497 0 0.35474
vn -0.70711 0 0.70711
vn -1 0 0
vn -0.74147 -0.67099 0
vn -0.93497 0 0.35474
vn -0.70711 0 0.70711
vn -0.6971 -0.66641 0.26449
vn -0.5317 -0.65923 0.5317
vn -0.30851 0.4984 0.8102
vn 0 0.8216 0.57006
vn -0.20786 0.81439 0.54182
vn 0 0.49644 0.86807
vn 0.20786 0.81439 0.54182
vn 0.30851 0.4984 0.8102
vn -0.35089 0.16554 0.92167
vn 0 0.16253 0.9867
vn -0.69695 0.16888 0.69695
vn -0.61205 0.5008 0.61205
vn -0.70696 0.02035 0.70696
vn -0.3548 0.01993 0.93473
vn -0.70711 0 0.70711
vn 0.35089 0.16554 0.92167
vn 0.61205 0.5008 0.61205
vn 0.69695 0.16888 0.69695
vn -0.35474 0 0.93497
vn -0.70711 0 0.70711
vn 0 0.01958 0.99981
vn 0.3548 0.01993 0.93473
vn 0.70696 0.02035 0.70696
vn -0.35474 0 0.93497
vn -0.70711 0 0.70711
vn 0 0 1
vn 0.35474 0 0.93497
vn 0.70711 0 0.70711
vn -0.35474 0 0.93497
vn -0.70711 0 0.70711
vn 0 0 1
vn 0.35474 0 0.93497
vn 0.70711 0 0.70711
vn -0.35474 0 0.93497
vn -0.5317 -0.65923 0.5317
vn -0.26449 -0.66641 0.6971
vn 0 0 1
vn 0.35474 0 0.93497
vn 0.70711 0 0.70711
vn 0 0 1
vn 0 -0.67099 0.74147
vn 0.35474 0 0.93497
vn 0.70711 0 0.70711
vn 0.26449 -0.66641 0.6971
vn 0.5317 -0.65923 0.5317
vn -0.6971 -0.66641 0.26449
vn -0.74147 -0.67099 0
vn -0.6971 -0.66641 -0.26449
vn -0.5317 -0.65923 0.5317
vn -0.5317 -0.65923 -0.5317
vn -0.26449 -0.66641 0.6971
vn -0.26449 -0.66641 -0.6971
vn 0 -0.67099 0.74147
vn 0 -0.67099 -0.74147
vn 0.26449 -0.66641 0.6971
vn 0.26449 -0.66641 -0.6971
vn 0.5317 -0.65923 -0.5317
vn 0.5317 -0.65923 0.5317
vn 0.6971 -0.66641 -0.26449
vn 0.6971 -0.66641 0.26449
vn 0.74147 -0.67099 0
vn -0.70711 0 0.70711
vn -0.26449 0.66641 0.6971
vn -0.5317 0.65923 0.5317
vn -0.35474 0 0.93497
vn -0.70711 0 0.70711
vn 0 0.67099 0.74147
vn -0.35474 0 0.93497
vn -0.70696 -0.02035 0.70696
vn 0 0 1
vn 0.26449 0.66641 0.6971
vn -0.3548 -0.01993 0.93473
vn -0.69695 -0.16888 0.69695
vn 0 0 1
vn 0.35474 0 0.93497
vn 0.5317 0.65923 0.5317
vn 0.70711 0 0.70711
vn 0.35474 0 0.93497
vn 0.70711 0 0.70711
vn -0.35089 -0.16554 0.92167
vn -0.61205 -0.5008 0.61204
vn -0.30851 -0.4984 0.8102
vn 0 -0.01958 0.99981
vn 0.3548 -0.01993 0.93473
vn 0.70696 -0.02035 0.70696
vn 0 -0.16253 0.9867
vn 0.35089 -0.16554 0.92167
vn 0.69695 -0.16888 0.69695
vn 0 -0.49644 0.86807
vn -0.20786 -0.81439 0.54181
vn 0 -0.8216 0.57006
vn 0.30851 -0.4984 0.8102
vn 0.61205 -0.5008 0.61205
vn 0.20786 -0.81439 0.54182
vn -0.70711 0 -0.70711
vn -0.6971 0.66641 -0.26449
vn -0.5317 0.65923 -0.5317
vn -0.93497 0 -0.35474
vn -0.70711 0 -0.70711
vn -0.74147 0.67099 0
vn -0.93497 0 -0.35474
vn -0.70696 -0.02035 -0.70696
vn -1 0 0
vn -0.6971 0.66641 0.26449
vn -0.93473 -0.01993 -0.3548
vn -0.69695 -0.16888 -0.69695
vn -1 0 0
vn -0.93497 0 0.35474
vn -0.5317 0.65923 0.5317
vn -0.70711 0 0.70711
vn -0.93497 0 0.35474
vn -0.70711 0 0.70711
vn -0.92167 -0.16554 -0.35089
vn -0.61205 -0.5008 -0.61204
vn -0.8102 -0.4984 -0.30851
vn -0.99981 -0.01958 0
vn -0.93473 -0.01993 0.3548
vn -0.70696 -0.02035 0.70696
vn -0.9867 -0.16253 0
vn -0.92167 -0.16554 0.35089
vn -0.69695 -0.16888 0.69695
vn -0.86807 -0.49644 0
vn -0.54181 -0.81439 -0.20786
vn -0.57006 -0.8216 0
vn -0.8102 -0.4984 0.30851
vn -0.61205 -0.5008 0.61204
vn -0.54182 -0.81439 0.20786
vn 0.70711 0 -0.70711
vn 0.26449 0.66641 -0.6971
vn 0.5317 0.65923 -0.5317
vn 0.35474 0 -0.93497
vn 0.70711 0 -0.70711
vn 0 0.67099 -0.74147
vn 0.35474 0 -0.93497
vn 0.70696 -0.02035 -0.70696
vn 0 0 -1
vn -0.26449 0.66641 -0.6971
vn 0.3548 -0.01993 -0.93473
vn 0.69695 -0.16888 -0.69695
vn 0 0 -1
vn -0.35474 0 -0.93497
vn -0.5317 0.65923 -0.5317
vn -0.70711 0 -0.70711
vn -0.35474 0 -0.93497
vn -0.70711 0 -0.70711
vn 0.35089 -0.16554 -0.92167
vn 0.61205 -0.5008 -0.61205
vn 0.30851 -0.4984 -0.8102
vn 0 -0.01958 -0.99981
vn -0.3548 -0.01993 -0.93473
vn -0.70696 -0.02035 -0.70696
vn 0 -0.16253 -0.9867
vn -0.35089 -0.16554 -0.92167
vn -0.69695 -0.16888 -0.69695
vn 0 -0.49644 -0.86807
vn 0.20786 -0.81439 -0.54181
vn 0 -0.8216 -0.57006
vn -0.30851 -0.4984 -0.8102
vn -0.61205 -0.5008 -0.61204
vn -0.20786 -0.81439 -0.54181
vn 0.70711 0 0.70711
vn 0.6971 0.66641 0.26449
vn 0.5317 0.65923 0.5317
vn 0.93497 0 0.35474
vn 0.70711 0 0.70711
vn 0.74147 0.67099 0
vn 0.93497 0 0.35474
vn 0.70696 -0.02035 0.70696
vn 1 0 0
vn 0.6971 0.66641 -0.26449
vn 0.93473 -0.01993 0.3548
vn 0.69695 -0.16888 0.69695
vn 1 0 0
vn 0.93497 0 -0.35474
vn 0.5317 0.65923 -0.5317
vn 0.70711 0 -0.70711
vn 0.93497 0 -0.35474
vn 0.70711 0 -0.70711
vn 0.92167 -0.16554 0.35089
vn 0.61205 -0.5008 0.61205
vn 0.8102 -0.4984 0.30851
vn 0.99981 -0.01958 0
vn 0.93473 -0.01993 -0.3548
vn 0.70696 -0.02035 -0.70696
vn 0.9867 -0.16253 0
vn 0.92167 -0.16554 -0.35089
vn 0.69695 -0.16888 -0.69695
vn 0.86807 -0.49644 0
vn 0.54182 -0.81439 0.20786
vn 0.57006 -0.8216 0
vn 0.8102 -0.4984 -0.30851
vn 0.61205 -0.5008 -0.61205
vn 0.54181 -0.81439 -0.20786
vn 0.54181 -0.81439 -0.20786
vn 0.61205 -0.5008 -0.61205
vn 0.8102 -0.4984 -0.30851
vn 0.41869 -0.80585 -0.41869
vn 0.30851 -0.4984 -0.8102
vn 0.20786 -0.81439 -0.54181
vn 0.26814 -0.95526 -0.12481
vn 0.2443 -0.93842 -0.2443
vn 0.12481 -0.95526 -0.26814
vn 0 -0.8216 -0.57006
vn 0.27185 -0.96234 0
vn 0.57006 -0.8216 0
vn 0.10004 -0.98994 -0.10004
vn 0 -0.96234 -0.27185
vn -0.20786 -0.81439 -0.54181
vn 0.10066 -0.99492 0
vn 0.26814 -0.95526 0.12481
vn 0.54182 -0.81439 0.20786
vn 0 -0.99492 -0.10066
vn 0 -1 0
vn 0.10004 -0.98994 0.10004
vn 0 -0.99492 0.10066
vn 0.2443 -0.93842 0.2443
vn 0.12481 -0.95526 0.26814
vn 0.41869 -0.80585 0.41869
vn 0.8102 -0.4984 0.30851
vn 0.61205 -0.5008 0.61205
vn 0.20786 -0.81439 0.54182
vn 0.30851 -0.4984 0.8102
vn 0 -0.96234 0.27185
vn 0 -0.8216 0.57006
vn -0.12481 -0.95526 0.26814
vn -0.20786 -0.81439 0.54181
vn -0.10004 -0.98994 0.10004
vn -0.2443 -0.93842 0.2443
vn -0.10066 -0.99492 0
vn -0.41869 -0.80585 0.41869
vn -0.30851 -0.4984 0.8102
vn -0.61205 -0.5008 0.61204
vn -0.26814 -0.95526 0.12481
vn -0.54182 -0.81439 0.20786
vn -0.8102 -0.4984 0.30851
vn -0.27185 -0.96234 0
vn -0.57006 -0.8216 0
vn -0.10004 -0.98994 -0.10004
vn -0.26814 -0.95526 -0.12481
vn -0.54181 -0.81439 -0.20786
vn -0.12481 -0.95526 -0.26814
vn -0.2443 -0.93842 -0.2443
vn -0.41869 -0.80585 -0.41869
vn -0.8102 -0.4984 -0.30851
vn -0.61205 -0.5008 -0.61204
vn -0.30851 -0.4984 -0.8102
vn -0.6971 0.66641 -0.26449
vn -0.74147 0.67099 0
vn -0.6971 0.66641 0.26449
vn -0.5317 0.65923 -0.5317
vn -0.5317 0.65923 0.5317
vn -0.26449 0.66641 0.6971
vn -0.26449 0.66641 -0.6971
vn 0 0.67099 -0.74147
vn 0 0.67099 0.74147
vn 0.26449 0.66641 0.6971
vn 0.26449 0.66641 -0.6971
vn 0.5317 0.65923 -0.5317
vn 0.5317 0.65923 0.5317
vn 0.6971 0.66641 -0.26449
vn 0.6971 0.66641 0.26449
vn 0.74147 0.67099 0
vn 1 0 0
vn 1 0 0
vn 1 0 0
vn 1 0 0
vn 0 0 -1
vn 0 0 -1
vn 0 0 -1
vn 0 0 -1
vn -1 0 0
vn -1 0 0
vn -1 0 0
vn -1 0 0
vn 0 0 1
vn 0 0 1
vn 0 0 1
vn 0 0 1
vn 0 -1 0
vn 0 -1 0
vn 0 -1 0
vn 0 -1 0
vn 0 1 0
vn 0 1 0
vn 0 1 0
vn 0 1 0
vn 1 0 0
vn 1 0 0
vn 1 0 0
vn 1 0 0
vn 0 0 -1
vn 0 0 -1
vn 0 0 -1
vn 0 0 -1
vn -1 0 0
vn -1 0 0
vn -1 0 0
vn -1 0 0
vn 0 0 1
vn 0 0 1
vn 0 0 1
vn 0 0 1
vn 0 -1 0
vn 0 -1 0
vn 0 -1 0
vn 0 -1 0
vn 0 1 0
vn 0 1 0
vn 0 1 0
vn 0 1 0
usemtl skin
f 1/1/1 2/2/2 3/3/3
f 1/1/1 4/4/4 2/2/2
f 4/4/4 5/5/5 2/2/2
f 4/4/4 6/6/6 5/5/5
f 7/7/7 4/4/4 1/1/1
f 8/8/8 6/6/6 4/4/4
f 7/7/7 8/8/8 4/4/4
f 9/9/9 7/7/7 1/1/1
f 9/9/9 1/1/1 10/10/10
f 11/11/11 7/7/7 9/9/9
f 11/11/11 12/12/12 7/7/7
f 12/12/12 8/8/8 7/7/7
f 13/13/13 12/12/12 11/11/11
f 8/8/8 14/14/14 6/6/6
f 14/14/14 15/15/15 6/6/6
f 14/14/14 16/16/16 15/15/15
f 13/13/13 17/17/17 12/12/12
f 18/18/18 17/17/17 13/13/13
f 12/12/12 19/19/19 8/8/8
f 19/19/19 14/14/14 8/8/8
f 17/17/17 19/19/19 12/12/12
f 20/20/20 16/16/16 14/14/14
f 19/19/19 20/20/20 14/14/14
f 20/20/20 21/21/21 16/16/16
f 18/18/18 22/22/22 17/17/17
f 23/23/23 22/22/22 18/18/18
f 17/17/17 24/24/24 19/19/19
f 24/24/24 20/20/20 19/19/19
f 22/22/22 24/24/24 17/17/17
f 25/25/25 21/21/21 20/20/20
f 24/24/24 25/25/25 20/20/20
f 25/25/25 26/26/26 21/21/21
f 23/23/23 27/27/27 22/22/22
f 28/28/28 27/27/27 23/23/23
f 22/22/22 29/29/29 24/24/24
f 29/29/29 25/25/25 24/24/24
f 27/27/27 29/29/29 22/22/22
f 30/30/30 26/26/26 25/25/25
f 29/29/29 30/30/30 25/25/25
f 30/30/30 31/31/31 26/26/26
f 28/28/28 32/32/32 27/27/27
f 33/33/33 32/32/32 28/28/28
f 33/33/33 34/34/34 32/32/32
f 27/27/27 35/35/35 29/29/29
f 35/35/35 30/30/30 29/29/29
f 32/32/32 35/35/35 27/27/27
f 36/36/36 31/31/31 30/30/30
f 35/35/35 36/36/36 30/30/30
f 36/36/36 37/37/37 31/31/31
f 34/34/34 38/38/38 32/32/32
f 32/32/32 38/38/38 35/35/35
f 38/38/38 36/36/36 35/35/35
f 34/34/34 39/39/39 38/38/38
f 40/40/40 37/37/37 36/36/36
f 38/38/38 40/40/40 36/36/36
f 39/39/39 40/40/40 38/38/38
f 40/40/40 41/41/41 37/37/37
f 39/39/39 42/42/42 40/40/40
f 42/42/42 41/41/41 40/40/40
f 42/42/42 43/43/43 41/41/41
f 44/44/44 45/45/45 46/46/46
f 44/44/44 46/46/46 47/47/47
f 48/48/48 44/44/44 47/47/47
f 48/48/48 47/47/47 49/49/49
f 47/47/47 46/46/46 50/50/50
f 49/49/49 47/47/47 51/51/51
f 47/47/47 50/50/50 51/51/51
f 49/49/49 51/51/51 52/52/52
f 53/53/53 49/49/49 52/52/52
f 46/46/46 54/54/54 50/50/50
f 46/46/46 55/55/55 54/54/54
f 56/56/56 51/51/51 50/50/50
f 56/56/56 52/52/52 51/51/51
f 53/53/53 52/52/52 57/57/57
f 58/58/58 53/53/53 57/57/57
f 55/55/55 59/59/59 54/54/54
f 55/55/55 60/60/60 59/59/59
f 61/61/61 50/50/50 54/54/54
f 61/61/61 56/56/56 50/50/50
f 62/62/62 52/52/52 56/56/56
f 62/62/62 57/57/57 52/52/52
f 63/63/63 54/54/54 59/59/59
f 63/63/63 61/61/61 54/54/54
f 64/64/64 56/56/56 61/61/61
f 64/64/64 62/62/62 56/56/56
f 65/65/65 61/61/61 63/63/63
f 65/65/65 64/64/64 61/61/61
f 60/60/60 66/66/66 59/59/59
f 67/67/67 63/63/63 59/59/59
f 67/67/67 59/59/59 66/66/66
f 60/60/60 68/68/68 66/66/66
f 68/68/68 67/67/67 66/66/66
f 69/69/69 68/68/68 60/60/60
f 69/69/69 70/70/70 68/68/68
f 70/70/70 71/71/71 68/68/68
f 68/68/68 71/71/71 67/67/67
f 70/70/70 72/72/72 71/71/71
f 73/73/73 63/63/63 67/67/67
f 71/71/71 73/73/73 67/67/67
f 73/73/73 65/65/65 63/63/63
f 71/71/71 74/74/74 73/73/73
f 74/74/74 75/75/75 73/73/73
f 75/75/75 65/65/65 73/73/73
f 74/74/74 76/76/76 75/75/75
f 75/75/75 77/77/77 65/65/65
f 77/77/77 64/64/64 65/65/65
f 76/76/76 78/78/78 75/75/75
f 78/78/78 77/77/77 75/75/75
f 77/77/77 79/79/79 64/64/64
f 79/79/79 62/62/62 64/64/64
f 76/76/76 80/80/80 78/78/78
f 81/81/81 80/80/80 76/76/76
f 81/81/81 82/82/82 80/80/80
f 78/78/78 83/83/83 77/77/77
f 80/80/80 83/83/83 78/78/78
f 83/83/83 79/79/79 77/77/77
f 82/82/82 84/84/84 80/80/80
f 80/80/80 84/84/84 83/83/83
f 82/82/82 85/85/85 84/84/84
f 84/84/84 86/86/86 83/83/83
f 83/83/83 86/86/86 79/79/79
f 84/84/84 87/87/87 86/86/86
f 79/79/79 88/88/88 62/62/62
f 86/86/86 88/88/88 79/79/79
f 88/88/88 57/57/57 62/62/62
f 87/87/87 89/89/89 86/86/86
f 86/86/86 89/89/89 88/88/88
f 87/87/87 90/90/90 89/89/89
f 88/88/88 91/91/91 57/57/57
f 89/89/89 91/91/91 88/88/88
f 58/58/58 57/57/57 91/91/91
f 90/90/90 92/92/92 89/89/89
f 89/89/89 92/92/92 91/91/91
f 90/90/90 93/93/93 92/92/92
f 93/93/93 91/91/91 92/92/92
f 93/93/93 58/58/58 91/91/91
f 94/94/94 93/93/93 90/90/90
f 94/94/94 95/95/95 93/93/93
f 95/95/95 58/58/58 93/93/93
f 95/95/95 96/96/96 58/58/58
f 97/97/97 98/98/98 99/99/99
f 97/97/97 100/100/100 98/98/98
f 100/100/100 101/101/101 98/98/98
f 100/100/100 102/102/102 101/101/101
f 103/103/103 100/100/100 97/97/97
f 104/104/104 102/102/102 100/100/100
f 103/103/103 104/104/104 100/100/100
f 105/105/105 103/103/103 97/97/97
f 105/105/105 97/97/97 106/106/106
f 107/107/107 103/103/103 105/105/105
f 107/107/107 108/108/108 103/103/103
f 108/108/108 104/104/104 103/103/103
f 109/109/109 108/108/108 107/107/107
f 104/104/104 110/110/110 102/102/102
f 110/110/110 111/111/111 102/102/102
f 110/110/110 112/112/112 111/111/111
f 109/109/109 113/113/113 108/108/108
f 114/114/114 113/113/113 109/109/109
f 108/108/108 115/115/115 104/104/104
f 115/115/115 110/110/110 104/104/104
f 113/113/113 115/115/115 108/108/108
f 116/116/116 112/112/112 110/110/110
f 115/115/115 116/116/116 110/110/110
f 116/116/116 117/117/117 112/112/112
f 114/114/114 118/118/118 113/113/113
f 119/119/119 118/118/118 114/114/114
f 113/113/113 120/120/120 115/115/115
f 120/120/120 116/116/116 115/115/115
f 118/118/118 120/120/120 113/113/113
f 121/121/121 117/117/117 116/116/116
f 120/120/120 121/121/121 116/116/116
f 121/121/121 122/122/122 117/117/117
f 119/119/119 123/123/123 118/118/118
f 124/124/124 123/123/123 119/119/119
f 118/118/118 125/125/125 120/120/120
f 125/125/125 121/121/121 120/120/120
f 123/123/123 125/125/125 118/118/118
f 126/126/126 122/122/122 121/121/121
f 125/125/125 126/126/126 121/121/121
f 126/126/126 127/127/127 122/122/122
f 124/124/124 128/128/128 123/123/123
f 129/129/129 128/128/128 124/124/124
f 129/129/129 130/130/130 128/128/128
f 123/123/123 131/131/131 125/125/125
f 131/131/131 126/126/126 125/125/125
f 128/128/128 131/131/131 123/123/123
f 132/132/132 127/127/127 126/126/126
f 131/131/131 132/132/132 126/126/126
f 132/132/132 133/133/133 127/127/127
f 130/130/130 134/134/134 128/128/128
f 128/128/128 134/134/134 131/131/131
f 134/134/134 132/132/132 131/131/131
f 130/130/130 135/135/135 134/134/134
f 136/136/136 133/133/133 132/132/132
f 134/134/134 136/136/136 132/132/132
f 135/135/135 136/136/136 134/134/134
f 136/136/136 137/137/137 133/133/133
f 135/135/135 138/138/138 136/136/136
f 138/138/138 137/137/137 136/136/136
f 138/138/138 139/139/139 137/137/137
f 140/140/140 141/141/141 142/142/142
f 140/140/140 143/143/143 141/141/141
f 143/143/143 144/144/144 141/141/141
f 143/143/143 145/145/145 144/144/144
f 146/146/146 143/143/143 140/140/140
f 147/147/147 145/145/145 143/143/143
f 146/146/146 147/147/147 143/143/143
f 148/148/148 146/146/146 140/140/140
f 148/148/148 140/140/140 149/149/149
f 150/150/150 146/146/146 148/148/148
f 150/150/150 151/151/151 146/146/146
f 151/151/151 147/147/147 146/146/146
f 152/152/152 151/151/151 150/150/150
f 147/147/147 153/153/153 145/145/145
f 153/153/153 154/154/154 145/145/145
f 153/153/153 155/155/155 154/154/154
f 152/152/152 156/156/156 151/151/151
f 157/157/157 156/156/156 152/152/152
f 151/151/151 158/158/158 147/147/147
f 158/158/158 153/153/153 147/147/147
f 156/156/156 158/158/158 151/151/151
f 159/159/159 155/155/155 153/153/153
f 158/158/158 159/159/159 153/153/153
f 159/159/159 160/160/160 155/155/155
f 157/157/157 161/161/161 156/156/156
f 162/162/162 161/161/161 157/157/157
f 156/156/156 163/163/163 158/158/158
f 163/163/163 159/159/159 158/158/158
f 161/161/161 163/163/163 156/156/156
f 164/164/164 160/160/160 159/159/159
f 163/163/163 164/164/164 159/159/159
f 164/164/164 165/165/165 160/160/160
f 162/162/162 166/166/166 161/161/161
f 167/167/167 166/166/166 162/162/162
f 161/161/161 168/168/168 163/163/163
f 168/168/168 164/164/164 163/163/163
f 166/166/166 168/168/168 161/161/161
f 169/169/169 165/165/165 164/164/164
f 168/168/168 169/169/169 164/164/164
f 169/169/169 170/170/170 165/165/165
f 167/167/167 171/171/171 166/166/166
f 172/172/172 171/171/171 167/167/167
f 172/172/172 173/173/173 171/171/171
f 166/166/166 174/174/174 168/168/168
f 174/174/174 169/169/169 168/168/168
f 171/171/171 174/174/174 166/166/166
f 175/175/175 170/170/170 169/169/169
f 174/174/174 175/175/175 169/169/169
f 175/175/175 176/176/176 170/170/170
f 173/173/173 177/177/177 171/171/171
f 171/171/171 177/177/177 174/174/174
f 177/177/177 175/175/175 174/174/174
f 173/173/173 178/178/178 177/177/177
f 179/179/179 176/176/176 175/175/175
f 177/177/177 179/179/179 175/175/175
f 178/178/178 179/179/179 177/177/177
f 179/179/179 180/180/180 176/176/176
f 178/178/178 181/181/181 179/179/179
f 181/181/181 180/180/180 179/179/179
f 181/181/181 182/182/182 180/180/180
f 183/183/183 184/184/184 185/185/185
f 183/183/183 186/186/186 184/184/184
f 186/186/186 187/187/187 184/184/184
f 186/186/186 188/188/188 187/187/187
f 189/189/189 186/186/186 183/183/183
f 190/190/190 188/188/188 186/186/186
f 189/189/189 190/190/190 186/186/186
f 191/191/191 189/189/189 183/183/183
f 191/191/191 183/183/183 192/192/192
f 193/193/193 189/189/189 191/191/191
f 193/193/193 194/194/194 189/189/189
f 194/194/194 190/190/190 189/189/189
f 195/195/195 194/194/194 193/193/193
f 190/190/190 196/196/196 188/188/188
f 196/196/196 197/197/197 188/188/188
f 196/196/196 198/198/198 197/197/197
f 195/195/195 199/199/199 194/194/194
f 200/200/200 199/199/199 195/195/195
f 194/194/194 201/201/201 190/190/190
f 201/201/201 196/196/196 190/190/190
f 199/199/199 201/201/201 194/194/194
f 202/202/202 198/198/198 196/196/196
f 201/201/201 202/202/202 196/196/196
f 202/202/202 203/203/203 198/198/198
f 200/200/200 204/204/204 199/199/199
f 205/205/205 204/204/204 200/200/200
f 199/199/199 206/206/206 201/201/201
f 206/206/206 202/202/202 201/201/201
f 204/204/204 206/206/206 199/199/199
f 207/207/207 203/203/203 202/202/202
f 206/206/206 207/207/207 202/202/202
f 207/207/207 208/208/208 203/203/203
f 205/205/205 209/209/209 204/204/204
f 210/210/210 209/209/209 205/205/205
f 204/204/204 211/211/211 206/206/206
f 211/211/211 207/207/207 206/206/206
f 209/209/209 211/211/211 204/204/204
f 212/212/212 208/208/208 207/207/207
f 211/211/211 212/212/212 207/207/207
f 212/212/212 213/213/213 208/208/208
f 210/210/210 214/214/214 209/209/209
f 215/215/215 214/214/214 210/210/210
f 215/215/215 216/216/216 214/214/214
f 209/209/209 217/217/217 211/211/211
f 217/217/217 212/212/212 211/211/211
f 214/214/214 217/217/217 209/209/209
f 218/218/218 213/213/213 212/212/212
f 217/217/217 218/218/218 212/212/212
f 218/218/218 219/219/219 213/213/213
f 216/216/216 220/220/220 214/214/214
f 214/214/214 220/220/220 217/217/217
f 220/220/220 218/218/218 217/217/217
f 216/216/216 221/221/221 220/220/220
f 222/222/222 219/219/219 218/218/218
f 220/220/220 222/222/222 218/218/218
f 221/221/221 222/222/222 220/220/220
f 222/222/222 223/223/223 219/219/219
f 221/221/221 224/224/224 222/222/222
f 224/224/224 223/223/223 222/222/222
f 224/224/224 225/225/225 223/223/223
f 226/226/226 227/227/227 228/228/228
f 228/228/228 229/229/229 226/226/226
f 228/228/228 230/230/230 229/229/229
f 230/230/230 231/231/231 229/229/229
f 230/230/230 232/232/232 231/231/231
f 232/232/232 233/233/233 231/231/231
f 232/232/232 234/234/234 233/233/233
f 234/234/234 235/235/235 233/233/233
f 234/234/234 236/236/236 235/235/235
f 236/236/236 237/237/237 235/235/235
f 237/237/237 238/238/238 235/235/235
f 237/237/237 239/239/239 238/238/238
f 239/239/239 240/240/240 238/238/238
f 239/239/239 241/241/241 240/240/240
f 242/242/242 243/243/243 244/244/244
f 242/242/242 245/245/245 243/243/243
f 246/246/246 245/245/245 242/242/242
f 245/245/245 247/247/247 243/243/243
f 246/246/246 248/248/248 245/245/245
f 249/249/249 248/248/248 246/246/246
f 245/245/245 250/250/250 247/247/247
f 248/248/248 250/250/250 245/245/245
f 250/250/250 251/251/251 247/247/247
f 249/249/249 252/252/252 248/248/248
f 253/253/253 252/252/252 249/249/249
f 248/248/248 254/254/254 250/250/250
f 252/252/252 254/254/254 248/248/248
f 250/250/250 255/255/255 251/251/251
f 254/254/254 255/255/255 250/250/250
f 255/255/255 256/256/256 251/251/251
f 255/255/255 257/257/257 256/256/256
f 258/258/258 257/257/257 255/255/255
f 254/254/254 258/258/258 255/255/255
f 258/258/258 259/259/259 257/257/257
f 253/253/253 260/260/260 252/252/252
f 261/261/261 260/260/260 253/253/253
f 261/261/261 262/262/262 260/260/260
f 252/252/252 263/263/263 254/254/254
f 263/263/263 258/258/258 254/254/254
f 260/260/260 263/263/263 252/252/252
f 264/264/264 259/259/259 258/258/258
f 263/263/263 264/264/264 258/258/258
f 264/264/264 265/265/265 259/259/259
f 260/260/260 266/266/266 263/263/263
f 262/262/262 266/266/266 260/260/260
f 266/266/266 264/264/264 263/263/263
f 267/267/267 265/265/265 264/264/264
f 266/266/266 267/267/267 264/264/264
f 267/267/267 268/268/268 265/265/265
f 262/262/262 269/269/269 266/266/266
f 269/269/269 267/267/267 266/266/266
f 270/270/270 269/269/269 262/262/262
f 270/270/270 271/271/271 269/269/269
f 272/272/272 268/268/268 267/267/267
f 269/269/269 272/272/272 267/267/267
f 271/271/271 272/272/272 269/269/269
f 272/272/272 273/273/273 268/268/268
f 271/271/271 274/274/274 272/272/272
f 275/275/275 276/276/276 277/277/277
f 275/275/275 278/278/278 276/276/276
f 279/279/279 278/278/278 275/275/275
f 278/278/278 280/280/280 276/276/276
f 279/279/279 281/281/281 278/278/278
f 282/282/282 281/281/281 279/279/279
f 278/278/278 283/283/283 280/280/280
f 281/281/281 283/283/283 278/278/278
f 283/283/283 284/284/284 280/280/280
f 282/282/282 285/285/285 281/281/281
f 286/286/286 285/285/285 282/282/282
f 281/281/281 287/287/287 283/283/283
f 285/285/285 287/287/287 281/281/281
f 283/283/283 288/288/288 284/284/284
f 287/287/287 288/288/288 283/283/283
f 288/288/288 289/289/289 284/284/284
f 288/288/288 290/290/290 289/289/289
f 291/291/291 290/290/290 288/288/288
f 287/287/287 291/291/291 288/288/288
f 291/291/291 292/292/292 290/290/290
f 286/286/286 293/293/293 285/285/285
f 294/294/294 293/293/293 286/286/286
f 294/294/294 295/295/295 293/293/293
f 285/285/285 296/296/296 287/287/287
f 296/296/296 291/291/291 287/287/287
f 293/293/293 296/296/296 285/285/285
f 297/297/297 292/292/292 291/291/291
f 296/296/296 297/297/297 291/291/291
f 297/297/297 298/298/298 292/292/292
f 293/293/293 299/299/299 296/296/296
f 295/295/295 299/299/299 293/293/293
f 299/299/299 297/297/297 296/296/296
f 300/300/300 298/298/298 297/297/297
f 299/299/299 300/300/300 297/297/297
f 300/300/300 301/301/301 298/298/298
f 295/295/295 302/302/302 299/299/299
f 302/302/302 300/300/300 299/299/299
f 303/303/303 302/302/302 295/295/295
f 303/303/303 304/304/304 302/302/302
f 305/305/305 301/301/301 300/300/300
f 302/302/302 305/305/305 300/300/300
f 304/304/304 305/305/305 302/302/302
f 305/305/305 306/306/306 301/301/301
f 304/304/304 307/307/307 305/305/305
f 308/308/308 309/309/309 310/310/310
f 308/308/308 311/311/311 309/309/309
f 312/312/312 311/311/311 308/308/308
f 311/311/311 313/313/313 309/309/309
f 312/312/312 314/314/314 311/311/311
f 315/315/315 314/314/314 312/312/312
f 311/311/311 316/316/316 313/313/313
f 314/314/314 316/316/316 311/311/311
f 316/316/316 317/317/317 313/313/313
f 315/315/315 318/318/318 314/314/314
f 319/319/319 318/318/318 315/315/315
f 314/314/314 320/320/320 316/316/316
f 318/318/318 320/320/320 314/314/314
f 316/316/316 321/321/321 317/317/317
f 320/320/320 321/321/321 316/316/316
f 321/321/321 322/322/322 317/317/317
f 321/321/321 323/323/323 322/322/322
f 324/324/324 323/323/323 321/321/321
f 320/320/320 324/324/324 321/321/321
f 324/324/324 325/325/325 323/323/323
f 319/319/319 326/326/326 318/318/318
f 327/327/327 326/326/326 319/319/319
f 327/327/327 328/328/328 326/326/326
f 318/318/318 329/329/329 320/320/320
f 329/329/329 324/324/324 320/320/320
f 326/326/326 329/329/329 318/318/318
f 330/330/330 325/325/325 324/324/324
f 329/329/329 330/330/330 324/324/324
f 330/330/330 331/331/331 325/325/325
f 326/326/326 332/332/332 329/329/329
f 328/328/328 332/332/332 326/326/326
f 332/332/332 330/330/330 329/329/329
f 333/333/333 331/331/331 330/330/330
f 332/332/332 333/333/333 330/330/330
f 333/333/333 334/334/334 331/331/331
f 328/328/328 335/335/335 332/332/332
f 335/335/335 333/333/333 332/332/332
f 336/336/336 335/335/335 328/328/328
f 336/336/336 337/337/337 335/335/335
f 338/338/338 334/334/334 333/333/333
f 335/335/335 338/338/338 333/333/333
f 337/337/337 338/338/338 335/335/335
f 338/338/338 339/339/339 334/334/334
f 337/337/337 340/340/340 338/338/338
f 341/341/341 342/342/342 343/343/343
f 341/341/341 344/344/344 342/342/342
f 345/345/345 344/344/344 341/341/341
f 344/344/344 346/346/346 342/342/342
f 345/345/345 347/347/347 344/344/344
f 348/348/348 347/347/347 345/345/345
f 344/344/344 349/349/349 346/346/346
f 347/347/347 349/349/349 344/344/344
f 349/349/349 350/350/350 346/346/346
f 348/348/348 351/351/351 347/347/347
f 352/352/352 351/351/351 348/348/348
f 347/347/347 353/353/353 349/349/349
f 351/351/351 353/353/353 347/347/347
f 349/349/349 354/354/354 350/350/350
f 353/353/353 354/354/354 349/349/349
f 354/354/354 355/355/355 350/350/350
f 354/354/354 356/356/356 355/355/355
f 357/357/357 356/356/356 354/354/354
f 353/353/353 357/357/357 354/354/354
f 357/357/357 358/358/358 356/356/356
f 352/352/352 359/359/359 351/351/351
f 360/360/360 359/359/359 352/352/352
f 360/360/360 361/361/361 359/359/359
f 351/351/351 362/362/362 353/353/353
f 362/362/362 357/357/357 353/353/353
f 359/359/359 362/362/362 351/351/351
f 363/363/363 358/358/358 357/357/357
f 362/362/362 363/363/363 357/357/357
f 363/363/363 364/364/364 358/358/358
f 359/359/359 365/365/365 362/362/362
f 361/361/361 365/365/365 359/359/359
f 365/365/365 363/363/363 362/362/362
f 366/366/366 364/364/364 363/363/363
f 365/365/365 366/366/366 363/363/363
f 366/366/366 367/367/367 364/364/364
f 361/361/361 368/368/368 365/365/365
f 368/368/368 366/366/366 365/365/365
f 369/369/369 368/368/368 361/361/361
f 369/369/369 370/370/370 368/368/368
f 371/371/371 367/367/367 366/366/366
f 368/368/368 371/371/371 366/366/366
f 370/370/370 371/371/371 368/368/368
f 371/371/371 372/372/372 367/367/367
f 370/370/370 373/373/373 371/371/371
f 374/374/374 375/375/375 376/376/376
f 374/374/374 377/377/377 375/375/375
f 377/377/377 378/378/378 375/375/375
f 377/377/377 379/379/379 378/378/378
f 380/380/380 377/377/377 374/374/374
f 381/381/381 379/379/379 377/377/377
f 380/380/380 381/381/381 377/377/377
f 381/381/381 382/382/382 379/379/379
f 382/382/382 383/383/383 379/379/379
f 384/384/384 380/380/380 374/374/374
f 384/384/384 374/374/374 385/385/385
f 381/381/381 380/380/380 386/386/386
f 381/381/381 386/386/386 382/382/382
f 382/382/382 387/387/387 383/383/383
f 387/387/387 388/388/388 383/383/383
f 380/380/380 384/384/384 389/389/389
f 380/380/380 389/389/389 386/386/386
f 390/390/390 384/384/384 385/385/385
f 390/390/390 385/385/385 391/391/391
f 382/382/382 386/386/386 392/392/392
f 382/382/382 392/392/392 387/387/387
f 386/386/386 389/389/389 393/393/393
f 386/386/386 393/393/393 392/392/392
f 384/384/384 394/394/394 389/389/389
f 384/384/384 390/390/390 394/394/394
f 389/389/389 395/395/395 393/393/393
f 389/389/389 394/394/394 395/395/395
f 396/396/396 390/390/390 391/391/391
f 390/390/390 397/397/397 394/394/394
f 390/390/390 396/396/396 397/397/397
f 396/396/396 391/391/391 398/398/398
f 397/397/397 396/396/396 398/398/398
f 398/398/398 391/391/391 399/399/399
f 398/398/398 399/399/399 400/400/400
f 401/401/401 398/398/398 400/400/400
f 397/397/397 398/398/398 401/401/401
f 401/401/401 400/400/400 402/402/402
f 394/394/394 397/397/397 403/403/403
f 403/403/403 397/397/397 401/401/401
f 394/394/394 403/403/403 395/395/395
f 403/403/403 401/401/401 404/404/404
f 405/405/405 403/403/403 404/404/404
f 395/395/395 403/403/403 405/405/405
f 405/405/405 404/404/404 406/406/406
f 395/395/395 405/405/405 407/407/407
f 393/393/393 395/395/395 407/407/407
f 408/408/408 405/405/405 406/406/406
f 407/407/407 405/405/405 408/408/408
f 393/393/393 407/407/407 409/409/409
f 392/392/392 393/393/393 409/409/409
f 408/408/408 406/406/406 410/410/410
f 410/410/410 406/406/406 411/411/411
f 410/410/410 411/411/411 412/412/412
f 407/407/407 408/408/408 413/413/413
f 413/413/413 408/408/408 410/410/410
f 409/409/409 407/407/407 413/413/413
f 414/414/414 410/410/410 412/412/412
f 413/413/413 410/410/410 414/414/414
f 414/414/414 412/412/412 415/415/415
f 416/416/416 413/413/413 414/414/414
f 409/409/409 413/413/413 416/416/416
f 416/416/416 414/414/414 417/417/417
f 392/392/392 409/409/409 418/418/418
f 418/418/418 409/409/409 416/416/416
f 387/387/387 392/392/392 418/418/418
f 419/419/419 416/416/416 417/417/417
f 418/418/418 416/416/416 419/419/419
f 419/419/419 417/417/417 420/420/420
f 387/387/387 418/418/418 421/421/421
f 421/421/421 418/418/418 419/419/419
f 387/387/387 421/421/421 388/388/388
f 422/422/422 419/419/419 420/420/420
f 421/421/421 419/419/419 422/422/422
f 422/422/422 420/420/420 423/423/423
f 421/421/421 422/422/422 423/423/423
f 421/421/421 423/423/423 388/388/388
f 423/423/423 420/420/420 424/424/424
f 423/423/423 424/424/424 425/425/425
f 388/388/388 423/423/423 425/425/425
f 388/388/388 425/425/425 426/426/426
f 427/427/427 428/428/428 429/429/429
f 429/429/429 430/430/430 427/427/427
f 429/429/429 431/431/431 430/430/430
f 431/431/431 432/432/432 430/430/430
f 432/432/432 433/433/433 430/430/430
f 432/432/432 434/434/434 433/433/433
f 432/432/432 435/435/435 434/434/434
f 435/435/435 436/436/436 434/434/434
f 436/436/436 437/437/437 434/434/434
f 436/436/436 438/438/438 437/437/437
f 436/436/436 439/439/439 438/438/438
f 439/439/439 440/440/440 438/438/438
f 439/439/439 441/441/441 440/440/440
f 441/441/441 442/442/442 440/440/440
usemtl metal
f 443/443/443 444/444/444 445/445/445
f 443/443/443 445/445/445 446/446/446
f 447/447/447 448/448/448 449/449/449
f 447/447/447 449/449/449 450/450/450
f 451/451/451 452/452/452 453/453/453
f 451/451/451 453/453/453 454/454/454
f 455/455/455 456/456/456 457/457/457
f 455/455/455 457/457/457 458/458/458
f 459/459/459 460/460/460 461/461/461
f 459/459/459 461/461/461 462/462/462
f 463/463/463 464/464/464 465/465/465
f 463/463/463 465/465/465 466/466/466
f 467/467/467 468/468/468 469/469/469
f 467/467/467 469/469/469 470/470/470
f 471/471/471 472/472/472 473/473/473
f 471/471/471 473/473/473 474/474/474
f 475/475/475 476/476/476 477/477/477
f 475/475/475 477/477/477 478/478/478
f 479/479/479 480/480/480 481/481/481
f 479/479/479 481/481/481 482/482/482
f 483/483/483 484/484/484 485/485/485
f 483/483/483 485/485/485 486/486/486
f 487/487/487 488/488/488 489/489/489
f 487/487/487 489/489/489 490/490/490
