# Exported from the Unity project (studs, +Y up, character faces +Z). y[-3,-1]
v -0.84801 -1.90039 0.5
v -0.87013 -1.10156 0.48506
v -0.92013 -1.90039 0.48506
v -0.79801 -1.10156 0.5
v -0.85689 -1.04297 0.47845
v -0.79801 -1.03027 0.48506
v -0.10199 -1.90039 0.5
v -0.10199 -1.03027 0.48506
v -0.10199 -1.10156 0.5
v -0.02987 -1.90039 0.48506
v -0.04311 -1.04297 0.47845
v -0.02987 -1.10156 0.48506
v -0.87013 -1.10156 -0.48506
v -0.92013 -1.90039 -0.48506
v -0.95 -1.90039 -0.44901
v -0.9 -1.10156 -0.44901
v -0.85689 -1.04297 -0.47845
v -0.87013 -1.03027 -0.44901
v -0.95 -1.90039 0.44901
v -0.87013 -1.03027 0.44901
v -0.9 -1.10156 0.44901
v -0.92013 -1.90039 0.48506
v -0.85689 -1.04297 0.47845
v -0.87013 -1.10156 0.48506
v -0.02987 -1.10156 0.48506
v -0.02987 -1.90039 0.48506
v 0 -1.90039 0.44901
v 0 -1.10156 0.44901
v -0.04311 -1.04297 0.47845
v -0.02987 -1.03027 0.44901
v 0 -1.90039 -0.44901
v -0.02987 -1.03027 -0.44901
v 0 -1.10156 -0.44901
v -0.02987 -1.90039 -0.48506
v -0.04311 -1.04297 -0.47845
v -0.02987 -1.10156 -0.48506
v -0.02987 -1.10156 -0.48506
v -0.02987 -1.90039 -0.48506
v -0.10199 -1.90039 -0.5
v -0.10199 -1.10156 -0.5
v -0.04311 -1.04297 -0.47845
v -0.10199 -1.03027 -0.48506
v -0.84801 -1.90039 -0.5
v -0.79801 -1.03027 -0.48506
v -0.79801 -1.10156 -0.5
v -0.92013 -1.90039 -0.48506
v -0.85689 -1.04297 -0.47845
v -0.87013 -1.10156 -0.48506
v -0.92013 -1.90039 0.48506
v -0.95 -1.90039 0.44901
v -0.95 -1.90039 -0.44901
v -0.92013 -1.90039 -0.48506
v -0.84801 -1.90039 0.5
v -0.84801 -1.90039 -0.5
v -0.10199 -1.90039 0.5
v -0.10199 -1.90039 -0.5
v -0.02987 -1.90039 0.48506
v -0.02987 -1.90039 -0.48506
v 0 -1.90039 0.44901
v 0 -1.90039 -0.44901
v -0.94513 -2.49902 0.48506
v -0.92013 -2.09961 0.48506
v -0.95 -2.09961 0.44901
v -0.975 -2.49902 0.44901
v -0.95 -2.09961 -0.44901
v -0.975 -2.49902 -0.44901
v -0.92013 -2.09961 -0.48506
v -0.94513 -2.49902 -0.48506
v -0.87301 -2.49902 0.5
v -0.92013 -2.09961 0.48506
v -0.94513 -2.49902 0.48506
v -0.84801 -2.09961 0.5
v -0.10199 -2.49902 0.5
v -0.10199 -2.09961 0.5
v -0.02987 -2.49902 0.48506
v -0.02987 -2.09961 0.48506
v -0.92013 -2.09961 -0.48506
v -0.95 -2.09961 -0.44901
v -0.95 -2.09961 0.44901
v -0.92013 -2.09961 0.48506
v -0.84801 -2.09961 -0.5
v -0.84801 -2.09961 0.5
v -0.10199 -2.09961 -0.5
v -0.10199 -2.09961 0.5
v -0.02987 -2.09961 -0.48506
v -0.02987 -2.09961 0.48506
v 0 -2.09961 -0.44901
v 0 -2.09961 0.44901
v -0.84801 -2.09961 -0.5
v -0.94513 -2.49902 -0.48506
v -0.92013 -2.09961 -0.48506
v -0.87301 -2.49902 -0.5
v -0.10199 -2.09961 -0.5
v -0.10199 -2.49902 -0.5
v -0.02987 -2.09961 -0.48506
v -0.02987 -2.49902 -0.48506
v -0.02987 -2.09961 0.48506
v -0.02987 -2.49902 0.48506
v 0 -2.49902 0.44901
v 0 -2.09961 0.44901
v 0 -2.49902 -0.44901
v 0 -2.09961 -0.44901
v -0.02987 -2.49902 -0.48506
v -0.02987 -2.09961 -0.48506
v -0.94513 -2.49902 0.48506
v -0.975 -2.49902 0.44901
v -0.975 -2.49902 -0.44901
v -0.94513 -2.49902 -0.48506
v -0.87301 -2.49902 0.5
v -0.87301 -2.49902 -0.5
v -0.10199 -2.49902 0.5
v -0.10199 -2.49902 -0.5
v -0.02987 -2.49902 0.48506
v -0.02987 -2.49902 -0.48506
v 0 -2.49902 0.44901
v 0 -2.49902 -0.44901
v 0 -2.59863 -0.44901
v -0.02987 -2.89844 -0.48506
v -0.02987 -2.59863 -0.48506
v 0 -2.89844 -0.44901
v -0.04311 -2.95703 -0.47845
v -0.02987 -2.96973 -0.44901
v 0 -2.59863 0.44901
v -0.02987 -2.96973 0.44901
v 0 -2.89844 0.44901
v -0.02987 -2.59863 0.48506
v -0.04311 -2.95703 0.47845
v -0.02987 -2.89844 0.48506
v -0.10199 -2.59863 0.5
v -0.02987 -2.89844 0.48506
v -0.02987 -2.59863 0.48506
v -0.10199 -2.89844 0.5
v -0.04311 -2.95703 0.47845
v -0.10199 -2.96973 0.48506
v -0.87301 -2.59863 0.5
v -0.89801 -2.96973 0.48506
v -0.89801 -2.89844 0.5
v -0.94513 -2.59863 0.48506
v -0.95689 -2.95703 0.47845
v -0.97013 -2.89844 0.48506
v -0.87301 -2.59863 -0.5
v -0.97013 -2.89844 -0.48506
v -0.94513 -2.59863 -0.48506
v -0.89801 -2.89844 -0.5
v -0.95689 -2.95703 -0.47845
v -0.89801 -2.96973 -0.48506
v -0.10199 -2.59863 -0.5
v -0.10199 -2.96973 -0.48506
v -0.10199 -2.89844 -0.5
v -0.02987 -2.59863 -0.48506
v -0.04311 -2.95703 -0.47845
v -0.02987 -2.89844 -0.48506
v -0.97013 -2.89844 0.48506
v -0.94513 -2.59863 0.48506
v -0.975 -2.59863 0.44901
v -1 -2.89844 0.44901
v -0.95689 -2.95703 0.47845
v -0.97013 -2.96973 0.44901
v -0.975 -2.59863 -0.44901
v -0.97013 -2.96973 -0.44901
v -1 -2.89844 -0.44901
v -0.94513 -2.59863 -0.48506
v -0.95689 -2.95703 -0.47845
v -0.97013 -2.89844 -0.48506
v -0.94513 -2.59863 -0.48506
v -0.975 -2.59863 -0.44901
v -0.975 -2.59863 0.44901
v -0.94513 -2.59863 0.48506
v -0.87301 -2.59863 -0.5
v -0.87301 -2.59863 0.5
v -0.10199 -2.59863 -0.5
v -0.10199 -2.59863 0.5
v -0.02987 -2.59863 -0.48506
v -0.02987 -2.59863 0.48506
v 0 -2.59863 -0.44901
v 0 -2.59863 0.44901
v -0.89801 -3 -0.44901
v -0.97013 -2.96973 -0.44901
v -0.95689 -2.95703 -0.47845
v -0.89801 -2.96973 -0.48506
v -0.97013 -2.96973 0.44901
v -0.10199 -3 -0.44901
v -0.10199 -2.96973 -0.48506
v -0.04311 -2.95703 -0.47845
v -0.02987 -2.96973 -0.44901
v -0.10199 -3 0.44901
v -0.02987 -2.96973 0.44901
v -0.04311 -2.95703 0.47845
v -0.10199 -2.96973 0.48506
v -0.89801 -3 0.44901
v -0.95689 -2.95703 0.47845
v -0.89801 -2.96973 0.48506
v -0.79801 -1 0.44901
v -0.87013 -1.03027 0.44901
v -0.85689 -1.04297 0.47845
v -0.79801 -1.03027 0.48506
v -0.87013 -1.03027 -0.44901
v -0.10199 -1 0.44901
v -0.10199 -1.03027 0.48506
v -0.04311 -1.04297 0.47845
v -0.02987 -1.03027 0.44901
v -0.10199 -1 -0.44901
v -0.02987 -1.03027 -0.44901
v -0.04311 -1.04297 -0.47845
v -0.10199 -1.03027 -0.48506
v -0.79801 -1 -0.44901
v -0.85689 -1.04297 -0.47845
v -0.79801 -1.03027 -0.48506
v -0.56 -2.7002 0.08
v -0.56 -1.83984 0.08
v -0.56 -1.94043 -0.08
v -0.56 -2.09961 -0.08
v -0.56 -2.09961 -0.08
v -0.56 -1.94043 -0.08
v -0.4 -1.94043 -0.08
v -0.4 -2.09961 -0.08
v -0.4 -2.09961 -0.08
v -0.4 -1.94043 -0.08
v -0.4 -1.83984 0.08
v -0.4 -2.7002 0.08
v -0.4 -2.7002 0.08
v -0.4 -1.83984 0.08
v -0.56 -1.83984 0.08
v -0.56 -2.7002 0.08
v -0.56 -2.09961 -0.08
v -0.4 -2.09961 -0.08
v -0.4 -2.7002 0.08
v -0.56 -2.7002 0.08
v -0.4 -1.94043 -0.08
v -0.56 -1.94043 -0.08
v -0.56 -1.83984 0.08
v -0.4 -1.83984 0.08
vt 0.76591 0.5448
vt 0.76736 0.5991
vt 0.77066 0.5448
vt 0.76261 0.5991
vt 0.76649 0.60311
vt 0.76261 0.60401
vt 0.71671 0.5448
vt 0.71671 0.60401
vt 0.71671 0.5991
vt 0.71195 0.5448
vt 0.71282 0.60311
vt 0.71195 0.5991
vt 0.8496 0.5991
vt 0.8496 0.5448
vt 0.84715 0.5448
vt 0.84715 0.5991
vt 0.84915 0.60311
vt 0.84715 0.60401
vt 0.78605 0.5448
vt 0.78605 0.60401
vt 0.78605 0.5991
vt 0.7836 0.5448
vt 0.78405 0.60311
vt 0.7836 0.5991
vt 0.70231 0.5991
vt 0.70231 0.5448
vt 0.69986 0.5448
vt 0.69986 0.5991
vt 0.70186 0.60311
vt 0.69986 0.60401
vt 0.63876 0.5448
vt 0.63876 0.60401
vt 0.63876 0.5991
vt 0.63631 0.5448
vt 0.63676 0.60311
vt 0.63631 0.5991
vt 0.92125 0.5991
vt 0.92125 0.5448
vt 0.91649 0.5448
vt 0.91649 0.5991
vt 0.92038 0.60311
vt 0.91649 0.60401
vt 0.86729 0.5448
vt 0.87059 0.60401
vt 0.87059 0.5991
vt 0.86254 0.5448
vt 0.86671 0.60311
vt 0.86584 0.5991
vt 0.77066 0.46228
vt 0.77263 0.45983
vt 0.77263 0.39873
vt 0.77066 0.39628
vt 0.76591 0.4633
vt 0.76591 0.39526
vt 0.71671 0.4633
vt 0.71671 0.39526
vt 0.71195 0.46228
vt 0.71195 0.39628
vt 0.70998 0.45983
vt 0.70998 0.39873
vt 0.7836 0.50404
vt 0.7836 0.53119
vt 0.78605 0.53119
vt 0.78605 0.50404
vt 0.84715 0.53119
vt 0.84715 0.50404
vt 0.8496 0.53119
vt 0.8496 0.50404
vt 0.76756 0.50404
vt 0.77066 0.53119
vt 0.77231 0.50404
vt 0.76591 0.53119
vt 0.71671 0.50404
vt 0.71671 0.53119
vt 0.71195 0.50404
vt 0.71195 0.53119
vt 0.76421 0.67971
vt 0.76597 0.67726
vt 0.76597 0.61616
vt 0.76421 0.61371
vt 0.75996 0.68073
vt 0.75996 0.61269
vt 0.71599 0.68073
vt 0.71599 0.61269
vt 0.71174 0.67971
vt 0.71174 0.61371
vt 0.70998 0.67726
vt 0.70998 0.61616
vt 0.86729 0.53119
vt 0.86089 0.50404
vt 0.86254 0.53119
vt 0.86564 0.50404
vt 0.91649 0.53119
vt 0.91649 0.50404
vt 0.92125 0.53119
vt 0.92125 0.50404
vt 0.70231 0.53119
vt 0.70231 0.50404
vt 0.69986 0.50404
vt 0.69986 0.53119
vt 0.63876 0.50404
vt 0.63876 0.53119
vt 0.63631 0.50404
vt 0.63631 0.53119
vt 0.77231 0.46228
vt 0.77428 0.45983
vt 0.77428 0.39873
vt 0.77231 0.39628
vt 0.76756 0.4633
vt 0.76756 0.39526
vt 0.71671 0.4633
vt 0.71671 0.39526
vt 0.71195 0.46228
vt 0.71195 0.39628
vt 0.70998 0.45983
vt 0.70998 0.39873
vt 0.63876 0.49724
vt 0.63631 0.47689
vt 0.63631 0.49724
vt 0.63876 0.47689
vt 0.63676 0.47288
vt 0.63876 0.47198
vt 0.69986 0.49724
vt 0.69986 0.47198
vt 0.69986 0.47689
vt 0.70231 0.49724
vt 0.70186 0.47288
vt 0.70231 0.47689
vt 0.71671 0.49724
vt 0.71195 0.47689
vt 0.71195 0.49724
vt 0.71671 0.47689
vt 0.71282 0.47288
vt 0.71671 0.47198
vt 0.76756 0.49724
vt 0.7692 0.47198
vt 0.7692 0.47689
vt 0.77231 0.49724
vt 0.77309 0.47288
vt 0.77396 0.47689
vt 0.86564 0.49724
vt 0.85924 0.47689
vt 0.86089 0.49724
vt 0.864 0.47689
vt 0.86011 0.47288
vt 0.864 0.47198
vt 0.91649 0.49724
vt 0.91649 0.47198
vt 0.91649 0.47689
vt 0.92125 0.49724
vt 0.92038 0.47288
vt 0.92125 0.47689
vt 0.7836 0.47689
vt 0.7836 0.49724
vt 0.78605 0.49724
vt 0.78605 0.47689
vt 0.78405 0.47288
vt 0.78605 0.47198
vt 0.84715 0.49724
vt 0.84715 0.47198
vt 0.84715 0.47689
vt 0.8496 0.49724
vt 0.84915 0.47288
vt 0.8496 0.47689
vt 0.76569 0.67971
vt 0.76745 0.67726
vt 0.76745 0.61616
vt 0.76569 0.61371
vt 0.76144 0.68073
vt 0.76144 0.61269
vt 0.71599 0.68073
vt 0.71599 0.61269
vt 0.71174 0.67971
vt 0.71174 0.61371
vt 0.70998 0.67726
vt 0.70998 0.61616
vt 0.7692 0.39873
vt 0.77396 0.39873
vt 0.77309 0.39673
vt 0.7692 0.39628
vt 0.77396 0.45983
vt 0.71671 0.39873
vt 0.71671 0.39628
vt 0.71282 0.39673
vt 0.71195 0.39873
vt 0.71671 0.45983
vt 0.71195 0.45983
vt 0.71282 0.46183
vt 0.71671 0.46228
vt 0.7692 0.45983
vt 0.77309 0.46183
vt 0.7692 0.46228
vt 0.75701 0.61616
vt 0.76127 0.61616
vt 0.76049 0.61416
vt 0.75701 0.61371
vt 0.76127 0.67726
vt 0.71599 0.61616
vt 0.71599 0.61371
vt 0.71252 0.61416
vt 0.71174 0.61616
vt 0.71599 0.67726
vt 0.71174 0.67726
vt 0.71252 0.67926
vt 0.71599 0.67971
vt 0.75701 0.67726
vt 0.76049 0.67926
vt 0.75701 0.67971
vt 0.48698 0.48752
vt 0.48698 0.54662
vt 0.49798 0.53975
vt 0.49798 0.52875
vt 0.56052 0.52875
vt 0.56052 0.53975
vt 0.57151 0.53975
vt 0.57151 0.52875
vt 0.34267 0.52875
vt 0.34267 0.53975
vt 0.35367 0.54662
vt 0.35367 0.48752
vt 0.41345 0.48752
vt 0.41345 0.54662
vt 0.42445 0.54662
vt 0.42445 0.48752
vt 0.56052 0.52875
vt 0.57151 0.52875
vt 0.57151 0.48752
vt 0.56052 0.48752
vt 0.41345 0.64764
vt 0.42445 0.64764
vt 0.42445 0.63664
vt 0.41345 0.63664
vn -0.0815 -0.68265 0.72618
vn -0.52395 0.13908 0.84031
vn -0.41188 -0.61858 0.66912
vn -0.09327 0.09838 0.99077
vn -0.45027 0.45027 0.77104
vn -0.12328 0.53014 0.8389
vn 0.07427 -0.68487 0.72487
vn 0.12328 0.53014 0.8389
vn 0.09533 0.09533 0.99087
vn 0.39625 -0.63963 0.65867
vn 0.45027 0.45027 0.77104
vn 0.53014 0.12328 0.8389
vn -0.52395 0.13908 -0.84031
vn -0.41188 -0.61858 -0.66912
vn -0.7449 -0.61236 -0.26483
vn -0.92822 0.20243 -0.31215
vn -0.45027 0.45027 -0.77104
vn -0.67487 0.67487 -0.29848
vn -0.7449 -0.61236 0.26483
vn -0.67487 0.67487 0.29848
vn -0.92822 0.20243 0.31215
vn -0.41188 -0.61858 0.66912
vn -0.45027 0.45027 0.77104
vn -0.52395 0.13908 0.84031
vn 0.53014 0.12328 0.8389
vn 0.39625 -0.63963 0.65867
vn 0.7243 -0.63815 0.26105
vn 0.93429 0.17351 0.31145
vn 0.45027 0.45027 0.77104
vn 0.67487 0.67487 0.29848
vn 0.7243 -0.63815 -0.26105
vn 0.67487 0.67487 -0.29848
vn 0.93429 0.17351 -0.31145
vn 0.39625 -0.63963 -0.65867
vn 0.45027 0.45027 -0.77104
vn 0.53014 0.12328 -0.8389
vn 0.53014 0.12328 -0.8389
vn 0.39625 -0.63963 -0.65867
vn 0.07427 -0.68487 -0.72487
vn 0.09533 0.09533 -0.99087
vn 0.45027 0.45027 -0.77104
vn 0.12328 0.53014 -0.8389
vn -0.07333 -0.68267 -0.72704
vn -0.12328 0.53014 -0.8389
vn -0.09327 0.09838 -0.99077
vn -0.41188 -0.61858 -0.66912
vn -0.45027 0.45027 -0.77104
vn -0.52395 0.13908 -0.84031
vn -0.41188 -0.61858 0.66912
vn -0.7449 -0.61236 0.26483
vn -0.7449 -0.61236 -0.26483
vn -0.41188 -0.61858 -0.66912
vn -0.0815 -0.68265 0.72618
vn -0.07333 -0.68267 -0.72704
vn 0.07427 -0.68487 0.72487
vn 0.07427 -0.68487 -0.72487
vn 0.39625 -0.63963 0.65867
vn 0.39625 -0.63963 -0.65867
vn 0.7243 -0.63815 0.26105
vn 0.7243 -0.63815 -0.26105
vn -0.42123 -0.62241 0.65967
vn -0.38789 0.64314 0.66024
vn -0.70829 0.65674 0.25888
vn -0.74549 -0.61383 0.25974
vn -0.70636 0.6608 -0.25378
vn -0.74404 -0.61356 -0.26448
vn -0.37368 0.65318 -0.65857
vn -0.41364 -0.6133 -0.67288
vn -0.07735 -0.67757 0.73138
vn -0.38789 0.64314 0.66024
vn -0.42123 -0.62241 0.65967
vn -0.06704 0.68729 0.72328
vn 0.07427 -0.68487 0.72487
vn 0.07427 0.68487 0.72487
vn 0.39625 -0.63963 0.65867
vn 0.39625 0.63963 0.65867
vn -0.37368 0.65318 -0.65857
vn -0.70636 0.6608 -0.25378
vn -0.70829 0.65674 0.25888
vn -0.38789 0.64314 0.66024
vn -0.07176 0.68412 -0.72583
vn -0.06704 0.68729 0.72328
vn 0.07427 0.68487 -0.72487
vn 0.07427 0.68487 0.72487
vn 0.39625 0.63963 -0.65867
vn 0.39625 0.63963 0.65867
vn 0.7243 0.63815 -0.26105
vn 0.7243 0.63815 0.26105
vn -0.07176 0.68412 -0.72583
vn -0.41364 -0.6133 -0.67288
vn -0.37368 0.65318 -0.65857
vn -0.07242 -0.68271 -0.72709
vn 0.07427 0.68487 -0.72487
vn 0.07427 -0.68487 -0.72487
vn 0.39625 0.63963 -0.65867
vn 0.39625 -0.63963 -0.65867
vn 0.39625 0.63963 0.65867
vn 0.39625 -0.63963 0.65867
vn 0.7243 -0.63815 0.26105
vn 0.7243 0.63815 0.26105
vn 0.7243 -0.63815 -0.26105
vn 0.7243 0.63815 -0.26105
vn 0.39625 -0.63963 -0.65867
vn 0.39625 0.63963 -0.65867
vn -0.42123 -0.62241 0.65967
vn -0.74549 -0.61383 0.25974
vn -0.74404 -0.61356 -0.26448
vn -0.41364 -0.6133 -0.67288
vn -0.07735 -0.67757 0.73138
vn -0.07242 -0.68271 -0.72709
vn 0.07427 -0.68487 0.72487
vn 0.07427 -0.68487 -0.72487
vn 0.39625 -0.63963 0.65867
vn 0.39625 -0.63963 -0.65867
vn 0.7243 -0.63815 0.26105
vn 0.7243 -0.63815 -0.26105
vn 0.7243 0.63815 -0.26105
vn 0.53014 -0.12328 -0.8389
vn 0.39625 0.63963 -0.65867
vn 0.93429 -0.17351 -0.31145
vn 0.45027 -0.45027 -0.77104
vn 0.67487 -0.67487 -0.29848
vn 0.7243 0.63815 0.26105
vn 0.67487 -0.67487 0.29848
vn 0.93429 -0.17351 0.31145
vn 0.39625 0.63963 0.65867
vn 0.45027 -0.45027 0.77104
vn 0.53014 -0.12328 0.8389
vn 0.07427 0.68487 0.72487
vn 0.53014 -0.12328 0.8389
vn 0.39625 0.63963 0.65867
vn 0.09533 -0.09533 0.99087
vn 0.45027 -0.45027 0.77104
vn 0.12328 -0.53014 0.8389
vn -0.07056 0.68594 0.72422
vn -0.12328 -0.53014 0.8389
vn -0.09808 -0.09087 0.99102
vn -0.36724 0.65736 0.65804
vn -0.45027 -0.45027 0.77104
vn -0.53804 -0.10138 0.8368
vn -0.07342 0.69035 -0.71974
vn -0.53804 -0.10138 -0.8368
vn -0.38234 0.64997 -0.65678
vn -0.09808 -0.09087 -0.99102
vn -0.45027 -0.45027 -0.77104
vn -0.12328 -0.53014 -0.8389
vn 0.07427 0.68487 -0.72487
vn 0.12328 -0.53014 -0.8389
vn 0.09533 -0.09533 -0.99087
vn 0.39625 0.63963 -0.65867
vn 0.45027 -0.45027 -0.77104
vn 0.53014 -0.12328 -0.8389
vn -0.53804 -0.10138 0.8368
vn -0.36724 0.65736 0.65804
vn -0.69657 0.66813 0.2615
vn -0.94104 -0.13513 0.31015
vn -0.45027 -0.45027 0.77104
vn -0.67487 -0.67487 0.29848
vn -0.70364 0.66202 -0.25812
vn -0.67487 -0.67487 -0.29848
vn -0.94104 -0.13513 -0.31015
vn -0.38234 0.64997 -0.65678
vn -0.45027 -0.45027 -0.77104
vn -0.53804 -0.10138 -0.8368
vn -0.38234 0.64997 -0.65678
vn -0.70364 0.66202 -0.25812
vn -0.69657 0.66813 0.2615
vn -0.36724 0.65736 0.65804
vn -0.07342 0.69035 -0.71974
vn -0.07056 0.68594 0.72422
vn 0.07427 0.68487 -0.72487
vn 0.07427 0.68487 0.72487
vn 0.39625 0.63963 -0.65867
vn 0.39625 0.63963 0.65867
vn 0.7243 0.63815 -0.26105
vn 0.7243 0.63815 0.26105
vn -0.17351 -0.93429 -0.31145
vn -0.67487 -0.67487 -0.29848
vn -0.45027 -0.45027 -0.77104
vn -0.12328 -0.53014 -0.8389
vn -0.67487 -0.67487 0.29848
vn 0.17351 -0.93429 -0.31145
vn 0.12328 -0.53014 -0.8389
vn 0.45027 -0.45027 -0.77104
vn 0.67487 -0.67487 -0.29848
vn 0.17351 -0.93429 0.31145
vn 0.67487 -0.67487 0.29848
vn 0.45027 -0.45027 0.77104
vn 0.12328 -0.53014 0.8389
vn -0.17351 -0.93429 0.31145
vn -0.45027 -0.45027 0.77104
vn -0.12328 -0.53014 0.8389
vn -0.17351 0.93429 0.31145
vn -0.67487 0.67487 0.29848
vn -0.45027 0.45027 0.77104
vn -0.12328 0.53014 0.8389
vn -0.67487 0.67487 -0.29848
vn 0.17351 0.93429 0.31145
vn 0.12328 0.53014 0.8389
vn 0.45027 0.45027 0.77104
vn 0.67487 0.67487 0.29848
vn 0.17351 0.93429 -0.31145
vn 0.67487 0.67487 -0.29848
vn 0.45027 0.45027 -0.77104
vn 0.12328 0.53014 -0.8389
vn -0.17351 0.93429 -0.31145
vn -0.45027 0.45027 -0.77104
vn -0.12328 0.53014 -0.8389
vn -1 0 0
vn -1 0 0
vn -1 0 0
vn -1 0 0
vn 0 0 -1
vn 0 0 -1
vn 0 0 -1
vn 0 0 -1
vn 1 0 0
vn 1 0 0
vn 1 0 0
vn 1 0 0
vn 0 0 1
vn 0 0 1
vn 0 0 1
vn 0 0 1
vn 0 -0.25766 -0.96624
vn 0 -0.25766 -0.96624
vn 0 -0.25766 -0.96624
vn 0 -0.25766 -0.96624
vn 0 0.848 -0.53
vn 0 0.848 -0.53
vn 0 0.848 -0.53
vn 0 0.848 -0.53
usemtl skin
f 1/1/1 2/2/2 3/3/3
f 1/1/1 4/4/4 2/2/2
f 4/4/4 5/5/5 2/2/2
f 4/4/4 6/6/6 5/5/5
f 7/7/7 4/4/4 1/1/1
f 8/8/8 6/6/6 4/4/4
f 7/7/7 9/9/9 4/4/4
f 8/8/8 4/4/4 9/9/9
f 9/9/9 7/7/7 10/10/10
f 9/9/9 11/11/11 8/8/8
f 9/9/9 10/10/10 12/12/12
f 9/9/9 12/12/12 11/11/11
f 13/13/13 14/14/14 15/15/15
f 13/13/13 15/15/15 16/16/16
f 16/16/16 17/17/17 13/13/13
f 16/16/16 18/18/18 17/17/17
f 19/19/19 16/16/16 15/15/15
f 20/20/20 18/18/18 16/16/16
f 19/19/19 21/21/21 16/16/16
f 20/20/20 16/16/16 21/21/21
f 22/22/22 21/21/21 19/19/19
f 21/21/21 23/23/23 20/20/20
f 22/22/22 24/24/24 21/21/21
f 21/21/21 24/24/24 23/23/23
f 25/25/25 26/26/26 27/27/27
f 25/25/25 27/27/27 28/28/28
f 28/28/28 29/29/29 25/25/25
f 28/28/28 30/30/30 29/29/29
f 31/31/31 28/28/28 27/27/27
f 32/32/32 30/30/30 28/28/28
f 31/31/31 33/33/33 28/28/28
f 32/32/32 28/28/28 33/33/33
f 33/33/33 31/31/31 34/34/34
f 33/33/33 35/35/35 32/32/32
f 33/33/33 34/34/34 36/36/36
f 33/33/33 36/36/36 35/35/35
f 37/37/37 38/38/38 39/39/39
f 37/37/37 39/39/39 40/40/40
f 40/40/40 41/41/41 37/37/37
f 40/40/40 42/42/42 41/41/41
f 43/43/43 40/40/40 39/39/39
f 44/44/44 42/42/42 40/40/40
f 43/43/43 45/45/45 40/40/40
f 44/44/44 40/40/40 45/45/45
f 45/45/45 43/43/43 46/46/46
f 45/45/45 47/47/47 44/44/44
f 45/45/45 46/46/46 48/48/48
f 45/45/45 48/48/48 47/47/47
f 49/49/49 50/50/50 51/51/51
f 51/51/51 52/52/52 49/49/49
f 52/52/52 53/53/53 49/49/49
f 52/52/52 54/54/54 53/53/53
f 54/54/54 55/55/55 53/53/53
f 54/54/54 56/56/56 55/55/55
f 56/56/56 57/57/57 55/55/55
f 56/56/56 58/58/58 57/57/57
f 58/58/58 59/59/59 57/57/57
f 58/58/58 60/60/60 59/59/59
f 61/61/61 62/62/62 63/63/63
f 61/61/61 63/63/63 64/64/64
f 64/64/64 63/63/63 65/65/65
f 64/64/64 65/65/65 66/66/66
f 67/67/67 66/66/66 65/65/65
f 67/67/67 68/68/68 66/66/66
f 69/69/69 70/70/70 71/71/71
f 69/69/69 72/72/72 70/70/70
f 73/73/73 72/72/72 69/69/69
f 73/73/73 74/74/74 72/72/72
f 74/74/74 73/73/73 75/75/75
f 74/74/74 75/75/75 76/76/76
f 77/77/77 78/78/78 79/79/79
f 79/79/79 80/80/80 77/77/77
f 80/80/80 81/81/81 77/77/77
f 80/80/80 82/82/82 81/81/81
f 82/82/82 83/83/83 81/81/81
f 82/82/82 84/84/84 83/83/83
f 84/84/84 85/85/85 83/83/83
f 84/84/84 86/86/86 85/85/85
f 86/86/86 87/87/87 85/85/85
f 86/86/86 88/88/88 87/87/87
f 89/89/89 90/90/90 91/91/91
f 89/89/89 92/92/92 90/90/90
f 92/92/92 89/89/89 93/93/93
f 92/92/92 93/93/93 94/94/94
f 95/95/95 94/94/94 93/93/93
f 95/95/95 96/96/96 94/94/94
f 97/97/97 98/98/98 99/99/99
f 97/97/97 99/99/99 100/100/100
f 101/101/101 100/100/100 99/99/99
f 101/101/101 102/102/102 100/100/100
f 102/102/102 101/101/101 103/103/103
f 102/102/102 103/103/103 104/104/104
f 105/105/105 106/106/106 107/107/107
f 107/107/107 108/108/108 105/105/105
f 108/108/108 109/109/109 105/105/105
f 108/108/108 110/110/110 109/109/109
f 110/110/110 111/111/111 109/109/109
f 110/110/110 112/112/112 111/111/111
f 112/112/112 113/113/113 111/111/111
f 112/112/112 114/114/114 113/113/113
f 114/114/114 115/115/115 113/113/113
f 114/114/114 116/116/116 115/115/115
f 117/117/117 118/118/118 119/119/119
f 117/117/117 120/120/120 118/118/118
f 120/120/120 121/121/121 118/118/118
f 120/120/120 122/122/122 121/121/121
f 120/120/120 117/117/117 123/123/123
f 124/124/124 122/122/122 120/120/120
f 120/120/120 123/123/123 125/125/125
f 124/124/124 120/120/120 125/125/125
f 126/126/126 125/125/125 123/123/123
f 125/125/125 127/127/127 124/124/124
f 126/126/126 128/128/128 125/125/125
f 125/125/125 128/128/128 127/127/127
f 129/129/129 130/130/130 131/131/131
f 129/129/129 132/132/132 130/130/130
f 132/132/132 133/133/133 130/130/130
f 132/132/132 134/134/134 133/133/133
f 132/132/132 129/129/129 135/135/135
f 136/136/136 134/134/134 132/132/132
f 132/132/132 135/135/135 137/137/137
f 136/136/136 132/132/132 137/137/137
f 137/137/137 135/135/135 138/138/138
f 137/137/137 139/139/139 136/136/136
f 137/137/137 138/138/138 140/140/140
f 137/137/137 140/140/140 139/139/139
f 141/141/141 142/142/142 143/143/143
f 141/141/141 144/144/144 142/142/142
f 144/144/144 145/145/145 142/142/142
f 144/144/144 146/146/146 145/145/145
f 144/144/144 141/141/141 147/147/147
f 148/148/148 146/146/146 144/144/144
f 144/144/144 147/147/147 149/149/149
f 148/148/148 144/144/144 149/149/149
f 150/150/150 149/149/149 147/147/147
f 149/149/149 151/151/151 148/148/148
f 150/150/150 152/152/152 149/149/149
f 149/149/149 152/152/152 151/151/151
f 153/153/153 154/154/154 155/155/155
f 153/153/153 155/155/155 156/156/156
f 156/156/156 157/157/157 153/153/153
f 156/156/156 158/158/158 157/157/157
f 156/156/156 155/155/155 159/159/159
f 160/160/160 158/158/158 156/156/156
f 156/156/156 159/159/159 161/161/161
f 160/160/160 156/156/156 161/161/161
f 162/162/162 161/161/161 159/159/159
f 161/161/161 163/163/163 160/160/160
f 162/162/162 164/164/164 161/161/161
f 161/161/161 164/164/164 163/163/163
f 165/165/165 166/166/166 167/167/167
f 167/167/167 168/168/168 165/165/165
f 168/168/168 169/169/169 165/165/165
f 168/168/168 170/170/170 169/169/169
f 170/170/170 171/171/171 169/169/169
f 170/170/170 172/172/172 171/171/171
f 172/172/172 173/173/173 171/171/171
f 172/172/172 174/174/174 173/173/173
f 174/174/174 175/175/175 173/173/173
f 174/174/174 176/176/176 175/175/175
f 177/177/177 178/178/178 179/179/179
f 177/177/177 179/179/179 180/180/180
f 177/177/177 181/181/181 178/178/178
f 182/182/182 177/177/177 180/180/180
f 182/182/182 180/180/180 183/183/183
f 182/182/182 183/183/183 184/184/184
f 182/182/182 184/184/184 185/185/185
f 186/186/186 182/182/182 185/185/185
f 177/177/177 182/182/182 186/186/186
f 186/186/186 185/185/185 187/187/187
f 186/186/186 187/187/187 188/188/188
f 186/186/186 188/188/188 189/189/189
f 177/177/177 190/190/190 181/181/181
f 177/177/177 186/186/186 190/190/190
f 190/190/190 186/186/186 189/189/189
f 190/190/190 191/191/191 181/181/181
f 190/190/190 189/189/189 192/192/192
f 190/190/190 192/192/192 191/191/191
f 193/193/193 194/194/194 195/195/195
f 193/193/193 195/195/195 196/196/196
f 193/193/193 197/197/197 194/194/194
f 198/198/198 193/193/193 196/196/196
f 198/198/198 196/196/196 199/199/199
f 198/198/198 199/199/199 200/200/200
f 198/198/198 200/200/200 201/201/201
f 202/202/202 198/198/198 201/201/201
f 202/202/202 193/193/193 198/198/198
f 202/202/202 201/201/201 203/203/203
f 202/202/202 203/203/203 204/204/204
f 202/202/202 204/204/204 205/205/205
f 193/193/193 206/206/206 197/197/197
f 202/202/202 206/206/206 193/193/193
f 206/206/206 202/202/202 205/205/205
f 206/206/206 207/207/207 197/197/197
f 206/206/206 205/205/205 208/208/208
f 206/206/206 208/208/208 207/207/207
usemtl metal
f 209/209/209 210/210/210 211/211/211
f 209/209/209 211/211/211 212/212/212
f 213/213/213 214/214/214 215/215/215
f 213/213/213 215/215/215 216/216/216
f 217/217/217 218/218/218 219/219/219
f 217/217/217 219/219/219 220/220/220
f 221/221/221 222/222/222 223/223/223
f 221/221/221 223/223/223 224/224/224
f 225/225/225 226/226/226 227/227/227
f 225/225/225 227/227/227 228/228/228
f 229/229/229 230/230/230 231/231/231
f 229/229/229 231/231/231 232/232/232
