# Exported from the Unity project (studs, +Y up, character faces +Z). y[-3,-1]
v 0.84801 -1.90039 0.5
v 0.92013 -1.90039 0.48506
v 0.87013 -1.10156 0.48506
v 0.79801 -1.10156 0.5
v 0.85689 -1.04297 0.47845
v 0.79801 -1.03027 0.48506
v 0.10199 -1.90039 0.5
v 0.10199 -1.03027 0.48506
v 0.10199 -1.10156 0.5
v 0.02987 -1.90039 0.48506
v 0.04311 -1.04297 0.47845
v 0.02987 -1.10156 0.48506
v 0.87013 -1.10156 -0.48506
v 0.95 -1.90039 -0.44901
v 0.92013 -1.90039 -0.48506
v 0.9 -1.10156 -0.44901
v 0.85689 -1.04297 -0.47845
v 0.87013 -1.03027 -0.44901
v 0.95 -1.90039 0.44901
v 0.87013 -1.03027 0.44901
v 0.9 -1.10156 0.44901
v 0.92013 -1.90039 0.48506
v 0.85689 -1.04297 0.47845
v 0.87013 -1.10156 0.48506
v 0.02987 -1.10156 0.48506
v 0 -1.90039 0.44901
v 0.02987 -1.90039 0.48506
v 0 -1.10156 0.44901
v 0.04311 -1.04297 0.47845
v 0.02987 -1.03027 0.44901
v 0 -1.90039 -0.44901
v 0.02987 -1.03027 -0.44901
v 0 -1.10156 -0.44901
v 0.02987 -1.90039 -0.48506
v 0.04311 -1.04297 -0.47845
v 0.02987 -1.10156 -0.48506
v 0.02987 -1.10156 -0.48506
v 0.10199 -1.90039 -0.5
v 0.02987 -1.90039 -0.48506
v 0.10199 -1.10156 -0.5
v 0.04311 -1.04297 -0.47845
v 0.10199 -1.03027 -0.48506
v 0.84801 -1.90039 -0.5
v 0.79801 -1.03027 -0.48506
v 0.79801 -1.10156 -0.5
v 0.92013 -1.90039 -0.48506
v 0.85689 -1.04297 -0.47845
v 0.87013 -1.10156 -0.48506
v 0.02987 -1.90039 0.48506
v 0 -1.90039 0.44901
v 0 -1.90039 -0.44901
v 0.02987 -1.90039 -0.48506
v 0.10199 -1.90039 0.5
v 0.10199 -1.90039 -0.5
v 0.84801 -1.90039 0.5
v 0.84801 -1.90039 -0.5
v 0.92013 -1.90039 0.48506
v 0.92013 -1.90039 -0.48506
v 0.95 -1.90039 0.44901
v 0.95 -1.90039 -0.44901
v 0.94513 -2.49902 0.48506
v 0.95 -2.09961 0.44901
v 0.92013 -2.09961 0.48506
v 0.975 -2.49902 0.44901
v 0.95 -2.09961 -0.44901
v 0.975 -2.49902 -0.44901
v 0.92013 -2.09961 -0.48506
v 0.94513 -2.49902 -0.48506
v 0.87301 -2.49902 0.5
v 0.94513 -2.49902 0.48506
v 0.92013 -2.09961 0.48506
v 0.84801 -2.09961 0.5
v 0.10199 -2.49902 0.5
v 0.10199 -2.09961 0.5
v 0.02987 -2.49902 0.48506
v 0.02987 -2.09961 0.48506
v 0.02987 -2.09961 -0.48506
v 0 -2.09961 -0.44901
v 0 -2.09961 0.44901
v 0.02987 -2.09961 0.48506
v 0.10199 -2.09961 -0.5
v 0.10199 -2.09961 0.5
v 0.84801 -2.09961 -0.5
v 0.84801 -2.09961 0.5
v 0.92013 -2.09961 -0.48506
v 0.92013 -2.09961 0.48506
v 0.95 -2.09961 -0.44901
v 0.95 -2.09961 0.44901
v 0.84801 -2.09961 -0.5
v 0.92013 -2.09961 -0.48506
v 0.94513 -2.49902 -0.48506
v 0.87301 -2.49902 -0.5
v 0.10199 -2.09961 -0.5
v 0.10199 -2.49902 -0.5
v 0.02987 -2.09961 -0.48506
v 0.02987 -2.49902 -0.48506
v 0.02987 -2.09961 0.48506
v 0 -2.49902 0.44901
v 0.02987 -2.49902 0.48506
v 0 -2.09961 0.44901
v 0 -2.49902 -0.44901
v 0 -2.09961 -0.44901
v 0.02987 -2.49902 -0.48506
v 0.02987 -2.09961 -0.48506
v 0.02987 -2.49902 0.48506
v 0 -2.49902 0.44901
v 0 -2.49902 -0.44901
v 0.02987 -2.49902 -0.48506
v 0.10199 -2.49902 0.5
v 0.10199 -2.49902 -0.5
v 0.87301 -2.49902 0.5
v 0.87301 -2.49902 -0.5
v 0.94513 -2.49902 0.48506
v 0.94513 -2.49902 -0.48506
v 0.975 -2.49902 0.44901
v 0.975 -2.49902 -0.44901
v 0 -2.59863 -0.44901
v 0.02987 -2.59863 -0.48506
v 0.02987 -2.89844 -0.48506
v 0 -2.89844 -0.44901
v 0.04311 -2.95703 -0.47845
v 0.02987 -2.96973 -0.44901
v 0 -2.59863 0.44901
v 0.02987 -2.96973 0.44901
v 0 -2.89844 0.44901
v 0.02987 -2.59863 0.48506
v 0.04311 -2.95703 0.47845
v 0.02987 -2.89844 0.48506
v 0.10199 -2.59863 0.5
v 0.02987 -2.59863 0.48506
v 0.02987 -2.89844 0.48506
v 0.10199 -2.89844 0.5
v 0.04311 -2.95703 0.47845
v 0.10199 -2.96973 0.48506
v 0.87301 -2.59863 0.5
v 0.89801 -2.96973 0.48506
v 0.89801 -2.89844 0.5
v 0.94513 -2.59863 0.48506
v 0.95689 -2.95703 0.47845
v 0.97013 -2.89844 0.48506
v 0.87301 -2.59863 -0.5
v 0.94513 -2.59863 -0.48506
v 0.97013 -2.89844 -0.48506
v 0.89801 -2.89844 -0.5
v 0.95689 -2.95703 -0.47845
v 0.89801 -2.96973 -0.48506
v 0.10199 -2.59863 -0.5
v 0.10199 -2.96973 -0.48506
v 0.10199 -2.89844 -0.5
v 0.02987 -2.59863 -0.48506
v 0.04311 -2.95703 -0.47845
v 0.02987 -2.89844 -0.48506
v 0.97013 -2.89844 0.48506
v 0.975 -2.59863 0.44901
v 0.94513 -2.59863 0.48506
v 1 -2.89844 0.44901
v 0.95689 -2.95703 0.47845
v 0.97013 -2.96973 0.44901
v 0.975 -2.59863 -0.44901
v 0.97013 -2.96973 -0.44901
v 1 -2.89844 -0.44901
v 0.94513 -2.59863 -0.48506
v 0.95689 -2.95703 -0.47845
v 0.97013 -2.89844 -0.48506
v 0.02987 -2.59863 -0.48506
v 0 -2.59863 -0.44901
v 0 -2.59863 0.44901
v 0.02987 -2.59863 0.48506
v 0.10199 -2.59863 -0.5
v 0.10199 -2.59863 0.5
v 0.87301 -2.59863 -0.5
v 0.87301 -2.59863 0.5
v 0.94513 -2.59863 -0.48506
v 0.94513 -2.59863 0.48506
v 0.975 -2.59863 -0.44901
v 0.975 -2.59863 0.44901
v 0.89801 -3 -0.44901
v 0.95689 -2.95703 -0.47845
v 0.97013 -2.96973 -0.44901
v 0.89801 -2.96973 -0.48506
v 0.97013 -2.96973 0.44901
v 0.10199 -3 -0.44901
v 0.10199 -2.96973 -0.48506
v 0.04311 -2.95703 -0.47845
v 0.02987 -2.96973 -0.44901
v 0.10199 -3 0.44901
v 0.02987 -2.96973 0.44901
v 0.04311 -2.95703 0.47845
v 0.10199 -2.96973 0.48506
v 0.89801 -3 0.44901
v 0.95689 -2.95703 0.47845
v 0.89801 -2.96973 0.48506
v 0.79801 -1 0.44901
v 0.85689 -1.04297 0.47845
v 0.87013 -1.03027 0.44901
v 0.79801 -1.03027 0.48506
v 0.87013 -1.03027 -0.44901
v 0.10199 -1 0.44901
v 0.10199 -1.03027 0.48506
v 0.04311 -1.04297 0.47845
v 0.02987 -1.03027 0.44901
v 0.10199 -1 -0.44901
v 0.02987 -1.03027 -0.44901
v 0.04311 -1.04297 -0.47845
v 0.10199 -1.03027 -0.48506
v 0.79801 -1 -0.44901
v 0.85689 -1.04297 -0.47845
v 0.79801 -1.03027 -0.48506
v 0.56 -2.7002 0.08
v 0.56 -2.09961 -0.08
v 0.56 -1.94043 -0.08
v 0.56 -1.83984 0.08
v 0.56 -2.09961 -0.08
v 0.4 -2.09961 -0.08
v 0.4 -1.94043 -0.08
v 0.56 -1.94043 -0.08
v 0.4 -2.09961 -0.08
v 0.4 -2.7002 0.08
v 0.4 -1.83984 0.08
v 0.4 -1.94043 -0.08
v 0.4 -2.7002 0.08
v 0.56 -2.7002 0.08
v 0.56 -1.83984 0.08
v 0.4 -1.83984 0.08
v 0.56 -2.09961 -0.08
v 0.56 -2.7002 0.08
v 0.4 -2.7002 0.08
v 0.4 -2.09961 -0.08
v 0.4 -1.94043 -0.08
v 0.4 -1.83984 0.08
v 0.56 -1.83984 0.08
v 0.56 -1.94043 -0.08
vt 0.09576 0.85341
vt 0.09101 0.85341
vt 0.09431 0.90771
vt 0.09906 0.90771
vt 0.09518 0.91172
vt 0.09906 0.91262
vt 0.14496 0.85341
vt 0.14496 0.91262
vt 0.14496 0.90771
vt 0.14972 0.85341
vt 0.14885 0.91172
vt 0.14972 0.90771
vt 0.01207 0.90771
vt 0.01452 0.85341
vt 0.01207 0.85341
vt 0.01452 0.90771
vt 0.01252 0.91172
vt 0.01452 0.91262
vt 0.07562 0.85341
vt 0.07562 0.91262
vt 0.07562 0.90771
vt 0.07807 0.85341
vt 0.07762 0.91172
vt 0.07807 0.90771
vt 0.15936 0.90771
vt 0.16181 0.85341
vt 0.15936 0.85341
vt 0.16181 0.90771
vt 0.15981 0.91172
vt 0.16181 0.91262
vt 0.22291 0.85341
vt 0.22291 0.91262
vt 0.22291 0.90771
vt 0.22536 0.85341
vt 0.22491 0.91172
vt 0.22536 0.90771
vt 0.235 0.90771
vt 0.23976 0.85341
vt 0.235 0.85341
vt 0.23976 0.90771
vt 0.23587 0.91172
vt 0.23976 0.91262
vt 0.28896 0.85341
vt 0.28566 0.91262
vt 0.28566 0.90771
vt 0.29371 0.85341
vt 0.28954 0.91172
vt 0.29041 0.90771
vt 0.14972 0.77089
vt 0.15169 0.76844
vt 0.15169 0.70734
vt 0.14972 0.70489
vt 0.14496 0.77191
vt 0.14496 0.70387
vt 0.09576 0.77191
vt 0.09576 0.70387
vt 0.09101 0.77089
vt 0.09101 0.70489
vt 0.08904 0.76844
vt 0.08904 0.70734
vt 0.07807 0.81265
vt 0.07562 0.8398
vt 0.07807 0.8398
vt 0.07562 0.81265
vt 0.01452 0.8398
vt 0.01452 0.81265
vt 0.01207 0.8398
vt 0.01207 0.81265
vt 0.09411 0.81265
vt 0.08936 0.81265
vt 0.09101 0.8398
vt 0.09576 0.8398
vt 0.14496 0.81265
vt 0.14496 0.8398
vt 0.14972 0.81265
vt 0.14972 0.8398
vt 0.14993 0.98832
vt 0.15169 0.98587
vt 0.15169 0.92477
vt 0.14993 0.92232
vt 0.14568 0.98934
vt 0.14568 0.9213
vt 0.10172 0.98934
vt 0.10172 0.9213
vt 0.09747 0.98832
vt 0.09747 0.92232
vt 0.09571 0.98587
vt 0.09571 0.92477
vt 0.28896 0.8398
vt 0.29371 0.8398
vt 0.29536 0.81265
vt 0.29061 0.81265
vt 0.23976 0.8398
vt 0.23976 0.81265
vt 0.235 0.8398
vt 0.235 0.81265
vt 0.15936 0.8398
vt 0.16181 0.81265
vt 0.15936 0.81265
vt 0.16181 0.8398
vt 0.22291 0.81265
vt 0.22291 0.8398
vt 0.22536 0.81265
vt 0.22536 0.8398
vt 0.14972 0.77089
vt 0.15169 0.76844
vt 0.15169 0.70734
vt 0.14972 0.70489
vt 0.14496 0.77191
vt 0.14496 0.70387
vt 0.09411 0.77191
vt 0.09411 0.70387
vt 0.08936 0.77089
vt 0.08936 0.70489
vt 0.08739 0.76844
vt 0.08739 0.70734
vt 0.22291 0.80585
vt 0.22536 0.80585
vt 0.22536 0.7855
vt 0.22291 0.7855
vt 0.22491 0.78149
vt 0.22291 0.78059
vt 0.16181 0.80585
vt 0.16181 0.78059
vt 0.16181 0.7855
vt 0.15936 0.80585
vt 0.15981 0.78149
vt 0.15936 0.7855
vt 0.14496 0.80585
vt 0.14972 0.80585
vt 0.14972 0.7855
vt 0.14496 0.7855
vt 0.14885 0.78149
vt 0.14496 0.78059
vt 0.09411 0.80585
vt 0.09247 0.78059
vt 0.09247 0.7855
vt 0.08936 0.80585
vt 0.08858 0.78149
vt 0.08771 0.7855
vt 0.29061 0.80585
vt 0.29536 0.80585
vt 0.29701 0.7855
vt 0.29225 0.7855
vt 0.29614 0.78149
vt 0.29225 0.78059
vt 0.23976 0.80585
vt 0.23976 0.78059
vt 0.23976 0.7855
vt 0.235 0.80585
vt 0.23587 0.78149
vt 0.235 0.7855
vt 0.07807 0.7855
vt 0.07562 0.80585
vt 0.07807 0.80585
vt 0.07562 0.7855
vt 0.07762 0.78149
vt 0.07562 0.78059
vt 0.01452 0.80585
vt 0.01452 0.78059
vt 0.01452 0.7855
vt 0.01207 0.80585
vt 0.01252 0.78149
vt 0.01207 0.7855
vt 0.14993 0.98832
vt 0.15169 0.98587
vt 0.15169 0.92477
vt 0.14993 0.92232
vt 0.14568 0.98934
vt 0.14568 0.9213
vt 0.10024 0.98934
vt 0.10024 0.9213
vt 0.09599 0.98832
vt 0.09599 0.92232
vt 0.09423 0.98587
vt 0.09423 0.92477
vt 0.09247 0.70734
vt 0.08858 0.70534
vt 0.08771 0.70734
vt 0.09247 0.70489
vt 0.08771 0.76844
vt 0.14496 0.70734
vt 0.14496 0.70489
vt 0.14885 0.70534
vt 0.14972 0.70734
vt 0.14496 0.76844
vt 0.14972 0.76844
vt 0.14885 0.77044
vt 0.14496 0.77089
vt 0.09247 0.76844
vt 0.08858 0.77044
vt 0.09247 0.77089
vt 0.10466 0.92477
vt 0.10119 0.92277
vt 0.10041 0.92477
vt 0.10466 0.92232
vt 0.10041 0.98587
vt 0.14568 0.92477
vt 0.14568 0.92232
vt 0.14915 0.92277
vt 0.14993 0.92477
vt 0.14568 0.98587
vt 0.14993 0.98587
vt 0.14915 0.98787
vt 0.14568 0.98832
vt 0.10466 0.98587
vt 0.10119 0.98787
vt 0.10466 0.98832
vt 0.04786 0.78989
vt 0.03686 0.83112
vt 0.03686 0.84212
vt 0.04786 0.84899
vt 0.26295 0.83112
vt 0.25196 0.83112
vt 0.25196 0.84212
vt 0.26295 0.84212
vt 0.19217 0.83112
vt 0.18118 0.78989
vt 0.18118 0.84899
vt 0.19217 0.84212
vt 0.12139 0.78989
vt 0.11039 0.78989
vt 0.11039 0.84899
vt 0.12139 0.84899
vt 0.26295 0.83112
vt 0.26295 0.78989
vt 0.25196 0.78989
vt 0.25196 0.83112
vt 0.12139 0.95001
vt 0.12139 0.93902
vt 0.11039 0.93902
vt 0.11039 0.95001
vn 0.07738 -0.67945 0.72963
vn 0.39884 -0.62914 0.66716
vn 0.52395 0.13908 0.84031
vn 0.09327 0.09838 0.99077
vn 0.45027 0.45027 0.77104
vn 0.12328 0.53014 0.8389
vn -0.07427 -0.68487 0.72487
vn -0.12328 0.53014 0.8389
vn -0.09533 0.09533 0.99087
vn -0.39625 -0.63963 0.65867
vn -0.45027 0.45027 0.77104
vn -0.53014 0.12328 0.8389
vn 0.52395 0.13908 -0.84031
vn 0.74325 -0.61666 -0.25945
vn 0.41739 -0.62902 -0.65584
vn 0.92822 0.20243 -0.31215
vn 0.45027 0.45027 -0.77104
vn 0.67487 0.67487 -0.29848
vn 0.74029 -0.61668 0.26772
vn 0.67487 0.67487 0.29848
vn 0.92822 0.20243 0.31215
vn 0.39884 -0.62914 0.66716
vn 0.45027 0.45027 0.77104
vn 0.52395 0.13908 0.84031
vn -0.53014 0.12328 0.8389
vn -0.7243 -0.63815 0.26105
vn -0.39625 -0.63963 0.65867
vn -0.93429 0.17351 0.31145
vn -0.45027 0.45027 0.77104
vn -0.67487 0.67487 0.29848
vn -0.7243 -0.63815 -0.26105
vn -0.67487 0.67487 -0.29848
vn -0.93429 0.17351 -0.31145
vn -0.39625 -0.63963 -0.65867
vn -0.45027 0.45027 -0.77104
vn -0.53014 0.12328 -0.8389
vn -0.53014 0.12328 -0.8389
vn -0.07427 -0.68487 -0.72487
vn -0.39625 -0.63963 -0.65867
vn -0.09533 0.09533 -0.99087
vn -0.45027 0.45027 -0.77104
vn -0.12328 0.53014 -0.8389
vn 0.07738 -0.67945 -0.72963
vn 0.12328 0.53014 -0.8389
vn 0.09327 0.09838 -0.99077
vn 0.41739 -0.62902 -0.65584
vn 0.45027 0.45027 -0.77104
vn 0.52395 0.13908 -0.84031
vn -0.39625 -0.63963 0.65867
vn -0.7243 -0.63815 0.26105
vn -0.7243 -0.63815 -0.26105
vn -0.39625 -0.63963 -0.65867
vn -0.07427 -0.68487 0.72487
vn -0.07427 -0.68487 -0.72487
vn 0.07738 -0.67945 0.72963
vn 0.07738 -0.67945 -0.72963
vn 0.39884 -0.62914 0.66716
vn 0.41739 -0.62902 -0.65584
vn 0.74029 -0.61668 0.26772
vn 0.74325 -0.61666 -0.25945
vn 0.41916 -0.6185 0.66465
vn 0.70636 0.6608 0.25378
vn 0.39198 0.65331 0.64771
vn 0.74599 -0.61251 0.26138
vn 0.70829 0.65674 -0.25888
vn 0.74294 -0.61641 -0.26091
vn 0.39198 0.65331 -0.64771
vn 0.42247 -0.63004 -0.65159
vn 0.07077 -0.6828 0.72717
vn 0.41916 -0.6185 0.66465
vn 0.39198 0.65331 0.64771
vn 0.07176 0.68412 0.72583
vn -0.07427 -0.68487 0.72487
vn -0.07427 0.68487 0.72487
vn -0.39625 -0.63963 0.65867
vn -0.39625 0.63963 0.65867
vn -0.39625 0.63963 -0.65867
vn -0.7243 0.63815 -0.26105
vn -0.7243 0.63815 0.26105
vn -0.39625 0.63963 0.65867
vn -0.07427 0.68487 -0.72487
vn -0.07427 0.68487 0.72487
vn 0.06704 0.68729 -0.72328
vn 0.07176 0.68412 0.72583
vn 0.39198 0.65331 -0.64771
vn 0.39198 0.65331 0.64771
vn 0.70829 0.65674 -0.25888
vn 0.70636 0.6608 0.25378
vn 0.06704 0.68729 -0.72328
vn 0.39198 0.65331 -0.64771
vn 0.42247 -0.63004 -0.65159
vn 0.07737 -0.67879 -0.73025
vn -0.07427 0.68487 -0.72487
vn -0.07427 -0.68487 -0.72487
vn -0.39625 0.63963 -0.65867
vn -0.39625 -0.63963 -0.65867
vn -0.39625 0.63963 0.65867
vn -0.7243 -0.63815 0.26105
vn -0.39625 -0.63963 0.65867
vn -0.7243 0.63815 0.26105
vn -0.7243 -0.63815 -0.26105
vn -0.7243 0.63815 -0.26105
vn -0.39625 -0.63963 -0.65867
vn -0.39625 0.63963 -0.65867
vn -0.39625 -0.63963 0.65867
vn -0.7243 -0.63815 0.26105
vn -0.7243 -0.63815 -0.26105
vn -0.39625 -0.63963 -0.65867
vn -0.07427 -0.68487 0.72487
vn -0.07427 -0.68487 -0.72487
vn 0.07077 -0.6828 0.72717
vn 0.07737 -0.67879 -0.73025
vn 0.41916 -0.6185 0.66465
vn 0.42247 -0.63004 -0.65159
vn 0.74599 -0.61251 0.26138
vn 0.74294 -0.61641 -0.26091
vn -0.7243 0.63815 -0.26105
vn -0.39625 0.63963 -0.65867
vn -0.53014 -0.12328 -0.8389
vn -0.93429 -0.17351 -0.31145
vn -0.45027 -0.45027 -0.77104
vn -0.67487 -0.67487 -0.29848
vn -0.7243 0.63815 0.26105
vn -0.67487 -0.67487 0.29848
vn -0.93429 -0.17351 0.31145
vn -0.39625 0.63963 0.65867
vn -0.45027 -0.45027 0.77104
vn -0.53014 -0.12328 0.8389
vn -0.07427 0.68487 0.72487
vn -0.39625 0.63963 0.65867
vn -0.53014 -0.12328 0.8389
vn -0.09533 -0.09533 0.99087
vn -0.45027 -0.45027 0.77104
vn -0.12328 -0.53014 0.8389
vn 0.07264 0.68793 0.72213
vn 0.12328 -0.53014 0.8389
vn 0.09808 -0.09087 0.99102
vn 0.3849 0.64515 0.66002
vn 0.45027 -0.45027 0.77104
vn 0.53804 -0.10138 0.8368
vn 0.06758 0.68477 -0.72562
vn 0.37307 0.65637 -0.65574
vn 0.53804 -0.10138 -0.8368
vn 0.09808 -0.09087 -0.99102
vn 0.45027 -0.45027 -0.77104
vn 0.12328 -0.53014 -0.8389
vn -0.07427 0.68487 -0.72487
vn -0.12328 -0.53014 -0.8389
vn -0.09533 -0.09533 -0.99087
vn -0.39625 0.63963 -0.65867
vn -0.45027 -0.45027 -0.77104
vn -0.53014 -0.12328 -0.8389
vn 0.53804 -0.10138 0.8368
vn 0.70252 0.66327 0.25796
vn 0.3849 0.64515 0.66002
vn 0.94104 -0.13513 0.31015
vn 0.45027 -0.45027 0.77104
vn 0.67487 -0.67487 0.29848
vn 0.69567 0.66854 -0.26286
vn 0.67487 -0.67487 -0.29848
vn 0.94104 -0.13513 -0.31015
vn 0.37307 0.65637 -0.65574
vn 0.45027 -0.45027 -0.77104
vn 0.53804 -0.10138 -0.8368
vn -0.39625 0.63963 -0.65867
vn -0.7243 0.63815 -0.26105
vn -0.7243 0.63815 0.26105
vn -0.39625 0.63963 0.65867
vn -0.07427 0.68487 -0.72487
vn -0.07427 0.68487 0.72487
vn 0.06758 0.68477 -0.72562
vn 0.07264 0.68793 0.72213
vn 0.37307 0.65637 -0.65574
vn 0.3849 0.64515 0.66002
vn 0.69567 0.66854 -0.26286
vn 0.70252 0.66327 0.25796
vn 0.17351 -0.93429 -0.31145
vn 0.45027 -0.45027 -0.77104
vn 0.67487 -0.67487 -0.29848
vn 0.12328 -0.53014 -0.8389
vn 0.67487 -0.67487 0.29848
vn -0.17351 -0.93429 -0.31145
vn -0.12328 -0.53014 -0.8389
vn -0.45027 -0.45027 -0.77104
vn -0.67487 -0.67487 -0.29848
vn -0.17351 -0.93429 0.31145
vn -0.67487 -0.67487 0.29848
vn -0.45027 -0.45027 0.77104
vn -0.12328 -0.53014 0.8389
vn 0.17351 -0.93429 0.31145
vn 0.45027 -0.45027 0.77104
vn 0.12328 -0.53014 0.8389
vn 0.17351 0.93429 0.31145
vn 0.45027 0.45027 0.77104
vn 0.67487 0.67487 0.29848
vn 0.12328 0.53014 0.8389
vn 0.67487 0.67487 -0.29848
vn -0.17351 0.93429 0.31145
vn -0.12328 0.53014 0.8389
vn -0.45027 0.45027 0.77104
vn -0.67487 0.67487 0.29848
vn -0.17351 0.93429 -0.31145
vn -0.67487 0.67487 -0.29848
vn -0.45027 0.45027 -0.77104
vn -0.12328 0.53014 -0.8389
vn 0.17351 0.93429 -0.31145
vn 0.45027 0.45027 -0.77104
vn 0.12328 0.53014 -0.8389
vn 1 0 0
vn 1 0 0
vn 1 0 0
vn 1 0 0
vn 0 0 -1
vn 0 0 -1
vn 0 0 -1
vn 0 0 -1
vn -1 0 0
vn -1 0 0
vn -1 0 0
vn -1 0 0
vn 0 0 1
vn 0 0 1
vn 0 0 1
vn 0 0 1
vn 0 -0.25766 -0.96624
vn 0 -0.25766 -0.96624
vn 0 -0.25766 -0.96624
vn 0 -0.25766 -0.96624
vn 0 0.848 -0.53
vn 0 0.848 -0.53
vn 0 0.848 -0.53
vn 0 0.848 -0.53
usemtl skin
f 1/1/1 2/2/2 3/3/3
f 1/1/1 3/3/3 4/4/4
f 4/4/4 3/3/3 5/5/5
f 4/4/4 5/5/5 6/6/6
f 7/7/7 1/1/1 4/4/4
f 8/8/8 4/4/4 6/6/6
f 7/7/7 4/4/4 9/9/9
f 8/8/8 9/9/9 4/4/4
f 9/9/9 10/10/10 7/7/7
f 9/9/9 8/8/8 11/11/11
f 9/9/9 12/12/12 10/10/10
f 9/9/9 11/11/11 12/12/12
f 13/13/13 14/14/14 15/15/15
f 13/13/13 16/16/16 14/14/14
f 16/16/16 13/13/13 17/17/17
f 16/16/16 17/17/17 18/18/18
f 19/19/19 14/14/14 16/16/16
f 20/20/20 16/16/16 18/18/18
f 19/19/19 16/16/16 21/21/21
f 20/20/20 21/21/21 16/16/16
f 22/22/22 19/19/19 21/21/21
f 21/21/21 20/20/20 23/23/23
f 22/22/22 21/21/21 24/24/24
f 21/21/21 23/23/23 24/24/24
f 25/25/25 26/26/26 27/27/27
f 25/25/25 28/28/28 26/26/26
f 28/28/28 25/25/25 29/29/29
f 28/28/28 29/29/29 30/30/30
f 31/31/31 26/26/26 28/28/28
f 32/32/32 28/28/28 30/30/30
f 31/31/31 28/28/28 33/33/33
f 32/32/32 33/33/33 28/28/28
f 33/33/33 34/34/34 31/31/31
f 33/33/33 32/32/32 35/35/35
f 33/33/33 36/36/36 34/34/34
f 33/33/33 35/35/35 36/36/36
f 37/37/37 38/38/38 39/39/39
f 37/37/37 40/40/40 38/38/38
f 40/40/40 37/37/37 41/41/41
f 40/40/40 41/41/41 42/42/42
f 43/43/43 38/38/38 40/40/40
f 44/44/44 40/40/40 42/42/42
f 43/43/43 40/40/40 45/45/45
f 44/44/44 45/45/45 40/40/40
f 45/45/45 46/46/46 43/43/43
f 45/45/45 44/44/44 47/47/47
f 45/45/45 48/48/48 46/46/46
f 45/45/45 47/47/47 48/48/48
f 49/49/49 50/50/50 51/51/51
f 51/51/51 52/52/52 49/49/49
f 52/52/52 53/53/53 49/49/49
f 52/52/52 54/54/54 53/53/53
f 54/54/54 55/55/55 53/53/53
f 54/54/54 56/56/56 55/55/55
f 56/56/56 57/57/57 55/55/55
f 56/56/56 58/58/58 57/57/57
f 58/58/58 59/59/59 57/57/57
f 58/58/58 60/60/60 59/59/59
f 61/61/61 62/62/62 63/63/63
f 61/61/61 64/64/64 62/62/62
f 64/64/64 65/65/65 62/62/62
f 64/64/64 66/66/66 65/65/65
f 67/67/67 65/65/65 66/66/66
f 67/67/67 66/66/66 68/68/68
f 69/69/69 70/70/70 71/71/71
f 69/69/69 71/71/71 72/72/72
f 73/73/73 69/69/69 72/72/72
f 73/73/73 72/72/72 74/74/74
f 74/74/74 75/75/75 73/73/73
f 74/74/74 76/76/76 75/75/75
f 77/77/77 78/78/78 79/79/79
f 79/79/79 80/80/80 77/77/77
f 80/80/80 81/81/81 77/77/77
f 80/80/80 82/82/82 81/81/81
f 82/82/82 83/83/83 81/81/81
f 82/82/82 84/84/84 83/83/83
f 84/84/84 85/85/85 83/83/83
f 84/84/84 86/86/86 85/85/85
f 86/86/86 87/87/87 85/85/85
f 86/86/86 88/88/88 87/87/87
f 89/89/89 90/90/90 91/91/91
f 89/89/89 91/91/91 92/92/92
f 92/92/92 93/93/93 89/89/89
f 92/92/92 94/94/94 93/93/93
f 95/95/95 93/93/93 94/94/94
f 95/95/95 94/94/94 96/96/96
f 97/97/97 98/98/98 99/99/99
f 97/97/97 100/100/100 98/98/98
f 101/101/101 98/98/98 100/100/100
f 101/101/101 100/100/100 102/102/102
f 102/102/102 103/103/103 101/101/101
f 102/102/102 104/104/104 103/103/103
f 105/105/105 106/106/106 107/107/107
f 107/107/107 108/108/108 105/105/105
f 108/108/108 109/109/109 105/105/105
f 108/108/108 110/110/110 109/109/109
f 110/110/110 111/111/111 109/109/109
f 110/110/110 112/112/112 111/111/111
f 112/112/112 113/113/113 111/111/111
f 112/112/112 114/114/114 113/113/113
f 114/114/114 115/115/115 113/113/113
f 114/114/114 116/116/116 115/115/115
f 117/117/117 118/118/118 119/119/119
f 117/117/117 119/119/119 120/120/120
f 120/120/120 119/119/119 121/121/121
f 120/120/120 121/121/121 122/122/122
f 120/120/120 123/123/123 117/117/117
f 124/124/124 120/120/120 122/122/122
f 120/120/120 125/125/125 123/123/123
f 124/124/124 125/125/125 120/120/120
f 126/126/126 123/123/123 125/125/125
f 125/125/125 124/124/124 127/127/127
f 126/126/126 125/125/125 128/128/128
f 125/125/125 127/127/127 128/128/128
f 129/129/129 130/130/130 131/131/131
f 129/129/129 131/131/131 132/132/132
f 132/132/132 131/131/131 133/133/133
f 132/132/132 133/133/133 134/134/134
f 132/132/132 135/135/135 129/129/129
f 136/136/136 132/132/132 134/134/134
f 132/132/132 137/137/137 135/135/135
f 136/136/136 137/137/137 132/132/132
f 137/137/137 138/138/138 135/135/135
f 137/137/137 136/136/136 139/139/139
f 137/137/137 140/140/140 138/138/138
f 137/137/137 139/139/139 140/140/140
f 141/141/141 142/142/142 143/143/143
f 141/141/141 143/143/143 144/144/144
f 144/144/144 143/143/143 145/145/145
f 144/144/144 145/145/145 146/146/146
f 144/144/144 147/147/147 141/141/141
f 148/148/148 144/144/144 146/146/146
f 144/144/144 149/149/149 147/147/147
f 148/148/148 149/149/149 144/144/144
f 150/150/150 147/147/147 149/149/149
f 149/149/149 148/148/148 151/151/151
f 150/150/150 149/149/149 152/152/152
f 149/149/149 151/151/151 152/152/152
f 153/153/153 154/154/154 155/155/155
f 153/153/153 156/156/156 154/154/154
f 156/156/156 153/153/153 157/157/157
f 156/156/156 157/157/157 158/158/158
f 156/156/156 159/159/159 154/154/154
f 160/160/160 156/156/156 158/158/158
f 156/156/156 161/161/161 159/159/159
f 160/160/160 161/161/161 156/156/156
f 162/162/162 159/159/159 161/161/161
f 161/161/161 160/160/160 163/163/163
f 162/162/162 161/161/161 164/164/164
f 161/161/161 163/163/163 164/164/164
f 165/165/165 166/166/166 167/167/167
f 167/167/167 168/168/168 165/165/165
f 168/168/168 169/169/169 165/165/165
f 168/168/168 170/170/170 169/169/169
f 170/170/170 171/171/171 169/169/169
f 170/170/170 172/172/172 171/171/171
f 172/172/172 173/173/173 171/171/171
f 172/172/172 174/174/174 173/173/173
f 174/174/174 175/175/175 173/173/173
f 174/174/174 176/176/176 175/175/175
f 177/177/177 178/178/178 179/179/179
f 177/177/177 180/180/180 178/178/178
f 177/177/177 179/179/179 181/181/181
f 182/182/182 180/180/180 177/177/177
f 182/182/182 183/183/183 180/180/180
f 182/182/182 184/184/184 183/183/183
f 182/182/182 185/185/185 184/184/184
f 186/186/186 185/185/185 182/182/182
f 177/177/177 186/186/186 182/182/182
f 186/186/186 187/187/187 185/185/185
f 186/186/186 188/188/188 187/187/187
f 186/186/186 189/189/189 188/188/188
f 177/177/177 181/181/181 190/190/190
f 177/177/177 190/190/190 186/186/186
f 190/190/190 189/189/189 186/186/186
f 190/190/190 181/181/181 191/191/191
f 190/190/190 192/192/192 189/189/189
f 190/190/190 191/191/191 192/192/192
f 193/193/193 194/194/194 195/195/195
f 193/193/193 196/196/196 194/194/194
f 193/193/193 195/195/195 197/197/197
f 198/198/198 196/196/196 193/193/193
f 198/198/198 199/199/199 196/196/196
f 198/198/198 200/200/200 199/199/199
f 198/198/198 201/201/201 200/200/200
f 202/202/202 201/201/201 198/198/198
f 202/202/202 198/198/198 193/193/193
f 202/202/202 203/203/203 201/201/201
f 202/202/202 204/204/204 203/203/203
f 202/202/202 205/205/205 204/204/204
f 193/193/193 197/197/197 206/206/206
f 202/202/202 193/193/193 206/206/206
f 206/206/206 205/205/205 202/202/202
f 206/206/206 197/197/197 207/207/207
f 206/206/206 208/208/208 205/205/205
f 206/206/206 207/207/207 208/208/208
usemtl metal
f 209/209/209 210/210/210 211/211/211
f 209/209/209 211/211/211 212/212/212
f 213/213/213 214/214/214 215/215/215
f 213/213/213 215/215/215 216/216/216
f 217/217/217 218/218/218 219/219/219
f 217/217/217 219/219/219 220/220/220
f 221/221/221 222/222/222 223/223/223
f 221/221/221 223/223/223 224/224/224
f 225/225/225 226/226/226 227/227/227
f 225/225/225 227/227/227 228/228/228
f 229/229/229 230/230/230 231/231/231
f 229/229/229 231/231/231 232/232/232
