# Exported from the Unity project (studs, +Y up, character faces +Z). y[-0.99,0.99]
v -0.78929 -0.21875 -0.39003
v -0.76572 -0.21875 -0.42938
v -0.7858 -0.90234 -0.43656
v -0.81 -0.90234 -0.4041
v -0.77508 -0.95508 -0.4306
v -0.7858 -0.9668 -0.4041
v -0.78929 -0.21875 0.39003
v -0.7858 -0.9668 0.40411
v -0.81 -0.90234 0.40411
v -0.76572 -0.21875 0.42938
v -0.77508 -0.95508 0.4306
v -0.7858 -0.90234 0.43656
v 0.72739 -0.01172 0.494
v 0.7858 -0.01172 0.47626
v 0.7858 0.90234 0.57626
v 0.72739 0.90234 0.594
v 0.77508 0.95508 0.5684
v 0.72739 0.9668 0.57626
v -0.72739 -0.01172 0.494
v -0.72739 0.9668 0.57626
v -0.72739 0.90234 0.594
v -0.7858 -0.01172 0.47626
v -0.77508 0.95508 0.5684
v -0.7858 0.90234 0.57626
v -0.70879 -0.21875 0.44568
v -0.76572 -0.21875 0.42938
v -0.7858 -0.90234 0.43656
v -0.72739 -0.90234 0.45
v -0.77508 -0.95508 0.4306
v -0.72739 -0.9668 0.43656
v 0.70879 -0.21875 0.44568
v 0.72739 -0.9668 0.43656
v 0.72739 -0.90234 0.45
v 0.76572 -0.21875 0.42938
v 0.77508 -0.95508 0.4306
v 0.7858 -0.90234 0.43656
v 0.70879 -0.21875 -0.44568
v 0.76572 -0.21875 -0.42938
v 0.7858 -0.90234 -0.43656
v 0.72739 -0.90234 -0.45
v 0.77508 -0.95508 -0.4306
v 0.72739 -0.9668 -0.43656
v -0.70879 -0.21875 -0.44568
v -0.72739 -0.9668 -0.43656
v -0.72739 -0.90234 -0.45
v -0.76572 -0.21875 -0.42938
v -0.77508 -0.95508 -0.4306
v -0.7858 -0.90234 -0.43656
v 0.7858 0.90234 -0.57626
v 0.81 -0.01172 -0.43342
v 0.7858 -0.01172 -0.47626
v 0.81 0.90234 -0.53342
v 0.77508 0.95508 -0.5684
v 0.7858 0.9668 -0.53342
v 0.81 -0.01172 0.43342
v 0.7858 0.9668 0.53342
v 0.81 0.90234 0.53342
v 0.7858 -0.01172 0.47626
v 0.77508 0.95508 0.5684
v 0.7858 0.90234 0.57626
v -0.7858 0.90234 0.57626
v -0.81 -0.01172 0.43342
v -0.7858 -0.01172 0.47626
v -0.81 0.90234 0.53342
v -0.77508 0.95508 0.5684
v -0.7858 0.9668 0.53342
v -0.81 -0.01172 -0.43342
v -0.7858 0.9668 -0.53342
v -0.81 0.90234 -0.53342
v -0.7858 -0.01172 -0.47626
v -0.77508 0.95508 -0.5684
v -0.7858 0.90234 -0.57626
v -0.7858 0.90234 -0.57626
v -0.72739 -0.01172 -0.494
v -0.7858 -0.01172 -0.47626
v -0.72739 0.90234 -0.594
v -0.77508 0.95508 -0.5684
v -0.72739 0.9668 -0.57626
v 0.72739 -0.01172 -0.494
v 0.72739 0.9668 -0.57626
v 0.72739 0.90234 -0.594
v 0.7858 -0.01172 -0.47626
v 0.77508 0.95508 -0.5684
v 0.7858 0.90234 -0.57626
v 0.7858 -0.90234 0.43656
v 0.78929 -0.21875 0.39003
v 0.76572 -0.21875 0.42938
v 0.81 -0.90234 0.40411
v 0.77508 -0.95508 0.4306
v 0.7858 -0.9668 0.40411
v 0.78929 -0.21875 -0.39003
v 0.7858 -0.9668 -0.4041
v 0.81 -0.90234 -0.4041
v 0.76572 -0.21875 -0.42938
v 0.77508 -0.95508 -0.4306
v 0.7858 -0.90234 -0.43656
v -0.76572 -0.21875 -0.42938
v -0.78929 -0.21875 -0.39003
v -0.78929 -0.21875 0.39003
v -0.76572 -0.21875 0.42938
v -0.70879 -0.21875 -0.44568
v -0.70879 -0.21875 0.44568
v 0.70879 -0.21875 -0.44568
v 0.70879 -0.21875 0.44568
v 0.76572 -0.21875 -0.42938
v 0.76572 -0.21875 0.42938
v 0.78929 -0.21875 -0.39003
v 0.78929 -0.21875 0.39003
v -0.7858 -0.01172 0.47626
v -0.81 -0.01172 0.43342
v -0.81 -0.01172 -0.43342
v -0.7858 -0.01172 -0.47626
v -0.72739 -0.01172 0.494
v -0.72739 -0.01172 -0.494
v 0.72739 -0.01172 0.494
v 0.72739 -0.01172 -0.494
v 0.7858 -0.01172 0.47626
v 0.7858 -0.01172 -0.47626
v 0.81 -0.01172 0.43342
v 0.81 -0.01172 -0.43342
v 0.72739 0.99414 0.53342
v 0.77508 0.95508 0.5684
v 0.7858 0.9668 0.53342
v 0.72739 0.9668 0.57626
v 0.7858 0.9668 -0.53342
v -0.72739 0.99414 0.53342
v -0.72739 0.9668 0.57626
v -0.77508 0.95508 0.5684
v -0.7858 0.9668 0.53342
v -0.72739 0.99414 -0.53342
v -0.7858 0.9668 -0.53342
v -0.77508 0.95508 -0.5684
v -0.72739 0.9668 -0.57626
v 0.72739 0.99414 -0.53342
v 0.77508 0.95508 -0.5684
v 0.72739 0.9668 -0.57626
v 0.72739 -0.99414 -0.4041
v 0.77508 -0.95508 -0.4306
v 0.7858 -0.9668 -0.4041
v 0.72739 -0.9668 -0.43656
v 0.7858 -0.9668 0.40411
v -0.72739 -0.99414 -0.4041
v -0.72739 -0.9668 -0.43656
v -0.77508 -0.95508 -0.4306
v -0.7858 -0.9668 -0.4041
v -0.72739 -0.99414 0.40411
v -0.7858 -0.9668 0.40411
v -0.77508 -0.95508 0.4306
v -0.72739 -0.9668 0.43656
v 0.72739 -0.99414 0.40411
v 0.77508 -0.95508 0.4306
v 0.72739 -0.9668 0.43656
v 0.08 -0.7002 0.08
v 0.08 -0.09961 -0.08
v 0.08 0.05957 -0.08
v 0.08 0.16016 0.08
v 0.08 -0.09961 -0.08
v -0.08 -0.09961 -0.08
v -0.08 0.05957 -0.08
v 0.08 0.05957 -0.08
v -0.08 -0.09961 -0.08
v -0.08 -0.7002 0.08
v -0.08 0.16016 0.08
v -0.08 0.05957 -0.08
v -0.08 -0.7002 0.08
v 0.08 -0.7002 0.08
v 0.08 0.16016 0.08
v -0.08 0.16016 0.08
v 0.08 -0.09961 -0.08
v 0.08 -0.7002 0.08
v -0.08 -0.7002 0.08
v -0.08 -0.09961 -0.08
v -0.08 0.05957 -0.08
v -0.08 0.16016 0.08
v 0.08 0.16016 0.08
v 0.08 0.05957 -0.08
vt 0.78191 0.15161
vt 0.78459 0.15161
vt 0.78508 0.10497
vt 0.78287 0.10497
vt 0.78467 0.10136
vt 0.78287 0.10054
vt 0.72883 0.15161
vt 0.72787 0.10054
vt 0.72787 0.10497
vt 0.72615 0.15161
vt 0.72607 0.10136
vt 0.72566 0.10497
vt 0.60389 0.16578
vt 0.59992 0.16578
vt 0.59992 0.22816
vt 0.60389 0.22816
vt 0.60065 0.23177
vt 0.60389 0.23259
vt 0.70288 0.16578
vt 0.70288 0.23259
vt 0.70288 0.22816
vt 0.70685 0.16578
vt 0.70612 0.23177
vt 0.70685 0.22816
vt 0.70161 0.15161
vt 0.70549 0.15161
vt 0.70685 0.10497
vt 0.70288 0.10497
vt 0.70612 0.10136
vt 0.70288 0.10054
vt 0.60516 0.15161
vt 0.60389 0.10054
vt 0.60389 0.10497
vt 0.60128 0.15161
vt 0.60065 0.10136
vt 0.59992 0.10497
vt 0.90558 0.15161
vt 0.90946 0.15161
vt 0.91082 0.10497
vt 0.90685 0.10497
vt 0.91009 0.10136
vt 0.90685 0.10054
vt 0.80913 0.15161
vt 0.80786 0.10054
vt 0.80786 0.10497
vt 0.80525 0.15161
vt 0.80462 0.10136
vt 0.80389 0.10497
vt 0.5122 0.22816
vt 0.52192 0.16578
vt 0.519 0.16578
vt 0.51511 0.22816
vt 0.51273 0.23177
vt 0.51511 0.23259
vt 0.58089 0.16578
vt 0.5877 0.23259
vt 0.5877 0.22816
vt 0.58381 0.16578
vt 0.59008 0.23177
vt 0.59061 0.22816
vt 0.71616 0.22816
vt 0.72588 0.16578
vt 0.72296 0.16578
vt 0.71907 0.22816
vt 0.71669 0.23177
vt 0.71907 0.23259
vt 0.78486 0.16578
vt 0.79167 0.23259
vt 0.79167 0.22816
vt 0.78778 0.16578
vt 0.79405 0.23177
vt 0.79458 0.22816
vt 0.80389 0.22816
vt 0.80786 0.16578
vt 0.80389 0.16578
vt 0.80786 0.22816
vt 0.80462 0.23177
vt 0.80786 0.23259
vt 0.90685 0.16578
vt 0.90685 0.23259
vt 0.90685 0.22816
vt 0.91082 0.16578
vt 0.91009 0.23177
vt 0.91082 0.22816
vt 0.58111 0.10497
vt 0.57794 0.15161
vt 0.58062 0.15161
vt 0.5789 0.10497
vt 0.5807 0.10136
vt 0.5789 0.10054
vt 0.52487 0.15161
vt 0.52391 0.10054
vt 0.52391 0.10497
vt 0.52219 0.15161
vt 0.52211 0.10136
vt 0.5217 0.10497
vt 0.70549 0.31068
vt 0.70709 0.308
vt 0.70709 0.25492
vt 0.70549 0.25224
vt 0.70161 0.31179
vt 0.70161 0.25113
vt 0.60516 0.31179
vt 0.60516 0.25113
vt 0.60128 0.31068
vt 0.60128 0.25224
vt 0.59968 0.308
vt 0.59968 0.25492
vt 0.70685 0.07621
vt 0.7085 0.074
vt 0.7085 0.02932
vt 0.70685 0.02711
vt 0.70288 0.07713
vt 0.70288 0.02619
vt 0.60389 0.07713
vt 0.60389 0.02619
vt 0.59992 0.07621
vt 0.59992 0.02711
vt 0.59827 0.074
vt 0.59827 0.02932
vt 0.60389 0.24516
vt 0.60065 0.24278
vt 0.59992 0.24516
vt 0.60389 0.24225
vt 0.59992 0.31776
vt 0.70288 0.24516
vt 0.70288 0.24225
vt 0.70612 0.24278
vt 0.70685 0.24516
vt 0.70288 0.31776
vt 0.70685 0.31776
vt 0.70612 0.32014
vt 0.70288 0.32067
vt 0.60389 0.31776
vt 0.60065 0.32014
vt 0.60389 0.32067
vt 0.60389 0.03083
vt 0.60065 0.02946
vt 0.59992 0.03083
vt 0.60389 0.02916
vt 0.59992 0.07249
vt 0.70288 0.03083
vt 0.70288 0.02916
vt 0.70612 0.02946
vt 0.70685 0.03083
vt 0.70288 0.07249
vt 0.70685 0.07249
vt 0.70612 0.07386
vt 0.70288 0.07416
vt 0.60389 0.07249
vt 0.60065 0.07386
vt 0.60389 0.07416
vt 0.54395 0.11329
vt 0.53296 0.15452
vt 0.53296 0.16552
vt 0.54395 0.17239
vt 0.84372 0.15452
vt 0.83272 0.15452
vt 0.83272 0.16552
vt 0.84372 0.16552
vt 0.74379 0.15452
vt 0.7328 0.11329
vt 0.7328 0.17239
vt 0.74379 0.16552
vt 0.64387 0.11329
vt 0.63288 0.11329
vt 0.63288 0.17239
vt 0.64387 0.17239
vt 0.84372 0.15452
vt 0.84372 0.11329
vt 0.83272 0.11329
vt 0.83272 0.15452
vt 0.64387 0.27947
vt 0.64387 0.26847
vt 0.63288 0.26847
vt 0.63288 0.27947
vn -0.63768 0.72752 -0.25313
vn -0.38887 0.55528 -0.73515
vn -0.57782 -0.10547 -0.80932
vn -0.94987 -0.1419 -0.2786
vn -0.48322 -0.43925 -0.75733
vn -0.69853 -0.65514 -0.28783
vn -0.7085 0.69654 0.11338
vn -0.69853 -0.65514 0.28783
vn -0.94987 -0.1419 0.2786
vn -0.53865 0.66497 0.51737
vn -0.48322 -0.43925 0.75733
vn -0.57782 -0.10547 0.80932
vn 0.10971 -0.66237 0.7411
vn 0.40719 -0.67747 0.61256
vn 0.62523 0.0936 0.77481
vn 0.13661 0.07022 0.98813
vn 0.53893 0.49298 0.68302
vn 0.15673 0.60113 0.78363
vn -0.10971 -0.66237 0.7411
vn -0.15673 0.60113 0.78363
vn -0.13661 0.07022 0.98813
vn -0.52782 -0.67608 0.51413
vn -0.53893 0.49298 0.68302
vn -0.62523 0.09361 0.77481
vn -0.0573 0.77612 0.62798
vn -0.53865 0.66497 0.51737
vn -0.57782 -0.10547 0.80932
vn -0.1132 -0.08986 0.9895
vn -0.48322 -0.43925 0.75733
vn -0.13611 -0.53013 0.83692
vn -0.04464 0.65115 0.75764
vn 0.13611 -0.53013 0.83692
vn 0.1132 -0.08986 0.9895
vn 0.33026 0.73266 0.59509
vn 0.48322 -0.43925 0.75733
vn 0.57782 -0.10547 0.80932
vn 0.0573 0.77612 -0.62798
vn 0.53865 0.66497 -0.51737
vn 0.57782 -0.10547 -0.80932
vn 0.1132 -0.08986 -0.9895
vn 0.48322 -0.43925 -0.75733
vn 0.13611 -0.53013 -0.83692
vn 0.04464 0.65115 -0.75764
vn -0.13611 -0.53013 -0.83692
vn -0.1132 -0.08986 -0.9895
vn -0.38887 0.55528 -0.73515
vn -0.48322 -0.43925 -0.75733
vn -0.57782 -0.10547 -0.80932
vn 0.62523 0.09361 -0.77481
vn 0.73443 -0.6709 -0.10247
vn 0.52782 -0.67608 -0.51413
vn 0.95876 0.14677 -0.24338
vn 0.53893 0.49298 -0.68302
vn 0.70939 0.6649 -0.23383
vn 0.69773 -0.67223 0.24757
vn 0.70939 0.6649 0.23383
vn 0.95876 0.14677 0.24338
vn 0.40719 -0.67747 0.61256
vn 0.53893 0.49298 0.68302
vn 0.62523 0.0936 0.77481
vn -0.62523 0.09361 0.77481
vn -0.73443 -0.6709 0.10247
vn -0.52782 -0.67608 0.51413
vn -0.95876 0.14677 0.24338
vn -0.53893 0.49298 0.68302
vn -0.70939 0.6649 0.23383
vn -0.77049 -0.60551 -0.19925
vn -0.70939 0.6649 -0.23383
vn -0.95876 0.14677 -0.24338
vn -0.40719 -0.67747 -0.61256
vn -0.53893 0.49298 -0.68302
vn -0.62523 0.0936 -0.77481
vn -0.62523 0.0936 -0.77481
vn -0.03255 -0.7177 -0.69559
vn -0.40719 -0.67747 -0.61256
vn -0.13661 0.07022 -0.98813
vn -0.53893 0.49298 -0.68302
vn -0.15673 0.60113 -0.78363
vn 0.10971 -0.66237 -0.7411
vn 0.15673 0.60113 -0.78363
vn 0.13661 0.07022 -0.98813
vn 0.52782 -0.67608 -0.51413
vn 0.53893 0.49298 -0.68302
vn 0.62523 0.09361 -0.77481
vn 0.57782 -0.10547 0.80932
vn 0.63768 0.72752 0.25313
vn 0.33026 0.73266 0.59509
vn 0.94987 -0.1419 0.2786
vn 0.48322 -0.43925 0.75733
vn 0.69853 -0.65514 0.28783
vn 0.7085 0.69654 -0.11338
vn 0.69853 -0.65514 -0.28783
vn 0.94987 -0.1419 -0.2786
vn 0.53865 0.66497 -0.51737
vn 0.48322 -0.43925 -0.75733
vn 0.57782 -0.10547 -0.80932
vn -0.38887 0.55528 -0.73515
vn -0.63768 0.72752 -0.25313
vn -0.7085 0.69654 0.11338
vn -0.53865 0.66497 0.51737
vn 0.04464 0.65115 -0.75764
vn -0.0573 0.77612 0.62798
vn 0.0573 0.77612 -0.62798
vn -0.04464 0.65115 0.75764
vn 0.53865 0.66497 -0.51737
vn 0.33026 0.73266 0.59509
vn 0.7085 0.69654 -0.11338
vn 0.63768 0.72752 0.25313
vn -0.52782 -0.67608 0.51413
vn -0.73443 -0.6709 0.10247
vn -0.77049 -0.60551 -0.19925
vn -0.40719 -0.67747 -0.61256
vn -0.10971 -0.66237 0.7411
vn -0.03255 -0.7177 -0.69559
vn 0.10971 -0.66237 0.7411
vn 0.10971 -0.66237 -0.7411
vn 0.40719 -0.67747 0.61256
vn 0.52782 -0.67608 -0.51413
vn 0.69773 -0.67223 0.24757
vn 0.73443 -0.6709 -0.10247
vn 0.19317 0.94802 0.25286
vn 0.53893 0.49298 0.68302
vn 0.70939 0.6649 0.23383
vn 0.15673 0.60113 0.78363
vn 0.70939 0.6649 -0.23383
vn -0.19317 0.94802 0.25286
vn -0.15673 0.60113 0.78363
vn -0.53893 0.49298 0.68302
vn -0.70939 0.6649 0.23383
vn -0.19317 0.94802 -0.25286
vn -0.70939 0.6649 -0.23383
vn -0.53893 0.49298 -0.68302
vn -0.15673 0.60113 -0.78363
vn 0.19317 0.94802 -0.25286
vn 0.53893 0.49298 -0.68302
vn 0.15673 0.60113 -0.78363
vn 0.19013 -0.93152 -0.31002
vn 0.48322 -0.43925 -0.75733
vn 0.69853 -0.65514 -0.28783
vn 0.13611 -0.53013 -0.83692
vn 0.69853 -0.65514 0.28783
vn -0.19013 -0.93152 -0.31002
vn -0.13611 -0.53013 -0.83692
vn -0.48322 -0.43925 -0.75733
vn -0.69853 -0.65514 -0.28783
vn -0.19013 -0.93152 0.31002
vn -0.69853 -0.65514 0.28783
vn -0.48322 -0.43925 0.75733
vn -0.13611 -0.53013 0.83692
vn 0.19013 -0.93152 0.31002
vn 0.48322 -0.43925 0.75733
vn 0.13611 -0.53013 0.83692
vn 1 0 0
vn 1 0 0
vn 1 0 0
vn 1 0 0
vn 0 0 -1
vn 0 0 -1
vn 0 0 -1
vn 0 0 -1
vn -1 0 0
vn -1 0 0
vn -1 0 0
vn -1 0 0
vn 0 0 1
vn 0 0 1
vn 0 0 1
vn 0 0 1
vn 0 -0.25766 -0.96624
vn 0 -0.25766 -0.96624
vn 0 -0.25766 -0.96624
vn 0 -0.25766 -0.96624
vn 0 0.848 -0.53
vn 0 0.848 -0.53
vn 0 0.848 -0.53
vn 0 0.848 -0.53
usemtl skin
f 1/1/1 2/2/2 3/3/3
f 1/1/1 3/3/3 4/4/4
f 4/4/4 3/3/3 5/5/5
f 4/4/4 5/5/5 6/6/6
f 4/4/4 7/7/7 1/1/1
f 8/8/8 4/4/4 6/6/6
f 4/4/4 9/9/9 7/7/7
f 8/8/8 9/9/9 4/4/4
f 10/10/10 7/7/7 9/9/9
f 9/9/9 8/8/8 11/11/11
f 10/10/10 9/9/9 12/12/12
f 9/9/9 11/11/11 12/12/12
f 13/13/13 14/14/14 15/15/15
f 13/13/13 15/15/15 16/16/16
f 16/16/16 15/15/15 17/17/17
f 16/16/16 17/17/17 18/18/18
f 19/19/19 13/13/13 16/16/16
f 20/20/20 16/16/16 18/18/18
f 19/19/19 16/16/16 21/21/21
f 20/20/20 21/21/21 16/16/16
f 21/21/21 22/22/22 19/19/19
f 21/21/21 20/20/20 23/23/23
f 21/21/21 24/24/24 22/22/22
f 21/21/21 23/23/23 24/24/24
f 25/25/25 26/26/26 27/27/27
f 25/25/25 27/27/27 28/28/28
f 28/28/28 27/27/27 29/29/29
f 28/28/28 29/29/29 30/30/30
f 28/28/28 31/31/31 25/25/25
f 32/32/32 28/28/28 30/30/30
f 28/28/28 33/33/33 31/31/31
f 32/32/32 33/33/33 28/28/28
f 33/33/33 34/34/34 31/31/31
f 33/33/33 32/32/32 35/35/35
f 33/33/33 36/36/36 34/34/34
f 33/33/33 35/35/35 36/36/36
f 37/37/37 38/38/38 39/39/39
f 37/37/37 39/39/39 40/40/40
f 40/40/40 39/39/39 41/41/41
f 40/40/40 41/41/41 42/42/42
f 40/40/40 43/43/43 37/37/37
f 44/44/44 40/40/40 42/42/42
f 40/40/40 45/45/45 43/43/43
f 44/44/44 45/45/45 40/40/40
f 46/46/46 43/43/43 45/45/45
f 45/45/45 44/44/44 47/47/47
f 46/46/46 45/45/45 48/48/48
f 45/45/45 47/47/47 48/48/48
f 49/49/49 50/50/50 51/51/51
f 49/49/49 52/52/52 50/50/50
f 52/52/52 49/49/49 53/53/53
f 52/52/52 53/53/53 54/54/54
f 55/55/55 50/50/50 52/52/52
f 56/56/56 52/52/52 54/54/54
f 55/55/55 52/52/52 57/57/57
f 56/56/56 57/57/57 52/52/52
f 58/58/58 55/55/55 57/57/57
f 57/57/57 56/56/56 59/59/59
f 58/58/58 57/57/57 60/60/60
f 57/57/57 59/59/59 60/60/60
f 61/61/61 62/62/62 63/63/63
f 61/61/61 64/64/64 62/62/62
f 64/64/64 61/61/61 65/65/65
f 64/64/64 65/65/65 66/66/66
f 67/67/67 62/62/62 64/64/64
f 68/68/68 64/64/64 66/66/66
f 67/67/67 64/64/64 69/69/69
f 68/68/68 69/69/69 64/64/64
f 69/69/69 70/70/70 67/67/67
f 69/69/69 68/68/68 71/71/71
f 69/69/69 72/72/72 70/70/70
f 69/69/69 71/71/71 72/72/72
f 73/73/73 74/74/74 75/75/75
f 73/73/73 76/76/76 74/74/74
f 76/76/76 73/73/73 77/77/77
f 76/76/76 77/77/77 78/78/78
f 79/79/79 74/74/74 76/76/76
f 80/80/80 76/76/76 78/78/78
f 79/79/79 76/76/76 81/81/81
f 80/80/80 81/81/81 76/76/76
f 81/81/81 82/82/82 79/79/79
f 81/81/81 80/80/80 83/83/83
f 81/81/81 84/84/84 82/82/82
f 81/81/81 83/83/83 84/84/84
f 85/85/85 86/86/86 87/87/87
f 85/85/85 88/88/88 86/86/86
f 88/88/88 85/85/85 89/89/89
f 88/88/88 89/89/89 90/90/90
f 88/88/88 91/91/91 86/86/86
f 92/92/92 88/88/88 90/90/90
f 88/88/88 93/93/93 91/91/91
f 92/92/92 93/93/93 88/88/88
f 94/94/94 91/91/91 93/93/93
f 93/93/93 92/92/92 95/95/95
f 94/94/94 93/93/93 96/96/96
f 93/93/93 95/95/95 96/96/96
f 97/97/97 98/98/98 99/99/99
f 99/99/99 100/100/100 97/97/97
f 100/100/100 101/101/101 97/97/97
f 100/100/100 102/102/102 101/101/101
f 102/102/102 103/103/103 101/101/101
f 102/102/102 104/104/104 103/103/103
f 104/104/104 105/105/105 103/103/103
f 104/104/104 106/106/106 105/105/105
f 106/106/106 107/107/107 105/105/105
f 106/106/106 108/108/108 107/107/107
f 109/109/109 110/110/110 111/111/111
f 111/111/111 112/112/112 109/109/109
f 112/112/112 113/113/113 109/109/109
f 112/112/112 114/114/114 113/113/113
f 114/114/114 115/115/115 113/113/113
f 114/114/114 116/116/116 115/115/115
f 116/116/116 117/117/117 115/115/115
f 116/116/116 118/118/118 117/117/117
f 118/118/118 119/119/119 117/117/117
f 118/118/118 120/120/120 119/119/119
f 121/121/121 122/122/122 123/123/123
f 121/121/121 124/124/124 122/122/122
f 121/121/121 123/123/123 125/125/125
f 126/126/126 124/124/124 121/121/121
f 126/126/126 127/127/127 124/124/124
f 126/126/126 128/128/128 127/127/127
f 126/126/126 129/129/129 128/128/128
f 130/130/130 129/129/129 126/126/126
f 130/130/130 126/126/126 121/121/121
f 130/130/130 131/131/131 129/129/129
f 130/130/130 132/132/132 131/131/131
f 130/130/130 133/133/133 132/132/132
f 121/121/121 125/125/125 134/134/134
f 130/130/130 121/121/121 134/134/134
f 134/134/134 133/133/133 130/130/130
f 134/134/134 125/125/125 135/135/135
f 134/134/134 136/136/136 133/133/133
f 134/134/134 135/135/135 136/136/136
f 137/137/137 138/138/138 139/139/139
f 137/137/137 140/140/140 138/138/138
f 137/137/137 139/139/139 141/141/141
f 142/142/142 140/140/140 137/137/137
f 142/142/142 143/143/143 140/140/140
f 142/142/142 144/144/144 143/143/143
f 142/142/142 145/145/145 144/144/144
f 146/146/146 145/145/145 142/142/142
f 137/137/137 146/146/146 142/142/142
f 146/146/146 147/147/147 145/145/145
f 146/146/146 148/148/148 147/147/147
f 146/146/146 149/149/149 148/148/148
f 137/137/137 141/141/141 150/150/150
f 137/137/137 150/150/150 146/146/146
f 150/150/150 149/149/149 146/146/146
f 150/150/150 141/141/141 151/151/151
f 150/150/150 152/152/152 149/149/149
f 150/150/150 151/151/151 152/152/152
usemtl metal
f 153/153/153 154/154/154 155/155/155
f 153/153/153 155/155/155 156/156/156
f 157/157/157 158/158/158 159/159/159
f 157/157/157 159/159/159 160/160/160
f 161/161/161 162/162/162 163/163/163
f 161/161/161 163/163/163 164/164/164
f 165/165/165 166/166/166 167/167/167
f 165/165/165 167/167/167 168/168/168
f 169/169/169 170/170/170 171/171/171
f 169/169/169 171/171/171 172/172/172
f 173/173/173 174/174/174 175/175/175
f 173/173/173 175/175/175 176/176/176
